<?xml version="1.0" encoding="utf-8"?>
<!-- Generator: Adobe Illustrator 27.3.1, SVG Export Plug-In . SVG Version: 6.00 Build 0)  -->
<svg version="1.1" id="Layer_1" xmlns="http://www.w3.org/2000/svg" xmlns:xlink="http://www.w3.org/1999/xlink" x="0px" y="0px"
	 viewBox="0 0 69.2 85" style="enable-background:new 0 0 69.2 85;" xml:space="preserve">
<style type="text/css">
	.st0{fill:#FFFFFF;}
</style>
<path class="st0" d="M41,31.3c-0.1-0.2-0.3-0.3-0.5-0.3h-4.2L35,27c-0.1-0.3-0.3-0.4-0.6-0.3c-0.2,0-0.3,0.2-0.3,0.3l-1.3,4h-4.3
	c-0.3,0-0.5,0.2-0.5,0.5c0,0.2,0.1,0.3,0.2,0.4l3.5,2.5l-1.3,4.1c-0.1,0.2,0,0.5,0.3,0.6c0.2,0.1,0.3,0,0.5-0.1l3.4-2.5l3.5,2.5
	c0.2,0.1,0.4,0.1,0.6,0c0.2-0.1,0.2-0.3,0.2-0.5l-1.3-4.1l3.4-2.5C41,31.7,41.1,31.5,41,31.3L41,31.3z M34.8,35.5
	c-0.2-0.1-0.4-0.1-0.6,0l-2.5,1.8l1-3c0.1-0.2,0-0.4-0.2-0.5L30,31.9h3.1c0.2,0,0.4-0.1,0.5-0.3l1-3l1,3c0.1,0.2,0.3,0.3,0.5,0.3
	h3.1l-2.6,1.9c-0.2,0.1-0.2,0.3-0.2,0.5l1,3L34.8,35.5z"/>
<path class="st0" d="M23.6,43c-0.1-0.2-0.3-0.3-0.5-0.3h-4.3l-1.3-4c-0.1-0.3-0.3-0.4-0.6-0.3c-0.2,0-0.3,0.2-0.3,0.3l-1.3,4H11
	c-0.3,0-0.5,0.2-0.5,0.5c0,0.1,0.1,0.3,0.2,0.4l3.5,2.5l-1.3,4.1c-0.1,0.2,0,0.5,0.3,0.6c0.2,0.1,0.3,0,0.5-0.1l3.5-2.5l3.5,2.5
	c0.2,0.1,0.4,0.1,0.6,0s0.2-0.3,0.2-0.5l-1.3-4l3.4-2.6C23.5,43.3,23.6,43.1,23.6,43L23.6,43z M17.3,47.1c-0.2-0.1-0.4-0.1-0.6,0
	l-2.5,1.8l1-3c0-0.2,0-0.4-0.2-0.5l-2.5-1.8h3.1c0.2,0,0.4-0.1,0.5-0.3l1-3l1,3c0.1,0.2,0.3,0.3,0.5,0.3h3.1l-2.6,1.8
	c-0.2,0.1-0.2,0.3-0.2,0.5l1,3L17.3,47.1z"/>
<path class="st0" d="M45.8,43.5l3.4,2.5l-1.3,4.1c-0.1,0.2,0,0.4,0.2,0.5s0.4,0.1,0.6,0l3.4-2.5l3.4,2.5c0.2,0.2,0.5,0.2,0.7,0
	c0.1-0.1,0.1-0.3,0.1-0.5L55,46l3.4-2.5c0.2-0.2,0.3-0.5,0.1-0.7c-0.1-0.1-0.2-0.2-0.4-0.2h-4.3l-1.3-4c-0.1-0.3-0.3-0.4-0.6-0.3
	c-0.2,0-0.3,0.2-0.3,0.3l-1.3,4.1H46c-0.3,0-0.5,0.2-0.5,0.5C45.6,43.3,45.6,43.4,45.8,43.5L45.8,43.5z M49.3,49l1-3
	c0.1-0.2,0-0.4-0.2-0.5l-2.5-1.8h3.1c0.2,0,0.4-0.1,0.5-0.3l1-3l1,3c0.1,0.2,0.3,0.3,0.5,0.3h3.1l-2.6,1.9c-0.2,0-0.3,0.2-0.2,0.4
	l1,3l-2.5-1.8c-0.2-0.1-0.4-0.1-0.6,0L49.3,49z"/>
<path class="st0" d="M32.5,19.8c-0.1-0.2-0.3-0.3-0.5-0.2c-1.6,0.3-3.2-0.3-5.2-1.9c2.1-1.2,3.6-3.2,4.2-5.5
	c0.1-0.2-0.1-0.5-0.3-0.6c-0.8-0.3-1.7-0.4-2.6-0.5c0.4-0.8,0.6-1.6,0.7-2.4c0-0.2-0.1-0.5-0.3-0.5c-3.6-0.9-7.5,0.1-10.3,2.5
	c-1.1-0.8-2.3-1.3-3.6-1.6c-0.1-0.3-0.2-0.5-0.2-0.8c-0.4-1.6-0.8-3.1-2.2-4c-1.1-0.8-2.5-1-3.9-0.6C7.4,4,6.7,4.6,6.3,5.4
	C5,5.4,3.9,5.8,3,6.5C2.8,6.6,2.8,6.9,2.9,7.1C3,7.3,3.2,7.4,3.4,7.4c2-0.1,3.2,0.3,3.2,0.8c0,0.3-0.1,0.7-0.2,1
	c-0.9,2.2-0.8,4.7,0.3,6.8l0,0l0,0c1.2,2.2,3.1,3.9,5.5,4.8c0.8,0.3,1.6,0.5,2.4,0.7c-0.2,1.8-0.5,2.4-1.6,2.5
	c-0.5,0.1-1.1,0-1.5-0.2c-0.2-0.1-0.5,0-0.6,0.2s0,0.5,0.2,0.6c0.4,0.2,0.9,0.3,1.3,0.3h0.1c0.4,0,0.8,0,1.3,0h0.6
	c1.3-0.2,2.6-0.1,3.9,0.3c0.2,0.1,0.5,0,0.7-0.2c0.1-0.2,0-0.5-0.2-0.7l0,0c-0.6-0.3-1.3-0.4-2-0.5c0.1-0.1,0.1-0.1,0.2-0.2
	c0.6-0.6,1-1.2,1.4-1.9c1.2-0.1,2.3-0.3,3.4-0.7c1.5,0.8,3.3,1.3,5,1.3c2.1,0.1,4.2-0.6,5.8-2c0.2-0.2,0.2-0.4,0.1-0.6L32.5,19.8z
	 M27.6,9c-0.1,0.7-0.4,1.4-0.8,2c-1.4-0.1-2.8,0.1-4.1,0.7c-1.3,0.5-2.3,1.4-3,2.6c-0.9-0.1-1.7-0.3-2.5-0.8
	C18.9,9.7,24.3,8.2,27.6,9L27.6,9z M26.2,12c-1.3,1.5-3.2,2.3-5.2,2.4h-0.1c0.6-0.8,1.4-1.4,2.3-1.8C24.2,12.1,25.2,12,26.2,12
	L26.2,12z M16.5,12.8c-0.8-0.7-1.4-1.7-1.7-2.7c0.9,0.3,1.8,0.7,2.6,1.2C17,11.8,16.7,12.3,16.5,12.8L16.5,12.8z M4.5,6.6
	c1.4-0.4,3-0.3,4.3,0.3l0,0c0.7,0.4,1,0.4,1.3,0.2c0.2-0.1,0.4-0.4,0.4-0.7c0-0.5-0.4-0.8-0.8-0.8C9.4,5.7,9.1,5.8,9,6
	C8.5,5.7,7.9,5.5,7.3,5.5C7.6,5,8,4.8,8.5,4.6c1-0.3,2.1-0.1,3,0.5c1,0.7,1.4,1.9,1.8,3.4c0.1,0.5,0.3,1,0.5,1.6
	c0.8,3.2,3.8,5.4,7.1,5.2H21c2.6,0,4.9-1.2,6.4-3.3c0.8,0.1,1.6,0.2,2.4,0.4c-1,3.4-4.5,5.8-8.7,5.9c-5.8,0.2-9.9-2.8-11-8
	c0-0.1-0.1-0.3-0.2-0.3c-0.1-0.1-0.3-0.1-0.4,0c-1.2,0.3-2.2,1.1-2.8,2.1c0-0.9,0.2-1.8,0.5-2.6c0.2-0.4,0.3-0.9,0.3-1.4
	C7.5,7.3,6.3,6.6,4.5,6.6L4.5,6.6z M7.5,15.5c-0.4-0.9-0.4-1.9-0.1-2.8c0.4-0.8,1-1.4,1.9-1.8c0.7,3.2,2.9,5.8,5.8,7.1
	c-0.2,0.9-0.3,1.7-0.4,2.4c-0.7-0.1-1.5-0.3-2.2-0.6C10.4,19.1,8.6,17.6,7.5,15.5L7.5,15.5z M16.2,22.9c-0.3,0.3-0.7,0.5-1.1,0.7
	c0.3-0.8,0.5-1.7,0.6-2.6c0.1-0.7,0.2-1.6,0.4-2.5c0.7,0.2,1.4,0.4,2.1,0.5C17.8,20.5,17.2,21.8,16.2,22.9L16.2,22.9z M21.9,20.1
	c-0.1-0.1-0.3-0.1-0.4,0c-0.9,0.3-1.9,0.6-2.9,0.7c0.2-0.5,0.4-1,0.5-1.6c0.5,0.1,1,0.1,1.6,0.1h0.5c1.6,0,3.2-0.4,4.6-1.1
	c1.3,1.2,2.9,2.1,4.6,2.4C27.7,21.8,24.5,21.7,21.9,20.1L21.9,20.1z"/>
<path class="st0" d="M66.2,19.8c-0.1-0.2-0.3-0.3-0.5-0.2c-1.6,0.3-3.2-0.3-5.2-1.9c2.1-1.2,3.6-3.2,4.2-5.5
	c0.1-0.2-0.1-0.5-0.3-0.6c-0.8-0.3-1.7-0.4-2.6-0.5c0.4-0.8,0.6-1.6,0.7-2.4c0-0.2-0.1-0.5-0.3-0.5c-3.6-0.9-7.5,0.1-10.3,2.5
	c-1.1-0.8-2.3-1.3-3.6-1.6C48.1,8.8,48,8.6,48,8.3c-0.4-1.6-0.8-3.1-2.2-4c-1.1-0.8-2.5-1-3.8-0.6c-0.9,0.3-1.6,0.9-2,1.7
	c-1.1,0-2.3,0.4-3.2,1.1c-0.2,0.1-0.2,0.4-0.1,0.6c0.1,0.2,0.3,0.3,0.5,0.3c2-0.1,3.2,0.3,3.2,0.8c0,0.3-0.1,0.7-0.2,1
	c-0.6,1.5-0.8,3.2-0.4,4.9c0.2,0.7,0.4,1.4,0.7,2l0,0l0,0c1.2,2.2,3.1,3.9,5.5,4.8c0.8,0.3,1.6,0.5,2.5,0.6
	c-0.3,1.8-0.5,2.4-1.6,2.5c-0.5,0-1,0-1.5-0.2c-0.2-0.1-0.5,0-0.7,0.2c-0.1,0.2,0,0.5,0.2,0.7l0,0c0.4,0.2,0.8,0.3,1.3,0.3h0.1
	c0.4,0,0.8,0,1.2,0h0.6c1.3-0.2,2.6-0.1,3.9,0.3c0.2,0.1,0.5,0,0.7-0.2c0.1-0.2,0-0.5-0.2-0.7l0,0c-0.6-0.3-1.3-0.4-2-0.5
	c0.1-0.1,0.1-0.1,0.2-0.2c0.6-0.6,1-1.2,1.4-1.9c1.2,0,2.3-0.2,3.4-0.6c1.5,0.8,3.3,1.3,5,1.3c2.1,0.1,4.2-0.6,5.8-2
	C66.3,20.2,66.3,20,66.2,19.8L66.2,19.8z M61.4,9c-0.1,0.7-0.4,1.4-0.8,2c-1.4-0.1-2.8,0.1-4.1,0.7c-1.3,0.5-2.4,1.4-3.1,2.6
	c-0.9-0.1-1.7-0.3-2.5-0.8C52.6,9.7,58.1,8.2,61.4,9L61.4,9z M60,12c-1.3,1.5-3.2,2.3-5.2,2.4h-0.1c0.6-0.8,1.4-1.4,2.3-1.8
	C58,12.1,59,12,60,12L60,12z M50.2,12.8c-0.8-0.7-1.4-1.7-1.7-2.7c0.9,0.3,1.8,0.7,2.6,1.2C50.8,11.8,50.5,12.3,50.2,12.8z
	 M38.2,6.6c1.4-0.4,3-0.3,4.3,0.3l0,0c0.7,0.4,1,0.4,1.3,0.2c0.2,0,0.4-0.3,0.4-0.6c0-0.5-0.4-0.8-0.8-0.8c-0.2,0-0.5,0.1-0.6,0.3
	c-0.5-0.3-1.1-0.4-1.7-0.5c0.3-0.4,0.7-0.7,1.2-0.8c1-0.3,2.1-0.1,3,0.5c1,0.7,1.4,1.9,1.8,3.4c0.1,0.5,0.3,1,0.5,1.6
	c0.8,3.2,3.8,5.4,7.1,5.2h0.2c2.6,0,4.9-1.2,6.4-3.3c0.8,0.1,1.6,0.2,2.4,0.4c-1,3.4-4.5,5.8-8.7,5.9c-5.8,0.2-9.9-2.8-11-8
	c0-0.1-0.1-0.3-0.2-0.3c-0.1-0.1-0.3-0.1-0.4,0c-1.2,0.3-2.2,1.1-2.8,2.1c0-0.9,0.2-1.8,0.5-2.6c0.2-0.4,0.3-0.9,0.3-1.4
	C41.2,7.2,40.1,6.6,38.2,6.6L38.2,6.6z M41.3,15.5c-0.4-0.9-0.5-1.9-0.1-2.8c0.4-0.8,1-1.5,1.9-1.8c0.7,3.2,2.9,5.8,5.8,7.1
	c-0.2,0.9-0.3,1.7-0.4,2.4c-0.7-0.1-1.5-0.3-2.2-0.6C44.1,19.1,42.3,17.5,41.3,15.5L41.3,15.5z M49.9,22.9c-0.3,0.3-0.7,0.5-1.1,0.7
	c0.3-0.8,0.5-1.7,0.6-2.6c0.1-0.7,0.2-1.6,0.4-2.5c0.7,0.2,1.4,0.4,2.1,0.5C51.6,20.5,50.9,21.8,49.9,22.9L49.9,22.9z M55.7,20.1
	c-0.1-0.1-0.3-0.1-0.4,0c-0.9,0.3-1.9,0.6-2.9,0.7c0.2-0.5,0.4-1,0.5-1.6c0.5,0.1,1,0.1,1.6,0.1H55c1.6,0,3.2-0.4,4.6-1.1
	c1.3,1.2,2.9,2.1,4.6,2.4C61.5,21.8,58.3,21.7,55.7,20.1L55.7,20.1z"/>
<path class="st0" d="M0,0v34.4c0,20,12.5,38.4,34.3,50.4l0.3,0.2l0.3-0.2c21.8-12,34.3-30.4,34.3-50.4V0H0z M2.7,46.2L34.6,23
	l31.9,23.3c-1.3,5.1-3.5,9.9-6.3,14.3L34.6,41.8L9,60.5C6.2,56.1,4,51.2,2.7,46.2z M34.6,83.6c-10.8-6-19.3-13.6-25-22.2l25-18.2
	l25,18.2C53.9,70,45.4,77.6,34.6,83.6L34.6,83.6z M68,34.5c0,3.5-0.4,7-1.2,10.5L34.6,21.5L2.4,44.9C1.6,41.5,1.2,38,1.2,34.5V1.2
	H68V34.5z"/>
<path class="st0" d="M48.6,64.1c-0.1-0.2-0.2-0.3-0.4-0.3l0,0c-0.2,0-0.4,0.1-0.5,0.3c-0.9,2.2-2.7,3.3-6.8,5.8
	c-1.1,0.6-2.1,1.3-3,2.1c-0.8,0.6-1.4,1.3-2,2.1c-0.1-0.7-0.2-3.8-0.4-5.6c0.3,0.3,0.7,0.5,1.2,0.5c0.1,0,0.2,0,0.2,0
	c0.8-0.2,1.2-1.3,1.2-1.8c0-0.4,0-0.7-0.1-1.1c0.2,0.3,0.5,0.5,0.8,0.7c0.4,0.2,0.8,0.3,1.2,0.3s0.7-0.1,1-0.3
	c0.5-0.6,0.6-1.4,0.3-2.2c-0.2-0.3-0.4-0.6-0.6-0.9c0.4,0.1,0.7,0.2,1.1,0.3c0.4,0,1.6-0.3,1.9-1s-0.4-1.8-0.7-2s-0.6-0.4-1-0.5
	c0.4,0,0.7-0.1,1.1-0.3c0.4-0.2,1.3-1,1.2-1.8s-1.2-1.3-1.6-1.4c-0.4-0.1-0.7-0.1-1.1,0c0.3-0.2,0.6-0.4,0.8-0.7
	c0.4-0.6,0.5-1.4,0.2-2.1c-0.4-0.4-1-0.7-1.6-0.7c-0.2,0-0.4,0-0.5,0.1c-0.4,0.1-0.7,0.3-1,0.5c0.2-0.3,0.3-0.6,0.4-1
	c0.1-0.8-0.2-1.5-0.8-2c-0.7-0.2-1.5,0-2.1,0.5c-0.3,0.3-0.5,0.6-0.6,0.9c0-0.4,0-0.7-0.1-1.1C36.2,51,35.5,50,34.7,50
	s-1.5,0.9-1.6,1.4C33,51.8,33,52.1,33,52.5c-0.2-0.3-0.4-0.6-0.6-0.9c-0.6-0.5-1.4-0.7-2.1-0.5c-0.6,0.5-0.9,1.2-0.8,2
	c0.1,0.4,0.2,0.7,0.4,1c-0.3-0.2-0.6-0.4-1-0.5c-0.2,0-0.4-0.1-0.5-0.1c-0.6,0-1.1,0.2-1.5,0.6c-0.3,0.7-0.2,1.5,0.2,2.1
	c0.2,0.3,0.5,0.5,0.8,0.7c-0.4-0.1-0.7-0.1-1.1,0s-1.5,0.7-1.6,1.4s0.8,1.6,1.2,1.8c0.4,0.2,0.7,0.3,1.1,0.3c-0.4,0.1-0.7,0.3-1,0.5
	c-0.6,0.5-0.9,1.3-0.7,2c0.3,0.7,1.3,1,1.9,1l0,0c0.4,0,0.7-0.1,1.1-0.3c-0.3,0.3-0.5,0.6-0.6,0.9c-0.3,0.7-0.2,1.5,0.3,2.1
	c0.3,0.2,0.6,0.3,1,0.3s0.8-0.1,1.2-0.3c0.3-0.2,0.6-0.4,0.8-0.7c-0.1,0.4-0.1,0.7-0.1,1.1s0.5,1.6,1.2,1.8c0.5,0.1,1-0.1,1.4-0.4
	c-0.2,1.9-0.3,5-0.4,5.6c-0.5-0.8-1.2-1.5-2-2.1c-0.9-0.8-1.9-1.5-3-2.1c-4.1-2.5-5.8-3.6-6.8-5.8c-0.1-0.2-0.3-0.3-0.5-0.3l0,0
	c-0.2,0-0.4,0.2-0.4,0.3c-1.2,3.9,0.7,7.2,5.7,10l1.1,0.6l0.2,0.1c1.3,0.7,2.6,1.4,3.8,2.3c1.3,1.1,2.2,2.5,2.8,4.1
	c0.1,0.2,0.2,0.3,0.4,0.3l0,0c0.2,0,0.3-0.1,0.4-0.3c0.5-1.6,1.5-3,2.8-4.1c1.2-0.9,2.4-1.6,3.8-2.3l0.2-0.1l1.1-0.6
	C47.8,71.2,49.7,68,48.6,64.1L48.6,64.1z M36.7,68L36.7,68c-0.3-0.1-0.6-0.3-0.8-0.6c-0.4-1.3-0.7-2.6-0.8-4L35,62.6
	c0.3,0,0.5-0.1,0.8-0.2v0.1c0.8,2,1.5,3.8,1.4,4.6C37.1,67.4,37,67.7,36.7,68L36.7,68z M40.4,66L40.4,66c-0.1,0-0.2,0.1-0.3,0.1
	c-0.3,0-0.5,0-0.7-0.2c-1-0.9-1.8-2-2.5-3.2L36.4,62c0.2-0.2,0.4-0.3,0.6-0.5l0,0c1.7,1.5,3.2,2.8,3.4,3.4
	C40.5,65.3,40.5,65.6,40.4,66L40.4,66z M42.3,61.7c0.2,0.2,0.4,0.6,0.5,0.9l0,0c-0.3,0.2-0.6,0.4-0.9,0.4l0,0
	c-1.3-0.4-2.5-0.9-3.7-1.6L37.4,61c0.1-0.2,0.2-0.5,0.3-0.7h0.1C39.9,60.7,41.8,61.2,42.3,61.7L42.3,61.7z M42.5,57.9
	c0.3,0.1,0.6,0.3,0.8,0.6l0,0c-0.1,0.3-0.4,0.6-0.7,0.8c-1.3,0.3-2.7,0.4-4.1,0.3h-0.8l0,0c0-0.3,0-0.5-0.1-0.8h0.1
	C39.9,58.3,41.7,57.8,42.5,57.9L42.5,57.9z M40.8,54.5c0.1,0,0.2,0,0.3,0c0.3,0,0.5,0,0.8,0.2l0,0c0,0.3,0,0.7-0.2,1
	c-1.1,0.9-2.2,1.6-3.5,2.1l-0.7,0.4c-0.1-0.2-0.3-0.5-0.5-0.7l0.1-0.1C38.1,56.3,39.4,55.3,40.8,54.5z M35.8,56.5
	c0.8-2,1.4-3.8,1.9-4.3c0.3-0.2,0.6-0.3,0.9-0.4h0.1c0.2,0.3,0.3,0.6,0.3,1c-0.5,1.2-1.2,2.4-2.1,3.5L36.4,57
	C36.2,56.9,35.9,56.7,35.8,56.5L35.8,56.5L35.8,56.5z M33.9,51.6c0.1-0.2,0.5-0.7,0.7-0.7l0,0c0.2,0,0.6,0.5,0.7,0.8
	c0.1,1.4,0,2.7-0.2,4.1l0,0L35,56.5c-0.1,0-0.3,0-0.4,0c-0.1,0-0.3,0-0.4,0l0,0C33.9,54.3,33.7,52.3,33.9,51.6L33.9,51.6z
	 M34.6,57.5c1.2,0,2.1,1,2.1,2.1c0,1.2-1,2.1-2.1,2.1c-1.2,0-2.1-0.9-2.1-2.1C32.5,58.4,33.5,57.5,34.6,57.5z M30.6,51.9h0.1
	c0.3,0,0.6,0.2,0.9,0.3c0.7,1.2,1.3,2.4,1.7,3.7l0.3,0.8c-0.2,0.1-0.5,0.2-0.7,0.4V57c-1.3-1.8-2.4-3.4-2.5-4.1
	C30.3,52.6,30.4,52.2,30.6,51.9L30.6,51.9z M27.7,55.7c-0.2-0.3-0.3-0.7-0.2-1l0,0c0.2-0.1,0.5-0.2,0.8-0.2c0.1,0,0.2,0,0.3,0
	c1.2,0.7,2.3,1.5,3.2,2.5l0.6,0.5c-0.2,0.2-0.3,0.4-0.4,0.7h-0.1C29.8,57.2,28.1,56.3,27.7,55.7L27.7,55.7z M26.7,59.3
	c-0.3-0.2-0.5-0.4-0.7-0.8l0,0c0.2-0.3,0.5-0.5,0.8-0.6c0.1,0,0.2,0,0.3,0c1.3,0.1,2.5,0.4,3.8,0.7l0.8,0.2
	c-0.1,0.2-0.1,0.5-0.1,0.8l0,0h-1.3C29.1,59.7,27.9,59.6,26.7,59.3L26.7,59.3z M27.5,63L27.5,63c-0.3,0-0.7-0.2-0.9-0.4l0,0
	c0-0.3,0.2-0.7,0.5-0.9c1.2-0.6,2.5-1,3.8-1.3l0.8-0.2c0.1,0.3,0.2,0.5,0.3,0.7L31.8,61C30.4,61.9,29,62.6,27.5,63L27.5,63z
	 M29.9,66c-0.2,0.1-0.5,0.2-0.7,0.2c-0.1,0-0.2,0-0.3,0l0,0c-0.1-0.3-0.1-0.7,0-1c0.8-1.1,1.8-2,2.8-2.8l0.7-0.6
	c0.2,0.2,0.4,0.4,0.6,0.5l-0.1,0.1C31.7,64.1,30.6,65.7,29.9,66L29.9,66z M32.6,68L32.6,68c-0.3-0.2-0.4-0.5-0.5-0.9
	c0.2-1.3,0.6-2.6,1.2-3.9l0.3-0.8c0.2,0.1,0.5,0.2,0.8,0.2v0.1c-0.3,2.2-0.5,4.1-0.9,4.7C33.3,67.7,33,67.9,32.6,68L32.6,68z
	 M42.3,73.2L41,73.9c-1.4,0.7-2.7,1.5-3.9,2.4c-1.1,0.9-2,2.1-2.6,3.4c-0.6-1.3-1.5-2.5-2.6-3.4c-1.2-0.9-2.5-1.7-3.9-2.4l-1.3-0.7
	c-4-2.3-5.8-4.8-5.5-7.6c1.2,1.9,3.3,3.1,6.5,5c1.2,0.7,2.3,1.5,3.4,2.4c0.9,0.8,1.5,1.8,2,2.8c0.1,0.4,0.3,0.5,0.5,0.5
	s0.4-0.1,0.4-0.5c0.1-1.1,0.4-5.9,0.5-7.4c0.1,1.5,0.4,6.3,0.5,7.4c0,0.4,0.2,0.5,0.4,0.5s0.3-0.1,0.5-0.5c0.5-1.1,1.1-2,2-2.8
	c1-0.9,2.1-1.7,3.4-2.4c3.2-1.9,5.3-3.2,6.5-5C48.2,68.5,46.3,71,42.3,73.2z"/>
</svg>
