<?xml version="1.0" encoding="utf-8"?>
<!-- Generator: Adobe Illustrator 20.1.0, SVG Export Plug-In . SVG Version: 6.00 Build 0)  -->
<svg version="1.1" id="Layer_1" xmlns="http://www.w3.org/2000/svg" xmlns:xlink="http://www.w3.org/1999/xlink" x="0px" y="0px"
	 viewBox="0 0 234.3 85.2" style="enable-background:new 0 0 234.3 85.2;" xml:space="preserve">
<style type="text/css">
	.st0{fill:#C0C0C0;}
</style>
<title>Artboard 1</title>
<path class="st0" d="M41,31.5c-0.1-0.2-0.3-0.3-0.5-0.3h-4.2l-1.3-4c0-0.2-0.3-0.4-0.5-0.3c0,0-0.1,0-0.1,0c-0.2,0-0.3,0.1-0.3,0.3
	l-1.3,4h-4.3c-0.3,0-0.5,0.2-0.5,0.4c0,0,0,0,0,0.1c0,0.2,0.1,0.3,0.2,0.4l3.5,2.5l-1.3,4.1c-0.1,0.2,0,0.5,0.3,0.6c0,0,0,0,0,0
	c0.2,0.1,0.3,0,0.5-0.1l3.4-2.5l3.5,2.5c0.2,0.1,0.4,0.1,0.6,0c0.2-0.1,0.2-0.3,0.2-0.5l-1.3-4.1l3.4-2.5C41,31.9,41.1,31.7,41,31.5
	z M34.8,35.7c-0.2-0.1-0.4-0.1-0.6,0l-2.5,1.8l1-3c0.1-0.2,0-0.4-0.2-0.5c0,0,0,0,0,0L30,32.1h3.1c0.2,0,0.4-0.1,0.5-0.3l1-3l1,3
	c0.1,0.2,0.3,0.3,0.5,0.3h3.1L36.6,34c-0.2,0.1-0.2,0.3-0.2,0.5l1,3L34.8,35.7z"/>
<path class="st0" d="M23.6,43.2c-0.1-0.2-0.3-0.3-0.5-0.3h-4.3l-1.3-4c0-0.2-0.3-0.4-0.5-0.3c0,0-0.1,0-0.1,0
	c-0.2,0-0.3,0.1-0.3,0.3l-1.3,4H11c-0.3,0-0.5,0.2-0.5,0.4c0,0,0,0,0,0.1c0,0.2,0.1,0.3,0.2,0.4l3.5,2.5l-1.3,4.1
	c-0.1,0.2,0,0.5,0.3,0.6c0,0,0,0,0,0c0.2,0.1,0.3,0,0.5-0.1l3.5-2.5l3.5,2.5c0.2,0.1,0.4,0.1,0.6,0c0.2-0.1,0.2-0.3,0.2-0.5l-1.3-4
	l3.4-2.6C23.5,43.6,23.5,43.4,23.6,43.2z M17.3,47.3c-0.2-0.1-0.4-0.1-0.6,0l-2.5,1.8l1-3c0-0.2,0-0.4-0.2-0.5l-2.5-1.8h3.1
	c0.2,0,0.4-0.1,0.5-0.3l1-3l1,3c0.1,0.2,0.3,0.3,0.5,0.3h3.1l-2.6,1.8c-0.2,0.1-0.2,0.3-0.2,0.5l1,3L17.3,47.3z"/>
<path class="st0" d="M45.8,43.7l3.4,2.5l-1.3,4.1c-0.1,0.2,0,0.4,0.2,0.5c0,0,0,0,0,0c0.2,0.1,0.4,0.1,0.6,0l3.4-2.5l3.4,2.5
	c0.2,0.2,0.5,0.2,0.7,0c0,0,0,0,0,0c0.1-0.1,0.1-0.3,0.1-0.5L55,46.2l3.4-2.5c0.2-0.2,0.3-0.5,0.1-0.7c0,0,0,0,0,0
	c-0.1-0.1-0.2-0.2-0.4-0.2h-4.3l-1.3-4c0-0.2-0.3-0.4-0.5-0.3c0,0-0.1,0-0.1,0c-0.2,0-0.3,0.1-0.3,0.3l-1.3,4.1H46
	c-0.3,0-0.5,0.2-0.5,0.4c0,0,0,0,0,0.1C45.6,43.5,45.6,43.6,45.8,43.7z M49.3,49.2l1-3c0.1-0.2,0-0.4-0.2-0.5c0,0,0,0,0,0l-2.5-1.8
	h3.1c0.2,0,0.4-0.1,0.5-0.3l1-3l1,3c0.1,0.2,0.3,0.3,0.5,0.3h3.1l-2.6,1.9c-0.2,0-0.3,0.2-0.2,0.4l1,3l-2.5-1.8
	c-0.2-0.1-0.4-0.1-0.6,0L49.3,49.2z"/>
<path class="st0" d="M94.1,60.1c-0.8,0.4-1.6,0.8-2.4,1c-0.8,0.3-1.7,0.4-2.6,0.4c-1,0-2-0.2-2.9-0.5c-1.7-0.6-3-1.9-3.6-3.6
	c-0.3-0.9-0.5-1.8-0.5-2.8c0-1,0.1-1.9,0.5-2.8c0.3-0.8,0.7-1.6,1.3-2.2c0.6-0.6,1.3-1.1,2.1-1.5c0.9-0.4,1.9-0.5,2.9-0.5
	c0.9,0,1.8,0.2,2.6,0.4c0.8,0.2,1.6,0.6,2.4,1l0.8-1.6c-0.8-0.4-1.6-0.8-2.4-1.1c-2.2-0.7-4.6-0.6-6.7,0.2c-1.1,0.4-2,1-2.8,1.8
	c-0.8,0.8-1.4,1.8-1.9,2.8c-0.5,1.1-0.7,2.2-0.7,3.4c0,1.2,0.2,2.4,0.7,3.5c0.4,1,1.1,2,1.9,2.8c0.8,0.8,1.8,1.4,2.8,1.8
	c1.1,0.4,2.4,0.7,3.6,0.6c1.1,0,2.1-0.2,3.1-0.5c0.8-0.3,1.6-0.7,2.4-1.1C94.7,61.6,94.1,60.1,94.1,60.1z M110.7,57.4
	c-0.3,0.8-0.7,1.6-1.3,2.3c-1.2,1.3-2.9,2-4.6,2c-1.8,0.1-3.5-0.7-4.6-2c-0.6-0.6-1-1.4-1.3-2.2c-0.6-1.8-0.6-3.8,0-5.6
	c0.3-0.8,0.7-1.6,1.3-2.2c0.6-0.6,1.3-1.1,2-1.5c0.8-0.4,1.7-0.6,2.6-0.5c1.7,0,3.4,0.7,4.6,2c0.6,0.6,1,1.4,1.3,2.2
	C111.4,53.7,111.4,55.6,110.7,57.4 M112.6,51.1c-0.4-1-1-2-1.8-2.7c-0.8-0.8-1.7-1.4-2.7-1.8c-1-0.4-2.1-0.7-3.2-0.7
	c-1.1,0-2.2,0.2-3.2,0.7c-1,0.4-1.9,1-2.7,1.8c-1.7,1.7-2.6,3.9-2.6,6.3c0,2.3,0.9,4.6,2.5,6.3c0.8,0.8,1.7,1.4,2.7,1.8
	c1,0.4,2.1,0.6,3.2,0.6c2.2,0,4.4-0.9,6-2.4c0.8-0.8,1.4-1.8,1.9-2.8c0.5-1.1,0.7-2.3,0.7-3.5C113.3,53.5,113,52.3,112.6,51.1
	 M126.8,63v-1.6h-8V46.2H117V63H126.8z M139.5,63v-1.6h-8V46.2h-1.8V63H139.5z M152.2,63v-1.6h-8v-6.1h7.2v-1.6h-7.2v-5.8h8v-1.7
	h-9.9V63H152.2z M163.8,54.7v1.7h4.5v4.1c-0.6,0.4-1.3,0.7-2,0.9c-0.7,0.2-1.5,0.3-2.3,0.3c-1,0-1.9-0.2-2.8-0.5
	c-0.9-0.3-1.6-0.8-2.3-1.4c-0.6-0.7-1.1-1.4-1.5-2.2c-0.4-0.9-0.6-1.8-0.6-2.8c0-0.9,0.2-1.8,0.5-2.7c0.6-1.7,1.8-3.1,3.4-3.9
	c0.9-0.4,1.9-0.6,2.9-0.6c1,0,1.9,0.2,2.8,0.5c0.9,0.3,1.8,0.8,2.6,1.3l1-1.4c-0.4-0.3-0.9-0.6-1.4-0.8c-0.4-0.3-0.9-0.5-1.4-0.6
	c-0.5-0.2-1.1-0.3-1.6-0.4c-0.6-0.1-1.3-0.1-1.9-0.1c-1.1,0-2.2,0.2-3.2,0.6c-1,0.4-2,1-2.8,1.8c-0.8,0.8-1.5,1.7-2,2.7
	c-0.5,1.1-0.8,2.4-0.8,3.6c0,1.2,0.2,2.5,0.8,3.6c0.5,1,1.2,1.9,2,2.7c0.8,0.8,1.8,1.4,2.9,1.8c1.1,0.4,2.2,0.6,3.4,0.6
	c1.2,0,2.3-0.2,3.4-0.5c1-0.3,2-0.8,2.8-1.5v-6.7L163.8,54.7L163.8,54.7z M184.1,63v-1.6h-8v-6.1h7.2v-1.6h-7.2v-5.8h8v-1.7h-9.9V63
	H184.1z"/>
<path class="st0" d="M92.5,40.1v-1.7h-8V23.3h-1.9v16.8H92.5z M105.3,33.9h-6.2l3.1-7.2L105.3,33.9z M110,40.1L102.3,23H102
	l-7.6,17.1h1.9l2-4.7h7.5l2,4.7H110z M124.3,34.3c-0.3,0.8-0.7,1.6-1.3,2.3c-0.6,0.7-1.4,1.2-2.3,1.5c-1,0.4-2.1,0.6-3.2,0.6h-1.7
	c-0.4,0-0.8-0.1-1.2-0.2V24.9c0.4-0.1,0.8-0.1,1.2-0.1h1.5c1.1,0,2.2,0.2,3.2,0.5c0.9,0.3,1.6,0.8,2.3,1.4c0.6,0.6,1.1,1.4,1.4,2.2
	c0.3,0.9,0.5,1.8,0.5,2.7C124.7,32.5,124.5,33.4,124.3,34.3 M126.1,28.4c-0.4-1-1-2-1.8-2.8c-0.9-0.8-1.9-1.5-3-1.9
	c-1.3-0.5-2.8-0.7-4.2-0.7c-0.8,0-1.6,0-2.4,0.1c-0.8,0.1-1.4,0.1-2,0.2v16.6c0.7,0.1,1.4,0.1,2.1,0.2c0.8,0.1,1.6,0.1,2.4,0.1
	c1.4,0,2.9-0.2,4.2-0.7c1.1-0.4,2.1-1.1,3-1.9c0.8-0.8,1.4-1.7,1.8-2.8c0.4-1.1,0.6-2.2,0.6-3.3C126.8,30.4,126.6,29.4,126.1,28.4
	 M132.3,23.3h-1.8v16.8h1.8V23.3z M146.6,40.1v-1.7h-8v-6.1h7.2v-1.7h-7.2v-5.8h8v-1.6h-9.9V40L146.6,40.1L146.6,40.1z M159.2,34
	c-0.1-0.4-0.4-0.9-0.7-1.2c-0.4-0.4-0.9-0.8-1.4-1.1c-0.7-0.4-1.4-0.8-2.2-1.1c-0.8-0.3-1.6-0.8-2.2-1.4c-0.4-0.4-0.7-1-0.7-1.6
	c0-0.4,0.1-0.7,0.2-1.1c0.1-0.3,0.3-0.7,0.6-0.9c0.3-0.3,0.6-0.5,1-0.6c0.4-0.2,0.9-0.2,1.4-0.2c0.5,0,1.1,0.1,1.6,0.3
	c0.5,0.2,1,0.4,1.4,0.8l0.8-1.6c-0.5-0.4-1.1-0.6-1.7-0.8c-0.6-0.2-1.3-0.3-2-0.3c-0.7,0-1.4,0.1-2.1,0.4c-0.6,0.2-1.1,0.6-1.6,1
	c-0.4,0.4-0.8,0.9-1,1.5c-0.2,0.6-0.4,1.2-0.4,1.8c0,0.5,0.1,0.9,0.2,1.4c0.2,0.4,0.4,0.8,0.7,1.2c0.3,0.4,0.7,0.8,1.1,1.1
	c0.6,0.4,1.2,0.7,1.9,1c0.6,0.3,1.2,0.6,1.7,0.9c0.4,0.2,0.7,0.5,1,0.8c0.2,0.3,0.4,0.6,0.5,0.9c0.1,0.3,0.1,0.7,0.1,1
	c0,0.4-0.1,0.7-0.2,1.1c-0.1,0.4-0.3,0.7-0.6,0.9c-0.3,0.3-0.6,0.5-1,0.7c-0.4,0.2-0.9,0.2-1.4,0.2c-0.7,0-1.4-0.1-2-0.4
	c-0.7-0.3-1.4-0.6-2-1.1l-0.9,1.6c0.7,0.5,1.5,0.9,2.3,1.2c0.8,0.3,1.7,0.4,2.6,0.4c0.7,0,1.4-0.1,2-0.4c0.6-0.2,1.1-0.6,1.6-1
	c0.5-0.4,0.8-0.9,1.1-1.5c0.3-0.6,0.4-1.2,0.4-1.9C159.4,35.3,159.4,34.6,159.2,34 M164,23.4c-0.2-0.3-0.6-0.4-0.9-0.4
	c-0.6,0-1.1,0.5-1.1,1.1c0,0.3,0.1,0.6,0.3,0.8c0.2,0.2,0.6,0.4,0.9,0.4c-0.1,0.4-0.3,0.8-0.5,1.1c-0.3,0.4-0.6,0.8-1,1.2l0.2,0.4
	c0.4-0.2,0.8-0.5,1.1-0.8c0.3-0.3,0.5-0.6,0.7-0.9c0.2-0.3,0.3-0.6,0.4-0.9c0.1-0.3,0.1-0.6,0.1-0.9C164.3,24.1,164.2,23.7,164,23.4
	"/>
<path class="st0" d="M94.1,14.3c-0.8,0.4-1.6,0.8-2.4,1c-0.8,0.3-1.7,0.4-2.6,0.4c-1,0-1.9-0.1-2.8-0.5c-1.7-0.7-3-2-3.6-3.7
	c-0.3-0.9-0.5-1.8-0.5-2.8c0-1,0.1-1.9,0.5-2.8C83,5.1,83.4,4.3,84,3.7c0.6-0.6,1.3-1.1,2.1-1.5C87,1.8,88,1.7,89,1.7
	c0.9,0,1.8,0.1,2.6,0.4c0.8,0.2,1.6,0.6,2.4,1l0.8-1.6C94,1,93.2,0.7,92.3,0.4c-2.2-0.7-4.6-0.7-6.7,0.2c-1.1,0.4-2,1-2.8,1.8
	c-0.8,0.8-1.4,1.8-1.9,2.8c-0.5,1.1-0.7,2.2-0.7,3.4c0,1.2,0.2,2.4,0.7,3.5c0.4,1,1.1,2,1.9,2.8c0.8,0.8,1.8,1.4,2.8,1.8
	c1.1,0.4,2.4,0.7,3.6,0.6c1.1,0,2.1-0.2,3.1-0.5c0.8-0.3,1.6-0.7,2.4-1.1C94.7,15.7,94.1,14.3,94.1,14.3z M110.4,17.1V0.3h-1.8v7.5
	h-9V0.3h-1.8v16.8h1.8V9.4h9v7.7L110.4,17.1z M124.8,17.1v-1.7h-8v-6h7.2V7.8h-7.2V2h8V0.3h-9.9v16.8H124.8z M138.1,17.1v-1.7h-8
	V0.3h-1.9v16.8H138.1z M150.6,2V0.3h-13.1V2h5.6v15.2h1.8V2H150.6z M163.4,17.1v-1.7h-8v-6h7.2V7.8h-7.2V2h8V0.3h-9.9v16.8H163.4z
	 M180,17.4V0.3h-1.9v12.5L167.3,0L167,0.1v17h1.8V4.4l11,13.1L180,17.4L180,17.4z M197.1,17.1V0.3h-1.8v7.5h-9V0.3h-1.8v16.8h1.8
	V9.4h9v7.7L197.1,17.1z M210.6,10.9h-6.2l3.1-7.2L210.6,10.9z M215.3,17.1L207.7,0h-0.3l-7.6,17.1h1.9l2-4.7h7.6l2,4.7H215.3z
	 M234.3,17.1L233.7,0h-0.4l-7.1,12.6L218.8,0h-0.3l-0.6,17.1h1.9L220,5.2l6,10.2h0.2l6-10.2l0.2,11.9L234.3,17.1z"/>
<path class="st0" d="M32.5,20c-0.1-0.2-0.3-0.3-0.5-0.2c0,0,0,0,0,0c-1.6,0.3-3.2-0.3-5.2-1.9c2.1-1.2,3.6-3.2,4.2-5.5
	c0.1-0.2-0.1-0.5-0.3-0.6c-0.8-0.3-1.7-0.4-2.6-0.5c0.4-0.8,0.6-1.6,0.7-2.4c0-0.2-0.1-0.5-0.3-0.5c-3.6-0.9-7.5,0.1-10.3,2.5
	c-1.1-0.8-2.3-1.3-3.6-1.6c-0.1-0.3-0.2-0.5-0.2-0.8c-0.4-1.6-0.8-3.1-2.2-4c-1.1-0.8-2.6-1-3.9-0.6c-0.9,0.3-1.6,0.9-2,1.7
	C5.1,5.6,3.9,6,3,6.7C2.8,6.8,2.8,7.1,2.9,7.3C3,7.5,3.2,7.6,3.4,7.6c2-0.1,3.2,0.3,3.2,0.8c0,0.3-0.1,0.7-0.2,1
	c-0.9,2.2-0.8,4.7,0.3,6.8l0,0c1.2,2.2,3.1,3.9,5.5,4.8c0.8,0.3,1.6,0.5,2.4,0.7c-0.2,1.8-0.5,2.4-1.6,2.5c-0.5,0.1-1,0-1.5-0.2
	c-0.2-0.1-0.5,0-0.6,0.3c-0.1,0.2,0,0.4,0.2,0.5c0.4,0.2,0.8,0.3,1.3,0.3h2c1.3-0.2,2.6-0.1,3.9,0.3c0.2,0.1,0.6,0,0.7-0.2
	c0.1-0.2,0-0.6-0.2-0.7l0,0c-0.6-0.3-1.3-0.4-2-0.5l0.2-0.2c0.6-0.6,1-1.2,1.4-1.9c1.2-0.1,2.3-0.3,3.4-0.7c1.5,0.8,3.3,1.3,5,1.3
	c2.1,0.1,4.2-0.6,5.8-2c0.2-0.1,0.2-0.4,0.1-0.6L32.5,20z M27.6,9.2c-0.1,0.7-0.4,1.4-0.8,2c-1.4-0.1-2.8,0.1-4.1,0.7
	c-1.3,0.5-2.3,1.4-3,2.6c-0.9-0.1-1.7-0.3-2.5-0.8C18.9,9.9,24.3,8.4,27.6,9.2z M26.2,12.2c-1.3,1.5-3.2,2.3-5.2,2.4h-0.1
	c0.6-0.8,1.4-1.4,2.3-1.8C24.1,12.4,25.2,12.2,26.2,12.2z M16.5,13c-0.8-0.7-1.4-1.7-1.7-2.7c0.9,0.3,1.8,0.7,2.6,1.2
	C17,12,16.7,12.5,16.5,13z M4.5,6.8c1.4-0.4,2.9-0.3,4.3,0.3l0,0c0.7,0.4,1,0.4,1.3,0.2c0.2-0.1,0.4-0.4,0.4-0.7
	c0-0.4-0.3-0.8-0.8-0.8c0,0,0,0,0,0C9.4,5.9,9.1,6,9,6.2C8.5,5.9,7.9,5.7,7.3,5.7C7.6,5.3,8,4.9,8.5,4.8c1-0.3,2.1-0.1,3,0.5
	c1,0.7,1.4,1.9,1.8,3.4c0.1,0.5,0.3,1.1,0.5,1.6c0.8,3.2,3.8,5.4,7.1,5.2H21c2.5,0,4.9-1.2,6.4-3.3c0.8,0.1,1.6,0.2,2.4,0.4
	c-1,3.4-4.5,5.8-8.7,5.9c-5.8,0.2-9.9-2.8-11-8c0-0.1-0.1-0.3-0.2-0.3c-0.1-0.1-0.3-0.1-0.4,0c-1.2,0.3-2.2,1.1-2.8,2.1
	c0-0.9,0.2-1.8,0.5-2.6c0.2-0.4,0.3-0.9,0.3-1.4C7.5,7.5,6.3,6.8,4.5,6.8z M7.5,15.7c-0.4-0.9-0.4-1.9-0.1-2.8
	c0.4-0.8,1.1-1.4,1.9-1.8c0.7,3.2,2.9,5.8,5.8,7.1c-0.2,0.9-0.3,1.7-0.4,2.4c-0.8-0.1-1.5-0.3-2.2-0.6C10.3,19.3,8.5,17.7,7.5,15.7z
	 M16.2,23.1c-0.3,0.3-0.7,0.5-1.1,0.7c0.3-0.8,0.5-1.7,0.6-2.6c0.1-0.7,0.2-1.6,0.4-2.5c0.7,0.2,1.4,0.4,2.1,0.5
	C17.9,20.6,17.2,22,16.2,23.1z M21.9,20.3c-0.1-0.1-0.3-0.1-0.4,0c-0.9,0.3-1.9,0.6-2.9,0.7c0.2-0.5,0.4-1,0.5-1.6
	c0.5,0.1,1.1,0.1,1.6,0.1h0.5c1.6,0,3.2-0.4,4.6-1.1c1.3,1.2,2.9,2.1,4.6,2.4C27.7,22,24.5,21.9,21.9,20.3z"/>
<path class="st0" d="M66.2,20c-0.1-0.2-0.3-0.3-0.5-0.2c0,0,0,0,0,0c-1.6,0.3-3.2-0.3-5.2-1.9c2.1-1.2,3.6-3.2,4.2-5.5
	c0.1-0.2-0.1-0.5-0.3-0.6c-0.8-0.3-1.7-0.4-2.6-0.5c0.4-0.8,0.6-1.6,0.7-2.4c0-0.2-0.1-0.5-0.3-0.5c-3.6-0.9-7.5,0.1-10.3,2.5
	c-1.1-0.8-2.3-1.3-3.6-1.6C48.1,9.1,48,8.8,48,8.5c-0.4-1.6-0.8-3.1-2.2-4c-1.1-0.8-2.5-1-3.8-0.6c-0.9,0.3-1.6,0.9-2,1.7
	c-1.2,0-2.3,0.4-3.2,1.1c-0.2,0.1-0.2,0.4-0.1,0.6c0.1,0.2,0.3,0.3,0.5,0.3c2-0.1,3.2,0.3,3.2,0.8c0,0.3-0.1,0.7-0.2,1
	c-0.6,1.6-0.8,3.3-0.4,4.9c0.2,0.7,0.4,1.4,0.7,2l0,0c1.2,2.2,3.1,3.9,5.5,4.8c0.8,0.3,1.6,0.5,2.5,0.6c-0.3,1.8-0.5,2.4-1.6,2.5
	c-0.5,0-1,0-1.5-0.2c-0.2-0.1-0.6,0-0.7,0.2c-0.1,0.2,0,0.6,0.2,0.7l0,0c0.4,0.2,0.8,0.3,1.3,0.3h1.9c1.3-0.2,2.6-0.1,3.9,0.3
	c0.2,0.1,0.6,0,0.7-0.2c0.1-0.2,0-0.6-0.2-0.7l0,0l0,0c-0.6-0.3-1.3-0.4-2-0.5l0.2-0.2c0.6-0.6,1-1.2,1.4-1.9c1.2,0,2.3-0.2,3.4-0.6
	c1.5,0.8,3.3,1.3,5,1.3c2.1,0.1,4.2-0.6,5.8-2C66.3,20.5,66.3,20.2,66.2,20z M61.4,9.2c-0.1,0.7-0.4,1.4-0.8,2
	c-1.4-0.1-2.8,0.1-4.1,0.7c-1.3,0.5-2.4,1.4-3.1,2.6c-0.9-0.1-1.7-0.3-2.5-0.8C52.6,9.9,58.1,8.4,61.4,9.2z M60,12.2
	c-1.3,1.5-3.2,2.3-5.2,2.4h-0.1c0.6-0.8,1.4-1.4,2.3-1.8C57.9,12.4,59,12.2,60,12.2z M50.2,13c-0.8-0.7-1.4-1.7-1.7-2.7
	c0.9,0.3,1.8,0.7,2.6,1.2L50.2,13z M38.2,6.8c1.4-0.4,2.9-0.3,4.3,0.3l0,0c0.7,0.4,1,0.4,1.3,0.2c0.2,0,0.4-0.3,0.4-0.6
	c0-0.4-0.3-0.8-0.8-0.8c0,0,0,0,0,0c-0.2,0-0.5,0.1-0.6,0.3c-0.5-0.3-1.1-0.4-1.7-0.5c0.3-0.4,0.7-0.7,1.2-0.8c1-0.3,2.1-0.1,3,0.5
	c1,0.7,1.4,1.9,1.8,3.4c0.1,0.5,0.3,1.1,0.5,1.6c0.8,3.2,3.8,5.4,7.1,5.2h0.2c2.5,0,4.9-1.2,6.4-3.3c0.8,0.1,1.6,0.2,2.4,0.4
	c-1,3.4-4.5,5.8-8.7,5.9c-5.8,0.2-9.9-2.8-11-8c0-0.1-0.1-0.3-0.2-0.3c-0.1-0.1-0.3-0.1-0.4,0c-1.2,0.3-2.2,1.1-2.8,2.1
	c0-0.9,0.2-1.8,0.5-2.6c0.2-0.4,0.3-0.9,0.3-1.4C41.2,7.4,40.1,6.8,38.2,6.8z M41.3,15.7c-0.4-0.9-0.5-1.9-0.1-2.8
	c0.4-0.8,1-1.5,1.9-1.8c0.7,3.2,2.9,5.8,5.8,7.1c-0.2,0.9-0.3,1.7-0.4,2.4c-0.8-0.1-1.5-0.3-2.2-0.6C44.1,19.3,42.3,17.7,41.3,15.7z
	 M49.9,23.1c-0.3,0.3-0.7,0.5-1.1,0.7c0.3-0.8,0.5-1.7,0.6-2.6c0.1-0.7,0.2-1.6,0.4-2.5c0.7,0.2,1.4,0.4,2.1,0.5
	C51.6,20.7,50.9,22,49.9,23.1z M55.7,20.3c-0.1-0.1-0.3-0.1-0.4,0c-0.9,0.3-1.9,0.6-2.9,0.7c0.2-0.5,0.4-1,0.5-1.6
	c0.5,0.1,1.1,0.1,1.6,0.1H55c1.6,0,3.2-0.4,4.6-1.1c1.3,1.2,2.9,2.1,4.6,2.4C61.5,22,58.3,21.9,55.7,20.3z"/>
<path class="st0" d="M0,0.2v34.4C0,54.6,12.5,73,34.3,85l0.3,0.2l0.3-0.2c21.8-12,34.3-30.4,34.3-50.4V0.2H0z M2.7,46.4l31.9-23.2
	l31.9,23.3c-1.3,5.1-3.5,9.9-6.3,14.3L34.6,42L9,60.7C6.2,56.3,4,51.5,2.7,46.4z M34.6,83.8c-10.8-6-19.3-13.6-25-22.2l25-18.2
	l25,18.2C53.9,70.2,45.4,77.8,34.6,83.8z M68,34.7c0,3.5-0.4,7.1-1.2,10.5L34.6,21.7L2.4,45.1c-0.8-3.4-1.2-6.9-1.2-10.4V1.4H68
	V34.7z"/>
<path class="st0" d="M48.6,64.3c-0.1-0.2-0.2-0.3-0.4-0.3l0,0c-0.2,0-0.4,0.1-0.5,0.3c-0.9,2.2-2.7,3.3-6.8,5.8
	c-1.1,0.6-2.1,1.3-3,2.1c-0.8,0.6-1.4,1.3-2,2.1c-0.1-0.7-0.2-3.8-0.4-5.6c0.3,0.3,0.7,0.5,1.2,0.5h0.2c0.7-0.3,1.2-1,1.2-1.8
	c0-0.4,0-0.7-0.1-1.1c0.2,0.3,0.5,0.5,0.8,0.7c0.4,0.2,0.8,0.3,1.2,0.3c0.4,0,0.7-0.1,1-0.3c0.5-0.6,0.6-1.5,0.3-2.2l-0.6-0.9
	l1.1,0.3c0.4,0,1.6-0.3,1.9-1c0.1-0.7-0.1-1.5-0.7-2c-0.3-0.2-0.6-0.4-1-0.5c0.4,0,0.8-0.1,1.1-0.3c0.4-0.2,1.3-1,1.2-1.8
	s-1.2-1.3-1.6-1.4c-0.4-0.1-0.7-0.1-1.1,0c0.3-0.2,0.6-0.4,0.8-0.7c0.4-0.6,0.5-1.4,0.2-2.1c-0.4-0.4-1-0.7-1.6-0.7
	c-0.2,0-0.4,0-0.5,0.1c-0.4,0.1-0.7,0.3-1,0.5c0.2-0.3,0.3-0.6,0.4-1c0.1-0.8-0.2-1.5-0.8-2c-0.7-0.2-1.5,0-2.1,0.5
	c-0.3,0.2-0.5,0.6-0.6,0.9c0-0.4,0-0.7-0.1-1.1c-0.1-0.4-0.8-1.4-1.6-1.4c-0.8,0.1-1.4,0.7-1.6,1.4C33,52,33,52.3,33,52.7l-0.6-0.9
	c-0.6-0.5-1.4-0.7-2.1-0.5c-0.6,0.5-0.9,1.2-0.8,2c0.1,0.4,0.2,0.7,0.4,1c-0.3-0.2-0.6-0.4-1-0.5c-0.2,0-0.3-0.1-0.5-0.1
	c-0.6,0-1.1,0.2-1.5,0.6c-0.3,0.7-0.2,1.5,0.2,2.1c0.2,0.3,0.5,0.5,0.8,0.7c-0.4-0.1-0.7-0.1-1.1,0c-0.4,0.1-1.5,0.7-1.6,1.4
	s0.8,1.6,1.2,1.8c0.3,0.2,0.7,0.3,1.1,0.3c-0.4,0.1-0.7,0.3-1,0.5c-0.6,0.5-0.9,1.3-0.7,2c0.4,0.6,1.1,1,1.9,1l0,0
	c0.4,0,0.8-0.1,1.1-0.3c-0.3,0.2-0.5,0.6-0.6,0.9c-0.3,0.7-0.2,1.5,0.3,2.1c0.3,0.2,0.6,0.3,1,0.3c0.4,0,0.8-0.1,1.2-0.3
	c0.3-0.2,0.6-0.4,0.8-0.7c-0.1,0.4-0.1,0.7-0.1,1.1c0,0.4,0.5,1.6,1.2,1.8c0.5,0.1,1-0.1,1.4-0.4c-0.2,1.9-0.3,5-0.4,5.6
	c-0.5-0.8-1.2-1.5-2-2.1c-0.9-0.8-1.9-1.5-3-2.1c-4.1-2.5-5.8-3.6-6.8-5.8c-0.1-0.2-0.3-0.3-0.5-0.3l0,0c-0.2,0-0.3,0.1-0.4,0.3
	c-1.2,3.9,0.7,7.2,5.7,10l1.1,0.6l0.2,0.1c1.3,0.7,2.6,1.4,3.8,2.3c1.3,1.1,2.2,2.5,2.8,4.1c0.1,0.2,0.2,0.3,0.4,0.3l0,0
	c0.2,0,0.3-0.1,0.4-0.3c0.5-1.6,1.5-3,2.8-4.1c1.2-0.9,2.5-1.7,3.8-2.3l0.2-0.1l1.1-0.6C47.8,71.4,49.7,68.2,48.6,64.3L48.6,64.3z
	 M36.7,68.2L36.7,68.2c-0.3-0.1-0.6-0.3-0.8-0.6c-0.4-1.3-0.7-2.6-0.8-4L35,62.8c0.3,0,0.5-0.1,0.8-0.2v0.1c0.8,2,1.5,3.8,1.4,4.6
	C37.1,67.6,36.9,67.9,36.7,68.2z M40.4,66.2L40.4,66.2c-0.1,0-0.2,0.1-0.3,0.1c-0.3,0-0.5,0-0.7-0.2c-1-0.9-1.8-2-2.5-3.2l-0.5-0.7
	c0.2-0.2,0.4-0.3,0.6-0.5l0,0c1.7,1.5,3.2,2.8,3.4,3.4C40.5,65.5,40.5,65.8,40.4,66.2z M42.3,61.9c0.2,0.3,0.4,0.6,0.5,0.9l0,0
	c-0.3,0.2-0.6,0.4-0.9,0.4l0,0c-1.3-0.4-2.5-0.9-3.7-1.6l-0.8-0.4c0.1-0.2,0.2-0.5,0.3-0.7h0.1C39.9,60.9,41.8,61.4,42.3,61.9z
	 M42.5,58.1c0.3,0.1,0.6,0.3,0.8,0.6l0,0c-0.1,0.3-0.4,0.6-0.7,0.8c-1.3,0.3-2.7,0.4-4.1,0.3h-0.8c0-0.3,0-0.5-0.1-0.8h0.1
	C39.3,58.5,40.9,58.2,42.5,58.1z M40.8,54.7h0.3c0.3,0,0.6,0,0.8,0.2l0,0c0,0.3,0,0.7-0.2,1c-1,0.9-2.2,1.6-3.5,2.1l-0.7,0.4
	c-0.1-0.3-0.3-0.5-0.5-0.7l0.1-0.1C38.2,56.4,39.4,55.5,40.8,54.7z M35.8,56.7c0.8-2,1.4-3.8,1.9-4.3c0.3-0.2,0.6-0.3,0.9-0.4h0.1
	c0.2,0.3,0.3,0.6,0.3,1c-0.5,1.3-1.2,2.4-2.1,3.5l-0.5,0.7C36.2,57.1,35.9,56.9,35.8,56.7L35.8,56.7z M33.9,51.8
	c0.1-0.2,0.5-0.7,0.7-0.7l0,0c0.2,0,0.6,0.5,0.7,0.8c0.1,1.4,0,2.7-0.2,4.1l0,0L35,56.7h-0.8C33.9,55.1,33.8,53.4,33.9,51.8z
	 M34.6,57.7c1.2,0,2.1,0.9,2.1,2.1c0,1.2-0.9,2.1-2.1,2.1c-1.1,0-2.1-0.9-2.1-2c0,0,0-0.1,0-0.1C32.5,58.6,33.4,57.7,34.6,57.7z
	 M30.6,52.1h0.1c0.3,0.1,0.6,0.2,0.9,0.3c0.7,1.2,1.3,2.4,1.7,3.7l0.3,0.8c-0.3,0.1-0.5,0.2-0.7,0.4v-0.1c-1.3-1.8-2.4-3.4-2.5-4.1
	C30.3,52.8,30.4,52.4,30.6,52.1z M27.7,55.9c-0.2-0.3-0.3-0.7-0.2-1l0,0c0.2-0.1,0.5-0.2,0.8-0.2h0.3c1.2,0.7,2.3,1.5,3.2,2.5
	l0.6,0.5c-0.2,0.2-0.3,0.4-0.4,0.7h-0.1C29.8,57.4,28.1,56.5,27.7,55.9z M26.7,59.5c-0.3-0.2-0.5-0.5-0.7-0.8l0,0
	c0.2-0.3,0.5-0.5,0.8-0.6h0.3c1.3,0.1,2.6,0.4,3.8,0.7l0.8,0.2c-0.1,0.3-0.1,0.5-0.1,0.8h-1.3C29.1,59.9,27.9,59.8,26.7,59.5z
	 M27.5,63.2L27.5,63.2c-0.3,0-0.7-0.2-0.9-0.4l0,0c0-0.4,0.2-0.7,0.5-0.9c1.2-0.6,2.5-1,3.8-1.3l0.8-0.2c0.1,0.2,0.2,0.5,0.3,0.7
	l-0.2,0.1C30.5,62.1,29,62.8,27.5,63.2z M29.9,66.2c-0.2,0.1-0.5,0.2-0.7,0.2h-0.3c-0.1-0.3-0.1-0.7,0-1c0.8-1.1,1.7-2,2.8-2.8
	l0.7-0.6c0.2,0.2,0.4,0.4,0.6,0.5l-0.1,0.1C31.7,64.3,30.6,65.9,29.9,66.2z M32.6,68.2L32.6,68.2c-0.3-0.2-0.5-0.5-0.5-0.9
	c0.2-1.3,0.6-2.7,1.2-3.9l0.3-0.8c0.2,0.1,0.5,0.2,0.8,0.2v0.1c-0.3,2.2-0.5,4.1-0.9,4.7C33.3,67.9,33,68.1,32.6,68.2z M42.3,73.4
	L41,74.1c-1.4,0.7-2.7,1.5-3.9,2.4c-1.1,0.9-2,2.1-2.6,3.4c-0.6-1.3-1.5-2.5-2.6-3.4c-1.2-0.9-2.5-1.7-3.9-2.4l-1.3-0.7
	c-4-2.3-5.8-4.8-5.5-7.6c1.2,1.9,3.3,3.1,6.5,5c1.2,0.7,2.3,1.5,3.4,2.4c0.8,0.8,1.5,1.7,2,2.8c0.1,0.4,0.3,0.5,0.5,0.5
	S34,76.4,34,76c0.1-1.1,0.4-5.9,0.5-7.4c0.1,1.5,0.4,6.3,0.5,7.4c0,0.4,0.2,0.5,0.4,0.5s0.3-0.1,0.5-0.5c0.5-1.1,1.1-2,2-2.8
	c1-0.9,2.2-1.7,3.4-2.4c3.2-1.9,5.3-3.2,6.5-5C48.2,68.7,46.3,71.2,42.3,73.4z"/>
</svg>
