<?xml version="1.0" encoding="utf-8"?>
<!-- Generator: Adobe Illustrator 23.0.2, SVG Export Plug-In . SVG Version: 6.00 Build 0)  -->
<svg version="1.1" id="Layer_1" xmlns="http://www.w3.org/2000/svg" xmlns:xlink="http://www.w3.org/1999/xlink" x="0px" y="0px"
	 viewBox="0 0 234.3 85.2" style="enable-background:new 0 0 234.3 85.2;" xml:space="preserve">
<style type="text/css">
	.st0{fill:#778D87;}
	.st1{fill:#231F20;}
	.st2{fill:#B2B2B2;}
</style>
<title>Artboard 1</title>
<path class="st0" d="M41,31.5c-0.1-0.2-0.3-0.3-0.5-0.3h-4.2l-1.3-4c-0.1-0.3-0.3-0.4-0.6-0.3c-0.2,0-0.3,0.2-0.3,0.3l-1.3,4h-4.3
	c-0.3,0-0.5,0.2-0.5,0.5c0,0.2,0.1,0.3,0.2,0.4l3.5,2.5l-1.3,4.1c-0.1,0.2,0,0.5,0.3,0.6c0.2,0.1,0.3,0,0.5-0.1l3.4-2.5l3.5,2.5
	c0.2,0.1,0.4,0.1,0.6,0c0.2-0.1,0.2-0.3,0.2-0.5l-1.3-4.1l3.4-2.5C41,31.9,41.1,31.7,41,31.5L41,31.5z M34.8,35.7
	c-0.2-0.1-0.4-0.1-0.6,0l-2.5,1.8l1-3c0.1-0.2,0-0.4-0.2-0.5L30,32.1h3.1c0.2,0,0.4-0.1,0.5-0.3l1-3l1,3c0.1,0.2,0.3,0.3,0.5,0.3
	h3.1L36.6,34c-0.2,0.1-0.2,0.3-0.2,0.5l1,3L34.8,35.7z"/>
<path class="st0" d="M23.6,43.2c-0.1-0.2-0.3-0.3-0.5-0.3h-4.3l-1.3-4c-0.1-0.3-0.3-0.4-0.6-0.3c-0.2,0-0.3,0.2-0.3,0.3l-1.3,4H11
	c-0.3,0-0.5,0.2-0.5,0.5c0,0.1,0.1,0.3,0.2,0.4l3.5,2.5l-1.3,4.1c-0.1,0.2,0,0.5,0.3,0.6c0.2,0.1,0.3,0,0.5-0.1l3.5-2.5l3.5,2.5
	c0.2,0.1,0.4,0.1,0.6,0s0.2-0.3,0.2-0.5l-1.3-4l3.4-2.6C23.5,43.5,23.6,43.3,23.6,43.2L23.6,43.2z M17.3,47.3
	c-0.2-0.1-0.4-0.1-0.6,0l-2.5,1.8l1-3c0-0.2,0-0.4-0.2-0.5l-2.5-1.8h3.1c0.2,0,0.4-0.1,0.5-0.3l1-3l1,3c0.1,0.2,0.3,0.3,0.5,0.3h3.1
	l-2.6,1.8c-0.2,0.1-0.2,0.3-0.2,0.5l1,3L17.3,47.3z"/>
<path class="st0" d="M45.8,43.7l3.4,2.5l-1.3,4.1c-0.1,0.2,0,0.4,0.2,0.5s0.4,0.1,0.6,0l3.4-2.5l3.4,2.5c0.2,0.2,0.5,0.2,0.7,0
	c0.1-0.1,0.1-0.3,0.1-0.5L55,46.2l3.4-2.5c0.2-0.2,0.3-0.5,0.1-0.7c-0.1-0.1-0.2-0.2-0.4-0.2h-4.3l-1.3-4c-0.1-0.3-0.3-0.4-0.6-0.3
	c-0.2,0-0.3,0.2-0.3,0.3l-1.3,4.1H46c-0.3,0-0.5,0.2-0.5,0.5C45.6,43.5,45.6,43.6,45.8,43.7L45.8,43.7z M49.3,49.2l1-3
	c0.1-0.2,0-0.4-0.2-0.5l-2.5-1.8h3.1c0.2,0,0.4-0.1,0.5-0.3l1-3l1,3c0.1,0.2,0.3,0.3,0.5,0.3h3.1l-2.6,1.9c-0.2,0-0.3,0.2-0.2,0.4
	l1,3l-2.5-1.8c-0.2-0.1-0.4-0.1-0.6,0L49.3,49.2z"/>
<path class="st0" d="M32.5,20c-0.1-0.2-0.3-0.3-0.5-0.2c-1.6,0.3-3.2-0.3-5.2-1.9c2.1-1.2,3.6-3.2,4.2-5.5c0.1-0.2-0.1-0.5-0.3-0.6
	c-0.8-0.3-1.7-0.4-2.6-0.5c0.4-0.8,0.6-1.6,0.7-2.4c0-0.2-0.1-0.5-0.3-0.5c-3.6-0.9-7.5,0.1-10.3,2.5c-1.1-0.8-2.3-1.3-3.6-1.6
	c-0.1-0.3-0.2-0.5-0.2-0.8c-0.4-1.6-0.8-3.1-2.2-4c-1.1-0.8-2.5-1-3.9-0.6c-0.9,0.3-1.6,0.9-2,1.7C5,5.6,3.9,6,3,6.7
	C2.8,6.8,2.8,7.1,2.9,7.3C3,7.5,3.2,7.6,3.4,7.6c2-0.1,3.2,0.3,3.2,0.8c0,0.3-0.1,0.7-0.2,1c-0.9,2.2-0.8,4.7,0.3,6.8l0,0l0,0
	c1.2,2.2,3.1,3.9,5.5,4.8c0.8,0.3,1.6,0.5,2.4,0.7c-0.2,1.8-0.5,2.4-1.6,2.5c-0.5,0.1-1.1,0-1.5-0.2c-0.2-0.1-0.5,0-0.6,0.2
	s0,0.5,0.2,0.6c0.4,0.2,0.9,0.3,1.3,0.3h0.1c0.4,0,0.8,0,1.3,0h0.6c1.3-0.2,2.6-0.1,3.9,0.3c0.2,0.1,0.5,0,0.7-0.2
	c0.1-0.2,0-0.5-0.2-0.7l0,0c-0.6-0.3-1.3-0.4-2-0.5c0.1-0.1,0.1-0.1,0.2-0.2c0.6-0.6,1-1.2,1.4-1.9c1.2-0.1,2.3-0.3,3.4-0.7
	c1.5,0.8,3.3,1.3,5,1.3c2.1,0.1,4.2-0.6,5.8-2c0.2-0.2,0.2-0.4,0.1-0.6L32.5,20z M27.6,9.2c-0.1,0.7-0.4,1.4-0.8,2
	c-1.4-0.1-2.8,0.1-4.1,0.7c-1.3,0.5-2.3,1.4-3,2.6c-0.9-0.1-1.7-0.3-2.5-0.8C18.9,9.9,24.3,8.4,27.6,9.2L27.6,9.2z M26.2,12.2
	c-1.3,1.5-3.2,2.3-5.2,2.4h-0.1c0.6-0.8,1.4-1.4,2.3-1.8C24.2,12.3,25.2,12.2,26.2,12.2L26.2,12.2z M16.5,13
	c-0.8-0.7-1.4-1.7-1.7-2.7c0.9,0.3,1.8,0.7,2.6,1.2C17,12,16.7,12.5,16.5,13L16.5,13z M4.5,6.8c1.4-0.4,3-0.3,4.3,0.3l0,0
	c0.7,0.4,1,0.4,1.3,0.2c0.2-0.1,0.4-0.4,0.4-0.7c0-0.5-0.4-0.8-0.8-0.8C9.4,5.9,9.1,6,9,6.2C8.5,5.9,7.9,5.7,7.3,5.7
	C7.6,5.2,8,5,8.5,4.8c1-0.3,2.1-0.1,3,0.5c1,0.7,1.4,1.9,1.8,3.4c0.1,0.5,0.3,1,0.5,1.6c0.8,3.2,3.8,5.4,7.1,5.2H21
	c2.6,0,4.9-1.2,6.4-3.3c0.8,0.1,1.6,0.2,2.4,0.4c-1,3.4-4.5,5.8-8.7,5.9c-5.8,0.2-9.9-2.8-11-8c0-0.1-0.1-0.3-0.2-0.3
	c-0.1-0.1-0.3-0.1-0.4,0c-1.2,0.3-2.2,1.1-2.8,2.1c0-0.9,0.2-1.8,0.5-2.6c0.2-0.4,0.3-0.9,0.3-1.4C7.5,7.5,6.3,6.8,4.5,6.8L4.5,6.8z
	 M7.5,15.7c-0.4-0.9-0.4-1.9-0.1-2.8c0.4-0.8,1-1.4,1.9-1.8c0.7,3.2,2.9,5.8,5.8,7.1c-0.2,0.9-0.3,1.7-0.4,2.4
	c-0.7-0.1-1.5-0.3-2.2-0.6C10.4,19.3,8.6,17.8,7.5,15.7L7.5,15.7z M16.2,23.1c-0.3,0.3-0.7,0.5-1.1,0.7c0.3-0.8,0.5-1.7,0.6-2.6
	c0.1-0.7,0.2-1.6,0.4-2.5c0.7,0.2,1.4,0.4,2.1,0.5C17.8,20.7,17.2,22,16.2,23.1L16.2,23.1z M21.9,20.3c-0.1-0.1-0.3-0.1-0.4,0
	c-0.9,0.3-1.9,0.6-2.9,0.7c0.2-0.5,0.4-1,0.5-1.6c0.5,0.1,1,0.1,1.6,0.1h0.5c1.6,0,3.2-0.4,4.6-1.1c1.3,1.2,2.9,2.1,4.6,2.4
	C27.7,22,24.5,21.9,21.9,20.3L21.9,20.3z"/>
<path class="st0" d="M66.2,20c-0.1-0.2-0.3-0.3-0.5-0.2c-1.6,0.3-3.2-0.3-5.2-1.9c2.1-1.2,3.6-3.2,4.2-5.5c0.1-0.2-0.1-0.5-0.3-0.6
	c-0.8-0.3-1.7-0.4-2.6-0.5c0.4-0.8,0.6-1.6,0.7-2.4c0-0.2-0.1-0.5-0.3-0.5c-3.6-0.9-7.5,0.1-10.3,2.5c-1.1-0.8-2.3-1.3-3.6-1.6
	C48.1,9,48,8.8,48,8.5c-0.4-1.6-0.8-3.1-2.2-4c-1.1-0.8-2.5-1-3.8-0.6c-0.9,0.3-1.6,0.9-2,1.7c-1.1,0-2.3,0.4-3.2,1.1
	c-0.2,0.1-0.2,0.4-0.1,0.6c0.1,0.2,0.3,0.3,0.5,0.3c2-0.1,3.2,0.3,3.2,0.8c0,0.3-0.1,0.7-0.2,1c-0.6,1.5-0.8,3.2-0.4,4.9
	c0.2,0.7,0.4,1.4,0.7,2l0,0l0,0c1.2,2.2,3.1,3.9,5.5,4.8c0.8,0.3,1.6,0.5,2.5,0.6c-0.3,1.8-0.5,2.4-1.6,2.5c-0.5,0-1,0-1.5-0.2
	c-0.2-0.1-0.5,0-0.7,0.2c-0.1,0.2,0,0.5,0.2,0.7l0,0c0.4,0.2,0.8,0.3,1.3,0.3h0.1c0.4,0,0.8,0,1.2,0h0.6c1.3-0.2,2.6-0.1,3.9,0.3
	c0.2,0.1,0.5,0,0.7-0.2c0.1-0.2,0-0.5-0.2-0.7l0,0c-0.6-0.3-1.3-0.4-2-0.5c0.1-0.1,0.1-0.1,0.2-0.2c0.6-0.6,1-1.2,1.4-1.9
	c1.2,0,2.3-0.2,3.4-0.6c1.5,0.8,3.3,1.3,5,1.3c2.1,0.1,4.2-0.6,5.8-2C66.3,20.4,66.3,20.2,66.2,20L66.2,20z M61.4,9.2
	c-0.1,0.7-0.4,1.4-0.8,2c-1.4-0.1-2.8,0.1-4.1,0.7c-1.3,0.5-2.4,1.4-3.1,2.6c-0.9-0.1-1.7-0.3-2.5-0.8C52.6,9.9,58.1,8.4,61.4,9.2
	L61.4,9.2z M60,12.2c-1.3,1.5-3.2,2.3-5.2,2.4h-0.1c0.6-0.8,1.4-1.4,2.3-1.8C58,12.3,59,12.2,60,12.2L60,12.2z M50.2,13
	c-0.8-0.7-1.4-1.7-1.7-2.7c0.9,0.3,1.8,0.7,2.6,1.2C50.8,12,50.5,12.5,50.2,13z M38.2,6.8c1.4-0.4,3-0.3,4.3,0.3l0,0
	c0.7,0.4,1,0.4,1.3,0.2c0.2,0,0.4-0.3,0.4-0.6c0-0.5-0.4-0.8-0.8-0.8c-0.2,0-0.5,0.1-0.6,0.3c-0.5-0.3-1.1-0.4-1.7-0.5
	c0.3-0.4,0.7-0.7,1.2-0.8c1-0.3,2.1-0.1,3,0.5c1,0.7,1.4,1.9,1.8,3.4c0.1,0.5,0.3,1,0.5,1.6c0.8,3.2,3.8,5.4,7.1,5.2h0.2
	c2.6,0,4.9-1.2,6.4-3.3c0.8,0.1,1.6,0.2,2.4,0.4c-1,3.4-4.5,5.8-8.7,5.9c-5.8,0.2-9.9-2.8-11-8c0-0.1-0.1-0.3-0.2-0.3
	c-0.1-0.1-0.3-0.1-0.4,0c-1.2,0.3-2.2,1.1-2.8,2.1c0-0.9,0.2-1.8,0.5-2.6c0.2-0.4,0.3-0.9,0.3-1.4C41.2,7.4,40.1,6.8,38.2,6.8
	L38.2,6.8z M41.3,15.7c-0.4-0.9-0.5-1.9-0.1-2.8c0.4-0.8,1-1.5,1.9-1.8c0.7,3.2,2.9,5.8,5.8,7.1c-0.2,0.9-0.3,1.7-0.4,2.4
	c-0.7-0.1-1.5-0.3-2.2-0.6C44.1,19.3,42.3,17.7,41.3,15.7L41.3,15.7z M49.9,23.1c-0.3,0.3-0.7,0.5-1.1,0.7c0.3-0.8,0.5-1.7,0.6-2.6
	c0.1-0.7,0.2-1.6,0.4-2.5c0.7,0.2,1.4,0.4,2.1,0.5C51.6,20.7,50.9,22,49.9,23.1L49.9,23.1z M55.7,20.3c-0.1-0.1-0.3-0.1-0.4,0
	c-0.9,0.3-1.9,0.6-2.9,0.7c0.2-0.5,0.4-1,0.5-1.6c0.5,0.1,1,0.1,1.6,0.1H55c1.6,0,3.2-0.4,4.6-1.1c1.3,1.2,2.9,2.1,4.6,2.4
	C61.5,22,58.3,21.9,55.7,20.3L55.7,20.3z"/>
<path class="st0" d="M0,0.2v34.4C0,54.6,12.5,73,34.3,85l0.3,0.2l0.3-0.2c21.8-12,34.3-30.4,34.3-50.4V0.2H0z M2.7,46.4l31.9-23.2
	l31.9,23.3c-1.3,5.1-3.5,9.9-6.3,14.3L34.6,42L9,60.7C6.2,56.3,4,51.4,2.7,46.4z M34.6,83.8c-10.8-6-19.3-13.6-25-22.2l25-18.2
	l25,18.2C53.9,70.2,45.4,77.8,34.6,83.8L34.6,83.8z M68,34.7c0,3.5-0.4,7-1.2,10.5L34.6,21.7L2.4,45.1c-0.8-3.4-1.2-6.9-1.2-10.4
	V1.4H68V34.7z"/>
<path class="st0" d="M48.6,64.3c-0.1-0.2-0.2-0.3-0.4-0.3l0,0c-0.2,0-0.4,0.1-0.5,0.3c-0.9,2.2-2.7,3.3-6.8,5.8
	c-1.1,0.6-2.1,1.3-3,2.1c-0.8,0.6-1.4,1.3-2,2.1c-0.1-0.7-0.2-3.8-0.4-5.6c0.3,0.3,0.7,0.5,1.2,0.5c0.1,0,0.2,0,0.2,0
	c0.8-0.2,1.2-1.3,1.2-1.8c0-0.4,0-0.7-0.1-1.1c0.2,0.3,0.5,0.5,0.8,0.7c0.4,0.2,0.8,0.3,1.2,0.3s0.7-0.1,1-0.3
	c0.5-0.6,0.6-1.4,0.3-2.2c-0.2-0.3-0.4-0.6-0.6-0.9c0.4,0.1,0.7,0.2,1.1,0.3c0.4,0,1.6-0.3,1.9-1s-0.4-1.8-0.7-2s-0.6-0.4-1-0.5
	c0.4,0,0.7-0.1,1.1-0.3c0.4-0.2,1.3-1,1.2-1.8s-1.2-1.3-1.6-1.4c-0.4-0.1-0.7-0.1-1.1,0c0.3-0.2,0.6-0.4,0.8-0.7
	c0.4-0.6,0.5-1.4,0.2-2.1c-0.4-0.4-1-0.7-1.6-0.7c-0.2,0-0.4,0-0.5,0.1c-0.4,0.1-0.7,0.3-1,0.5c0.2-0.3,0.3-0.6,0.4-1
	c0.1-0.8-0.2-1.5-0.8-2c-0.7-0.2-1.5,0-2.1,0.5c-0.3,0.3-0.5,0.6-0.6,0.9c0-0.4,0-0.7-0.1-1.1c-0.1-0.4-0.8-1.4-1.6-1.4
	s-1.5,0.9-1.6,1.4C33,52,33,52.3,33,52.7c-0.2-0.3-0.4-0.6-0.6-0.9c-0.6-0.5-1.4-0.7-2.1-0.5c-0.6,0.5-0.9,1.2-0.8,2
	c0.1,0.4,0.2,0.7,0.4,1c-0.3-0.2-0.6-0.4-1-0.5c-0.2,0-0.4-0.1-0.5-0.1c-0.6,0-1.1,0.2-1.5,0.6c-0.3,0.7-0.2,1.5,0.2,2.1
	c0.2,0.3,0.5,0.5,0.8,0.7c-0.4-0.1-0.7-0.1-1.1,0s-1.5,0.7-1.6,1.4s0.8,1.6,1.2,1.8c0.4,0.2,0.7,0.3,1.1,0.3c-0.4,0.1-0.7,0.3-1,0.5
	c-0.6,0.5-0.9,1.3-0.7,2c0.3,0.7,1.3,1,1.9,1l0,0c0.4,0,0.7-0.1,1.1-0.3c-0.3,0.3-0.5,0.6-0.6,0.9c-0.3,0.7-0.2,1.5,0.3,2.1
	c0.3,0.2,0.6,0.3,1,0.3s0.8-0.1,1.2-0.3c0.3-0.2,0.6-0.4,0.8-0.7c-0.1,0.4-0.1,0.7-0.1,1.1s0.5,1.6,1.2,1.8c0.5,0.1,1-0.1,1.4-0.4
	c-0.2,1.9-0.3,5-0.4,5.6c-0.5-0.8-1.2-1.5-2-2.1c-0.9-0.8-1.9-1.5-3-2.1c-4.1-2.5-5.8-3.6-6.8-5.8c-0.1-0.2-0.3-0.3-0.5-0.3l0,0
	c-0.2,0-0.4,0.2-0.4,0.3c-1.2,3.9,0.7,7.2,5.7,10l1.1,0.6l0.2,0.1c1.3,0.7,2.6,1.4,3.8,2.3c1.3,1.1,2.2,2.5,2.8,4.1
	c0.1,0.2,0.2,0.3,0.4,0.3l0,0c0.2,0,0.3-0.1,0.4-0.3c0.5-1.6,1.5-3,2.8-4.1c1.2-0.9,2.4-1.6,3.8-2.3l0.2-0.1l1.1-0.6
	C47.8,71.4,49.7,68.2,48.6,64.3L48.6,64.3z M36.7,68.2L36.7,68.2c-0.3-0.1-0.6-0.3-0.8-0.6c-0.4-1.3-0.7-2.6-0.8-4L35,62.8
	c0.3,0,0.5-0.1,0.8-0.2v0.1c0.8,2,1.5,3.8,1.4,4.6C37.1,67.6,37,67.9,36.7,68.2L36.7,68.2z M40.4,66.2L40.4,66.2
	c-0.1,0-0.2,0.1-0.3,0.1c-0.3,0-0.5,0-0.7-0.2c-1-0.9-1.8-2-2.5-3.2l-0.5-0.7c0.2-0.2,0.4-0.3,0.6-0.5l0,0c1.7,1.5,3.2,2.8,3.4,3.4
	C40.5,65.5,40.5,65.8,40.4,66.2L40.4,66.2z M42.3,61.9c0.2,0.2,0.4,0.6,0.5,0.9l0,0c-0.3,0.2-0.6,0.4-0.9,0.4l0,0
	c-1.3-0.4-2.5-0.9-3.7-1.6l-0.8-0.4c0.1-0.2,0.2-0.5,0.3-0.7h0.1C39.9,60.9,41.8,61.4,42.3,61.9L42.3,61.9z M42.5,58.1
	c0.3,0.1,0.6,0.3,0.8,0.6l0,0c-0.1,0.3-0.4,0.6-0.7,0.8c-1.3,0.3-2.7,0.4-4.1,0.3h-0.8l0,0c0-0.3,0-0.5-0.1-0.8h0.1
	C39.9,58.5,41.7,58,42.5,58.1L42.5,58.1z M40.8,54.7c0.1,0,0.2,0,0.3,0c0.3,0,0.5,0,0.8,0.2l0,0c0,0.3,0,0.7-0.2,1
	c-1.1,0.9-2.2,1.6-3.5,2.1l-0.7,0.4c-0.1-0.2-0.3-0.5-0.5-0.7l0.1-0.1C38.1,56.5,39.4,55.5,40.8,54.7z M35.8,56.7
	c0.8-2,1.4-3.8,1.9-4.3c0.3-0.2,0.6-0.3,0.9-0.4h0.1c0.2,0.3,0.3,0.6,0.3,1c-0.5,1.2-1.2,2.4-2.1,3.5l-0.5,0.7
	C36.2,57.1,35.9,56.9,35.8,56.7L35.8,56.7L35.8,56.7z M33.9,51.8c0.1-0.2,0.5-0.7,0.7-0.7l0,0c0.2,0,0.6,0.5,0.7,0.8
	c0.1,1.4,0,2.7-0.2,4.1l0,0L35,56.7c-0.1,0-0.3,0-0.4,0c-0.1,0-0.3,0-0.4,0l0,0C33.9,54.5,33.7,52.5,33.9,51.8L33.9,51.8z
	 M34.6,57.7c1.2,0,2.1,1,2.1,2.1c0,1.2-1,2.1-2.1,2.1c-1.2,0-2.1-0.9-2.1-2.1C32.5,58.6,33.5,57.7,34.6,57.7z M30.6,52.1h0.1
	c0.3,0,0.6,0.2,0.9,0.3c0.7,1.2,1.3,2.4,1.7,3.7l0.3,0.8c-0.2,0.1-0.5,0.2-0.7,0.4v-0.1c-1.3-1.8-2.4-3.4-2.5-4.1
	C30.3,52.8,30.4,52.4,30.6,52.1L30.6,52.1z M27.7,55.9c-0.2-0.3-0.3-0.7-0.2-1l0,0c0.2-0.1,0.5-0.2,0.8-0.2c0.1,0,0.2,0,0.3,0
	c1.2,0.7,2.3,1.5,3.2,2.5l0.6,0.5c-0.2,0.2-0.3,0.4-0.4,0.7h-0.1C29.8,57.4,28.1,56.5,27.7,55.9L27.7,55.9z M26.7,59.5
	c-0.3-0.2-0.5-0.4-0.7-0.8l0,0c0.2-0.3,0.5-0.5,0.8-0.6c0.1,0,0.2,0,0.3,0c1.3,0.1,2.5,0.4,3.8,0.7l0.8,0.2
	c-0.1,0.2-0.1,0.5-0.1,0.8l0,0h-1.3C29.1,59.9,27.9,59.8,26.7,59.5L26.7,59.5z M27.5,63.2L27.5,63.2c-0.3,0-0.7-0.2-0.9-0.4l0,0
	c0-0.3,0.2-0.7,0.5-0.9c1.2-0.6,2.5-1,3.8-1.3l0.8-0.2c0.1,0.3,0.2,0.5,0.3,0.7l-0.2,0.1C30.4,62.1,29,62.8,27.5,63.2L27.5,63.2z
	 M29.9,66.2c-0.2,0.1-0.5,0.2-0.7,0.2c-0.1,0-0.2,0-0.3,0l0,0c-0.1-0.3-0.1-0.7,0-1c0.8-1.1,1.8-2,2.8-2.8l0.7-0.6
	c0.2,0.2,0.4,0.4,0.6,0.5l-0.1,0.1C31.7,64.3,30.6,65.9,29.9,66.2L29.9,66.2z M32.6,68.2L32.6,68.2c-0.3-0.2-0.4-0.5-0.5-0.9
	c0.2-1.3,0.6-2.6,1.2-3.9l0.3-0.8c0.2,0.1,0.5,0.2,0.8,0.2v0.1c-0.3,2.2-0.5,4.1-0.9,4.7C33.3,67.9,33,68.1,32.6,68.2L32.6,68.2z
	 M42.3,73.4L41,74.1c-1.4,0.7-2.7,1.5-3.9,2.4c-1.1,0.9-2,2.1-2.6,3.4c-0.6-1.3-1.5-2.5-2.6-3.4c-1.2-0.9-2.5-1.7-3.9-2.4l-1.3-0.7
	c-4-2.3-5.8-4.8-5.5-7.6c1.2,1.9,3.3,3.1,6.5,5c1.2,0.7,2.3,1.5,3.4,2.4c0.9,0.8,1.5,1.8,2,2.8c0.1,0.4,0.3,0.5,0.5,0.5
	S34,76.4,34,76c0.1-1.1,0.4-5.9,0.5-7.4c0.1,1.5,0.4,6.3,0.5,7.4c0,0.4,0.2,0.5,0.4,0.5s0.3-0.1,0.5-0.5c0.5-1.1,1.1-2,2-2.8
	c1-0.9,2.1-1.7,3.4-2.4c3.2-1.9,5.3-3.2,6.5-5C48.2,68.7,46.3,71.2,42.3,73.4z"/>
<g>
	<path class="st1" d="M94.7,15.8c-0.7,0.4-1.5,0.8-2.4,1.1c-1,0.3-2,0.5-3.1,0.5c-1.3,0-2.5-0.2-3.6-0.6c-1.1-0.4-2-1-2.8-1.8
		c-0.8-0.8-1.4-1.7-1.9-2.8c-0.4-1.1-0.7-2.2-0.7-3.5c0-1.2,0.2-2.4,0.7-3.5c0.5-1.1,1.1-2,1.9-2.8c0.8-0.8,1.7-1.4,2.8-1.8
		C86.7,0.2,87.9,0,89.2,0c1.1,0,2.2,0.2,3.1,0.5c1,0.3,1.8,0.7,2.4,1.1L94,3.2c-0.7-0.4-1.5-0.8-2.4-1c-0.9-0.3-1.7-0.4-2.5-0.4
		c-1.1,0-2,0.2-2.8,0.5c-0.8,0.4-1.6,0.8-2.1,1.5c-0.6,0.6-1,1.4-1.3,2.2c-0.3,0.8-0.5,1.8-0.5,2.8c0,1,0.2,1.9,0.5,2.8
		c0.3,0.8,0.8,1.6,1.4,2.2c0.6,0.6,1.3,1.1,2.2,1.5c0.9,0.4,1.8,0.5,2.9,0.5c0.8,0,1.7-0.1,2.5-0.4c0.9-0.3,1.7-0.6,2.4-1L94.7,15.8
		z"/>
	<path class="st1" d="M97.8,17.1V0.3h1.8v15.2h8v1.7H97.8z"/>
	<path class="st1" d="M123.8,15.8c-0.7,0.4-1.5,0.8-2.4,1.1c-1,0.3-2,0.5-3.1,0.5c-1.3,0-2.5-0.2-3.6-0.6c-1.1-0.4-2-1-2.8-1.8
		c-0.8-0.8-1.4-1.7-1.9-2.8c-0.4-1.1-0.7-2.2-0.7-3.5c0-1.2,0.2-2.4,0.7-3.5c0.5-1.1,1.1-2,1.9-2.8c0.8-0.8,1.7-1.4,2.8-1.8
		c1.1-0.4,2.3-0.7,3.5-0.7c1.1,0,2.2,0.2,3.1,0.5c1,0.3,1.8,0.7,2.4,1.1l-0.8,1.6c-0.7-0.4-1.5-0.8-2.4-1c-0.9-0.3-1.7-0.4-2.5-0.4
		c-1.1,0-2,0.2-2.8,0.5c-0.8,0.4-1.6,0.8-2.1,1.5c-0.6,0.6-1,1.4-1.3,2.2c-0.3,0.8-0.5,1.8-0.5,2.8c0,1,0.2,1.9,0.5,2.8
		c0.3,0.8,0.8,1.6,1.4,2.2c0.6,0.6,1.3,1.1,2.2,1.5c0.9,0.4,1.8,0.5,2.9,0.5c0.8,0,1.7-0.1,2.5-0.4c0.9-0.3,1.7-0.6,2.4-1
		L123.8,15.8z"/>
	<path class="st2" d="M89.6,35.6c0,0.7-0.1,1.3-0.4,1.9c-0.3,0.6-0.6,1.1-1.1,1.5c-0.5,0.4-1,0.8-1.6,1c-0.6,0.2-1.3,0.4-2,0.4
		c-1,0-1.8-0.1-2.6-0.4c-0.8-0.3-1.5-0.7-2.3-1.1l0.9-1.6c0.6,0.5,1.3,0.8,2,1.1c0.7,0.3,1.4,0.4,2,0.4c0.5,0,1-0.1,1.4-0.2
		c0.4-0.2,0.7-0.4,1-0.7c0.3-0.3,0.5-0.6,0.6-0.9c0.1-0.4,0.2-0.7,0.2-1.1c0-0.4,0-0.7-0.1-1c-0.1-0.3-0.3-0.6-0.5-0.9
		c-0.2-0.3-0.6-0.5-1-0.8c-0.4-0.3-1-0.6-1.7-0.9c-0.7-0.3-1.4-0.6-1.9-1c-0.5-0.3-0.9-0.7-1.2-1.1c-0.3-0.4-0.5-0.8-0.7-1.2
		c-0.1-0.4-0.2-0.9-0.2-1.4c0-0.6,0.1-1.2,0.4-1.7c0.2-0.6,0.6-1,1-1.5c0.5-0.4,1-0.8,1.6-1c0.6-0.3,1.3-0.4,2.1-0.4
		c0.7,0,1.4,0.1,2,0.3c0.6,0.2,1.2,0.5,1.7,0.8l-0.8,1.6C88,25.4,87.5,25.1,87,25c-0.5-0.2-1.1-0.3-1.6-0.3c-0.5,0-1,0.1-1.4,0.2
		c-0.4,0.2-0.7,0.4-1,0.6c-0.3,0.3-0.5,0.6-0.6,0.9c-0.1,0.3-0.2,0.7-0.2,1.1c0,0.6,0.2,1.1,0.7,1.6c0.4,0.5,1.2,1,2.2,1.4
		c0.9,0.4,1.6,0.8,2.2,1.1c0.6,0.4,1,0.7,1.4,1.1c0.3,0.4,0.6,0.8,0.7,1.2C89.5,34.5,89.6,35,89.6,35.6z"/>
	<path class="st2" d="M92.8,40.1V23.3h9.8v1.7h-8v5.8h7.2v1.7h-7.2v6.1h8v1.7H92.8z"/>
	<path class="st2" d="M115.4,40.1l-4.5-6.6c-0.2,0-0.4,0-0.6,0c-0.2,0-0.4,0-0.6,0c-0.3,0-0.6,0-1,0c-0.4,0-0.7,0-1,0v6.6H106V23.4
		c0.6-0.1,1.3-0.1,1.9-0.2c0.6-0.1,1.3-0.1,2-0.1c1.1,0,2,0.1,2.8,0.4c0.8,0.3,1.5,0.6,2,1.1c0.5,0.5,0.9,1,1.2,1.6
		c0.3,0.6,0.4,1.3,0.4,2c0,1.2-0.3,2.2-0.9,3c-0.6,0.8-1.5,1.5-2.7,1.8l4.9,7H115.4z M114.4,28.3c0-0.5-0.1-0.9-0.3-1.4
		c-0.2-0.4-0.5-0.8-0.8-1.1c-0.4-0.3-0.8-0.6-1.3-0.7c-0.5-0.2-1.1-0.3-1.8-0.3c-0.4,0-0.8,0-1.2,0c-0.4,0-0.8,0.1-1.1,0.1v6.8
		c0.3,0,0.6,0.1,1,0.1c0.4,0,0.7,0,1.1,0c1.6,0,2.7-0.3,3.4-1C114,30.3,114.4,29.4,114.4,28.3z"/>
	<path class="st2" d="M125.7,40.4h-0.3l-7.5-17.1h2.1l5.6,13.3l5.6-13.3h2L125.7,40.4z"/>
	<path class="st2" d="M135.7,40.1V23.3h1.8v16.8H135.7z"/>
	<path class="st2" d="M155.2,38.8c-0.7,0.4-1.5,0.8-2.4,1.1c-1,0.3-2,0.5-3.1,0.5c-1.3,0-2.5-0.2-3.6-0.6c-1.1-0.4-2-1-2.8-1.8
		c-0.8-0.8-1.4-1.7-1.9-2.8c-0.4-1.1-0.7-2.2-0.7-3.5c0-1.2,0.2-2.4,0.7-3.5c0.5-1.1,1.1-2,1.9-2.8c0.8-0.8,1.7-1.4,2.8-1.8
		c1.1-0.4,2.3-0.7,3.5-0.7c1.1,0,2.2,0.2,3.1,0.5c1,0.3,1.8,0.7,2.4,1.1l-0.8,1.6c-0.7-0.4-1.5-0.8-2.4-1c-0.9-0.3-1.7-0.4-2.5-0.4
		c-1.1,0-2,0.2-2.8,0.5c-0.8,0.4-1.6,0.8-2.1,1.5c-0.6,0.6-1,1.4-1.3,2.2c-0.3,0.8-0.5,1.8-0.5,2.8c0,1,0.2,1.9,0.5,2.8
		c0.3,0.8,0.8,1.6,1.4,2.2c0.6,0.6,1.3,1.1,2.2,1.5c0.9,0.4,1.8,0.5,2.9,0.5c0.8,0,1.7-0.1,2.5-0.4c0.9-0.3,1.7-0.6,2.4-1
		L155.2,38.8z"/>
	<path class="st2" d="M157.7,40.1V23.3h9.8v1.7h-8v5.8h7.2v1.7h-7.2v6.1h8v1.7H157.7z"/>
	<path class="st2" d="M179.7,35.6c0,0.7-0.1,1.3-0.4,1.9c-0.3,0.6-0.6,1.1-1.1,1.5c-0.5,0.4-1,0.8-1.6,1c-0.6,0.2-1.3,0.4-2,0.4
		c-1,0-1.8-0.1-2.6-0.4c-0.8-0.3-1.5-0.7-2.3-1.1l0.9-1.6c0.6,0.5,1.3,0.8,2,1.1c0.7,0.3,1.4,0.4,2,0.4c0.5,0,1-0.1,1.4-0.2
		c0.4-0.2,0.7-0.4,1-0.7c0.3-0.3,0.5-0.6,0.6-0.9c0.1-0.4,0.2-0.7,0.2-1.1c0-0.4,0-0.7-0.1-1c-0.1-0.3-0.3-0.6-0.5-0.9
		c-0.2-0.3-0.6-0.5-1-0.8c-0.4-0.3-1-0.6-1.7-0.9c-0.7-0.3-1.4-0.6-1.9-1c-0.5-0.3-0.9-0.7-1.2-1.1c-0.3-0.4-0.5-0.8-0.7-1.2
		c-0.1-0.4-0.2-0.9-0.2-1.4c0-0.6,0.1-1.2,0.4-1.7c0.2-0.6,0.6-1,1-1.5c0.5-0.4,1-0.8,1.6-1c0.6-0.3,1.3-0.4,2.1-0.4
		c0.7,0,1.4,0.1,2,0.3c0.6,0.2,1.2,0.5,1.7,0.8l-0.8,1.6c-0.4-0.3-0.9-0.6-1.4-0.7c-0.5-0.2-1.1-0.3-1.6-0.3c-0.5,0-1,0.1-1.4,0.2
		c-0.4,0.2-0.7,0.4-1,0.6c-0.3,0.3-0.5,0.6-0.6,0.9c-0.1,0.3-0.2,0.7-0.2,1.1c0,0.6,0.2,1.1,0.7,1.6c0.4,0.5,1.2,1,2.2,1.4
		c0.9,0.4,1.6,0.8,2.2,1.1c0.6,0.4,1,0.7,1.4,1.1c0.3,0.4,0.6,0.8,0.7,1.2C179.6,34.5,179.7,35,179.7,35.6z"/>
	<path class="st2" d="M80.8,63.1V46.3h1.8v15.2h8v1.7H80.8z"/>
	<path class="st2" d="M93.5,63.1V46.3h1.8v16.8H93.5z"/>
	<path class="st2" d="M113.9,63.1l-0.3-11.9l-6,10.2h-0.3l-6-10.2l-0.2,11.9h-1.9L100,46l0.3,0l7.3,12.7l7.1-12.7l0.4,0l0.6,17.1
		H113.9z"/>
	<path class="st2" d="M119.8,63.1V46.3h1.8v16.8H119.8z"/>
	<path class="st2" d="M132.1,47.9v15.2h-1.8V47.9h-5.6v-1.7h13.1v1.7H132.1z"/>
	<path class="st2" d="M140.1,63.1V46.3h9.8v1.7h-8v5.8h7.2v1.7h-7.2v6.1h8v1.7H140.1z"/>
	<path class="st2" d="M167,54.5c0,1.1-0.2,2.2-0.6,3.3c-0.4,1-1,2-1.8,2.8c-0.8,0.8-1.8,1.4-3,1.9c-1.2,0.5-2.6,0.7-4.1,0.7
		c-0.9,0-1.7,0-2.4-0.1S153.7,63,153,63V46.4c0.6-0.1,1.3-0.1,2-0.2c0.7-0.1,1.5-0.1,2.4-0.1c1.6,0,3,0.2,4.2,0.7
		c1.2,0.5,2.2,1.1,3,1.9c0.8,0.8,1.4,1.7,1.8,2.7C166.8,52.4,167,53.5,167,54.5z M165,54.5c0-1-0.2-1.9-0.5-2.7
		c-0.3-0.8-0.8-1.6-1.4-2.2c-0.6-0.6-1.4-1.1-2.3-1.4c-0.9-0.3-2-0.5-3.2-0.5c-0.5,0-1,0-1.5,0c-0.5,0-0.9,0.1-1.2,0.1v13.6
		c0.4,0.1,0.8,0.1,1.2,0.1c0.5,0,1,0,1.7,0c1.2,0,2.3-0.2,3.2-0.6c0.9-0.4,1.7-0.9,2.3-1.5c0.6-0.6,1-1.4,1.3-2.3
		C164.9,56.5,165,55.5,165,54.5z"/>
</g>
</svg>
