<?xml version="1.0" encoding="UTF-8"?><svg id="Layer_1" xmlns="http://www.w3.org/2000/svg" viewBox="0 0 181.78 87.7"><defs><style>.cls-1{fill:#fff;}</style></defs><path class="cls-1" d="m41,34c-.1-.2-.3-.3-.5-.3h-4.2l-1.3-4c-.1-.3-.3-.4-.6-.3-.2,0-.3.2-.3.3l-1.3,4h-4.3c-.3,0-.5.2-.5.5,0,.2.1.3.2.4l3.5,2.5-1.3,4.1c-.1.2,0,.5.3.6.2.1.3,0,.5-.1l3.4-2.5,3.5,2.5c.2.1.4.1.6,0,.2-.1.2-.3.2-.5l-1.3-4.1,3.4-2.5c0-.2.1-.4,0-.6h0Zm-6.2,4.2c-.2-.1-.4-.1-.6,0l-2.5,1.8,1-3c.1-.2,0-.4-.2-.5l-2.5-1.9h3.1c.2,0,.4-.1.5-.3l1-3,1,3c.1.2.3.3.5.3h3.1l-2.6,1.9c-.2.1-.2.3-.2.5l1,3-2.6-1.8Z"/><path class="cls-1" d="m23.6,45.7c-.1-.2-.3-.3-.5-.3h-4.3l-1.3-4c-.1-.3-.3-.4-.6-.3-.2,0-.3.2-.3.3l-1.3,4h-4.3c-.3,0-.5.2-.5.5,0,.1.1.3.2.4l3.5,2.5-1.3,4.1c-.1.2,0,.5.3.6.2.1.3,0,.5-.1l3.5-2.5,3.5,2.5c.2.1.4.1.6,0s.2-.3.2-.5l-1.3-4,3.4-2.6c-.1-.3,0-.5,0-.6h0Zm-6.3,4.1c-.2-.1-.4-.1-.6,0l-2.5,1.8,1-3c0-.2,0-.4-.2-.5l-2.5-1.8h3.1c.2,0,.4-.1.5-.3l1-3,1,3c.1.2.3.3.5.3h3.1l-2.6,1.8c-.2.1-.2.3-.2.5l1,3-2.6-1.8Z"/><path class="cls-1" d="m45.8,46.2l3.4,2.5-1.3,4.1c-.1.2,0,.4.2.5s.4.1.6,0l3.4-2.5,3.4,2.5c.2.2.5.2.7,0,.1-.1.1-.3.1-.5l-1.3-4.1,3.4-2.5c.2-.2.3-.5.1-.7-.1-.1-.2-.2-.4-.2h-4.3l-1.3-4c-.1-.3-.3-.4-.6-.3-.2,0-.3.2-.3.3l-1.3,4.1h-4.3c-.3,0-.5.2-.5.5.1.1.1.2.3.3h0Zm3.5,5.5l1-3c.1-.2,0-.4-.2-.5l-2.5-1.8h3.1c.2,0,.4-.1.5-.3l1-3,1,3c.1.2.3.3.5.3h3.1l-2.6,1.9c-.2,0-.3.2-.2.4l1,3-2.5-1.8c-.2-.1-.4-.1-.6,0l-2.6,1.8Z"/><path class="cls-1" d="m32.5,22.5c-.1-.2-.3-.3-.5-.2-1.6.3-3.2-.3-5.2-1.9,2.1-1.2,3.6-3.2,4.2-5.5.1-.2-.1-.5-.3-.6-.8-.3-1.7-.4-2.6-.5.4-.8.6-1.6.7-2.4,0-.2-.1-.5-.3-.5-3.6-.9-7.5.1-10.3,2.5-1.1-.8-2.3-1.3-3.6-1.6-.1-.3-.2-.5-.2-.8-.4-1.6-.8-3.1-2.2-4-1.1-.8-2.5-1-3.9-.6-.9.3-1.6.9-2,1.7-1.3,0-2.4.4-3.3,1.1-.2.1-.2.4-.1.6s.3.3.5.3c2-.1,3.2.3,3.2.8,0,.3-.1.7-.2,1-.9,2.2-.8,4.7.3,6.8h0c1.2,2.2,3.1,3.9,5.5,4.8.8.3,1.6.5,2.4.7-.2,1.8-.5,2.4-1.6,2.5-.5.1-1.1,0-1.5-.2-.2-.1-.5,0-.6.2s0,.5.2.6c.4.2.9.3,1.3.3h2c1.3-.2,2.6-.1,3.9.3.2.1.5,0,.7-.2.1-.2,0-.5-.2-.7h0c-.6-.3-1.3-.4-2-.5l.2-.2c.6-.6,1-1.2,1.4-1.9,1.2-.1,2.3-.3,3.4-.7,1.5.8,3.3,1.3,5,1.3,2.1.1,4.2-.6,5.8-2,.2-.2.2-.4.1-.6l-.2.1Zm-4.9-10.8c-.1.7-.4,1.4-.8,2-1.4-.1-2.8.1-4.1.7-1.3.5-2.3,1.4-3,2.6-.9-.1-1.7-.3-2.5-.8,1.7-3.8,7.1-5.3,10.4-4.5h0Zm-1.4,3c-1.3,1.5-3.2,2.3-5.2,2.4h-.1c.6-.8,1.4-1.4,2.3-1.8,1-.5,2-.6,3-.6h0Zm-9.7.8c-.8-.7-1.4-1.7-1.7-2.7.9.3,1.8.7,2.6,1.2-.4.5-.7,1-.9,1.5h0Zm-12-6.2c1.4-.4,3-.3,4.3.3h0c.7.4,1,.4,1.3.2.2-.1.4-.4.4-.7,0-.5-.4-.8-.8-.8-.3.1-.6.2-.7.4-.5-.3-1.1-.5-1.7-.5.3-.5.7-.7,1.2-.9,1-.3,2.1-.1,3,.5,1,.7,1.4,1.9,1.8,3.4.1.5.3,1,.5,1.6.8,3.2,3.8,5.4,7.1,5.2h.1c2.6,0,4.9-1.2,6.4-3.3.8.1,1.6.2,2.4.4-1,3.4-4.5,5.8-8.7,5.9-5.8.2-9.9-2.8-11-8,0-.1-.1-.3-.2-.3-.1-.1-.3-.1-.4,0-1.2.3-2.2,1.1-2.8,2.1,0-.9.2-1.8.5-2.6.2-.4.3-.9.3-1.4,0-.8-1.2-1.5-3-1.5h0Zm3,8.9c-.4-.9-.4-1.9-.1-2.8.4-.8,1-1.4,1.9-1.8.7,3.2,2.9,5.8,5.8,7.1-.2.9-.3,1.7-.4,2.4-.7-.1-1.5-.3-2.2-.6-2.1-.7-3.9-2.2-5-4.3h0Zm8.7,7.4c-.3.3-.7.5-1.1.7.3-.8.5-1.7.6-2.6.1-.7.2-1.6.4-2.5.7.2,1.4.4,2.1.5-.4,1.5-1,2.8-2,3.9h0Zm5.7-2.8c-.1-.1-.3-.1-.4,0-.9.3-1.9.6-2.9.7.2-.5.4-1,.5-1.6.5.1,1,.1,1.6.1h.5c1.6,0,3.2-.4,4.6-1.1,1.3,1.2,2.9,2.1,4.6,2.4-2.7,1.2-5.9,1.1-8.5-.5h0Z"/><path class="cls-1" d="m66.2,22.5c-.1-.2-.3-.3-.5-.2-1.6.3-3.2-.3-5.2-1.9,2.1-1.2,3.6-3.2,4.2-5.5.1-.2-.1-.5-.3-.6-.8-.3-1.7-.4-2.6-.5.4-.8.6-1.6.7-2.4,0-.2-.1-.5-.3-.5-3.6-.9-7.5.1-10.3,2.5-1.1-.8-2.3-1.3-3.6-1.6-.2-.3-.3-.5-.3-.8-.4-1.6-.8-3.1-2.2-4-1.1-.8-2.5-1-3.8-.6-.9.3-1.6.9-2,1.7-1.1,0-2.3.4-3.2,1.1-.2.1-.2.4-.1.6.1.2.3.3.5.3,2-.1,3.2.3,3.2.8,0,.3-.1.7-.2,1-.6,1.5-.8,3.2-.4,4.9.2.7.4,1.4.7,2h0c1.2,2.2,3.1,3.9,5.5,4.8.8.3,1.6.5,2.5.6-.3,1.8-.5,2.4-1.6,2.5-.5,0-1,0-1.5-.2-.2-.1-.5,0-.7.2-.1.2,0,.5.2.7h0c.4.2.8.3,1.3.3h1.9c1.3-.2,2.6-.1,3.9.3.2.1.5,0,.7-.2.1-.2,0-.5-.2-.7h0c-.6-.3-1.3-.4-2-.5q.1-.1.2-.2c.6-.6,1-1.2,1.4-1.9,1.2,0,2.3-.2,3.4-.6,1.5.8,3.3,1.3,5,1.3,2.1.1,4.2-.6,5.8-2,0-.3,0-.5-.1-.7h0Zm-4.8-10.8c-.1.7-.4,1.4-.8,2-1.4-.1-2.8.1-4.1.7-1.3.5-2.4,1.4-3.1,2.6-.9-.1-1.7-.3-2.5-.8,1.7-3.8,7.2-5.3,10.5-4.5h0Zm-1.4,3c-1.3,1.5-3.2,2.3-5.2,2.4h-.1c.6-.8,1.4-1.4,2.3-1.8,1-.5,2-.6,3-.6h0Zm-9.8.8c-.8-.7-1.4-1.7-1.7-2.7.9.3,1.8.7,2.6,1.2l-.9,1.5Zm-12-6.2c1.4-.4,3-.3,4.3.3h0c.7.4,1,.4,1.3.2.2,0,.4-.3.4-.6,0-.5-.4-.8-.8-.8-.2,0-.5.1-.6.3-.5-.3-1.1-.4-1.7-.5.3-.4.7-.7,1.2-.8,1-.3,2.1-.1,3,.5,1,.7,1.4,1.9,1.8,3.4.1.5.3,1,.5,1.6.8,3.2,3.8,5.4,7.1,5.2h.2c2.6,0,4.9-1.2,6.4-3.3.8.1,1.6.2,2.4.4-1,3.4-4.5,5.8-8.7,5.9-5.8.2-9.9-2.8-11-8,0-.1-.1-.3-.2-.3-.1-.1-.3-.1-.4,0-1.2.3-2.2,1.1-2.8,2.1,0-.9.2-1.8.5-2.6.2-.4.3-.9.3-1.4-.2-1-1.3-1.6-3.2-1.6h0Zm3.1,8.9c-.4-.9-.5-1.9-.1-2.8.4-.8,1-1.5,1.9-1.8.7,3.2,2.9,5.8,5.8,7.1-.2.9-.3,1.7-.4,2.4-.7-.1-1.5-.3-2.2-.6-2.2-.7-4-2.3-5-4.3h0Zm8.6,7.4c-.3.3-.7.5-1.1.7.3-.8.5-1.7.6-2.6.1-.7.2-1.6.4-2.5.7.2,1.4.4,2.1.5-.3,1.5-1,2.8-2,3.9h0Zm5.8-2.8c-.1-.1-.3-.1-.4,0-.9.3-1.9.6-2.9.7.2-.5.4-1,.5-1.6.5.1,1,.1,1.6.1h.5c1.6,0,3.2-.4,4.6-1.1,1.3,1.2,2.9,2.1,4.6,2.4-2.7,1.2-5.9,1.1-8.5-.5h0Z"/><path class="cls-1" d="m0,2.7v34.4c0,20,12.5,38.4,34.3,50.4l.3.2.3-.2c21.8-12,34.3-30.4,34.3-50.4V2.7H0Zm2.7,46.2l31.9-23.2,31.9,23.3c-1.3,5.1-3.5,9.9-6.3,14.3l-25.6-18.8-25.6,18.7c-2.8-4.4-5-9.3-6.3-14.3Zm31.9,37.4c-10.8-6-19.3-13.6-25-22.2l25-18.2,25,18.2c-5.7,8.6-14.2,16.2-25,22.2h0Zm33.4-49.1c0,3.5-.4,7-1.2,10.5l-32.2-23.5L2.4,47.6c-.8-3.4-1.2-6.9-1.2-10.4V3.9h66.8v33.3Z"/><path class="cls-1" d="m48.6,66.8c-.1-.2-.2-.3-.4-.3h0c-.2,0-.4.1-.5.3-.9,2.2-2.7,3.3-6.8,5.8-1.1.6-2.1,1.3-3,2.1-.8.6-1.4,1.3-2,2.1-.1-.7-.2-3.8-.4-5.6.3.3.7.5,1.2.5h.2c.8-.2,1.2-1.3,1.2-1.8,0-.4,0-.7-.1-1.1.2.3.5.5.8.7.4.2.8.3,1.2.3s.7-.1,1-.3c.5-.6.6-1.4.3-2.2-.2-.3-.4-.6-.6-.9.4.1.7.2,1.1.3.4,0,1.6-.3,1.9-1s-.4-1.8-.7-2-.6-.4-1-.5c.4,0,.7-.1,1.1-.3.4-.2,1.3-1,1.2-1.8s-1.2-1.3-1.6-1.4c-.4-.1-.7-.1-1.1,0,.3-.2.6-.4.8-.7.4-.6.5-1.4.2-2.1-.4-.4-1-.7-1.6-.7-.2,0-.4,0-.5.1-.4.1-.7.3-1,.5.2-.3.3-.6.4-1,.1-.8-.2-1.5-.8-2-.7-.2-1.5,0-2.1.5-.3.3-.5.6-.6.9,0-.4,0-.7-.1-1.1-.1-.4-.8-1.4-1.6-1.4s-1.5.9-1.6,1.4c-.1.4-.1.7-.1,1.1-.2-.3-.4-.6-.6-.9-.6-.5-1.4-.7-2.1-.5-.6.5-.9,1.2-.8,2,.1.4.2.7.4,1-.3-.2-.6-.4-1-.5-.2,0-.4-.1-.5-.1-.6,0-1.1.2-1.5.6-.3.7-.2,1.5.2,2.1.2.3.5.5.8.7-.4-.1-.7-.1-1.1,0s-1.5.7-1.6,1.4.8,1.6,1.2,1.8c.4.2.7.3,1.1.3-.4.1-.7.3-1,.5-.6.5-.9,1.3-.7,2,.3.7,1.3,1,1.9,1h0c.4,0,.7-.1,1.1-.3-.3.3-.5.6-.6.9-.3.7-.2,1.5.3,2.1.3.2.6.3,1,.3s.8-.1,1.2-.3c.3-.2.6-.4.8-.7-.1.4-.1.7-.1,1.1s.5,1.6,1.2,1.8c.5.1,1-.1,1.4-.4-.2,1.9-.3,5-.4,5.6-.5-.8-1.2-1.5-2-2.1-.9-.8-1.9-1.5-3-2.1-4.1-2.5-5.8-3.6-6.8-5.8-.1-.2-.3-.3-.5-.3h0c-.2,0-.4.2-.4.3-1.2,3.9.7,7.2,5.7,10l1.1.6.2.1c1.3.7,2.6,1.4,3.8,2.3,1.3,1.1,2.2,2.5,2.8,4.1.1.2.2.3.4.3h0c.2,0,.3-.1.4-.3.5-1.6,1.5-3,2.8-4.1,1.2-.9,2.4-1.6,3.8-2.3l.2-.1,1.1-.6c4.6-2.8,6.5-6,5.4-9.9h0Zm-11.9,3.9h0c-.3-.1-.6-.3-.8-.6-.4-1.3-.7-2.6-.8-4l-.1-.8c.3,0,.5-.1.8-.2v.1c.8,2,1.5,3.8,1.4,4.6-.1.3-.2.6-.5.9h0Zm3.7-2h0c-.1,0-.2.1-.3.1-.3,0-.5,0-.7-.2-1-.9-1.8-2-2.5-3.2l-.5-.7c.2-.2.4-.3.6-.5h0c1.7,1.5,3.2,2.8,3.4,3.4.1.4.1.7,0,1.1h0Zm1.9-4.3c.2.2.4.6.5.9h0c-.3.2-.6.4-.9.4h0c-1.3-.4-2.5-.9-3.7-1.6l-.8-.4c.1-.2.2-.5.3-.7h.1c2.1.4,4,.9,4.5,1.4h0Zm.2-3.8c.3.1.6.3.8.6h0c-.1.3-.4.6-.7.8-1.3.3-2.7.4-4.1.3h-.8c0-.3,0-.5-.1-.8h.1c2.2-.5,4-1,4.8-.9h0Zm-1.7-3.4h.3c.3,0,.5,0,.8.2h0c0,.3,0,.7-.2,1-1.1.9-2.2,1.6-3.5,2.1l-.7.4c-.1-.2-.3-.5-.5-.7l.1-.1c1-1.1,2.3-2.1,3.7-2.9Zm-5,2c.8-2,1.4-3.8,1.9-4.3.3-.2.6-.3.9-.4h.1c.2.3.3.6.3,1-.5,1.2-1.2,2.4-2.1,3.5l-.5.7c-.2-.1-.5-.3-.6-.5h0Zm-1.9-4.9c.1-.2.5-.7.7-.7h0c.2,0,.6.5.7.8.1,1.4,0,2.7-.2,4.1h0l-.1.7h-.8c-.3-2.2-.5-4.2-.3-4.9h0Zm.7,5.9c1.2,0,2.1,1,2.1,2.1,0,1.2-1,2.1-2.1,2.1-1.2,0-2.1-.9-2.1-2.1s1-2.1,2.1-2.1Zm-4-5.6h.1c.3,0,.6.2.9.3.7,1.2,1.3,2.4,1.7,3.7l.3.8c-.2.1-.5.2-.7.4v-.1c-1.3-1.8-2.4-3.4-2.5-4.1-.1-.3,0-.7.2-1h0Zm-2.9,3.8c-.2-.3-.3-.7-.2-1h0c.2-.1.5-.2.8-.2h.3c1.2.7,2.3,1.5,3.2,2.5l.6.5c-.2.2-.3.4-.4.7h-.1c-2.1-1-3.8-1.9-4.2-2.5h0Zm-1,3.6c-.3-.2-.5-.4-.7-.8h0c.2-.3.5-.5.8-.6h.3c1.3.1,2.5.4,3.8.7l.8.2c-.1.2-.1.5-.1.8h-1.3c-1.2.1-2.4,0-3.6-.3h0Zm.8,3.7h0c-.3,0-.7-.2-.9-.4h0c0-.3.2-.7.5-.9,1.2-.6,2.5-1,3.8-1.3l.8-.2c.1.3.2.5.3.7l-.2.1c-1.4.9-2.8,1.6-4.3,2h0Zm2.4,3c-.2.1-.5.2-.7.2h-.3c-.1-.3-.1-.7,0-1,.8-1.1,1.8-2,2.8-2.8l.7-.6c.2.2.4.4.6.5l-.1.1c-1.2,1.7-2.3,3.3-3,3.6h0Zm2.7,2h0c-.3-.2-.4-.5-.5-.9.2-1.3.6-2.6,1.2-3.9l.3-.8c.2.1.5.2.8.2v.1c-.3,2.2-.5,4.1-.9,4.7-.2.3-.5.5-.9.6h0Zm9.7,5.2l-1.3.7c-1.4.7-2.7,1.5-3.9,2.4-1.1.9-2,2.1-2.6,3.4-.6-1.3-1.5-2.5-2.6-3.4-1.2-.9-2.5-1.7-3.9-2.4l-1.3-.7c-4-2.3-5.8-4.8-5.5-7.6,1.2,1.9,3.3,3.1,6.5,5,1.2.7,2.3,1.5,3.4,2.4.9.8,1.5,1.8,2,2.8.1.4.3.5.5.5s.4-.1.4-.5c.1-1.1.4-5.9.5-7.4.1,1.5.4,6.3.5,7.4,0,.4.2.5.4.5s.3-.1.5-.5c.5-1.1,1.1-2,2-2.8,1-.9,2.1-1.7,3.4-2.4,3.2-1.9,5.3-3.2,6.5-5,.4,2.9-1.5,5.4-5.5,7.6Z"/><path class="cls-1" d="m89.36,21.08c-5.42,0-9.34-3.79-9.34-9.07s4.01-9.1,9.34-9.1c2.33,0,4.42.82,5.81,1.68l-.79,1.63c-1.49-.86-3.5-1.51-5.18-1.51-4.44,0-7.08,3.14-7.08,7.3s2.81,7.27,7.25,7.27c1.68,0,3.7-.65,5.18-1.51l.62,1.63c-1.39.86-3.48,1.68-5.81,1.68Z"/><path class="cls-1" d="m97.52,20.8V3.2h1.92v15.87h8.38v1.73h-10.3Z"/><path class="cls-1" d="m117.22,21.08c-5.42,0-9.34-3.79-9.34-9.07s4.01-9.1,9.34-9.1c2.33,0,4.42.82,5.81,1.68l-.79,1.63c-1.49-.86-3.5-1.51-5.18-1.51-4.44,0-7.08,3.14-7.08,7.3s2.81,7.27,7.25,7.27c1.68,0,3.7-.65,5.18-1.51l.62,1.63c-1.39.86-3.48,1.68-5.81,1.68Z"/><path class="cls-1" d="m85.37,43.94c-1.78,0-3.38-.14-4.75-.29v-17.28c1.34-.17,2.81-.29,4.58-.29,6.6,0,10.06,4.25,10.06,8.76s-3.29,9.1-9.89,9.1Zm0-16.23c-1.06,0-2.21.07-2.83.19v14.19c.74.14,1.68.19,3.07.19,5.18,0,7.56-3.26,7.56-7.44s-2.69-7.13-7.8-7.13Z"/><path class="cls-1" d="m98.38,43.8v-17.59h1.92v17.59h-1.92Z"/><path class="cls-1" d="m119.26,35.08v6.94c-1.78,1.32-3.82,2.06-6.43,2.06-4.87,0-9.41-3.58-9.41-9.07s4.66-9.1,9.19-9.1c2.9,0,4.73.84,6.58,2.14l-1.01,1.51c-1.61-1.18-3.62-1.92-5.54-1.92-4.51,0-7.13,3.48-7.13,7.37,0,4.15,3.24,7.37,7.34,7.37,1.73,0,3.1-.36,4.49-1.2v-4.3h-4.66v-1.8h6.58Z"/><path class="cls-1" d="m122.5,43.8v-17.59h1.92v17.59h-1.92Z"/><path class="cls-1" d="m134.62,27.93v15.87h-1.92v-15.87h-5.88v-1.73h13.66v1.73h-5.86Z"/><path class="cls-1" d="m153.44,43.8l-2.09-4.87h-7.87l-2.09,4.87h-1.99l7.9-17.91h.31l7.9,17.91h-2.06Zm-6.02-14.04l-3.24,7.56h6.48l-3.24-7.56Z"/><path class="cls-1" d="m157.3,43.8v-17.59h1.92v15.87h8.38v1.73h-10.3Z"/><path class="cls-1" d="m84.39,67.08c-1.99,0-3.55-.62-5.09-1.63l.94-1.68c1.34.96,2.88,1.56,4.25,1.56,2.26,0,3.31-1.49,3.31-3.07s-.6-2.45-3.48-3.72c-3.05-1.34-4.18-2.71-4.18-4.82,0-2.54,2.16-4.8,5.38-4.8,1.49,0,2.9.5,3.91,1.2l-.86,1.63c-.86-.62-2.02-1.08-3.17-1.08-2.21,0-3.34,1.34-3.34,2.95,0,1.22.84,2.21,3,3.19,3.67,1.66,4.71,2.88,4.71,5.23,0,2.86-2.33,5.04-5.38,5.04Z"/><path class="cls-1" d="m92.43,66.8v-17.59h10.3v1.73h-8.38v6.07h7.54v1.73h-7.54v6.34h8.38v1.73h-10.3Z"/><path class="cls-1" d="m115.76,66.8l-4.68-6.94c-.38.02-.77.05-1.18.05-.58,0-1.42-.02-1.99-.05v6.94h-1.92v-17.43c1.3-.17,2.59-.29,4.06-.29,4.54,0,6.77,2.26,6.77,5.28,0,2.45-1.37,4.3-3.84,5.09l5.11,7.34h-2.33Zm-5.42-15.99c-.82,0-1.8.05-2.42.19v7.15c.58.07,1.46.12,2.14.12,3.29,0,4.7-1.51,4.7-3.79,0-2.06-1.54-3.67-4.42-3.67Z"/><path class="cls-1" d="m126.08,67.11h-.31l-7.82-17.91h2.16l5.88,13.92,5.83-13.92h2.09l-7.82,17.91Z"/><path class="cls-1" d="m135.82,66.8v-17.59h1.92v17.59h-1.92Z"/><path class="cls-1" d="m150.2,67.08c-5.42,0-9.34-3.79-9.34-9.07s4.01-9.1,9.34-9.1c2.33,0,4.42.82,5.81,1.68l-.79,1.63c-1.49-.86-3.5-1.51-5.18-1.51-4.44,0-7.08,3.14-7.08,7.3s2.81,7.27,7.25,7.27c1.68,0,3.7-.65,5.18-1.51l.62,1.63c-1.39.86-3.48,1.68-5.81,1.68Z"/><path class="cls-1" d="m158.36,66.8v-17.59h10.3v1.73h-8.38v6.07h7.54v1.73h-7.54v6.34h8.38v1.73h-10.3Z"/><path class="cls-1" d="m175.66,67.08c-1.99,0-3.55-.62-5.09-1.63l.94-1.68c1.34.96,2.88,1.56,4.25,1.56,2.26,0,3.31-1.49,3.31-3.07s-.6-2.45-3.48-3.72c-3.05-1.34-4.18-2.71-4.18-4.82,0-2.54,2.16-4.8,5.38-4.8,1.49,0,2.9.5,3.91,1.2l-.86,1.63c-.86-.62-2.02-1.08-3.17-1.08-2.21,0-3.34,1.34-3.34,2.95,0,1.22.84,2.21,3,3.19,3.67,1.66,4.71,2.88,4.71,5.23,0,2.86-2.33,5.04-5.38,5.04Z"/></svg>