<svg id="Layer_1" data-name="Layer 1" xmlns="http://www.w3.org/2000/svg" viewBox="0 0 90.71 85.32"><defs><style>.cls-1{fill:#939393;}</style></defs><title>Flourish_Logo_Artboard 1</title><path class="cls-1" d="M32.26,75.84v-1h-6V85.1h1.12V80.59h4.4v-1h-4.4V75.84Zm7.88,9.25v-1H35.25V74.83H34.13V85.1Zm9.26-3.43a4.17,4.17,0,0,1-.8,1.37,3.68,3.68,0,0,1-2.8,1.24,3.76,3.76,0,0,1-1.57-.33A3.71,3.71,0,0,1,43,83a4.2,4.2,0,0,1-.8-1.37,5.14,5.14,0,0,1,0-3.39,4.2,4.2,0,0,1,.8-1.37A3.71,3.71,0,0,1,44.22,76a3.76,3.76,0,0,1,1.57-.33,3.68,3.68,0,0,1,2.8,1.24,4.17,4.17,0,0,1,.8,1.37,5.14,5.14,0,0,1,0,3.39Zm1.11-3.83a5,5,0,0,0-2.71-2.77,4.89,4.89,0,0,0-2-.4,5,5,0,0,0-2,.4,5.17,5.17,0,0,0-2.77,2.77A5.33,5.33,0,0,0,40.67,80a5.54,5.54,0,0,0,.4,2.12,5.17,5.17,0,0,0,1.09,1.68,5,5,0,0,0,3.58,1.49,5.11,5.11,0,0,0,3.62-1.49A5.33,5.33,0,0,0,50.9,80a5.57,5.57,0,0,0-.4-2.13Zm10-3H59.35v6.5a3.86,3.86,0,0,1-.2,1.32,2.37,2.37,0,0,1-.57.91,2.28,2.28,0,0,1-.87.52,3.72,3.72,0,0,1-2.21,0,2.17,2.17,0,0,1-.86-.52,2.46,2.46,0,0,1-.56-.91,3.86,3.86,0,0,1-.2-1.32v-6.5H52.74v6.58A4.57,4.57,0,0,0,53,83.05a3.41,3.41,0,0,0,.77,1.21A3.18,3.18,0,0,0,55,85a4.77,4.77,0,0,0,1.6.25A4.45,4.45,0,0,0,58.16,85a3.56,3.56,0,0,0,1.23-.76,3.35,3.35,0,0,0,.8-1.21,4.37,4.37,0,0,0,.28-1.61V74.83Zm6.94,4.69a3,3,0,0,1-2.09.6l-.64,0-.6,0V75.88a3.55,3.55,0,0,1,.67-.09l.75,0a3.38,3.38,0,0,1,1.11.17,2.37,2.37,0,0,1,.81.45,1.9,1.9,0,0,1,.49.68,2.27,2.27,0,0,1-.48,2.45ZM70,85.1l-3-4.28a3.23,3.23,0,0,0,1.67-1.12,3,3,0,0,0,.57-1.85A3.06,3.06,0,0,0,69,76.62a2.63,2.63,0,0,0-.73-1A3.51,3.51,0,0,0,67,75a5.86,5.86,0,0,0-1.74-.23q-.64,0-1.22,0l-1.15.12V85.1h1.12V81l.58,0h.93l.34,0,2.73,4Zm2.79,0V74.83H71.67V85.1Zm7.87-3.7a2,2,0,0,0-.44-.76,3.89,3.89,0,0,0-.85-.68A12.31,12.31,0,0,0,78,79.27a4.09,4.09,0,0,1-1.35-.88,1.44,1.44,0,0,1-.4-1,1.77,1.77,0,0,1,.13-.66,1.55,1.55,0,0,1,.36-.55,1.74,1.74,0,0,1,.61-.37,2.39,2.39,0,0,1,.85-.14,2.87,2.87,0,0,1,1,.17,3.35,3.35,0,0,1,.86.46l.5-1a4.14,4.14,0,0,0-1-.5,3.9,3.9,0,0,0-1.25-.2A3.44,3.44,0,0,0,77,74.9a3.12,3.12,0,0,0-1,.62,2.7,2.7,0,0,0-.64.89,2.69,2.69,0,0,0-.09,1.91,2.28,2.28,0,0,0,.42.73,3.34,3.34,0,0,0,.75.64,7.84,7.84,0,0,0,1.13.59,9.08,9.08,0,0,1,1,.52,2.61,2.61,0,0,1,.62.5,1.45,1.45,0,0,1,.3.53,2.14,2.14,0,0,1,.08.62,1.93,1.93,0,0,1-.12.67,1.64,1.64,0,0,1-1,1,2.27,2.27,0,0,1-.85.15A3.5,3.5,0,0,1,76.45,84a5.42,5.42,0,0,1-1.23-.67l-.55,1a6.27,6.27,0,0,0,1.38.7,4.71,4.71,0,0,0,1.59.25A3.41,3.41,0,0,0,78.89,85a3,3,0,0,0,1-.62,2.91,2.91,0,0,0,.66-.93,2.82,2.82,0,0,0,.24-1.16,3.12,3.12,0,0,0-.13-.92Zm9.9,3.7V74.83H89.43v4.55H83.94V74.83H82.82V85.1h1.12v-4.7h5.49v4.7Z"/><path class="cls-1" d="M34.37,68.08a7.28,7.28,0,0,1-1.47.63,5.25,5.25,0,0,1-1.55.25,4.56,4.56,0,0,1-1.75-.32,3.92,3.92,0,0,1-1.34-.89,3.85,3.85,0,0,1-.85-1.34,4.73,4.73,0,0,1-.29-1.69A4.93,4.93,0,0,1,27.4,63a3.9,3.9,0,0,1,.81-1.35,3.68,3.68,0,0,1,1.3-.9,4.45,4.45,0,0,1,1.74-.32,5.25,5.25,0,0,1,1.55.25,7.27,7.27,0,0,1,1.47.63l.46-1a7.59,7.59,0,0,0-1.49-.68,5.79,5.79,0,0,0-1.9-.3,5.69,5.69,0,0,0-2.16.41,5.32,5.32,0,0,0-1.73,1.11,5.06,5.06,0,0,0-1.14,1.68,5.33,5.33,0,0,0-.41,2.11,5.45,5.45,0,0,0,.41,2.12,5,5,0,0,0,1.13,1.68,5.15,5.15,0,0,0,1.72,1.1,5.9,5.9,0,0,0,2.18.39,5.79,5.79,0,0,0,1.9-.3A7.59,7.59,0,0,0,34.74,69l-.36-1Zm8.23,1.76v-1H37.72V59.58H36.6V69.85Zm9-1.76a7.28,7.28,0,0,1-1.47.63,5.24,5.24,0,0,1-1.55.25,4.56,4.56,0,0,1-1.75-.32,3.93,3.93,0,0,1-1.34-.89,3.85,3.85,0,0,1-.85-1.34,4.73,4.73,0,0,1-.29-1.69A4.93,4.93,0,0,1,44.63,63a3.92,3.92,0,0,1,.81-1.35,3.69,3.69,0,0,1,1.3-.9,4.45,4.45,0,0,1,1.74-.32,5.24,5.24,0,0,1,1.55.25,7.27,7.27,0,0,1,1.47.63l.46-1a7.59,7.59,0,0,0-1.49-.68,5.79,5.79,0,0,0-1.9-.3,5.69,5.69,0,0,0-2.16.41,5.34,5.34,0,0,0-1.73,1.11,5.07,5.07,0,0,0-1.14,1.68,5.34,5.34,0,0,0-.41,2.11,5.45,5.45,0,0,0,.41,2.12,5,5,0,0,0,1.13,1.68,5.15,5.15,0,0,0,1.72,1.1,5.91,5.91,0,0,0,2.18.39,5.79,5.79,0,0,0,1.9-.3A7.59,7.59,0,0,0,52,69l-.36-1Z"/><rect class="cls-1" x="16.87" y="33.62" width="0.6" height="51.47"/><path class="cls-1" d="M17.17,34.07c-.82,0-1.77-1.39-2-2A5.77,5.77,0,0,1,15,30.51,5.64,5.64,0,0,1,14.38,32c-.35.51-1.68,1.55-2.47,1.29s-1.25-1.88-1.24-2.49A5.52,5.52,0,0,1,11,29.2a5.63,5.63,0,0,1-1.07,1.16c-.49.37-2.08.95-2.75.46s-.61-2.17-.41-2.75a5.68,5.68,0,0,1,.78-1.37,5.57,5.57,0,0,1-1.37.77c-.58.2-2.27.26-2.75-.4s.09-2.26.46-2.75A5.5,5.5,0,0,1,5,23.26a5.56,5.56,0,0,1-1.53.3h0c-.64,0-2.21-.46-2.46-1.24s.78-2.12,1.29-2.47a5.54,5.54,0,0,1,1.41-.65A5.53,5.53,0,0,1,2.15,19c-.59-.18-2-1.12-2-1.95s1.4-1.77,2-2a5.68,5.68,0,0,1,1.56-.18,5.62,5.62,0,0,1-1.43-.66C1.77,13.93.74,12.6,1,11.81s1.83-1.24,2.46-1.24h0a5.51,5.51,0,0,1,1.53.3A5.56,5.56,0,0,1,3.87,9.82c-.37-.49-.95-2.08-.46-2.75s2.17-.61,2.75-.41a5.53,5.53,0,0,1,1.36.76,5.52,5.52,0,0,1-.76-1.36c-.2-.58-.26-2.27.41-2.75s2.25.09,2.75.46A5.53,5.53,0,0,1,11,4.91a5.49,5.49,0,0,1-.3-1.53c0-.61.44-2.24,1.24-2.49s2.12.78,2.47,1.29A5.56,5.56,0,0,1,15,3.6,5.58,5.58,0,0,1,15.21,2c.18-.59,1.13-2,2-2s1.77,1.4,2,2a5.54,5.54,0,0,1,.18,1.54A5.54,5.54,0,0,1,20,2.18C20.3,1.68,21.62.64,22.42.89s1.25,1.88,1.24,2.5a5.59,5.59,0,0,1-.31,1.53,5.6,5.6,0,0,1,1.06-1.15c.49-.37,2.08-.94,2.75-.46s.61,2.17.41,2.76a5.54,5.54,0,0,1-.76,1.36,5.54,5.54,0,0,1,1.36-.76c.58-.2,2.27-.26,2.75.41s-.09,2.26-.46,2.75a5.6,5.6,0,0,1-1.15,1.06,5.56,5.56,0,0,1,1.54-.31h0c.64,0,2.21.46,2.46,1.24s-.78,2.12-1.29,2.47a5.6,5.6,0,0,1-1.43.66,5.61,5.61,0,0,1,1.56.18c.59.18,2,1.12,2,1.95s-1.4,1.78-2,2a5.6,5.6,0,0,1-1.55.18,5.55,5.55,0,0,1,1.42.66c.51.35,1.54,1.68,1.29,2.46s-1.84,1.24-2.47,1.24h0a5.56,5.56,0,0,1-1.53-.3,5.47,5.47,0,0,1,1.14,1.06c.37.49.95,2.07.47,2.74s-2.18.61-2.76.41a5.51,5.51,0,0,1-1.37-.77,5.66,5.66,0,0,1,.77,1.37c.2.59.26,2.28-.41,2.76s-2.25-.09-2.74-.46a5.58,5.58,0,0,1-1.06-1.14,5.49,5.49,0,0,1,.3,1.52c0,.61-.45,2.23-1.24,2.49S20.31,32.46,20,32a5.54,5.54,0,0,1-.65-1.41,5.56,5.56,0,0,1-.18,1.54C18.94,32.67,18,34.07,17.17,34.07Zm-.86-9.63c-.59,3.82-.87,6.29-.51,7.47.18.58,1,1.56,1.38,1.56s1.2-1,1.38-1.56c.35-1.16.08-3.59-.49-7.35q-.17-1.06-.37-2.29a5.39,5.39,0,0,1-1,0Q16.47,23.42,16.3,24.44ZM14,24c-1.69,3.36-2.68,5.58-2.71,6.78,0,.59.46,1.79.82,1.91s1.45-.57,1.79-1.06c.7-1,1.21-3.49,1.84-7.37q.15-1,.33-2.06a5.18,5.18,0,0,1-1-.32Zm4.66.49c.61,3.75,1.11,6.15,1.8,7.14.34.49,1.44,1.17,1.79,1.06s.84-1.32.82-1.91c0-1.21-1-3.42-2.7-6.77l-1.09-2.13a5.22,5.22,0,0,1-1,.32Q18.48,23.41,18.64,24.47ZM12,22.68c-2.63,2.66-4.25,4.45-4.65,5.59a2.8,2.8,0,0,0,.2,2.07c.31.23,1.56-.1,2-.45,1-.74,2.18-2.85,3.91-6.21l1.07-2.1a5.26,5.26,0,0,1-.83-.61Zm8.92,1c1.72,3.34,2.93,5.44,3.89,6.17.47.36,1.72.67,2,.45s.39-1.5.2-2.07c-.41-1.16-2.09-3-4.81-5.75L20.64,21a5.27,5.27,0,0,1-.84.61Zm-10.29-3c-3.39,1.75-5.52,3-6.25,3.93-.36.47-.68,1.72-.46,2s1.51.38,2.07.19c1.13-.39,2.92-2,5.57-4.62l1.73-1.74a5.22,5.22,0,0,1-.61-.84Zm12,1.37c2.74,2.71,4.57,4.38,5.72,4.79a2.79,2.79,0,0,0,2.08-.2c.23-.31-.09-1.55-.46-2-.74-1-2.93-2.22-6.4-4l-1.9-1a5.25,5.25,0,0,1-.61.84Zm-13-3.56c-3.68.6-6,1.1-7,1.78-.48.34-1.18,1.43-1.06,1.79S2.87,23,3.47,23c1.21,0,3.46-1,6.86-2.75l2-1a5.1,5.1,0,0,1-.32-1Zm14.21,1.58c3.49,1.76,5.77,2.8,7,2.83.63,0,1.79-.46,1.91-.83s-.58-1.45-1.06-1.79c-1-.69-3.34-1.18-7-1.79l-2.41-.38a5.17,5.17,0,0,1-.32,1Zm-6.69-7.7a4.63,4.63,0,1,0,4.63,4.63A4.63,4.63,0,0,0,17.17,12.44ZM3.76,15.53a5.18,5.18,0,0,0-1.44.16c-.57.17-1.56,1-1.56,1.38s1,1.2,1.56,1.37c1.15.35,3.55.09,7.24-.47L12,17.58c0-.17,0-.34,0-.52s0-.35,0-.52l-2.25-.36A44.35,44.35,0,0,0,3.76,15.53Zm20.89,2.42c3.76.58,6.2.84,7.36.49.57-.17,1.56-1,1.56-1.38s-1-1.2-1.56-1.37c-1.16-.35-3.7-.07-7.4.5l-2.24.36c0,.17,0,.34,0,.52s0,.35,0,.52ZM9.78,15.59l2.28.36a5.13,5.13,0,0,1,.32-1l-2-1c-3.42-1.72-5.67-2.74-6.89-2.76-.62,0-1.79.46-1.91.83s.57,1.46,1.06,1.79C3.62,14.48,6,15,9.78,15.59ZM22,15a5.2,5.2,0,0,1,.32,1l2.33-.37c3.73-.61,6.12-1.11,7.11-1.8.5-.35,1.18-1.42,1.06-1.79s-1.32-.82-1.91-.82c-1.22,0-3.48,1-6.92,2.78Zm-.89-1.38a5.29,5.29,0,0,1,.61.84l1.87-1c3.5-1.8,5.7-3,6.43-4,.36-.47.68-1.72.46-2S28.93,7,28.37,7.23c-1.14.4-3,2-5.65,4.71ZM10.63,13.4l2,1a5.22,5.22,0,0,1,.61-.84L11.73,12C9,9.31,7.12,7.63,6,7.23c-.56-.19-1.85-.12-2.07.2S4,9,4.35,9.45C5.08,10.42,7.23,11.65,10.63,13.4Zm1.52-1.78,1.54,1.54a5.24,5.24,0,0,1,.84-.61l-1.06-2.09C11.73,7.1,10.52,5,9.55,4.25c-.48-.36-1.72-.68-2-.45a2.79,2.79,0,0,0-.2,2.07C7.73,7,9.41,8.87,12.15,11.62Zm7.66.93a5.27,5.27,0,0,1,.83.61l1.65-1.65C25,8.82,26.61,7,27,5.86a2.79,2.79,0,0,0-.2-2.07c-.31-.22-1.56.1-2,.46-1,.73-2.16,2.82-3.87,6.15ZM14,10.2l1.06,2.08a5.15,5.15,0,0,1,1-.32c-.13-.8-.25-1.54-.35-2.23-.62-3.79-1.12-6.21-1.81-7.21C13.55,2,12.45,1.35,12.1,1.46s-.84,1.32-.82,1.91C11.3,4.58,12.3,6.81,14,10.2ZM18.28,12a5.19,5.19,0,0,1,1,.32l1-2C22,6.82,23,4.58,23.06,3.37c0-.59-.46-1.79-.83-1.91S20.78,2,20.45,2.52c-.7,1-1.2,3.42-1.82,7.22Q18.47,10.77,18.28,12Zm-1.12-.12.52,0q.19-1.19.35-2.22c.59-3.8.86-6.26.51-7.43-.17-.57-1-1.57-1.38-1.57s-1.2,1-1.38,1.57c-.35,1.15-.09,3.56.48,7.28q.18,1.1.38,2.36Z"/></svg>