<?xml version="1.0" encoding="UTF-8"?><svg id="Layer_1" xmlns="http://www.w3.org/2000/svg" viewBox="0 0 34 34.07"><defs><style>.cls-1{fill:#939393;}</style></defs><path class="cls-1" d="m17.02,34.07c-.82,0-1.77-1.39-2-2-.13-.51-.18-1.03-.17-1.56-.13.52-.34,1.03-.62,1.49-.35.51-1.68,1.55-2.47,1.29s-1.25-1.88-1.24-2.49c.03-.55.14-1.09.33-1.6-.3.43-.66.83-1.07,1.16-.49.37-2.08.95-2.75.46s-.61-2.17-.41-2.75c.2-.49.46-.95.78-1.37-.42.32-.88.58-1.37.77-.58.2-2.27.26-2.75-.4s.09-2.26.46-2.75c.32-.4.69-.76,1.11-1.06-.49.17-1.01.27-1.53.3h0c-.64,0-2.21-.46-2.46-1.24s.78-2.12,1.29-2.47c.44-.28.91-.5,1.41-.65-.53,0-1.05-.06-1.56-.2-.59-.18-2-1.12-2-1.95s1.4-1.77,2-2c.51-.13,1.03-.19,1.56-.18-.51-.15-.99-.37-1.43-.66-.51-.28-1.54-1.61-1.28-2.4s1.83-1.24,2.46-1.24h0c.52.03,1.04.13,1.53.3-.42-.3-.8-.65-1.12-1.05-.37-.49-.95-2.08-.46-2.75s2.17-.61,2.75-.41c.49.19.94.44,1.36.76-.32-.42-.57-.87-.76-1.36-.2-.58-.26-2.27.41-2.75s2.25.09,2.75.46c.41.33.78.71,1.08,1.14-.17-.49-.27-1.01-.3-1.53,0-.61.44-2.24,1.24-2.49s2.12.78,2.47,1.29c.26.44.46.92.59,1.42,0-.54.06-1.08.21-1.6.18-.59,1.13-2,2-2s1.77,1.4,2,2c.13.5.19,1.02.18,1.54.14-.48.35-.94.61-1.36.3-.5,1.62-1.54,2.42-1.29s1.25,1.88,1.24,2.5c-.03.52-.14,1.04-.31,1.53.3-.43.65-.82,1.06-1.15.49-.37,2.08-.94,2.75-.46s.61,2.17.41,2.76c-.19.49-.44.94-.76,1.36.42-.32.87-.57,1.36-.76.58-.2,2.27-.26,2.75.41s-.09,2.26-.46,2.75c-.33.41-.72.76-1.15,1.06.5-.18,1.01-.28,1.54-.31h0c.64,0,2.21.46,2.46,1.24s-.78,2.12-1.29,2.47c-.44.29-.92.51-1.43.66.53-.01,1.05.05,1.56.18.59.18,2,1.12,2,1.95s-1.4,1.78-2,2c-.51.13-1.03.19-1.55.18.5.15.98.37,1.42.66.51.35,1.54,1.68,1.29,2.46s-1.84,1.24-2.47,1.24h0c-.52-.03-1.04-.13-1.53-.3.43.3.81.65,1.14,1.06.37.49.95,2.07.47,2.74s-2.18.61-2.76.41c-.49-.19-.95-.45-1.37-.77.32.42.58.88.77,1.37.2.59.26,2.28-.41,2.76s-2.25-.09-2.74-.46c-.4-.33-.76-.71-1.06-1.14.17.49.27,1,.3,1.52,0,.61-.45,2.23-1.24,2.49s-2.1-.84-2.41-1.3c-.28-.44-.5-.91-.65-1.41.01.52-.05,1.04-.18,1.54-.23.54-1.17,1.94-2,1.94Zm-.86-9.63c-.59,3.82-.87,6.29-.51,7.47.18.58,1,1.56,1.38,1.56s1.2-1,1.38-1.56c.35-1.16.08-3.59-.49-7.35-.11-.71-.24-1.47-.37-2.29-.33.03-.67.03-1,0-.15.77-.29,1.49-.4,2.17h.01Zm-2.31-.44c-1.69,3.36-2.68,5.58-2.71,6.78,0,.59.46,1.79.82,1.91s1.45-.57,1.79-1.06c.7-1,1.21-3.49,1.84-7.37.1-.67.21-1.35.33-2.06-.34-.07-.68-.18-1-.32l-1.07,2.12Zm4.66.49c.61,3.75,1.11,6.15,1.8,7.14.34.49,1.44,1.17,1.79,1.06s.84-1.32.82-1.91c0-1.21-1-3.42-2.7-6.77l-1.09-2.13c-.32.14-.66.25-1,.32.13.81.25,1.56.36,2.27l.02.02Zm-6.66-1.81c-2.63,2.66-4.25,4.45-4.65,5.59-.2.69-.13,1.43.2,2.07.31.23,1.56-.1,2-.45,1-.74,2.18-2.85,3.91-6.21l1.07-2.1c-.3-.18-.57-.38-.83-.61l-1.7,1.71Zm8.92,1c1.72,3.34,2.93,5.44,3.89,6.17.47.36,1.72.67,2,.45s.39-1.5.2-2.07c-.41-1.16-2.09-3-4.81-5.75l-1.56-1.48c-.26.23-.54.43-.84.61l1.12,2.07Zm-10.29-3c-3.39,1.75-5.52,3-6.25,3.93-.36.47-.68,1.72-.46,2,.22.28,1.51.38,2.07.19,1.13-.39,2.92-2,5.57-4.62l1.73-1.74c-.23-.26-.44-.54-.61-.84l-2.05,1.08Zm12,1.37c2.74,2.71,4.57,4.38,5.72,4.79.69.21,1.44.13,2.08-.2.23-.31-.09-1.55-.46-2-.74-1-2.93-2.22-6.4-4l-1.9-1c-.18.3-.38.58-.61.84l1.57,1.57Zm-13-3.56c-3.68.6-6,1.1-7,1.78-.48.34-1.18,1.43-1.06,1.79s1.3.94,1.9.94c1.21,0,3.46-1,6.86-2.75l2-1c-.14-.32-.25-.66-.32-1l-2.38.24Zm14.21,1.58c3.49,1.76,5.77,2.8,7,2.83.63,0,1.79-.46,1.91-.83s-.58-1.45-1.06-1.79c-1-.69-3.34-1.18-7-1.79l-2.41-.38c-.07.34-.18.68-.32,1l1.88.96Zm-6.69-7.7c-2.56,0-4.63,2.07-4.63,4.63s2.07,4.63,4.63,4.63,4.63-2.07,4.63-4.63h0c-.04-2.52-2.09-4.55-4.61-4.56l-.02-.07Zm-13.39,3.16c-.49-.01-.97.04-1.44.16-.57.17-1.56,1-1.56,1.38s1,1.2,1.56,1.37c1.15.35,3.55.09,7.24-.47l2.44-.39v-1.04l-2.25-.36c-1.98-.35-3.98-.57-5.99-.65Zm20.89,2.42c3.76.58,6.2.84,7.36.49.57-.17,1.56-1,1.56-1.38s-1-1.2-1.56-1.37c-1.16-.35-3.7-.07-7.4.5l-2.24.36v1.04l2.28.36Zm-14.87-2.36l2.28.36c.07-.34.18-.68.32-1l-2-1c-3.42-1.72-5.67-2.74-6.89-2.76-.62,0-1.79.46-1.91.83s.57,1.46,1.06,1.79c.98.67,3.36,1.19,7.14,1.78Zm12.22-.59c.14.32.25.66.32,1l2.33-.37c3.73-.61,6.12-1.11,7.11-1.8.5-.35,1.18-1.42,1.06-1.79s-1.32-.82-1.91-.82c-1.22,0-3.48,1-6.92,2.78l-1.99,1Zm-.89-1.38c.23.26.43.54.61.84l1.87-1c3.5-1.8,5.7-3,6.43-4,.36-.47.68-1.72.46-2s-1.55-.46-2.11-.23c-1.14.4-3,2-5.65,4.71l-1.61,1.68Zm-10.48-.22l2,1c.17-.3.38-.58.61-.84l-1.51-1.56c-2.73-2.69-4.61-4.37-5.73-4.77-.56-.19-1.85-.12-2.07.2s.07,1.57.42,2.02c.73.97,2.88,2.2,6.28,3.95Zm1.52-1.78l1.54,1.54c.26-.23.54-.43.84-.61l-1.06-2.09c-1.74-3.36-2.95-5.46-3.92-6.21-.48-.36-1.72-.68-2-.45-.33.64-.4,1.38-.2,2.07.38,1.13,2.06,3,4.8,5.75Zm7.66.93c.3.18.57.38.83.61l1.65-1.65c2.71-2.69,4.32-4.51,4.71-5.65.2-.69.13-1.43-.2-2.07-.31-.22-1.56.1-2,.46-1,.73-2.16,2.82-3.87,6.15l-1.12,2.15Zm-5.81-2.35l1.06,2.08c.32-.14.66-.25,1-.32-.13-.8-.25-1.54-.35-2.23-.62-3.79-1.12-6.21-1.81-7.21-.35-.52-1.45-1.17-1.8-1.06s-.84,1.32-.82,1.91c.02,1.21,1.02,3.44,2.72,6.83Zm4.28,1.8c.34.07.68.18,1,.32l1-2c1.72-3.5,2.72-5.74,2.78-6.95,0-.59-.46-1.79-.83-1.91s-1.45.54-1.78,1.06c-.7,1-1.2,3.42-1.82,7.22-.11.69-.22,1.44-.35,2.26Zm-1.12-.12h.52c.13-.79.24-1.53.35-2.22.59-3.8.86-6.26.51-7.43-.17-.57-1-1.57-1.38-1.57s-1.2,1-1.38,1.57c-.35,1.15-.09,3.56.48,7.28.12.73.25,1.52.38,2.36h.52Z"/></svg>