<?xml version="1.0" encoding="utf-8"?>
<!-- Generator: Adobe Illustrator 27.3.1, SVG Export Plug-In . SVG Version: 6.00 Build 0)  -->
<svg version="1.1" id="Layer_1" xmlns="http://www.w3.org/2000/svg" xmlns:xlink="http://www.w3.org/1999/xlink" x="0px" y="0px"
	 viewBox="0 0 218.1 284.6" style="enable-background:new 0 0 218.1 284.6;" xml:space="preserve">
<style type="text/css">
	.st0{display:none;}
	.st1{display:inline;fill:#605F71;}
	.st2{fill:none;stroke:#FFFFFF;stroke-width:4.4;stroke-miterlimit:10;}
	.st3{display:inline;fill:none;stroke:#FFFFFF;stroke-miterlimit:10;}
	.st4{fill:none;stroke:#FFFFFF;stroke-width:1.5;stroke-miterlimit:10;}
</style>
<g id="background" class="st0">
	<rect x="-324.7" y="-154.6" class="st1" width="841.9" height="599.3"/>
</g>
<g id="shield">
	<g>
		<g id="XMLID_2_">
			<g>
				<polyline class="st2" points="15.5,202.3 110.6,154.3 202.9,203.4 				"/>
				<polygon class="st2" points="213.4,149.9 108.9,92.5 3.5,147.4 3.5,12.1 107.9,3.5 214.6,11.7 				"/>
			</g>
		</g>
	</g>
	<path class="st2" d="M195.1,191"/>
	<path class="st2" d="M22.1,190"/>
	<path class="st2" d="M108.5,273.7"/>
	<path class="st2" d="M108.5,273.7"/>
	<path class="st2" d="M213.4,149.9"/>
	<path class="st2" d="M3.5,147.4c0,0,3.1,86.3,69.7,132.6c0.5,0.4,1.1,0.8,1.6,1.1l-1.1-0.7l71.5,0.7c68.2-46,68.1-131.2,68.1-131.2
		"/>
</g>
<g id="Hat" class="st0">
	<polyline class="st3" points="3.5,0 108.2,-8.1 213.6,0 	"/>
</g>
<g id="small_top_right">
	<path class="st4" d="M151.9,55c-0.3-5.9,2.9-8.5,2.9-8.5h-3.4L142.5,35h-6.7l2.4,7.7l2.8-0.1l5.5,12.3L151.9,55L151.9,55z"/>
	<path class="st4" d="M155.5,37.7l-2.9,1.7l2.2,4.5c0,0-0.9-2.2,4.9-3.2c5.8-0.9,7-5.6,7-5.6s0.3,4.7-6.7,10s-5.1,12-5.1,12
		l-17.2,0.4l-2.9,5.8l9.3,2.1l1.2-2.5l12.3,3.2c0,0,5.3,0.7,7.2-4.3c0,0,0.7,3.6-3.5,6.1s4.1-4.7,10.9,7.5c4.5,8-1.7,4.6,13.8,14.8
		v2.6l-6-0.8l-2.6,6.2h14.2l2.8-15.6c0,0-7,0-8.4-9.5c0,0-1.7-3.5,6.2-11c0,0,0.9-2.9-0.5-5.4s-4.5-3.8-4.9-6.2s0-3,1.1-3.5
		s4.2-3.3,7.4,1.2v3.3c0,0,1.2,2.9,4.5,3.7s5.1-0.9,5.1-0.9s-5.1,0.8-7-7.9c0,0-2.1-4.6-8.4-3.7c0,0-5.9,0.5-6,8.5
		c0,0,1.5,4.4,5.3,7c0,0,1.3,3-2.1,5l-4.2,0.4c0,0-7.1-4.6-7.2-7c0,0-3.3-9.2-0.3-13.5c0,0-0.4,10.1,3.4,12.9c0,0-0.9-5.3,2.4-8.1
		c0,0,5.1-4.5,4.5-12.6c0,0-0.1-10.2-9.3-13.4c0,0-9.8-3.3-16.2,0c0,0-2,0.8-2.8,3.5c0,0,7.4-2.5,11,2.1c0,0-3.2-2.1-7.6-1.6
		c0,0-11.2,5.1-11.3,5.5l2.5,3.8c0,0,1.7,0.9,4.7,0c0,0,2.6-1.4,3.4,0c0.8,1.4,0.8,1.4,0.8,1.4l0,0c0,0,0.5,1.3-1.1,2L155.5,37.7z"
		/>
	<path class="st4" d="M171.5,86.1l-5.9,12h-15.1l3-5.6l6.4,0.7l1.1-3.5c0,0-7.8-4.7-6.2-10.8c1.6-6,4.1-7.9,5-8.3
		s11.7,2.5,11.7,10.6c0,0-4.7,2.7-4.2,3.1l-0.1,1.9L171.5,86.1"/>
</g>
<g id="small_top_left">
	<path class="st4" d="M30.7,54.9c-0.3-5.9,2.9-8.5,2.9-8.5h-3.4l-9-11.4h-6.7l2.4,7.7l2.8-0.1l5.5,12.3H30.7z"/>
	<path class="st4" d="M83.4,54c0,0-5.1,0.8-7-7.9c0,0-2.1-4.6-8.4-3.7c0,0-5.9,0.5-6,8.5c0,0,1.5,4.4,5.3,7c0,0,1.3,3-2.1,5L61,63.3
		c0,0-7.1-4.6-7.2-7c0,0-3.3-9.2-0.3-13.5c0,0-0.4,10.1,3.4,12.9c0,0-0.9-5.3,2.4-8.1c0,0,5.1-4.5,4.5-12.6c0,0-0.1-10.2-9.3-13.4
		c0,0-9.8-3.3-16.2,0c0,0-2,0.8-2.8,3.5c0,0,7.4-2.5,11,2.1c0,0-3.2-2.1-7.6-1.6c0,0-11.2,5.1-11.3,5.5L30,35c0,0,1.7,0.9,4.7,0
		c0,0,2.6-1.4,3.4,0c0.8,1.4,0.8,1.4,0.8,1.4l0,0c0,0,0.5,1.3-1.1,2l-3.7-0.8l-2.9,1.7l2.2,4.5c0,0-0.9-2.2,4.9-3.2
		c5.8-0.9,7-5.6,7-5.6s0.3,4.7-6.7,10s-5.1,12-5.1,12l-17.2,0.4l-2.9,5.8l9.3,2.1l1.2-2.5L36.2,66c0,0,5.3,0.7,7.2-4.3
		c0,0,0.7,3.6-3.5,6.1s4.1-4.7,10.9,7.5c4.5,8-1.7,4.6,13.8,14.8v2.6l-6-0.8L56,98h14.2L73,82.4c0,0-7,0-8.4-9.5c0,0-1.7-3.5,6.2-11
		c0,0,0.9-2.9-0.5-5.4s-4.5-3.8-4.9-6.2s0-3,1.1-3.5c1-0.5,4.2-3.3,7.4,1.2v3.3c0,0,1.2,2.9,4.5,3.7C81.5,55.7,83.4,54,83.4,54"/>
	<path class="st4" d="M50.3,86.1l-5.9,12H29.2l3-5.6l6.4,0.7l1.1-3.5c0,0-7.7-4.7-6.2-10.8c1.6-6,4.1-7.9,5-8.3s11.7,2.5,11.7,10.6
		c0,0-4.7,2.7-4.2,3.1l-0.1,1.9L50.3,86.1"/>
</g>
<g id="small_bottom_lion">
	<path class="st4" d="M90.9,220.4c-0.3-5.9,2.9-8.5,2.9-8.5h-3.4l-8.9-11.4h-6.7l2.4,7.7l2.8-0.1l5.5,12.3H90.9z"/>
	<path class="st4" d="M143.5,219.5c0,0-5.1,0.8-7-7.9c0,0-2.1-4.6-8.4-3.7c0,0-5.9,0.5-6,8.5c0,0,1.5,4.4,5.3,7c0,0,1.3,3-2.1,5
		l-4.2,0.4c0,0-7.1-4.6-7.2-7c0,0-3.3-9.2-0.3-13.5c0,0-0.4,10.1,3.4,12.9c0,0-0.9-5.3,2.4-8.1c0,0,5.1-4.5,4.5-12.6
		c0,0-0.1-10.2-9.3-13.4c0,0-9.8-3.3-16.2,0c0,0-2,0.8-2.8,3.5c0,0,7.4-2.5,11,2.1c0,0-3.2-2.1-7.6-1.6c0,0-11.2,5.1-11.3,5.5
		l2.5,3.8c0,0,1.7,0.9,4.7,0c0,0,2.6-1.4,3.4,0s0.8,1.4,0.8,1.4l0,0c0,0,0.5,1.3-1.1,2l-3.7-0.8l-2.9,1.7l2.2,4.5
		c0,0-0.9-2.2,4.9-3.2c5.8-0.9,7-5.6,7-5.6s0.3,4.7-6.7,10s-5.1,12-5.1,12l-17.2,0.4l-2.9,5.8l9.3,2.1l1.2-2.5l12.3,3.2
		c0,0,5.3,0.7,7.2-4.3c0,0,0.7,3.6-3.5,6.1s4.1-4.6,10.9,7.5c4.5,8-1.7,4.6,13.8,14.8v2.6l-6-0.8l-2.6,6.2h14.2l2.8-15.6
		c0,0-7,0-8.4-9.5c0,0-1.7-3.5,6.2-11c0,0,0.9-2.9-0.5-5.4s-4.5-3.8-4.9-6.2s0-3,1.1-3.5s4.2-3.3,7.4,1.2v3.3c0,0,1.2,2.9,4.5,3.7
		C141.7,221.2,143.5,219.5,143.5,219.5"/>
	<path class="st4" d="M110.5,251.6l-5.9,12H89.4l3-5.6l6.4,0.7l1.1-3.5c0,0-7.7-4.7-6.2-10.8c1.6-6,4.1-7.9,5-8.3
		c0.9-0.4,11.7,2.5,11.7,10.6c0,0-4.7,2.7-4.2,3.1l-0.1,1.9h4.4"/>
	<path class="st4" d="M95.1,195.1"/>
</g>
</svg>
