<svg id="Layer_1" data-name="Layer 1" xmlns="http://www.w3.org/2000/svg" viewBox="0 0 173.9 71.57"><defs><style>.cls-1{fill:#231f20;}</style></defs><title>Guild_Logo_Artboard 1</title><path class="cls-1" d="M65.58,24.62a7.53,7.53,0,0,1-1.49.68,5.81,5.81,0,0,1-1.9.3A5.91,5.91,0,0,1,60,25.21a5.15,5.15,0,0,1-1.72-1.1,5,5,0,0,1-1.13-1.68,5.45,5.45,0,0,1-.41-2.12,5.33,5.33,0,0,1,.41-2.11,5.07,5.07,0,0,1,1.14-1.68A5.32,5.32,0,0,1,60,15.41,5.7,5.7,0,0,1,62.19,15a5.81,5.81,0,0,1,1.9.3,7.59,7.59,0,0,1,1.49.68l-.46,1a7.27,7.27,0,0,0-1.47-.63,5.24,5.24,0,0,0-1.55-.25,4.46,4.46,0,0,0-1.74.32,3.7,3.7,0,0,0-1.3.9,3.91,3.91,0,0,0-.81,1.35A4.93,4.93,0,0,0,58,20.31,4.72,4.72,0,0,0,58.26,22a3.85,3.85,0,0,0,.85,1.34,3.91,3.91,0,0,0,1.34.89,4.56,4.56,0,0,0,1.75.32,5.24,5.24,0,0,0,1.55-.25,7.28,7.28,0,0,0,1.47-.63Z"/><path class="cls-1" d="M73.84,25.43v-4.7H68.36v4.7H67.24V15.17h1.12v4.55h5.49V15.17H75V25.43Z"/><path class="cls-1" d="M77.34,25.43V15.17h6v1H78.46v3.54h4.4v1h-4.4v3.7h4.89v1Z"/><path class="cls-1" d="M85.45,25.43V15.17h1.12v9.25h4.89v1Z"/><path class="cls-1" d="M95.56,16.18v9.25H94.44V16.18H91v-1h8v1Z"/><path class="cls-1" d="M100.51,25.43V15.17h6v1h-4.89v3.54H106v1h-4.4v3.7h4.89v1Z"/><path class="cls-1" d="M116.47,25.63l-6.66-8v7.78h-1.12V15l.22-.06,6.58,7.85V15.17h1.12V25.59Z"/><path class="cls-1" d="M125.81,25.43v-4.7h-5.49v4.7H119.2V15.17h1.12v4.55h5.49V15.17h1.12V25.43Z"/><path class="cls-1" d="M136.45,25.43l-1.22-2.84h-4.59l-1.22,2.84h-1.16L132.87,15H133l4.61,10.44Zm-3.51-8.19L131,21.65h3.78Z"/><path class="cls-1" d="M147.72,25.43l-.15-7.25-3.64,6.2h-.15l-3.67-6.22L140,25.43h-1.13L139.24,15l.21,0,4.45,7.73L148.24,15l.22,0,.39,10.43Z"/><path class="cls-1" d="M58.29,40.93V30.67h1.12v9.25h4.89v1Z"/><path class="cls-1" d="M73.09,40.93l-1.22-2.84H67.28l-1.22,2.84H64.9L69.5,30.49h.18l4.61,10.44Zm-3.51-8.19-1.89,4.41h3.78Z"/><path class="cls-1" d="M84.16,35.71a5.68,5.68,0,0,1-.36,2,4.77,4.77,0,0,1-1.08,1.69,5.27,5.27,0,0,1-1.81,1.18,6.68,6.68,0,0,1-2.53.44q-.78,0-1.48,0l-1.29-.12V30.77l1.24-.12q.65,0,1.44,0a7,7,0,0,1,2.54.43,5.38,5.38,0,0,1,1.83,1.14,4.81,4.81,0,0,1,1.11,1.63A5,5,0,0,1,84.16,35.71Zm-1.22,0A4.57,4.57,0,0,0,82.65,34a3.59,3.59,0,0,0-.87-1.32,4,4,0,0,0-1.42-.87,5.63,5.63,0,0,0-2-.32l-.92,0a5.67,5.67,0,0,0-.73.08v8.27a4.67,4.67,0,0,0,.75.09l1,0a5.25,5.25,0,0,0,2-.34,3.71,3.71,0,0,0,1.37-.92,3.82,3.82,0,0,0,.8-1.38A5.31,5.31,0,0,0,82.94,35.71Z"/><path class="cls-1" d="M86.4,40.93V30.67h1.12V40.93Z"/><path class="cls-1" d="M90.32,40.93V30.67h6v1H91.44v3.54h4.4v1h-4.4v3.7h4.89v1Z"/><path class="cls-1" d="M103.83,38.16a2.81,2.81,0,0,1-.24,1.16,2.91,2.91,0,0,1-.66.93,3,3,0,0,1-1,.62,3.4,3.4,0,0,1-1.25.22,4.71,4.71,0,0,1-1.59-.25,6.28,6.28,0,0,1-1.38-.7l.55-1a5.43,5.43,0,0,0,1.23.67,3.5,3.5,0,0,0,1.25.25,2.26,2.26,0,0,0,.85-.15,1.64,1.64,0,0,0,1-1,1.93,1.93,0,0,0,.12-.67,2.15,2.15,0,0,0-.08-.62,1.46,1.46,0,0,0-.3-.53,2.63,2.63,0,0,0-.62-.5,9,9,0,0,0-1-.52,7.86,7.86,0,0,1-1.13-.6,3.33,3.33,0,0,1-.75-.64,2.3,2.3,0,0,1-.42-.73,2.69,2.69,0,0,1,.09-1.91,2.72,2.72,0,0,1,.64-.89,3.16,3.16,0,0,1,1-.62,3.45,3.45,0,0,1,1.28-.23,3.91,3.91,0,0,1,1.25.2,4.14,4.14,0,0,1,1,.5l-.5,1a3.35,3.35,0,0,0-.86-.46,2.87,2.87,0,0,0-1-.18,2.38,2.38,0,0,0-.85.14,1.73,1.73,0,0,0-.61.37,1.55,1.55,0,0,0-.36.55,1.77,1.77,0,0,0-.13.67,1.44,1.44,0,0,0,.4,1,4.1,4.1,0,0,0,1.35.88,12.36,12.36,0,0,1,1.33.69,3.93,3.93,0,0,1,.85.68,2,2,0,0,1,.44.76A3.11,3.11,0,0,1,103.83,38.16Z"/><path class="cls-1" d="M106.67,31.37a1.73,1.73,0,0,1-.09.53,2.69,2.69,0,0,1-.27.57,2.82,2.82,0,0,1-.45.55,3.43,3.43,0,0,1-.65.49l-.15-.22a2.71,2.71,0,0,0,.6-.71,3,3,0,0,0,.29-.68.8.8,0,0,1-.53-.23.67.67,0,0,1-.2-.48.69.69,0,0,1,.69-.69.67.67,0,0,1,.56.25A1,1,0,0,1,106.67,31.37Z"/><path class="cls-1" d="M119.85,40.12a7.53,7.53,0,0,1-1.49.68,5.81,5.81,0,0,1-1.9.3,5.91,5.91,0,0,1-2.18-.39,5.15,5.15,0,0,1-1.72-1.1,5,5,0,0,1-1.13-1.68,5.45,5.45,0,0,1-.41-2.12,5.33,5.33,0,0,1,.41-2.11A5.08,5.08,0,0,1,112.57,32a5.32,5.32,0,0,1,1.73-1.11,5.7,5.7,0,0,1,2.16-.41,5.81,5.81,0,0,1,1.9.3,7.59,7.59,0,0,1,1.49.68l-.46,1a7.27,7.27,0,0,0-1.47-.63,5.24,5.24,0,0,0-1.55-.25,4.46,4.46,0,0,0-1.74.32,3.7,3.7,0,0,0-1.3.9,3.91,3.91,0,0,0-.81,1.35,4.93,4.93,0,0,0-.28,1.69,4.72,4.72,0,0,0,.29,1.69,3.85,3.85,0,0,0,.85,1.34,3.91,3.91,0,0,0,1.34.89,4.56,4.56,0,0,0,1.75.32A5.24,5.24,0,0,0,118,39.8a7.27,7.27,0,0,0,1.47-.63Z"/><path class="cls-1" d="M131.24,35.81a5.33,5.33,0,0,1-1.55,3.8,5.11,5.11,0,0,1-3.62,1.49,5,5,0,0,1-3.58-1.49,5.16,5.16,0,0,1-1.09-1.68,5.53,5.53,0,0,1-.4-2.12,5.33,5.33,0,0,1,.42-2.13A5.27,5.27,0,0,1,122.56,32a5.2,5.2,0,0,1,1.64-1.1,5,5,0,0,1,2-.4,4.88,4.88,0,0,1,2,.4,5,5,0,0,1,2.71,2.77A5.57,5.57,0,0,1,131.24,35.81Zm-1.22,0a4.89,4.89,0,0,0-.29-1.69,4.19,4.19,0,0,0-.81-1.37,3.68,3.68,0,0,0-2.8-1.24,3.76,3.76,0,0,0-1.58.33,3.7,3.7,0,0,0-1.24.91,4.19,4.19,0,0,0-.81,1.37,5.14,5.14,0,0,0,0,3.39,4.19,4.19,0,0,0,.81,1.37,3.71,3.71,0,0,0,1.24.91,3.76,3.76,0,0,0,1.58.33,3.67,3.67,0,0,0,2.8-1.24,4.2,4.2,0,0,0,.81-1.37A4.89,4.89,0,0,0,130,35.81Z"/><path class="cls-1" d="M133.41,40.93V30.67h1.12v9.25h4.89v1Z"/><path class="cls-1" d="M141.11,40.93V30.67h1.12v9.25h4.89v1Z"/><path class="cls-1" d="M148.63,40.93V30.67h6v1h-4.89v3.54h4.4v1h-4.4v3.7h4.89v1Z"/><path class="cls-1" d="M165.72,35.85v4a6,6,0,0,1-1.69.9,6.42,6.42,0,0,1-2.06.31,5.74,5.74,0,0,1-2.06-.38,5.47,5.47,0,0,1-1.76-1.07A5.21,5.21,0,0,1,156.94,38a5.09,5.09,0,0,1-.46-2.18,5,5,0,0,1,.47-2.18A5.4,5.4,0,0,1,158.18,32a5.51,5.51,0,0,1,1.71-1.07,5.28,5.28,0,0,1,2-.38,6.92,6.92,0,0,1,1.16.09,6,6,0,0,1,1,.25,5.62,5.62,0,0,1,.87.39q.41.23.82.51l-.59.88a6.22,6.22,0,0,0-1.55-.82,5,5,0,0,0-1.68-.3,4.23,4.23,0,0,0-1.76.35,3.85,3.85,0,0,0-1.31.94,4.17,4.17,0,0,0-.81,1.37,4.78,4.78,0,0,0-.28,1.63A4.24,4.24,0,0,0,158,37.5a4.37,4.37,0,0,0,.91,1.37,4.14,4.14,0,0,0,1.36.91,4.31,4.31,0,0,0,1.68.33,5.28,5.28,0,0,0,1.38-.17,5,5,0,0,0,1.24-.53V36.9h-2.72v-1Z"/><path class="cls-1" d="M167.89,40.93V30.67h6v1H169v3.54h4.4v1H169v3.7h4.89v1Z"/><path class="cls-1" d="M66,51.35v4a6,6,0,0,1-1.69.9,6.41,6.41,0,0,1-2.06.31,5.74,5.74,0,0,1-2.06-.38,5.48,5.48,0,0,1-1.76-1.07,5.2,5.2,0,0,1-1.22-1.67,5.08,5.08,0,0,1-.45-2.18,5,5,0,0,1,.47-2.18,5.41,5.41,0,0,1,1.23-1.67,5.5,5.5,0,0,1,1.72-1.07,5.28,5.28,0,0,1,2-.38,6.92,6.92,0,0,1,1.16.09,6,6,0,0,1,1,.25,5.59,5.59,0,0,1,.87.39q.41.23.82.51l-.59.88a6.22,6.22,0,0,0-1.55-.82,5,5,0,0,0-1.68-.3,4.23,4.23,0,0,0-1.76.35,3.85,3.85,0,0,0-1.31.94,4.15,4.15,0,0,0-.81,1.37A4.77,4.77,0,0,0,58,51.31,4.25,4.25,0,0,0,58.3,53a4.37,4.37,0,0,0,.91,1.37,4.16,4.16,0,0,0,1.36.91,4.31,4.31,0,0,0,1.68.33,5.28,5.28,0,0,0,1.38-.17,5,5,0,0,0,1.24-.53V52.4H62.15v-1Z"/><path class="cls-1" d="M75.75,52.75a4.39,4.39,0,0,1-.28,1.61,3.36,3.36,0,0,1-.8,1.21,3.57,3.57,0,0,1-1.23.76,4.46,4.46,0,0,1-1.57.27,4.77,4.77,0,0,1-1.6-.25,3.17,3.17,0,0,1-1.21-.75,3.4,3.4,0,0,1-.77-1.21A4.56,4.56,0,0,1,68,52.75V46.17h1.12v6.5a3.85,3.85,0,0,0,.2,1.32,2.46,2.46,0,0,0,.56.91,2.17,2.17,0,0,0,.86.53,3.73,3.73,0,0,0,2.21,0,2.29,2.29,0,0,0,.88-.53,2.37,2.37,0,0,0,.57-.91,3.85,3.85,0,0,0,.2-1.32v-6.5h1.12Z"/><path class="cls-1" d="M78.14,56.43V46.17h1.12V56.43Z"/><path class="cls-1" d="M81.72,56.43V46.17h1.12v9.25h4.89v1Z"/><path class="cls-1" d="M97.71,51.21a5.68,5.68,0,0,1-.36,2,4.77,4.77,0,0,1-1.08,1.69,5.27,5.27,0,0,1-1.81,1.18,6.68,6.68,0,0,1-2.53.44q-.78,0-1.48,0l-1.29-.12V46.27l1.24-.12q.65,0,1.43,0a7,7,0,0,1,2.54.43,5.38,5.38,0,0,1,1.83,1.14,4.81,4.81,0,0,1,1.11,1.63A5,5,0,0,1,97.71,51.21Zm-1.22,0a4.57,4.57,0,0,0-.29-1.66,3.59,3.59,0,0,0-.87-1.32,4,4,0,0,0-1.42-.87,5.63,5.63,0,0,0-2-.32l-.92,0a5.67,5.67,0,0,0-.73.08v8.27a4.67,4.67,0,0,0,.75.09l1,0a5.25,5.25,0,0,0,2-.34,3.71,3.71,0,0,0,1.37-.92,3.82,3.82,0,0,0,.8-1.38A5.31,5.31,0,0,0,96.49,51.21Z"/><path class="cls-1" d="M24.08,0a.25.25,0,0,0-.21,0C8.7,6.92,0,20,0,35.79S8.7,64.65,23.88,71.55l.1,0,.1,0C39.25,64.65,48,51.62,48,35.79S39.25,6.92,24.08,0ZM24,71C9.06,64.22.5,51.38.5,35.79S9.06,7.35,24,.53C38.9,7.35,47.46,20.19,47.46,35.79S38.9,64.22,24,71Z"/><path class="cls-1" d="M24.09,3.84a.25.25,0,0,0-.22,0C10.89,10.3,3.45,21.94,3.45,35.79s7.44,25.49,20.42,31.94l.11,0,.11,0c13-6.45,20.42-18.09,20.42-31.94S37.07,10.3,24.09,3.84ZM24,67.22c-12.73-6.38-20-17.83-20-31.44s7.3-25.06,20-31.44c12.73,6.38,20,17.83,20,31.44S36.71,60.85,24,67.22Z"/><path class="cls-1" d="M20.82,54.77c-2.29-1.95-4.17-2.68-5.94-2.34A2.13,2.13,0,0,0,13,54.37a2.37,2.37,0,0,0,1.21,2.17,5.32,5.32,0,0,0,2.78.73,6.82,6.82,0,0,0,3.73-1.12,7,7,0,0,0,.65-.49.25.25,0,0,0,0-.38Zm-.33,1a6.31,6.31,0,0,1-3.46,1,4.81,4.81,0,0,1-2.52-.65,1.88,1.88,0,0,1-1-1.71A1.65,1.65,0,0,1,15,52.92a3.87,3.87,0,0,1,.74-.07c1.42,0,2.94.73,4.78,2.3l.37.31Z"/><path class="cls-1" d="M37,34.82l.32.5a5.51,5.51,0,0,0,.88,1.16,1.86,1.86,0,0,0,1.32.51,1.87,1.87,0,0,0,1.26-3.07,1.4,1.4,0,0,0-1-.42,1.26,1.26,0,0,0-.67.18l-.11.06a.43.43,0,0,1-.17.07.26.26,0,0,1-.07-.08,7,7,0,0,0-6.46-4.27,8.25,8.25,0,0,0-4.43,1.28l-.36-.24a8,8,0,0,0-4-.91,4.13,4.13,0,0,0,.39-.66h0c.59,0,1.32-.91,1.46-1.37a4.23,4.23,0,0,0,.08-1.66,4.37,4.37,0,0,0,.75,1.5,2.63,2.63,0,0,0,1.57.71.76.76,0,0,0,.32-.06c.53-.23.83-1.36.78-1.84a4.32,4.32,0,0,0-.61-1.56,4.39,4.39,0,0,0,1.3,1.07,2.31,2.31,0,0,0,.88.15,1.47,1.47,0,0,0,1.11-.33,2.24,2.24,0,0,0,0-2,4.25,4.25,0,0,0-1.18-1.17,4.38,4.38,0,0,0,1.61.44c.49,0,1.58-.42,1.76-1s-.46-1.52-.85-1.8a4.25,4.25,0,0,0-1.56-.59A4.6,4.6,0,0,0,33,19.2c.43-.19,1.26-1,1.2-1.6s-1-1.21-1.51-1.3a2.06,2.06,0,0,0-.45,0A7,7,0,0,0,31,16.4a4.36,4.36,0,0,0,1.42-.91c.32-.35.74-1.44.44-1.95s-1.33-.61-1.58-.61A1.5,1.5,0,0,0,31,13a4.19,4.19,0,0,0-1.48.76,4.36,4.36,0,0,0,.92-1.4,2.2,2.2,0,0,0-.39-2,.93.93,0,0,0-.57-.15,2.73,2.73,0,0,0-1.41.4,4.21,4.21,0,0,0-1,1.29,4.3,4.3,0,0,0,.27-1.65c0-.47-.57-1.51-1.14-1.63H26a2.44,2.44,0,0,0-1.57,1A4.29,4.29,0,0,0,24,11.29a4.31,4.31,0,0,0-.43-1.63,2.46,2.46,0,0,0-1.56-1h-.14c-.57.12-1.1,1.16-1.14,1.64A4.22,4.22,0,0,0,21,11.92a4.36,4.36,0,0,0-1-1.31,2.76,2.76,0,0,0-1.4-.39,1,1,0,0,0-.57.15c-.47.34-.53,1.51-.38,2a4.3,4.3,0,0,0,.92,1.39A4.33,4.33,0,0,0,17,13a1.5,1.5,0,0,0-.31,0c-.39,0-1.33.15-1.6.6a2.23,2.23,0,0,0,.45,2,4.26,4.26,0,0,0,1.4.9,7,7,0,0,0-1.22-.14,2.1,2.1,0,0,0-.46,0c-.46.09-1.44.73-1.5,1.3S14.55,19,15,19.19a4.55,4.55,0,0,0,1.64.25,4.28,4.28,0,0,0-1.57.59c-.38.27-1,1.25-.84,1.8s1.27,1,1.75,1a4.41,4.41,0,0,0,1.62-.44,4.35,4.35,0,0,0-1.2,1.18,2.24,2.24,0,0,0,0,2,1.48,1.48,0,0,0,1.11.32,2.31,2.31,0,0,0,.89-.15,4.27,4.27,0,0,0,1.29-1.06A4.35,4.35,0,0,0,19,26.21c-.05.47.25,1.6.78,1.84a.75.75,0,0,0,.31.06,2.63,2.63,0,0,0,1.58-.72,4.17,4.17,0,0,0,.75-1.47,4.32,4.32,0,0,0,.08,1.66,1.37,1.37,0,0,0,.08.19h0a5.69,5.69,0,0,1-2,2.18l-.8.6a8.28,8.28,0,0,0-4.12-1.09,7,7,0,0,0-6.45,4.25c-.05.09-.08.1-.12.1l-.13-.07-.11-.07a1.39,1.39,0,0,0-.67-.18h0a1.4,1.4,0,0,0-1,.42A1.87,1.87,0,0,0,8.4,37a1.87,1.87,0,0,0,1.32-.51,5.52,5.52,0,0,0,.87-1.16l.33-.5a5.13,5.13,0,0,1,4.44-2.5,5.44,5.44,0,0,1,2.24.47,7.5,7.5,0,0,0-1,2.28,7.87,7.87,0,0,0,.8,5.88,21.28,21.28,0,0,0,2.2,3l.15.19a5.24,5.24,0,0,1-4.37,2.27c-2.67,0-4.8-1.59-6.14-4.59-.27-.59-.55-1.21-1.26-1s-.46,1.12-.4,1.42a10.33,10.33,0,0,0,2.17,4.41,7.61,7.61,0,0,0,6,2.85A7.88,7.88,0,0,0,21.7,46.9a9,9,0,0,1,1.13,3.55,6.21,6.21,0,0,1-.45,3.18,3.7,3.7,0,0,1-.3.54l-.91-.75c-2.2-1.81-4.3-2.56-6.42-2.31a3.85,3.85,0,0,0-2.86,1.73,3.42,3.42,0,0,0-.3,3c.64,1.82,2.92,3,5.63,2.87a8.36,8.36,0,0,0,5.08-2.07,15.94,15.94,0,0,0,4.94,2.82,9.27,9.27,0,0,0,2.8.46,6.12,6.12,0,0,0,3.82-1.22A5.88,5.88,0,0,0,36,53.56a4.8,4.8,0,0,0-2.66-4.1,7.64,7.64,0,0,0,4.84-2.77,10.33,10.33,0,0,0,2.17-4.41c.06-.31.23-1.24-.4-1.42s-1,.4-1.26,1c-1.34,3-3.46,4.59-6.14,4.59-3.25,0-5.53-2.63-5.73-6.57a4.5,4.5,0,0,0,3.56-3.45A5.19,5.19,0,0,0,30,33a5.35,5.35,0,0,1,2.63-.66A5.13,5.13,0,0,1,37,34.82ZM25,27.41c-.12.38-.73,1-1,1h0c-.25,0-.86-.63-1-1-.23-.68,0-2.66.55-5.43A3.3,3.3,0,0,0,24,22h0a3.35,3.35,0,0,0,.43,0C25,24.75,25.19,26.73,25,27.41Zm3.47-1.15a1.92,1.92,0,0,1-.48,1.33l-.11,0a2.2,2.2,0,0,1-1.2-.55c-.48-.53-1.07-2.44-1.7-5.18a3.35,3.35,0,0,0,.8-.34C27.34,23.84,28.37,25.55,28.43,26.26Zm2.7-2.46a1.91,1.91,0,0,1,.1,1.41,1.23,1.23,0,0,1-.74.16,1.8,1.8,0,0,1-.68-.11c-.66-.29-2-1.79-3.66-4a3.37,3.37,0,0,0,.6-.64C29.16,22,30.79,23.17,31.13,23.8Zm1.47-3.35a1.92,1.92,0,0,1,.66,1.25,1.9,1.9,0,0,1-1.26.62h0c-.72,0-2.52-.84-5-2.19a3.3,3.3,0,0,0,.29-.83C30.09,19.64,32,20,32.6,20.44Zm-.38-3.69a1.61,1.61,0,0,1,.35,0c.39.08,1.09.63,1.11.87s-.54.92-.91,1.08A5.44,5.44,0,0,1,30.9,19c-.93,0-2.13-.07-3.53-.19,0,0,0-.06,0-.1a3.27,3.27,0,0,0-.1-.78A22.17,22.17,0,0,1,32.22,16.76Zm-1.15-3.3.22,0a1.81,1.81,0,0,1,1.15.36,1.89,1.89,0,0,1-.38,1.36c-.47.53-2.25,1.29-4.85,2.19l-.09,0a3.34,3.34,0,0,0-.46-.75C28.78,14.79,30.37,13.59,31.07,13.46ZM28.34,11a2.26,2.26,0,0,1,1.11-.3.51.51,0,0,1,.28.06,1.89,1.89,0,0,1,.2,1.4c-.21.67-1.53,2.09-3.52,4l-.1.09a3.41,3.41,0,0,0-.72-.51C26.78,13.18,27.75,11.44,28.34,11ZM24.85,9.92A2.05,2.05,0,0,1,26,9.12h0a1.92,1.92,0,0,1,.75,1.2c.08.71-.56,2.59-1.66,5.18a3.36,3.36,0,0,0-.85-.18C24.3,12.52,24.48,10.53,24.85,9.92Zm2,8.75A2.88,2.88,0,0,1,24,21.53h0a2.86,2.86,0,1,1,2.89-2.86ZM22,9.12h0a2.08,2.08,0,0,1,1.13.8c.36.62.54,2.6.59,5.41a3.37,3.37,0,0,0-.85.18c-1.1-2.59-1.74-4.47-1.66-5.18A1.94,1.94,0,0,1,22,9.12Zm-3.91,3a1.93,1.93,0,0,1,.2-1.4.53.53,0,0,1,.28-.06,2.29,2.29,0,0,1,1.11.3c.58.42,1.55,2.16,2.74,4.71a3.4,3.4,0,0,0-.72.5C19.62,14.31,18.27,12.86,18.06,12.17Zm-2.13,3a1.93,1.93,0,0,1-.39-1.36,1.88,1.88,0,0,1,1.17-.36l.21,0c.7.14,2.29,1.33,4.41,3.18a3.34,3.34,0,0,0-.46.75C18.22,16.46,16.4,15.68,15.93,15.15Zm-.74,3.58c-.37-.16-.94-.84-.91-1.08s.72-.79,1.11-.87a1.63,1.63,0,0,1,.35,0,21.93,21.93,0,0,1,5,1.14,3.34,3.34,0,0,0-.1.78s0,.06,0,.09c-1.39.12-2.58.19-3.5.19A5.42,5.42,0,0,1,15.19,18.73ZM16,22.3h0a2,2,0,0,1-1.27-.62,1.93,1.93,0,0,1,.66-1.25c.58-.43,2.52-.8,5.3-1.15a3.28,3.28,0,0,0,.28.83C18.5,21.47,16.7,22.3,16,22.3Zm2.16,2.94a1.79,1.79,0,0,1-.68.11,1.25,1.25,0,0,1-.73-.16,1.93,1.93,0,0,1,.1-1.41c.36-.62,2-1.76,4.38-3.21a3.43,3.43,0,0,0,.6.64C20.11,23.46,18.8,25,18.14,25.25Zm3.18,1.81a2.16,2.16,0,0,1-1.2.55l-.11,0a1.93,1.93,0,0,1-.49-1.33c.07-.72,1.09-2.42,2.71-4.72a3.38,3.38,0,0,0,.79.34C22.4,24.62,21.81,26.53,21.32,27.05Zm8.09,6a4.62,4.62,0,0,1,.51,3.3,4,4,0,0,1-3.37,3.1.25.25,0,0,0-.21.25c.14,4.35,2.65,7.27,6.24,7.27,2.88,0,5.17-1.69,6.59-4.88.35-.78.45-.78.67-.72s.15.3,0,.85a9.93,9.93,0,0,1-2.06,4.18A7,7,0,0,1,32.2,49c-4.23,0-7.44-3.3-8-8.21a.25.25,0,0,0-.5,0,10.85,10.85,0,0,1-1.33,4.24.25.25,0,0,0,0,.26,12.42,12.42,0,0,1,1.47,3.24A8,8,0,0,1,23.09,55l-.12.16a.25.25,0,0,0,0,.36A13.67,13.67,0,0,0,27.49,58a7.38,7.38,0,0,0,2.09.31,5.4,5.4,0,0,0,4-1.58,4.17,4.17,0,0,0,.65-4.79,3.23,3.23,0,0,0-3-1.58,2.58,2.58,0,0,0-2.54,1.93A2.15,2.15,0,0,0,29,53.89a1.92,1.92,0,0,0,1.3.81,2.13,2.13,0,0,0,1.82-.59,2.38,2.38,0,0,0,.64-1.76,2,2,0,0,1,.1,2.09,2.33,2.33,0,0,1-2.14,1.23A3,3,0,0,1,28,53.82a3.17,3.17,0,0,1,.39-2.9,3.52,3.52,0,0,1,2.93-1.4,4.17,4.17,0,0,1,4.25,4.09,5.37,5.37,0,0,1-2,4.69A5.63,5.63,0,0,1,30,59.42,8.76,8.76,0,0,1,27.39,59a15.79,15.79,0,0,1-4.95-2.86.25.25,0,0,0-.33,0,8,8,0,0,1-4.92,2.09c-2.51.1-4.58-.93-5.15-2.54a2.93,2.93,0,0,1,.25-2.57,3.36,3.36,0,0,1,2.5-1.5c2-.23,4,.48,6,2.2l1.12.92a.24.24,0,0,0,.19.05.25.25,0,0,0,.17-.1,4.5,4.5,0,0,0,.5-.85,6.72,6.72,0,0,0,.5-3.43A9.6,9.6,0,0,0,22,46.34a.25.25,0,0,0-.2-.12.25.25,0,0,0-.21.09A7.3,7.3,0,0,1,15.76,49a7,7,0,0,1-5.63-2.67,9.92,9.92,0,0,1-2.06-4.18c-.12-.63,0-.83,0-.85s.32-.05.67.72c1.43,3.2,3.71,4.88,6.59,4.88a5.75,5.75,0,0,0,4.89-2.64.25.25,0,0,0,0-.3L20,43.66a21,21,0,0,1-2.15-3,7.38,7.38,0,0,1-.75-5.52,7.12,7.12,0,0,1,1.11-2.36.25.25,0,0,0-.09-.37,5.88,5.88,0,0,0-2.73-.64,5.6,5.6,0,0,0-4.86,2.72l-.33.51a5.19,5.19,0,0,1-.79,1.05,1.38,1.38,0,0,1-1,.38,1.38,1.38,0,0,1-.92-2.22A.89.89,0,0,1,8.16,34h0a.9.9,0,0,1,.44.12l.08,0a.79.79,0,0,0,.36.14.58.58,0,0,0,.58-.36,6.55,6.55,0,0,1,6-4,7.77,7.77,0,0,1,4,1.11.25.25,0,0,0,.28,0l.92-.7a6.53,6.53,0,0,0,2.06-2.13,2.6,2.6,0,0,0,.58.54,4.33,4.33,0,0,1-.59.89l-.06.07a.25.25,0,0,0,0,.28.26.26,0,0,0,.25.13,7.47,7.47,0,0,1,4.22.81c.13.07.24.16.36.24l.1.07a.25.25,0,0,0,.28,0A7.76,7.76,0,0,1,32.32,30a6.57,6.57,0,0,1,6,4,.6.6,0,0,0,.57.33.8.8,0,0,0,.36-.14l.08,0a.9.9,0,0,1,.44-.12h0a.89.89,0,0,1,.66.27,1.38,1.38,0,0,1-.92,2.22,1.39,1.39,0,0,1-1-.38A5.19,5.19,0,0,1,37.78,35l-.33-.51a5.6,5.6,0,0,0-4.86-2.72,5.81,5.81,0,0,0-3.1.85A.25.25,0,0,0,29.41,33ZM27.49,54a3.46,3.46,0,0,0,3.17,2.17,2.83,2.83,0,0,0,2.59-1.5,2.53,2.53,0,0,0-.14-2.61.49.49,0,0,0-.56-.18.5.5,0,0,0-.34.48,1.89,1.89,0,0,1-.49,1.4,1.61,1.61,0,0,1-1.39.45,1.42,1.42,0,0,1-1-.6,1.65,1.65,0,0,1-.24-1.27,2.09,2.09,0,0,1,2.07-1.54,2.74,2.74,0,0,1,2.55,1.33,3.65,3.65,0,0,1-.57,4.2,4.92,4.92,0,0,1-3.6,1.43,6.9,6.9,0,0,1-1.95-.29,12.92,12.92,0,0,1-4.12-2.18,8.5,8.5,0,0,0,.84-6.87,12.79,12.79,0,0,0-1.45-3.24A10.91,10.91,0,0,0,24,42.36a8.82,8.82,0,0,0,5.95,6.86,3.78,3.78,0,0,0-2,1.4A3.66,3.66,0,0,0,27.49,54Z"/><path class="cls-1" d="M19.15,33.3a.25.25,0,0,0-.18.11l-.17.26a6.28,6.28,0,0,0-.39,5.76,14.78,14.78,0,0,0,2.18,3.45.25.25,0,0,0,.2.09h0a.25.25,0,0,0,.2-.16,9.89,9.89,0,0,0,.6-3.5,8,8,0,0,0-2.27-5.93A.25.25,0,0,0,19.15,33.3Zm1.55,8.9a13.34,13.34,0,0,1-1.83-3,5.79,5.79,0,0,1,.35-5.28,7.6,7.6,0,0,1,1.9,5.36A9.65,9.65,0,0,1,20.7,42.19Z"/><path class="cls-1" d="M27,31.93a.25.25,0,0,0-.11-.19,5.72,5.72,0,0,0-3.07-.9h-.08a5.78,5.78,0,0,0-2.81.75.25.25,0,0,0,0,.4,9.3,9.3,0,0,1,2.84,6,.25.25,0,0,0,.5,0,9.37,9.37,0,0,1,2.7-5.83A.25.25,0,0,0,27,31.93Zm-3,4.53a9.45,9.45,0,0,0-2.49-4.59,5.31,5.31,0,0,1,2.26-.53h.07a5.26,5.26,0,0,1,2.53.65A9.54,9.54,0,0,0,24,36.46Z"/><path class="cls-1" d="M28.63,34l0-.12a.25.25,0,0,0-.43-.08,7.81,7.81,0,0,0-1.75,4.25.25.25,0,0,0,.25.28l.1,0a3.17,3.17,0,0,0,1.29-1h0a3.69,3.69,0,0,0,.7-2.93A2.93,2.93,0,0,0,28.63,34Zm-1,3a2.51,2.51,0,0,1-.67.6,7.34,7.34,0,0,1,1.28-3.15v0A3.18,3.18,0,0,1,27.65,37.06Z"/></svg>