<svg id="Layer_1" data-name="Layer 1" xmlns="http://www.w3.org/2000/svg" viewBox="0 0 173.91 71.59"><defs><style>.cls-1{fill:#778d87;}.cls-2{fill:#ffda48;}</style></defs><title>Guild_Logo_Artboard 1</title><path class="cls-1" d="M65.59,24.63a7.56,7.56,0,0,1-1.49.68,5.81,5.81,0,0,1-1.9.3A5.9,5.9,0,0,1,60,25.21a5.15,5.15,0,0,1-1.72-1.1,5,5,0,0,1-1.13-1.68,5.45,5.45,0,0,1-.41-2.12,5.34,5.34,0,0,1,.41-2.11,5.07,5.07,0,0,1,1.14-1.68A5.31,5.31,0,0,1,60,15.41,5.7,5.7,0,0,1,62.21,15a5.79,5.79,0,0,1,1.9.3,7.57,7.57,0,0,1,1.49.68l-.46,1a7.27,7.27,0,0,0-1.47-.63,5.24,5.24,0,0,0-1.55-.25,4.47,4.47,0,0,0-1.74.32,3.7,3.7,0,0,0-1.3.9,3.91,3.91,0,0,0-.81,1.35A4.93,4.93,0,0,0,58,20.31,4.72,4.72,0,0,0,58.27,22a3.85,3.85,0,0,0,.85,1.34,3.92,3.92,0,0,0,1.34.89,4.56,4.56,0,0,0,1.75.32,5.24,5.24,0,0,0,1.55-.25,7.28,7.28,0,0,0,1.47-.63Z"/><path class="cls-1" d="M73.85,25.44v-4.7H68.37v4.7H67.25V15.18h1.12v4.55h5.49V15.18H75V25.44Z"/><path class="cls-1" d="M77.35,25.44V15.18h6v1H78.47v3.54h4.4v1h-4.4v3.7h4.89v1Z"/><path class="cls-1" d="M85.46,25.44V15.18h1.12v9.25h4.89v1Z"/><path class="cls-1" d="M95.57,16.18v9.25H94.45V16.18H91v-1h8v1Z"/><path class="cls-1" d="M100.52,25.44V15.18h6v1h-4.89v3.54H106v1h-4.4v3.7h4.89v1Z"/><path class="cls-1" d="M116.48,25.63l-6.66-8v7.78H108.7V15l.22-.06,6.58,7.85V15.18h1.12V25.59Z"/><path class="cls-1" d="M125.82,25.44v-4.7h-5.49v4.7h-1.12V15.18h1.12v4.55h5.49V15.18h1.12V25.44Z"/><path class="cls-1" d="M136.46,25.44l-1.22-2.84h-4.59l-1.22,2.84h-1.16L132.88,15h.18l4.61,10.44Zm-3.51-8.19-1.89,4.41h3.78Z"/><path class="cls-1" d="M147.73,25.44l-.15-7.25-3.64,6.2h-.15l-3.67-6.22L140,25.44h-1.13L139.25,15l.21,0,4.45,7.73L148.25,15l.22,0,.39,10.43Z"/><path class="cls-1" d="M58.3,40.94V30.68h1.12v9.25h4.89v1Z"/><path class="cls-1" d="M73.1,40.94,71.88,38.1H67.29l-1.22,2.84H64.91l4.61-10.44h.18L74.3,40.94Zm-3.51-8.19-1.89,4.41h3.78Z"/><path class="cls-1" d="M84.17,35.72a5.68,5.68,0,0,1-.36,2,4.77,4.77,0,0,1-1.08,1.69,5.27,5.27,0,0,1-1.81,1.18A6.68,6.68,0,0,1,78.4,41q-.78,0-1.48,0l-1.3-.12V30.77l1.24-.12q.65,0,1.44,0a7,7,0,0,1,2.54.43,5.4,5.4,0,0,1,1.83,1.14,4.82,4.82,0,0,1,1.11,1.63A5,5,0,0,1,84.17,35.72Zm-1.22,0a4.57,4.57,0,0,0-.29-1.66,3.6,3.6,0,0,0-.87-1.32,4,4,0,0,0-1.42-.87,5.63,5.63,0,0,0-2-.32l-.92,0a5.74,5.74,0,0,0-.73.08v8.27a4.61,4.61,0,0,0,.75.09l1,0a5.25,5.25,0,0,0,2-.34,3.71,3.71,0,0,0,1.37-.92,3.82,3.82,0,0,0,.8-1.38A5.3,5.3,0,0,0,83,35.72Z"/><path class="cls-1" d="M86.41,40.94V30.68h1.12V40.94Z"/><path class="cls-1" d="M90.33,40.94V30.68h6v1H91.45v3.54h4.4v1h-4.4v3.7h4.89v1Z"/><path class="cls-1" d="M103.84,38.17a2.81,2.81,0,0,1-.24,1.16,2.91,2.91,0,0,1-.66.93,3,3,0,0,1-1,.62,3.4,3.4,0,0,1-1.25.22,4.71,4.71,0,0,1-1.59-.25,6.28,6.28,0,0,1-1.38-.7l.55-1a5.44,5.44,0,0,0,1.23.66,3.49,3.49,0,0,0,1.25.25,2.27,2.27,0,0,0,.85-.15,1.64,1.64,0,0,0,1-1,1.93,1.93,0,0,0,.12-.67,2.15,2.15,0,0,0-.08-.62,1.46,1.46,0,0,0-.3-.53,2.62,2.62,0,0,0-.62-.5,9,9,0,0,0-1-.52,7.86,7.86,0,0,1-1.13-.6,3.33,3.33,0,0,1-.75-.64,2.29,2.29,0,0,1-.42-.73,2.69,2.69,0,0,1,.09-1.91,2.71,2.71,0,0,1,.64-.89,3.15,3.15,0,0,1,1-.62,3.44,3.44,0,0,1,1.28-.23,3.91,3.91,0,0,1,1.25.2,4.14,4.14,0,0,1,1,.5l-.5,1a3.37,3.37,0,0,0-.86-.46,2.88,2.88,0,0,0-1-.18,2.39,2.39,0,0,0-.85.14,1.74,1.74,0,0,0-.61.37,1.55,1.55,0,0,0-.36.55,1.78,1.78,0,0,0-.13.67,1.44,1.44,0,0,0,.4,1,4.1,4.1,0,0,0,1.35.88,12.26,12.26,0,0,1,1.33.69,3.9,3.9,0,0,1,.85.68,2,2,0,0,1,.44.76A3.11,3.11,0,0,1,103.84,38.17Z"/><path class="cls-1" d="M106.68,31.38a1.73,1.73,0,0,1-.09.53,2.69,2.69,0,0,1-.27.57,2.83,2.83,0,0,1-.45.55,3.43,3.43,0,0,1-.65.49l-.15-.22a2.69,2.69,0,0,0,.6-.71,3,3,0,0,0,.29-.68.8.8,0,0,1-.53-.23.67.67,0,0,1-.2-.48.69.69,0,0,1,.69-.69.67.67,0,0,1,.56.25A1,1,0,0,1,106.68,31.38Z"/><path class="cls-1" d="M119.86,40.13a7.56,7.56,0,0,1-1.49.68,5.81,5.81,0,0,1-1.9.3,5.9,5.9,0,0,1-2.18-.39,5.15,5.15,0,0,1-1.72-1.1,5,5,0,0,1-1.13-1.68,5.45,5.45,0,0,1-.41-2.12,5.34,5.34,0,0,1,.41-2.11A5.07,5.07,0,0,1,112.58,32a5.32,5.32,0,0,1,1.73-1.11,5.7,5.7,0,0,1,2.16-.41,5.79,5.79,0,0,1,1.9.3,7.56,7.56,0,0,1,1.49.68l-.46,1a7.27,7.27,0,0,0-1.47-.63,5.24,5.24,0,0,0-1.55-.25,4.47,4.47,0,0,0-1.74.32,3.7,3.7,0,0,0-1.3.9,3.91,3.91,0,0,0-.81,1.35,4.93,4.93,0,0,0-.28,1.69,4.72,4.72,0,0,0,.29,1.69,3.85,3.85,0,0,0,.85,1.34,3.92,3.92,0,0,0,1.34.89,4.56,4.56,0,0,0,1.75.32A5.24,5.24,0,0,0,118,39.8a7.28,7.28,0,0,0,1.47-.63Z"/><path class="cls-1" d="M131.25,35.81a5.33,5.33,0,0,1-1.55,3.8,5.11,5.11,0,0,1-3.62,1.49,5,5,0,0,1-3.58-1.49,5.16,5.16,0,0,1-1.09-1.68,5.53,5.53,0,0,1-.4-2.12,5.33,5.33,0,0,1,.42-2.13,5.16,5.16,0,0,1,2.77-2.77,5,5,0,0,1,2-.4,4.89,4.89,0,0,1,2,.4,5,5,0,0,1,2.71,2.77A5.57,5.57,0,0,1,131.25,35.81Zm-1.22,0a4.89,4.89,0,0,0-.29-1.69,4.2,4.2,0,0,0-.81-1.37,3.68,3.68,0,0,0-2.8-1.24,3.75,3.75,0,0,0-1.58.33,3.7,3.7,0,0,0-1.24.91,4.19,4.19,0,0,0-.81,1.37,5.14,5.14,0,0,0,0,3.39,4.18,4.18,0,0,0,.81,1.37,3.7,3.7,0,0,0,1.24.91,3.75,3.75,0,0,0,1.58.33,3.67,3.67,0,0,0,2.8-1.24,4.2,4.2,0,0,0,.81-1.37A4.89,4.89,0,0,0,130,35.81Z"/><path class="cls-1" d="M133.42,40.94V30.68h1.12v9.25h4.89v1Z"/><path class="cls-1" d="M141.12,40.94V30.68h1.12v9.25h4.89v1Z"/><path class="cls-1" d="M148.64,40.94V30.68h6v1h-4.89v3.54h4.4v1h-4.4v3.7h4.89v1Z"/><path class="cls-1" d="M165.73,35.86v4a6,6,0,0,1-1.69.9,6.4,6.4,0,0,1-2.06.31,5.74,5.74,0,0,1-2.06-.38,5.47,5.47,0,0,1-1.76-1.07A5.21,5.21,0,0,1,156.95,38a5.09,5.09,0,0,1-.46-2.18,5,5,0,0,1,.47-2.18A5.4,5.4,0,0,1,158.19,32a5.51,5.51,0,0,1,1.71-1.07,5.28,5.28,0,0,1,2-.38,6.91,6.91,0,0,1,1.16.09,6,6,0,0,1,1,.25,5.61,5.61,0,0,1,.87.39q.41.23.82.51l-.59.88a6.19,6.19,0,0,0-1.55-.82,5,5,0,0,0-1.68-.3,4.23,4.23,0,0,0-1.76.35,3.86,3.86,0,0,0-1.31.94,4.16,4.16,0,0,0-.81,1.37,4.78,4.78,0,0,0-.28,1.63,4.24,4.24,0,0,0,.34,1.69,4.36,4.36,0,0,0,.91,1.37,4.13,4.13,0,0,0,1.36.91,4.3,4.3,0,0,0,1.68.33,5.28,5.28,0,0,0,1.38-.17,5,5,0,0,0,1.24-.53V36.91H161.9v-1Z"/><path class="cls-1" d="M167.9,40.94V30.68h6v1H169v3.54h4.4v1H169v3.7h4.89v1Z"/><path class="cls-1" d="M66,51.36v4a6,6,0,0,1-1.69.9,6.4,6.4,0,0,1-2.06.31,5.74,5.74,0,0,1-2.06-.38,5.49,5.49,0,0,1-1.76-1.07,5.2,5.2,0,0,1-1.22-1.67,5.07,5.07,0,0,1-.45-2.18,5,5,0,0,1,.47-2.18,5.41,5.41,0,0,1,1.23-1.67,5.5,5.5,0,0,1,1.72-1.07,5.27,5.27,0,0,1,2-.38,6.92,6.92,0,0,1,1.16.09,6,6,0,0,1,1,.25,5.59,5.59,0,0,1,.87.39q.41.23.82.51l-.59.88a6.18,6.18,0,0,0-1.55-.82,5,5,0,0,0-1.68-.3,4.23,4.23,0,0,0-1.76.35,3.85,3.85,0,0,0-1.31.94,4.14,4.14,0,0,0-.81,1.37A4.77,4.77,0,0,0,58,51.31,4.25,4.25,0,0,0,58.31,53a4.36,4.36,0,0,0,.91,1.37,4.14,4.14,0,0,0,1.36.91,4.3,4.3,0,0,0,1.68.33,5.28,5.28,0,0,0,1.38-.17,5,5,0,0,0,1.24-.53V52.41H62.16v-1Z"/><path class="cls-1" d="M75.76,52.76a4.38,4.38,0,0,1-.28,1.61,3.35,3.35,0,0,1-.8,1.21,3.56,3.56,0,0,1-1.23.76,4.45,4.45,0,0,1-1.57.27,4.77,4.77,0,0,1-1.6-.25,3.17,3.17,0,0,1-1.21-.75,3.4,3.4,0,0,1-.77-1.21A4.56,4.56,0,0,1,68,52.76V46.18h1.12v6.5a3.85,3.85,0,0,0,.2,1.32,2.46,2.46,0,0,0,.56.91,2.17,2.17,0,0,0,.86.53,3.73,3.73,0,0,0,2.21,0,2.29,2.29,0,0,0,.88-.53,2.37,2.37,0,0,0,.57-.91,3.85,3.85,0,0,0,.2-1.32v-6.5h1.12Z"/><path class="cls-1" d="M78.15,56.44V46.18h1.12V56.44Z"/><path class="cls-1" d="M81.73,56.44V46.18h1.12v9.25h4.89v1Z"/><path class="cls-1" d="M97.72,51.22a5.68,5.68,0,0,1-.36,2,4.77,4.77,0,0,1-1.08,1.69,5.27,5.27,0,0,1-1.81,1.18,6.68,6.68,0,0,1-2.53.44q-.78,0-1.48,0l-1.29-.12V46.27l1.24-.12q.65,0,1.44,0a7,7,0,0,1,2.54.43,5.4,5.4,0,0,1,1.83,1.14,4.82,4.82,0,0,1,1.11,1.63A5,5,0,0,1,97.72,51.22Zm-1.22,0a4.57,4.57,0,0,0-.29-1.66,3.6,3.6,0,0,0-.87-1.32,4.05,4.05,0,0,0-1.42-.87,5.63,5.63,0,0,0-2-.31l-.92,0a5.74,5.74,0,0,0-.73.08v8.27a4.62,4.62,0,0,0,.75.09l1,0a5.25,5.25,0,0,0,2-.34,3.71,3.71,0,0,0,1.37-.92,3.82,3.82,0,0,0,.8-1.38A5.31,5.31,0,0,0,96.5,51.22Z"/><path class="cls-1" d="M37,34.83l.33.52a5.45,5.45,0,0,0,.86,1.14,1.91,1.91,0,0,0,1.32.51h0a1.87,1.87,0,0,0,1.26-3.07,1.4,1.4,0,0,0-1-.42,1.37,1.37,0,0,0-.67.18l-.12.07a.41.41,0,0,1-.16.07.24.24,0,0,1-.07-.08,7,7,0,0,0-6.46-4.27A8.14,8.14,0,0,0,28,30.7a7,7,0,0,0-.74-.51,6.91,6.91,0,0,0-3.48-.93,6.44,6.44,0,0,0-1.13.1,4.83,4.83,0,0,0,.59-.8,1.2,1.2,0,0,0,.71.34c.59,0,1.32-.91,1.46-1.37a4.23,4.23,0,0,0,.08-1.66,4.39,4.39,0,0,0,.75,1.5,2.63,2.63,0,0,0,1.57.71.78.78,0,0,0,.32-.06c.53-.23.83-1.36.78-1.84a4.32,4.32,0,0,0-.61-1.56,4.41,4.41,0,0,0,1.3,1.07,2.31,2.31,0,0,0,.88.15,1.47,1.47,0,0,0,1.11-.33,2.24,2.24,0,0,0,0-2,4.25,4.25,0,0,0-1.18-1.17,4.37,4.37,0,0,0,1.61.44c.49,0,1.58-.42,1.76-1S33.3,20.3,32.9,20a4.25,4.25,0,0,0-1.56-.59A4.61,4.61,0,0,0,33,19.18c.43-.19,1.26-1,1.2-1.6s-1-1.21-1.51-1.3a2,2,0,0,0-.45,0,7.06,7.06,0,0,0-1.22.14,4.36,4.36,0,0,0,1.42-.91c.32-.35.74-1.44.44-1.95s-1.33-.61-1.58-.61a1.47,1.47,0,0,0-.33,0,4.2,4.2,0,0,0-1.48.76,4.35,4.35,0,0,0,.92-1.39,2.2,2.2,0,0,0-.39-2,.94.94,0,0,0-.57-.15,2.73,2.73,0,0,0-1.41.4,4.19,4.19,0,0,0-1,1.29,4.29,4.29,0,0,0,.27-1.65c0-.47-.57-1.51-1.14-1.63H26a2.44,2.44,0,0,0-1.57,1A4.29,4.29,0,0,0,24,11.27a4.32,4.32,0,0,0-.43-1.63A2.46,2.46,0,0,0,22,8.6h-.14c-.57.12-1.1,1.16-1.14,1.64A4.23,4.23,0,0,0,21,11.9a4.36,4.36,0,0,0-1-1.31,2.76,2.76,0,0,0-1.4-.39,1,1,0,0,0-.57.15,2.22,2.22,0,0,0-.38,2,4.3,4.3,0,0,0,.92,1.39A4.32,4.32,0,0,0,17,12.93a1.5,1.5,0,0,0-.31,0c-.39,0-1.33.15-1.6.6a2.23,2.23,0,0,0,.45,2,4.28,4.28,0,0,0,1.4.9,7,7,0,0,0-1.22-.14,2.13,2.13,0,0,0-.46,0c-.46.09-1.44.73-1.5,1.3S14.56,19,15,19.16a4.5,4.5,0,0,0,1.64.25,4.27,4.27,0,0,0-1.57.59c-.38.27-1,1.25-.84,1.8s1.27,1,1.75,1a4.39,4.39,0,0,0,1.62-.45,4.36,4.36,0,0,0-1.2,1.18,2.24,2.24,0,0,0,0,2,1.47,1.47,0,0,0,1.11.32,2.31,2.31,0,0,0,.89-.15,4.27,4.27,0,0,0,1.29-1.05A4.35,4.35,0,0,0,19,26.19c-.05.47.25,1.6.78,1.84a.76.76,0,0,0,.31.06,2.63,2.63,0,0,0,1.58-.72,4.16,4.16,0,0,0,.75-1.47,4.32,4.32,0,0,0,.08,1.66,1.38,1.38,0,0,0,.11.24,6.55,6.55,0,0,1-1.89,1.82c-.35.26-.74.56-1.14.89a8.13,8.13,0,0,0-4-1A7,7,0,0,0,9.2,33.71c-.05.09-.08.1-.12.1L9,33.75l-.11-.07a1.38,1.38,0,0,0-.67-.18,1.4,1.4,0,0,0-1,.42A1.87,1.87,0,0,0,8.41,37h.06a1.88,1.88,0,0,0,1.26-.51,5.48,5.48,0,0,0,.86-1.15l.33-.52a5.13,5.13,0,0,1,4.44-2.5,5.39,5.39,0,0,1,2.27.49,7.45,7.45,0,0,0-.72,1.79,7.73,7.73,0,0,0,.77,5.69,21.3,21.3,0,0,0,2.18,3l.24.29a5.26,5.26,0,0,1-4.72,2.81c-2.67,0-4.8-1.59-6.14-4.59-.32-.71-.61-1.19-1.26-1s-.46,1.12-.4,1.42A10.34,10.34,0,0,0,9.76,46.7a7.61,7.61,0,0,0,6,2.85,7.78,7.78,0,0,0,6.29-3.08,9.83,9.83,0,0,1,1.16,3.72,6.9,6.9,0,0,1-.49,3.47,4.8,4.8,0,0,1-.6,1l-.93-.77-.35-.29c-2.14-1.78-4.13-2.51-6.14-2.26a3.46,3.46,0,0,0-2.56,1.55,3.11,3.11,0,0,0-.27,2.71c.56,1.61,2.5,2.65,5,2.65h.31A8,8,0,0,0,22.25,56a16,16,0,0,0,5.12,3,8.76,8.76,0,0,0,2.69.45,5.68,5.68,0,0,0,3.59-1.16,5.61,5.61,0,0,0,2-4.87A4.44,4.44,0,0,0,33,49.51a7.62,7.62,0,0,0,5.24-2.81,10.36,10.36,0,0,0,2.17-4.41c.06-.31.23-1.24-.4-1.42s-.94.28-1.26,1c-1.34,3-3.46,4.59-6.14,4.59-3.44,0-5.75-2.87-5.75-7.14,0-.11,0-.21,0-.32A4.05,4.05,0,0,0,30,35.79a5,5,0,0,0-.18-2.69,5.3,5.3,0,0,1,2.8-.77A5.13,5.13,0,0,1,37,34.83ZM20.68,56A6.72,6.72,0,0,1,17,57.13a5.22,5.22,0,0,1-2.76-.73A2.35,2.35,0,0,1,13,54.24a2.09,2.09,0,0,1,1.79-1.91,4.33,4.33,0,0,1,.83-.08c1.54,0,3.16.78,5.09,2.45l.76.66A7.62,7.62,0,0,1,20.68,56Zm7.77-29.75A1.91,1.91,0,0,1,28,27.57l-.11,0a2.21,2.21,0,0,1-1.2-.55c-.48-.53-1.07-2.44-1.7-5.18a3.39,3.39,0,0,0,.8-.34C27.35,23.81,28.38,25.52,28.44,26.24Zm2.7-2.46a1.91,1.91,0,0,1,.1,1.41,1.23,1.23,0,0,1-.74.16,1.8,1.8,0,0,1-.68-.11c-.66-.29-2-1.79-3.66-4a3.39,3.39,0,0,0,.6-.64C29.17,22,30.8,23.15,31.14,23.78Zm1.47-3.35a1.92,1.92,0,0,1,.66,1.25,1.9,1.9,0,0,1-1.26.62h0c-.72,0-2.52-.83-5-2.19a3.3,3.3,0,0,0,.29-.83C30.1,19.62,32,20,32.61,20.42Zm-.38-3.69a1.65,1.65,0,0,1,.35,0c.39.08,1.09.63,1.11.87s-.54.92-.91,1.09a5.43,5.43,0,0,1-1.88.21c-.93,0-2.13-.07-3.53-.19,0,0,0-.06,0-.1a3.28,3.28,0,0,0-.1-.78A22.21,22.21,0,0,1,32.23,16.73Zm-1.15-3.3.22,0a1.81,1.81,0,0,1,1.15.36,1.89,1.89,0,0,1-.38,1.36c-.47.53-2.25,1.29-4.85,2.19l-.09,0a3.32,3.32,0,0,0-.46-.75C28.79,14.77,30.38,13.57,31.08,13.44ZM28.34,11a2.27,2.27,0,0,1,1.11-.3.51.51,0,0,1,.28.06,1.89,1.89,0,0,1,.2,1.4c-.21.67-1.53,2.09-3.52,4l-.1.09a3.43,3.43,0,0,0-.72-.5C26.79,13.16,27.76,11.42,28.34,11ZM24.86,9.9A2.05,2.05,0,0,1,26,9.1h0a1.92,1.92,0,0,1,.75,1.2c.08.71-.56,2.59-1.66,5.18a3.37,3.37,0,0,0-.85-.18C24.31,12.49,24.49,10.51,24.86,9.9ZM24,22a3.42,3.42,0,0,0,.43,0c.54,2.77.78,4.75.55,5.43-.12.38-.73,1-1,1h0c-.25,0-.86-.63-1-1-.23-.68,0-2.66.55-5.43A3.35,3.35,0,0,0,24,22ZM22,9.1h0a2.08,2.08,0,0,1,1.13.8c.36.62.54,2.6.59,5.42a3.36,3.36,0,0,0-.85.18c-1.1-2.59-1.74-4.47-1.66-5.18A1.94,1.94,0,0,1,22,9.1Zm-3.91,3a1.93,1.93,0,0,1,.2-1.4.53.53,0,0,1,.28-.06,2.29,2.29,0,0,1,1.11.3c.58.42,1.55,2.16,2.74,4.71a3.45,3.45,0,0,0-.72.5C19.63,14.29,18.28,12.83,18.07,12.15Zm-2.13,3a1.93,1.93,0,0,1-.39-1.36,1.88,1.88,0,0,1,1.17-.36l.21,0c.7.14,2.29,1.33,4.41,3.18a3.34,3.34,0,0,0-.46.75C18.23,16.44,16.41,15.66,15.94,15.12ZM15.2,18.7c-.37-.16-.94-.83-.91-1.08s.72-.79,1.11-.87a1.66,1.66,0,0,1,.35,0,22,22,0,0,1,5,1.14,3.35,3.35,0,0,0-.1.78s0,.06,0,.09c-1.39.12-2.58.19-3.5.19A5.42,5.42,0,0,1,15.2,18.7ZM16,22.28h0a2,2,0,0,1-1.27-.62,1.93,1.93,0,0,1,.66-1.25c.58-.43,2.52-.8,5.29-1.15a3.28,3.28,0,0,0,.28.83C18.51,21.45,16.71,22.28,16,22.28Zm2.16,2.94a1.8,1.8,0,0,1-.68.11,1.25,1.25,0,0,1-.73-.16,1.93,1.93,0,0,1,.1-1.41c.36-.62,2-1.76,4.38-3.21a3.37,3.37,0,0,0,.6.63C20.12,23.44,18.81,24.94,18.15,25.23ZM21.33,27a2.16,2.16,0,0,1-1.2.55l-.11,0a1.93,1.93,0,0,1-.49-1.33c.07-.71,1.09-2.42,2.71-4.72a3.38,3.38,0,0,0,.79.34C22.41,24.6,21.82,26.51,21.33,27Zm-.7,15.43a15.09,15.09,0,0,1-2.21-3.55,6.44,6.44,0,0,1,.22-5.49,7.23,7.23,0,0,1,2.5,5.88A9.64,9.64,0,0,1,20.63,42.46Zm0-11.27a5.57,5.57,0,0,1,3.07-.94h.08a5.82,5.82,0,0,1,3.36,1.08A9.33,9.33,0,0,0,24,36.85,9.27,9.27,0,0,0,20.64,31.19Zm9.68,18.13a3.43,3.43,0,0,0-2,1.31,3.35,3.35,0,0,0-.42,3.06,3,3,0,0,0,2.73,1.93h.05a2.39,2.39,0,0,0,2.21-1.27,2.17,2.17,0,0,0-.09-2.23l-.14-.2v.25A2.37,2.37,0,0,1,32,53.93a2,2,0,0,1-1.44.6l-.32,0A1.85,1.85,0,0,1,29,53.72a2.15,2.15,0,0,1-.32-1.65,2.53,2.53,0,0,1,2.48-1.92h.19a3.15,3.15,0,0,1,2.78,1.59,4.19,4.19,0,0,1-.65,4.81,5.29,5.29,0,0,1-3.93,1.59,7.24,7.24,0,0,1-2.08-.31,13.77,13.77,0,0,1-4.62-2.55l.24-.33a8.36,8.36,0,0,0,.79-6.67,12.49,12.49,0,0,0-1.19-2.81A11,11,0,0,0,24,42C24.72,45.84,27.07,48.57,30.32,49.33ZM28.13,36.8a3.18,3.18,0,0,1-1.15.9,6.92,6.92,0,0,1,1.86-3.84h0A3.64,3.64,0,0,1,28.13,36.8Z"/><ellipse class="cls-2" cx="24" cy="18.65" rx="2.89" ry="2.86"/><path class="cls-2" d="M40.47,34.27a1,1,0,0,0-1.1-.15l-.09,0a.76.76,0,0,1-.36.14h0a.6.6,0,0,1-.56-.33,6.57,6.57,0,0,0-6-4A7.81,7.81,0,0,0,28.41,31a5.33,5.33,0,0,1,1.22,1.59,5.83,5.83,0,0,1,3-.79,5.6,5.6,0,0,1,4.86,2.72l.34.52a5.11,5.11,0,0,0,.78,1,1.38,1.38,0,0,0,.92.38,1.37,1.37,0,0,0,1-2.22Z"/><path class="cls-2" d="M39.19,42.06c-1.43,3.2-3.71,4.88-6.6,4.88-3.68,0-6.25-3.14-6.25-7.64a7.91,7.91,0,0,1,2.33-6,4.16,4.16,0,0,0-1.14-1.7c-1.91,1.5-3.29,4.05-3.29,7.76,0,5.68,3.28,9.65,8,9.65a7,7,0,0,0,5.63-2.67,10,10,0,0,0,2.06-4.18c.1-.55.05-.82,0-.85C39.59,41.27,39.5,41.37,39.19,42.06Z"/><path class="cls-2" d="M8.43,36.5a1.41,1.41,0,0,0,1-.37,5.15,5.15,0,0,0,.78-1l.34-.52a5.6,5.6,0,0,1,4.86-2.72,5.91,5.91,0,0,1,2.53.55A7.06,7.06,0,0,1,19.05,31l.17-.14A7.82,7.82,0,0,0,15.65,30a6.55,6.55,0,0,0-6,4,.61.61,0,0,1-.53.36.79.79,0,0,1-.41-.14l-.08,0A.89.89,0,0,0,8.17,34a.9.9,0,0,0-.67.27,1.38,1.38,0,0,0,.92,2.22Z"/><path class="cls-2" d="M20.24,31.48A6.18,6.18,0,0,0,18.88,33a7.69,7.69,0,0,1,2.75,6.33c0,4.5-2.57,7.64-6.25,7.64-2.89,0-5.17-1.69-6.59-4.88-.25-.56-.38-.74-.53-.74l-.13,0c-.1,0-.15.3,0,.85a10,10,0,0,0,2.06,4.18A7,7,0,0,0,15.77,49c4.69,0,8-4,8-9.65C23.74,35.55,22.26,33,20.24,31.48Z"/><path class="cls-1" d="M24.09,0a.25.25,0,0,0-.21,0C8.7,6.92,0,20,0,35.79S8.7,64.67,23.88,71.56l.1,0,.1,0C39.26,64.67,48,51.63,48,35.79S39.26,6.92,24.09,0Zm.23,68.16a.75.75,0,0,1-.67,0C10.5,61.65,3,49.84,3,35.79S10.5,9.94,23.65,3.4a.76.76,0,0,1,.67,0C37.47,9.94,45,21.75,45,35.79S37.47,61.65,24.32,68.19Z"/></svg>