<?xml version="1.0" encoding="utf-8"?>
<!-- Generator: Adobe Illustrator 22.1.0, SVG Export Plug-In . SVG Version: 6.00 Build 0)  -->
<svg version="1.1" id="Layer_1" xmlns="http://www.w3.org/2000/svg" xmlns:xlink="http://www.w3.org/1999/xlink" x="0px" y="0px"
	 viewBox="0 0 185 85.9" style="enable-background:new 0 0 185 85.9;" xml:space="preserve">
<style type="text/css">
	.st0{fill:#FFFFFF;}
	.st1{fill:#00AEEF;}
</style>
<g>
	<path class="st0" d="M41,31.6c-0.1-0.2-0.3-0.3-0.5-0.3h-4.2L35,27.2c-0.1-0.2-0.3-0.3-0.5-0.3S34.1,27,34,27.2l-1.3,4.1h-4.3
		c-0.2,0-0.4,0.1-0.5,0.3s0,0.4,0.2,0.5l3.4,2.5l-1.2,4.1c-0.1,0.2,0,0.4,0.2,0.5c0.1,0.1,0.2,0.1,0.3,0.1s0.2,0,0.3-0.1l3.5-2.5
		l3.4,2.5c0.2,0.1,0.4,0.1,0.6,0s0.2-0.3,0.2-0.5l-1.3-4.1l3.4-2.5C41,32,41.1,31.8,41,31.6L41,31.6z M34.8,35.8
		c-0.2-0.1-0.4-0.1-0.6,0l-2.5,1.8l1-3c0.1-0.2,0-0.4-0.2-0.5L30,32.3h3.1c0.2,0,0.4-0.1,0.5-0.3l1-3l1,3c0.1,0.2,0.3,0.3,0.5,0.3
		h3.1l-2.5,1.8c-0.4,0.1-0.4,0.3-0.4,0.5l1,3L34.8,35.8L34.8,35.8z"/>
	<path class="st0" d="M23.5,43.3C23.4,43.1,23.2,43,23,43h-4.3l-1.3-4.1c-0.1-0.2-0.3-0.3-0.5-0.3s-0.4,0.1-0.5,0.3L15.1,43h-4.3
		c-0.2,0-0.4,0.1-0.5,0.3c-0.1,0.2,0,0.4,0.2,0.5l3.4,2.5l-1.3,4.1c-0.1,0.2,0,0.4,0.2,0.5C12.9,51,13,51,13.1,51s0.2,0,0.3-0.1
		l3.5-2.5l3.4,2.5c0.2,0.1,0.4,0.1,0.6,0c0.2-0.1,0.2-0.3,0.2-0.5l-1.3-4.1l3.5-2.5C23.5,43.7,23.6,43.5,23.5,43.3L23.5,43.3z
		 M17.3,47.4c-0.2-0.1-0.4-0.1-0.6,0l-2.5,1.8l1-3c0.1-0.2,0-0.4-0.2-0.5l-2.5-1.8h3.1c0.2,0,0.4-0.1,0.5-0.3l1-3l1,3
		c0.1,0.2,0.3,0.3,0.5,0.3h3.1L19,45.8c-0.2,0.1-0.2,0.3-0.2,0.5l1,3L17.3,47.4L17.3,47.4z"/>
	<path class="st0" d="M45.8,43.8l3.4,2.5l-1.3,4.1c-0.1,0.2,0,0.4,0.2,0.5s0.4,0.1,0.6,0l3.4-2.5l3.5,2.5c0.1,0.1,0.2,0.1,0.3,0.1
		c0.1,0,0.2,0,0.3-0.1c0.1-0.1,0.1-0.3,0.1-0.5L55,46.3l3.4-2.5c0.2-0.1,0.2-0.3,0.2-0.5c-0.1-0.2-0.3-0.3-0.5-0.3h-4.3l-1.3-4.1
		c-0.1-0.2-0.3-0.3-0.5-0.3s-0.4,0.1-0.5,0.3L50.3,43H46c-0.2,0-0.4,0.1-0.5,0.3C45.5,43.5,45.6,43.7,45.8,43.8L45.8,43.8z
		 M49.3,49.3l1-3c0.1-0.2,0-0.4-0.2-0.5L47.6,44h3.1c0.2,0,0.4-0.1,0.5-0.3l1-3l1,3c0.1,0.2,0.3,0.3,0.5,0.3h3.1l-2.7,1.8
		c-0.2,0.1-0.2,0.3-0.2,0.5l1,3l-2.5-1.8c-0.2-0.1-0.4-0.1-0.6,0L49.3,49.3L49.3,49.3z"/>
	<path class="st0" d="M32.5,20.1c-0.1-0.2-0.3-0.3-0.5-0.3c-1.6,0.3-3.2-0.3-5.2-1.9c2.1-1.3,3.6-3.2,4.2-5.5
		c0.1-0.2-0.1-0.5-0.3-0.6c-0.7-0.2-1.6-0.4-2.6-0.5c0.4-0.7,0.6-1.6,0.7-2.4c0-0.2-0.1-0.5-0.4-0.5c-2.9-0.8-7.5-0.1-10.3,2.5
		c-1.1-0.8-2.3-1.3-3.6-1.6c-0.1-0.3-0.2-0.5-0.2-0.8c-0.4-1.6-0.8-3.1-2.2-4c-1.2-0.8-2.6-1-3.9-0.6c-0.9,0.3-1.6,0.9-2,1.7
		C4.9,5.6,3.8,6.1,3,6.7C2.8,6.8,2.8,7.1,2.9,7.3s0.3,0.3,0.5,0.3c2-0.1,3.2,0.3,3.2,0.8c0,0.2-0.1,0.6-0.2,1
		C6,10.5,5.5,12.1,6,14.3c0.2,0.7,0.4,1.3,0.7,2l0,0l0,0c1.1,2.1,3,3.9,5.5,4.8c0.6,0.2,1.6,0.5,2.4,0.6c-0.3,1.8-0.5,2.4-1.6,2.5
		c-0.5,0-1.1,0-1.5-0.2c-0.2-0.1-0.5,0-0.7,0.2c-0.1,0.2,0,0.5,0.2,0.7c0.4,0.2,0.8,0.3,1.3,0.3h0.1c0.5,0,1.2,0,1.3,0l0.6-0.1
		c1.3-0.1,2.9-0.2,3.9,0.3c0.1,0,0.1,0,0.2,0c0.2,0,0.4-0.1,0.4-0.3c0.1-0.2,0-0.5-0.2-0.7c-0.6-0.3-1.3-0.4-2-0.4
		c0.1-0.1,0.1-0.1,0.2-0.2c0.5-0.5,1-1.1,1.4-1.9c1.2,0,2.6-0.4,3.4-0.7c1.6,0.9,3.4,1.3,5,1.3c2.4,0,4.5-0.8,5.8-2
		C32.5,20.5,32.6,20.3,32.5,20.1L32.5,20.1z M27.6,9.3c-0.1,0.8-0.4,1.4-0.7,2c-1.4-0.1-2.9,0.1-4.1,0.7c-1.1,0.5-2.3,1.2-3,2.6
		c-0.9-0.1-1.8-0.4-2.5-0.8C18.8,10,24.3,8.6,27.6,9.3L27.6,9.3z M26.2,12.3c-1.3,1.5-3.3,2.3-5.2,2.4c0,0,0,0-0.1,0
		c0.5-0.7,1.2-1.3,2.3-1.8C24,12.5,25.1,12.3,26.2,12.3L26.2,12.3z M16.5,13.2c-0.7-0.7-1.3-1.6-1.7-2.7c0.9,0.3,1.8,0.7,2.6,1.2
		C17,12.2,16.7,12.6,16.5,13.2L16.5,13.2z M4.4,7c1.2-0.4,3-0.4,4.3,0.3l0,0c0.7,0.4,1,0.4,1.3,0.2c0.2-0.1,0.4-0.3,0.4-0.7
		C10.4,6.3,10,6,9.6,6C9.3,6,9.1,6.1,9,6.3C8.4,6,7.9,5.9,7.3,5.8C7.6,5.4,8,5.1,8.5,5c0.9-0.3,2-0.1,3,0.5c1,0.7,1.4,1.9,1.8,3.4
		c0.1,0.5,0.3,1.1,0.5,1.6c1.1,3.4,3.6,5.2,7.1,5.2c0.1,0,0.1,0,0.2,0c2.7,0,5.1-1.3,6.4-3.3c0.8,0.1,1.7,0.2,2.4,0.4
		c-1,3.4-4.5,5.7-8.7,5.9c-5.8,0.2-9.9-2.8-11-8c0-0.1-0.1-0.3-0.2-0.3c-0.1-0.1-0.3-0.1-0.4,0c-1.5,0.5-2.3,1.4-2.8,2.1
		c0.1-1,0.3-1.8,0.6-2.5c0.2-0.6,0.3-1,0.3-1.4C7.4,7.6,6.3,6.9,4.4,7L4.4,7z M7.5,15.9c-0.4-0.8-0.4-1.9-0.1-2.7
		c0.3-0.8,1-1.4,1.9-1.8c0.9,3.4,2.9,5.8,5.8,7.1c-0.2,0.9-0.3,1.7-0.4,2.4c-0.8-0.1-1.6-0.4-2.2-0.6C10.2,19.4,8.4,17.8,7.5,15.9
		L7.5,15.9z M16.1,23.3c-0.3,0.3-0.7,0.5-1.1,0.7c0.3-0.7,0.5-1.6,0.6-2.6c0.1-0.7,0.2-1.6,0.4-2.5c0.7,0.2,1.4,0.4,2.1,0.5
		C17.6,21.1,16.9,22.4,16.1,23.3L16.1,23.3z M21.8,20.5c-0.1-0.1-0.3-0.1-0.4,0c-1,0.4-2,0.6-2.9,0.7c0.2-0.5,0.4-1,0.5-1.6
		c0.5,0.1,1,0.1,1.6,0.1c0.2,0,0.3,0,0.5,0c1.7-0.1,3.2-0.4,4.6-1.1c1.7,1.4,3.2,2.2,4.6,2.4C28.2,22,24.7,22.1,21.8,20.5L21.8,20.5
		z"/>
	<path class="st0" d="M66.2,20.1c-0.1-0.2-0.3-0.3-0.5-0.3c-1.6,0.3-3.2-0.3-5.2-1.9c2.1-1.3,3.6-3.2,4.2-5.5
		c0.1-0.2-0.1-0.5-0.3-0.6c-0.7-0.2-1.6-0.4-2.6-0.5c0.4-0.7,0.6-1.6,0.7-2.4c0-0.2-0.1-0.5-0.4-0.5c-2.9-0.8-7.5-0.1-10.3,2.5
		c-1.1-0.8-2.3-1.3-3.6-1.6C48.1,9,48,8.8,48,8.5c-0.4-1.6-0.8-3.1-2.2-4c-1.2-0.8-2.6-1-3.9-0.6c-0.9,0.3-1.6,0.9-2,1.7
		c-1.3,0-2.4,0.5-3.2,1.1c-0.2,0.1-0.2,0.4-0.1,0.6c0.1,0.2,0.3,0.3,0.5,0.3c2-0.1,3.2,0.3,3.2,0.8c0,0.2-0.1,0.6-0.2,1
		c-0.4,1.1-0.9,2.7-0.4,4.9c0.2,0.7,0.4,1.3,0.7,2l0,0l0,0c1.1,2.1,3,3.9,5.5,4.8c0.6,0.2,1.6,0.5,2.4,0.6c-0.3,1.8-0.5,2.4-1.6,2.5
		c-0.5,0-1.1,0-1.5-0.2c-0.2-0.1-0.5,0-0.7,0.2c-0.1,0.2,0,0.5,0.2,0.7c0.4,0.2,0.8,0.3,1.3,0.3h0.1c0.5,0,1.2,0,1.3,0l0.6-0.1
		c1.3-0.1,2.9-0.2,3.9,0.3c0.1,0,0.1,0,0.2,0c0.2,0,0.4-0.1,0.4-0.3c0.1-0.2,0-0.5-0.2-0.7c-0.6-0.3-1.3-0.4-2-0.4
		c0.1-0.1,0.1-0.1,0.2-0.2c0.5-0.5,1-1.1,1.4-1.9c1.2,0,2.6-0.4,3.4-0.7c1.6,0.9,3.4,1.3,5,1.3c2.4,0,4.5-0.8,5.8-2
		C66.3,20.5,66.3,20.3,66.2,20.1L66.2,20.1z M61.4,9.3c-0.1,0.8-0.4,1.4-0.7,2c-1.4-0.1-2.9,0.1-4.1,0.7c-1.1,0.5-2.3,1.2-3.1,2.6
		c-0.9-0.1-1.8-0.4-2.5-0.8C52.6,10,58,8.6,61.4,9.3L61.4,9.3z M59.9,12.3c-1.3,1.5-3.3,2.3-5.2,2.4c0,0,0,0-0.1,0
		c0.5-0.7,1.2-1.3,2.3-1.8C57.8,12.5,58.8,12.3,59.9,12.3L59.9,12.3z M50.2,13.2c-0.7-0.7-1.3-1.6-1.7-2.7c0.9,0.3,1.8,0.7,2.6,1.2
		C50.8,12.2,50.5,12.6,50.2,13.2L50.2,13.2z M38.2,7c1.2-0.4,3-0.4,4.3,0.3l0,0c0.7,0.4,1,0.4,1.3,0.2c0.2-0.1,0.4-0.3,0.4-0.7
		c0-0.5-0.4-0.8-0.8-0.8c-0.3,0-0.5,0.1-0.6,0.3c-0.6-0.3-1.1-0.4-1.7-0.5c0.3-0.4,0.7-0.7,1.2-0.8c0.9-0.3,2-0.1,3,0.5
		c1,0.7,1.4,1.9,1.8,3.4c0.1,0.5,0.3,1.1,0.5,1.6c1.1,3.4,3.6,5.2,7.1,5.2c0.1,0,0.1,0,0.2,0c2.7,0,5.1-1.3,6.4-3.3
		c0.8,0.1,1.7,0.2,2.4,0.4c-1,3.4-4.5,5.7-8.7,5.9c-5.8,0.2-9.9-2.8-11-8c0-0.1-0.1-0.3-0.2-0.3c-0.1-0.1-0.3-0.1-0.4,0
		c-1.5,0.5-2.3,1.4-2.8,2.1c0.1-1,0.3-1.8,0.6-2.5c0.2-0.6,0.3-1,0.3-1.4C41.2,7.6,40,6.9,38.2,7L38.2,7z M41.2,15.9
		c-0.4-0.8-0.5-1.9-0.1-2.7c0.3-0.8,1-1.4,1.9-1.8c0.9,3.4,2.9,5.8,5.8,7.1c-0.2,0.9-0.3,1.7-0.4,2.4c-0.8-0.1-1.6-0.4-2.2-0.6
		C43.9,19.4,42.2,17.8,41.2,15.9L41.2,15.9z M49.8,23.3c-0.3,0.3-0.7,0.5-1.1,0.7c0.3-0.7,0.5-1.6,0.6-2.6c0.1-0.7,0.2-1.6,0.4-2.5
		c0.7,0.2,1.4,0.4,2.1,0.5C51.4,21.1,50.7,22.4,49.8,23.3L49.8,23.3z M55.6,20.5c-0.1-0.1-0.3-0.1-0.4,0c-1,0.4-2,0.6-2.9,0.7
		c0.2-0.5,0.4-1,0.5-1.6c0.5,0.1,1,0.1,1.6,0.1c0.2,0,0.3,0,0.5,0c1.7-0.1,3.2-0.4,4.6-1.1c1.7,1.4,3.2,2.2,4.6,2.4
		C61.9,22,58.4,22.1,55.6,20.5L55.6,20.5z"/>
	<path class="st0" d="M0,0.4v34.4c0,20,12.5,38.4,34.3,50.4l0.3,0.2l0.3-0.2c21.8-12,34.3-30.4,34.3-50.4V0.4H0L0,0.4z M2.7,46.5
		l31.9-23.3l31.9,23.3c-1.3,5-3.4,9.8-6.3,14.3L34.6,42.1L9,60.8C6.1,56.3,4,51.5,2.7,46.5L2.7,46.5z M34.6,84
		c-10.8-6-19.3-13.6-25-22.1l25-18.2l25,18.2C53.9,70.4,45.4,78,34.6,84L34.6,84z M68,34.8c0,3.6-0.4,7.1-1.2,10.5L34.6,21.8
		L2.4,45.3c-0.8-3.4-1.2-6.9-1.2-10.5V1.6h66.9v33.2H68z"/>
	<path class="st0" d="M48.5,64.4c-0.1-0.2-0.2-0.3-0.4-0.3l0,0c-0.2,0-0.4,0.1-0.5,0.3c-0.9,2.2-2.7,3.3-6.8,5.8
		c-1.1,0.6-2.1,1.3-3,2.1c-0.8,0.7-1.4,1.3-1.9,2.1c-0.1-0.6-0.2-3.8-0.4-5.6c0.3,0.3,0.8,0.5,1.2,0.5c0.1,0,0.2,0,0.2,0
		c0.8-0.2,1.2-1.3,1.2-1.8c0-0.3,0-0.6-0.1-1.1c0.3,0.3,0.6,0.6,0.8,0.7c0.3,0.2,0.8,0.3,1.2,0.3c0.4,0,0.7-0.1,1-0.3
		c0.6-0.5,0.5-1.7,0.3-2.1c-0.1-0.3-0.3-0.5-0.6-0.9c0.4,0.2,0.8,0.3,1.1,0.3c0.4,0,1.6-0.3,1.9-1c0.3-0.8-0.4-1.7-0.7-2
		c-0.2-0.2-0.5-0.3-1-0.5c0.5-0.1,0.8-0.1,1.1-0.3c0.4-0.2,1.3-1,1.2-1.8c-0.1-0.8-1.2-1.3-1.6-1.4c-0.3-0.1-0.6-0.1-1.1,0
		c0.4-0.3,0.7-0.5,0.8-0.7c0.2-0.3,0.7-1.5,0.2-2.1c-0.4-0.7-1.3-0.8-1.6-0.8c-0.2,0-0.4,0-0.5,0.1c-0.3,0.1-0.6,0.2-1,0.5
		c0.2-0.4,0.3-0.7,0.4-1c0.1-0.4-0.1-1.6-0.8-2c-0.6-0.3-1.7,0.2-2.1,0.5c-0.2,0.2-0.4,0.5-0.6,0.9c0-0.4,0-0.8-0.1-1.1
		c-0.1-0.4-0.8-1.4-1.6-1.4s-1.5,0.9-1.6,1.4C33,52,33,52.3,33,52.8c-0.2-0.4-0.4-0.7-0.6-0.9c-0.4-0.3-1.5-0.8-2.1-0.5
		c-0.7,0.4-0.9,1.6-0.8,2c0,0.3,0.2,0.6,0.4,1c-0.4-0.3-0.7-0.4-1-0.5c-0.1,0-0.3-0.1-0.5-0.1c-0.3,0-1.2,0-1.5,0.6
		c-0.5,0.7,0,1.8,0.2,2.1c0.2,0.2,0.4,0.5,0.8,0.7c-0.5-0.1-0.8-0.1-1.1,0c-0.4,0.1-1.5,0.7-1.6,1.4c-0.1,0.8,0.8,1.6,1.2,1.8
		c0.3,0.1,0.6,0.2,1.1,0.3c-0.4,0.2-0.7,0.3-1,0.5c-0.3,0.3-1,1.3-0.7,2s1.3,1,1.9,1l0,0c0.3,0,0.6-0.1,1.1-0.3
		c-0.3,0.3-0.5,0.6-0.6,0.9c-0.2,0.4-0.3,1.6,0.3,2.1c0.2,0.2,0.5,0.3,0.9,0.3c0.5,0,1-0.1,1.2-0.3c0.2-0.1,0.5-0.4,0.8-0.7
		c-0.1,0.5-0.2,0.8-0.1,1.1c0,0.4,0.5,1.6,1.2,1.8c0.4,0.1,1-0.1,1.4-0.5c-0.1,1.9-0.3,5-0.4,5.6c-0.5-0.9-1.1-1.4-1.9-2.1
		c-0.9-0.8-1.9-1.4-3-2.1c-4.1-2.5-5.9-3.6-6.8-5.8c-0.1-0.2-0.2-0.3-0.5-0.3l0,0c-0.2,0-0.4,0.1-0.4,0.3c-1.2,3.9,0.7,7.2,5.7,10
		c0.3,0.2,0.7,0.4,1.1,0.6l0.2,0.1c1.3,0.7,2.7,1.5,3.7,2.3c1.2,0.9,2.3,2.5,2.8,4.1c0.1,0.2,0.2,0.3,0.4,0.3l0,0l0,0l0,0l0,0
		c0.2,0,0.3-0.1,0.4-0.3c0.5-1.6,1.6-3.1,2.8-4.1c1.1-0.8,2.4-1.6,3.7-2.3l0.2-0.1c0.4-0.2,0.7-0.4,1.1-0.6
		C47.8,71.6,49.7,68.3,48.5,64.4L48.5,64.4z M36.7,68.3L36.7,68.3L36.7,68.3c-0.2,0-0.7-0.3-0.9-0.6c-0.3-0.5-0.5-2.1-0.8-4
		l-0.1-0.8c0.3,0,0.5-0.1,0.8-0.2v0.1c0.8,2,1.5,3.8,1.4,4.6C37.2,67.7,36.9,68.2,36.7,68.3L36.7,68.3z M40.4,66.4L40.4,66.4
		c-0.1,0.1-0.2,0.1-0.3,0.1c-0.2,0-0.6-0.1-0.7-0.1c-0.5-0.3-1.5-1.6-2.5-3.2l-0.6-0.8c0.2-0.1,0.4-0.3,0.6-0.5l0,0
		c1.7,1.5,3.2,2.8,3.4,3.4C40.5,65.6,40.5,66.2,40.4,66.4L40.4,66.4z M42.3,62c0.2,0.2,0.5,0.7,0.5,0.9l0,0
		c-0.1,0.2-0.7,0.4-0.9,0.4l0,0l0,0c-0.6,0-2-0.8-3.7-1.6l-0.9-0.4c0.1-0.2,0.2-0.5,0.3-0.7h0.1C39.8,61.1,41.7,61.6,42.3,62
		L42.3,62z M42.4,58.2c0.2,0,0.8,0.4,0.8,0.6l0,0c0,0.2-0.4,0.7-0.7,0.8c-0.6,0.3-2.2,0.3-4.1,0.3h-0.8l0,0c0-0.3,0-0.5-0.1-0.8h0.1
		C39.9,58.6,41.7,58.1,42.4,58.2L42.4,58.2z M40.7,54.8c0.1,0,0.2,0,0.3,0c0.2,0,0.6,0.1,0.7,0.2l0,0c0.1,0.2-0.1,0.8-0.2,1
		c-0.4,0.5-1.8,1.3-3.5,2.1l-0.7,0.4c-0.1-0.2-0.3-0.5-0.5-0.7l0.1-0.1C38.6,56.3,40,55,40.7,54.8L40.7,54.8z M35.7,56.9
		c0.8-2,1.4-3.8,1.9-4.3c0.2-0.2,0.7-0.4,0.9-0.4h0.1l0,0c0.2,0.1,0.3,0.7,0.3,1c-0.1,0.6-1,1.9-2.1,3.5l-0.5,0.7
		C36.1,57.2,35.8,57.1,35.7,56.9L35.7,56.9L35.7,56.9z M33.9,52c0.1-0.2,0.5-0.7,0.7-0.7l0,0l0,0c0.2,0,0.6,0.5,0.7,0.7
		c0.2,0.6,0,2.2-0.2,4.1l0,0L35,56.9c-0.1,0-0.3,0-0.4,0c-0.1,0-0.3,0-0.4,0v-0.1C33.9,54.6,33.7,52.7,33.9,52L33.9,52z M34.6,57.8
		c1.2,0,2.1,0.9,2.1,2.1S35.8,62,34.6,62c-1.2,0-2.1-0.9-2.1-2.1S33.4,57.8,34.6,57.8L34.6,57.8z M30.5,52.2L30.5,52.2
		c0.3,0,0.8,0.2,1,0.3c0.5,0.4,1,2,1.7,3.7l0.3,0.7c-0.3,0.1-0.5,0.2-0.7,0.4v-0.1c-1.3-1.8-2.4-3.4-2.5-4.1
		C30.2,53,30.4,52.4,30.5,52.2L30.5,52.2z M27.7,56c-0.2-0.2-0.3-0.8-0.2-1l0,0c0.1-0.1,0.5-0.2,0.8-0.2c0.1,0,0.2,0,0.3,0
		c0.6,0.2,1.8,1.3,3.3,2.5l0.6,0.5c-0.2,0.2-0.3,0.4-0.5,0.7h-0.1C29.8,57.4,28.1,56.6,27.7,56L27.7,56z M26.6,59.6
		c-0.2-0.1-0.7-0.6-0.7-0.8l0,0c0.1-0.2,0.6-0.6,0.8-0.6c0.1,0,0.2,0,0.3,0c0.8,0,2.2,0.4,3.7,0.7l0.8,0.2c-0.1,0.2-0.1,0.5-0.1,0.8
		l0,0h-0.1c-0.4,0-0.7,0-1.1,0C28.4,59.9,27.1,59.9,26.6,59.6L26.6,59.6z M27.4,63.4L27.4,63.4c-0.3,0-0.8-0.2-0.9-0.4l0,0
		c0-0.2,0.3-0.8,0.5-0.9c0.5-0.4,2.1-0.8,3.9-1.2l0.8-0.2c0.1,0.3,0.2,0.5,0.3,0.7l-0.2,0.1C29.8,62.4,28.1,63.3,27.4,63.4
		L27.4,63.4z M29.9,66.3c-0.2,0.1-0.5,0.2-0.7,0.2c-0.1,0-0.2,0-0.3,0l0,0c-0.1-0.2-0.1-0.8,0-1c0.2-0.6,1.4-1.6,2.8-2.9l0.7-0.6
		c0.2,0.2,0.4,0.4,0.6,0.5l-0.1,0.1C31.5,64.4,30.5,65.9,29.9,66.3L29.9,66.3z M32.5,68.3L32.5,68.3c-0.2-0.1-0.5-0.6-0.5-0.9
		c0-0.6,0.5-2.2,1.2-3.9l0.3-0.8c0.2,0.1,0.5,0.2,0.8,0.2V63c-0.3,2.2-0.5,4.1-0.9,4.7C33.2,67.9,32.7,68.3,32.5,68.3L32.5,68.3z
		 M42.3,73.6c-0.4,0.2-0.8,0.5-1.3,0.7c-1.4,0.7-2.8,1.5-3.9,2.4c-1.1,0.9-2,2-2.6,3.4c-0.6-1.4-1.5-2.5-2.6-3.4
		c-1.1-0.9-2.5-1.6-3.9-2.4c-0.4-0.2-0.9-0.5-1.3-0.7c-4-2.3-5.8-4.8-5.5-7.6c1.2,1.9,3.3,3.1,6.5,5c1.4,0.8,2.5,1.5,3.4,2.4
		c0.8,0.8,1.6,1.7,2,2.8c0.1,0.4,0.3,0.5,0.5,0.5s0.4-0.1,0.4-0.5c0.1-1.1,0.4-5.9,0.5-7.4c0.1,1.5,0.4,6.3,0.5,7.4
		c0.1,0.4,0.2,0.5,0.4,0.5s0.3-0.1,0.5-0.5c0.4-1.1,1.2-2,2-2.8c0.9-0.9,2-1.6,3.4-2.4c3.2-1.9,5.3-3.2,6.5-5
		C48.1,68.8,46.3,71.3,42.3,73.6L42.3,73.6z"/>
</g>
<path class="st0" d="M94.4,15.9c-0.7,0.4-1.5,0.8-2.4,1.1c-1,0.3-2,0.5-3.1,0.5c-1.3,0-2.5-0.2-3.6-0.6c-1.1-0.4-2-1-2.8-1.8
	s-1.4-1.7-1.9-2.8c-0.4-1.1-0.7-2.2-0.7-3.5c0-1.2,0.2-2.4,0.7-3.5s1.1-2,1.9-2.8s1.7-1.4,2.8-1.8C86.4,0.3,87.6,0,88.8,0
	c1.1,0,2.2,0.2,3.1,0.5c1,0.3,1.8,0.7,2.4,1.1l-0.8,1.6c-0.7-0.4-1.5-0.8-2.4-1c-0.9-0.3-1.7-0.4-2.5-0.4c-1.1,0-2,0.2-2.8,0.5
	c-0.8,0.4-1.6,0.8-2.1,1.5c-0.6,0.6-1,1.4-1.3,2.2c-0.3,0.8-0.5,1.8-0.5,2.8c0,1,0.2,1.9,0.5,2.8c0.3,0.8,0.8,1.6,1.4,2.2
	c0.6,0.6,1.3,1.1,2.2,1.5c0.9,0.4,1.8,0.5,2.9,0.5c0.8,0,1.7-0.1,2.5-0.4c0.9-0.3,1.7-0.6,2.4-1L94.4,15.9z"/>
<path class="st0" d="M97.5,17.2V0.4h1.8v15.2h8v1.7L97.5,17.2L97.5,17.2z"/>
<path class="st0" d="M123.5,15.9c-0.7,0.4-1.5,0.8-2.4,1.1c-1,0.3-2,0.5-3.1,0.5c-1.3,0-2.5-0.2-3.6-0.6c-1.1-0.4-2-1-2.8-1.8
	s-1.4-1.7-1.9-2.8c-0.4-1.1-0.7-2.2-0.7-3.5c0-1.2,0.2-2.4,0.7-3.5s1.1-2,1.9-2.8c0.8-0.8,1.7-1.4,2.8-1.8s2.3-0.7,3.5-0.7
	c1.1,0,2.2,0.2,3.1,0.5c1,0.3,1.8,0.7,2.4,1.1l-0.8,1.6c-0.7-0.4-1.5-0.8-2.4-1c-0.9-0.3-1.7-0.4-2.5-0.4c-1.1,0-2,0.2-2.8,0.5
	c-0.8,0.4-1.6,0.8-2.1,1.5c-0.6,0.6-1,1.4-1.3,2.2c-0.3,0.8-0.5,1.8-0.5,2.8c0,1,0.2,1.9,0.5,2.8c0.3,0.8,0.8,1.6,1.4,2.2
	c0.6,0.6,1.3,1.1,2.2,1.5s1.8,0.5,2.9,0.5c0.8,0,1.7-0.1,2.5-0.4c0.9-0.3,1.7-0.6,2.4-1L123.5,15.9z"/>
<g>
	<path class="st1" d="M91.8,40.3v-7.9h-9.2v7.9h-1.9V23.1h1.9v7.6h9.2v-7.6h1.9v17.1L91.8,40.3L91.8,40.3z"/>
	<path class="st1" d="M97.2,40.3V23.1h10v1.7H99v5.9h7.3v1.7H99v6.2h8.2v1.7C107.2,40.3,97.2,40.3,97.2,40.3z"/>
	<path class="st1" d="M122.3,40.3l-2-4.7h-7.7l-2,4.7h-1.9l7.6-17.5h0.3l7.7,17.5H122.3z M116.5,26.6l-3.2,7.4h6.3L116.5,26.6z"/>
	<path class="st1" d="M126.1,40.3V23.1h1.9v15.5h8.2v1.7H126.1z"/>
	<path class="st1" d="M141.9,24.8v15.5H140V24.8h-5.7v-1.7h13.3v1.7H141.9z"/>
	<path class="st1" d="M160.9,40.3v-7.9h-9.2v7.9h-1.9V23.1h1.9v7.6h9.2v-7.6h1.9v17.1L160.9,40.3L160.9,40.3z"/>
	<path class="st1" d="M95.1,55.7c-1,1.3-1.8,2.6-3,3.8c1,0.9,1.9,1.8,2.9,2.6l-1.2,1.3c-1-0.8-2-1.6-3.1-2.6
		c-1.6,1.5-3.3,2.4-5.3,2.4c-3,0-5.2-1.7-5.2-4.6c0-2.3,1.4-3.7,4-4.8c-0.8-1.2-1.2-2.3-1.2-3.5c0-2.5,2.2-4.5,4.3-4.5
		c2.5,0,4,2,4,3.7c0,2-1.3,3.7-4.4,4.9c1,1.3,2.3,2.4,4,4c1.2-1.2,2.1-2.5,3-3.7L95.1,55.7z M85.1,55c-0.1,0-0.2,0.1-0.3,0.1
		c-1.6,0.9-2.7,1.8-2.6,3.5c0.1,1.9,1.4,2.8,3.4,2.9c1.5,0,2.7-0.6,4-1.8C87.8,57.9,86.2,56.5,85.1,55z M87.3,47.4
		c-1.3,0.1-2.4,1.1-2.4,2.8c0,1,0.5,1.9,1.2,3c2.8-1.1,3.3-2.1,3.4-3.5C89.6,48.5,88.6,47.3,87.3,47.4z"/>
	<path class="st1" d="M104.5,47.5v6.2h7.3v1.7h-7.3v7.5h-1.9V45.8h10v1.7H104.5z"/>
	<path class="st1" d="M115.1,62.9V45.8h1.9v17.1H115.1z"/>
	<path class="st1" d="M126.9,47.5V63H125V47.5h-5.7v-1.7h13.3v1.7H126.9z"/>
	<path class="st1" d="M147.9,63.3L136.8,50v13h-1.9V45.6l0.4-0.1l11,13.1V45.8h1.9v17.4L147.9,63.3z"/>
	<path class="st1" d="M151.6,62.9V45.8h10v1.7h-8.2v5.9h7.3v1.7h-7.3v6.2h8.2V63L151.6,62.9L151.6,62.9z"/>
	<path class="st1" d="M168.5,63.2c-1.9,0-3.5-0.6-5-1.6l0.9-1.6c1.3,0.9,2.8,1.5,4.1,1.5c2.2,0,3.2-1.5,3.2-3s-0.6-2.4-3.4-3.6
		c-3-1.3-4.1-2.6-4.1-4.7c0-2.5,2.1-4.7,5.2-4.7c1.4,0,2.8,0.5,3.8,1.2l-0.8,1.6c-0.8-0.6-2-1.1-3.1-1.1c-2.2,0-3.3,1.3-3.3,2.9
		c0,1.2,0.8,2.2,2.9,3.1c3.6,1.6,4.6,2.8,4.6,5.1C173.7,61.1,171.4,63.2,168.5,63.2z"/>
	<path class="st1" d="M180,63.2c-1.9,0-3.5-0.6-5-1.6l0.9-1.6c1.3,0.9,2.8,1.5,4.1,1.5c2.2,0,3.2-1.5,3.2-3s-0.6-2.4-3.4-3.6
		c-3-1.3-4.1-2.6-4.1-4.7c0-2.5,2.1-4.7,5.2-4.7c1.5,0,2.8,0.5,3.8,1.2l-0.8,1.6c-0.8-0.6-2-1.1-3.1-1.1c-2.2,0-3.3,1.3-3.3,2.9
		c0,1.2,0.8,2.2,2.9,3.1c3.6,1.6,4.6,2.8,4.6,5.1C185.2,61.1,182.9,63.2,180,63.2z"/>
	<path class="st1" d="M89.3,85.9c-5.3,0-9.1-3.7-9.1-8.8c0-5.1,3.9-8.9,9.1-8.9c2.3,0,4.3,0.8,5.7,1.6l-0.8,1.6
		c-1.5-0.8-3.4-1.5-5.1-1.5c-4.3,0-6.9,3.1-6.9,7.1s2.7,7.1,7.1,7.1c1.6,0,3.6-0.6,5.1-1.5l0.6,1.6C93.6,85.1,91.6,85.9,89.3,85.9z"
		/>
	<path class="st1" d="M97.3,85.6V68.5h10v1.7h-8.2v5.9h7.3v1.7h-7.3V84h8.2v1.7L97.3,85.6L97.3,85.6z"/>
	<path class="st1" d="M123.5,85.9l-11.2-13.3v13h-1.9V68.2l0.4-0.1l11,13.1V68.5h1.9v17.4H123.5z"/>
	<path class="st1" d="M133.5,70.1v15.5h-1.9V70.1h-5.7v-1.7h13.3v1.7H133.5z"/>
	<path class="st1" d="M151,85.6l-4.6-6.8c-0.4,0-0.7,0-1.1,0c-0.6,0-1.4,0-1.9,0v6.8h-1.9v-17c1.3-0.2,2.5-0.3,4-0.3
		c4.4,0,6.6,2.2,6.6,5.1c0,2.4-1.3,4.2-3.7,5l5,7.2C153.4,85.6,151,85.6,151,85.6z M145.7,70c-0.8,0-1.8,0-2.4,0.2v7
		c0.6,0.1,1.4,0.1,2.1,0.1c3.2,0,4.6-1.5,4.6-3.7C150,71.6,148.5,70,145.7,70z"/>
	<path class="st1" d="M155.1,85.6V68.5h10v1.7h-8.2v5.9h7.3v1.7h-7.3V84h8.2v1.7L155.1,85.6L155.1,85.6z"/>
</g>
</svg>
