<?xml version="1.0" encoding="utf-8"?>
<!-- Generator: Adobe Illustrator 22.1.0, SVG Export Plug-In . SVG Version: 6.00 Build 0)  -->
<svg version="1.1" id="Layer_1" xmlns="http://www.w3.org/2000/svg" xmlns:xlink="http://www.w3.org/1999/xlink" x="0px" y="0px"
	 viewBox="0 0 185 85.2" style="enable-background:new 0 0 185 85.2;" xml:space="preserve">
<style type="text/css">
	.st0{fill:#00AEEF;}
</style>
<g>
	<path d="M89.3,17.7c-5.3,0-9.1-3.7-9.1-8.8S84.1,0,89.3,0c2.3,0,4.3,0.8,5.7,1.6l-0.8,1.6c-1.5-0.8-3.4-1.5-5.1-1.5
		c-4.3,0-6.9,3.1-6.9,7.1s2.7,7.1,7.1,7.1c1.6,0,3.6-0.6,5.1-1.5L95,16C93.6,16.9,91.6,17.7,89.3,17.7z"/>
	<path d="M97.6,17.4V0.2h1.9v15.5h8.2v1.7H97.6z"/>
	<path d="M117.2,17.7c-5.3,0-9.1-3.7-9.1-8.8S112,0,117.2,0c2.3,0,4.3,0.8,5.7,1.6l-0.8,1.6c-1.4-0.8-3.4-1.5-5.1-1.5
		c-4.3,0-6.9,3.1-6.9,7.1s2.7,7.1,7.1,7.1c1.6,0,3.6-0.6,5.1-1.5l0.6,1.6C121.5,16.9,119.4,17.7,117.2,17.7z"/>
</g>
<g>
	<path class="st0" d="M91.8,39.9V32h-9.2v7.9h-1.9V22.7h1.9v7.6h9.2v-7.6h1.9v17.1h-1.9V39.9z"/>
	<path class="st0" d="M97.2,39.9V22.7h10v1.7H99v5.9h7.3V32H99v6.2h8.2v1.7C107.2,39.9,97.2,39.9,97.2,39.9z"/>
	<path class="st0" d="M122.3,39.9l-2-4.7h-7.7l-2,4.7h-1.9l7.7-17.5h0.3l7.7,17.5H122.3z M116.5,26.2l-3.2,7.4h6.3L116.5,26.2z"/>
	<path class="st0" d="M126.1,39.9V22.7h1.9v15.5h8.2v1.7H126.1z"/>
	<path class="st0" d="M141.9,24.4v15.5H140V24.4h-5.7v-1.7h13.3v1.7H141.9z"/>
	<path class="st0" d="M160.9,39.9V32h-9.2v7.9h-1.9V22.7h1.9v7.6h9.2v-7.6h1.9v17.1h-1.9V39.9z"/>
</g>
<g>
	<path class="st0" d="M95.1,54.8c-1,1.3-1.8,2.6-3,3.8c1,0.9,1.9,1.8,2.9,2.6l-1.2,1.3c-1-0.8-2-1.6-3.1-2.6
		c-1.6,1.5-3.3,2.4-5.3,2.4c-3,0-5.2-1.7-5.2-4.6c0-2.3,1.4-3.7,4-4.8c-0.8-1.2-1.2-2.3-1.2-3.5c0-2.5,2.2-4.5,4.3-4.5
		c2.5,0,4,2,4,3.7c0,2-1.3,3.7-4.4,4.9c1,1.3,2.3,2.4,4,4c1.2-1.2,2.1-2.5,3-3.7L95.1,54.8z M85.1,54.1c-0.1,0-0.2,0.1-0.3,0.1
		c-1.6,0.9-2.7,1.8-2.6,3.5c0.1,1.9,1.4,2.8,3.4,2.9c1.5,0,2.7-0.6,4-1.8C87.8,57,86.2,55.5,85.1,54.1z M87.3,46.5
		c-1.3,0.1-2.4,1.1-2.4,2.8c0,1,0.5,1.9,1.2,3c2.8-1.1,3.3-2.1,3.4-3.5C89.6,47.6,88.6,46.4,87.3,46.5z"/>
	<path class="st0" d="M104.5,46.5v6.2h7.3v1.7h-7.3v7.5h-1.9v-17h10v1.7L104.5,46.5L104.5,46.5z"/>
	<path class="st0" d="M115.1,62V44.9h1.9V62H115.1z"/>
	<path class="st0" d="M126.9,46.5V62H125V46.5h-5.7v-1.7h13.3v1.7H126.9z"/>
	<path class="st0" d="M147.9,62.3L136.8,49v13h-1.9V44.6l0.4-0.1l11,13.1V44.9h1.9v17.4L147.9,62.3z"/>
	<path class="st0" d="M151.6,62V44.9h10v1.7h-8.2v5.9h7.3v1.7h-7.3v6.2h8.2v1.7L151.6,62L151.6,62z"/>
	<path class="st0" d="M168.5,62.3c-1.9,0-3.5-0.6-5-1.6l0.9-1.6c1.3,0.9,2.8,1.5,4.1,1.5c2.2,0,3.2-1.5,3.2-3s-0.6-2.4-3.4-3.6
		c-3-1.3-4.1-2.6-4.1-4.7c0-2.5,2.1-4.7,5.2-4.7c1.4,0,2.8,0.5,3.8,1.2l-0.8,1.6c-0.8-0.6-2-1.1-3.1-1.1c-2.2,0-3.3,1.3-3.3,2.9
		c0,1.2,0.8,2.2,2.9,3.1c3.6,1.6,4.6,2.8,4.6,5.1C173.7,60.2,171.4,62.3,168.5,62.3z"/>
	<path class="st0" d="M180,62.3c-1.9,0-3.5-0.6-5-1.6l0.9-1.6c1.3,0.9,2.8,1.5,4.1,1.5c2.2,0,3.2-1.5,3.2-3s-0.6-2.4-3.4-3.6
		c-3-1.3-4.1-2.6-4.1-4.7c0-2.5,2.1-4.7,5.2-4.7c1.5,0,2.8,0.5,3.8,1.2l-0.8,1.6c-0.8-0.6-2-1.1-3.1-1.1c-2.2,0-3.3,1.3-3.3,2.9
		c0,1.2,0.8,2.2,2.9,3.1c3.6,1.6,4.6,2.8,4.6,5.1C185.2,60.2,182.9,62.3,180,62.3z"/>
</g>
<g>
	<path class="st0" d="M89.3,84.7c-5.3,0-9.1-3.7-9.1-8.8c0-5.1,3.9-8.9,9.1-8.9c2.3,0,4.3,0.8,5.7,1.6l-0.8,1.6
		c-1.5-0.8-3.4-1.5-5.1-1.5c-4.3,0-6.9,3.1-6.9,7.1s2.7,7.1,7.1,7.1c1.6,0,3.6-0.6,5.1-1.5L95,83C93.6,83.9,91.6,84.7,89.3,84.7z"/>
	<path class="st0" d="M97.3,84.4V67.3h10V69h-8.2v5.9h7.3v1.7h-7.3v6.2h8.2v1.7L97.3,84.4L97.3,84.4z"/>
	<path class="st0" d="M123.5,84.7l-11.2-13.3v13h-1.9V67l0.4-0.1l11,13.1V67.3h1.9v17.4H123.5z"/>
	<path class="st0" d="M133.5,68.9v15.5h-1.9V68.9h-5.7v-1.7h13.3v1.7H133.5z"/>
	<path class="st0" d="M151,84.4l-4.6-6.8c-0.4,0-0.7,0-1.1,0c-0.6,0-1.4,0-1.9,0v6.8h-1.9v-17c1.3-0.2,2.5-0.3,4-0.3
		c4.4,0,6.6,2.2,6.6,5.1c0,2.4-1.3,4.2-3.7,5l5,7.2C153.4,84.4,151,84.4,151,84.4z M145.7,68.8c-0.8,0-1.8,0-2.4,0.2v7
		c0.6,0.1,1.4,0.1,2.1,0.1c3.2,0,4.6-1.5,4.6-3.7C150,70.4,148.5,68.8,145.7,68.8z"/>
	<path class="st0" d="M155.1,84.4V67.3h10V69h-8.2v5.9h7.3v1.7h-7.3v6.2h8.2v1.7L155.1,84.4L155.1,84.4z"/>
</g>
<g>
	<path d="M41,31.4c-0.1-0.2-0.3-0.3-0.5-0.3h-4.2L35,27c-0.1-0.2-0.3-0.3-0.5-0.3S34.1,26.8,34,27l-1.3,4.1h-4.3
		c-0.2,0-0.4,0.1-0.5,0.3s0,0.4,0.2,0.5l3.4,2.5l-1.2,4.1c-0.1,0.2,0,0.4,0.2,0.5c0.1,0.1,0.2,0.1,0.3,0.1s0.2,0,0.3-0.1l3.5-2.5
		L38,39c0.2,0.1,0.4,0.1,0.6,0s0.2-0.3,0.2-0.5l-1.3-4.1l3.4-2.5C41,31.8,41.1,31.6,41,31.4L41,31.4z M34.8,35.6
		c-0.2-0.1-0.4-0.1-0.6,0l-2.5,1.8l1-3c0.1-0.2,0-0.4-0.2-0.5L30,32.1h3.1c0.2,0,0.4-0.1,0.5-0.3l1-3l1,3c0.1,0.2,0.3,0.3,0.5,0.3
		h3.1l-2.5,1.8c-0.4,0.1-0.4,0.3-0.4,0.5l1,3L34.8,35.6L34.8,35.6z"/>
	<path d="M23.5,43.1c-0.1-0.2-0.3-0.3-0.5-0.3h-4.3l-1.3-4.1c-0.1-0.2-0.3-0.3-0.5-0.3s-0.4,0.1-0.5,0.3l-1.3,4.1h-4.3
		c-0.2,0-0.4,0.1-0.5,0.3c-0.1,0.2,0,0.4,0.2,0.5l3.4,2.5l-1.3,4.1c-0.1,0.2,0,0.4,0.2,0.5c0.1,0.1,0.2,0.1,0.3,0.1s0.2,0,0.3-0.1
		l3.5-2.5l3.4,2.5c0.2,0.1,0.4,0.1,0.6,0c0.2-0.1,0.2-0.3,0.2-0.5l-1.3-4.1l3.5-2.5C23.5,43.5,23.6,43.3,23.5,43.1L23.5,43.1z
		 M17.3,47.2c-0.2-0.1-0.4-0.1-0.6,0L14.2,49l1-3c0.1-0.2,0-0.4-0.2-0.5l-2.5-1.8h3.1c0.2,0,0.4-0.1,0.5-0.3l1-3l1,3
		c0.1,0.2,0.3,0.3,0.5,0.3h3.1L19,45.6c-0.2,0.1-0.2,0.3-0.2,0.5l1,3L17.3,47.2L17.3,47.2z"/>
	<path d="M45.8,43.6l3.4,2.5l-1.3,4.1c-0.1,0.2,0,0.4,0.2,0.5s0.4,0.1,0.6,0l3.4-2.5l3.5,2.5c0.1,0.1,0.2,0.1,0.3,0.1
		c0.1,0,0.2,0,0.3-0.1c0.1-0.1,0.1-0.3,0.1-0.5L55,46.1l3.4-2.5c0.2-0.1,0.2-0.3,0.2-0.5c-0.1-0.2-0.3-0.3-0.5-0.3h-4.3l-1.3-4.1
		c-0.1-0.2-0.3-0.3-0.5-0.3s-0.4,0.1-0.5,0.3l-1.2,4.1H46c-0.2,0-0.4,0.1-0.5,0.3C45.5,43.3,45.6,43.5,45.8,43.6L45.8,43.6z
		 M49.3,49.1l1-3c0.1-0.2,0-0.4-0.2-0.5l-2.5-1.8h3.1c0.2,0,0.4-0.1,0.5-0.3l1-3l1,3c0.1,0.2,0.3,0.3,0.5,0.3h3.1l-2.7,1.8
		c-0.2,0.1-0.2,0.3-0.2,0.5l1,3l-2.5-1.8c-0.2-0.1-0.4-0.1-0.6,0L49.3,49.1L49.3,49.1z"/>
	<path d="M32.5,19.9c-0.1-0.2-0.3-0.3-0.5-0.3c-1.6,0.3-3.2-0.3-5.2-1.9c2.1-1.3,3.6-3.2,4.2-5.5c0.1-0.2-0.1-0.5-0.3-0.6
		c-0.7-0.2-1.6-0.4-2.6-0.5c0.4-0.7,0.6-1.6,0.7-2.4c0-0.2-0.1-0.5-0.4-0.5c-2.9-0.8-7.5-0.1-10.3,2.5c-1.1-0.8-2.3-1.3-3.6-1.6
		c-0.1-0.3-0.2-0.5-0.2-0.8c-0.4-1.6-0.8-3.1-2.2-4c-1.2-0.8-2.6-1-3.9-0.6C7.3,4,6.6,4.6,6.2,5.4C4.9,5.4,3.8,5.9,3,6.5
		C2.8,6.6,2.8,6.9,2.9,7.1s0.3,0.3,0.5,0.3c2-0.1,3.2,0.3,3.2,0.8c0,0.2-0.1,0.6-0.2,1C6,10.3,5.5,11.9,6,14.1
		c0.2,0.7,0.4,1.3,0.7,2l0,0l0,0c1.1,2.1,3,3.9,5.5,4.8c0.6,0.2,1.6,0.5,2.4,0.6c-0.3,1.8-0.5,2.4-1.6,2.5c-0.5,0-1.1,0-1.5-0.2
		c-0.2-0.1-0.5,0-0.7,0.2c-0.1,0.2,0,0.5,0.2,0.7c0.4,0.2,0.8,0.3,1.3,0.3h0.1c0.5,0,1.2,0,1.3,0l0.6-0.1c1.3-0.1,2.9-0.2,3.9,0.3
		c0.1,0,0.1,0,0.2,0c0.2,0,0.4-0.1,0.4-0.3c0.1-0.2,0-0.5-0.2-0.7c-0.6-0.3-1.3-0.4-2-0.4c0.1-0.1,0.1-0.1,0.2-0.2
		c0.5-0.5,1-1.1,1.4-1.9c1.2,0,2.6-0.4,3.4-0.7c1.6,0.9,3.4,1.3,5,1.3c2.4,0,4.5-0.8,5.8-2C32.5,20.3,32.6,20.1,32.5,19.9L32.5,19.9
		z M27.6,9.1c-0.1,0.8-0.4,1.4-0.7,2c-1.4-0.1-2.9,0.1-4.1,0.7c-1.1,0.5-2.3,1.2-3,2.6c-0.9-0.1-1.8-0.4-2.5-0.8
		C18.8,9.8,24.3,8.4,27.6,9.1L27.6,9.1z M26.2,12.1c-1.3,1.5-3.3,2.3-5.2,2.4c0,0,0,0-0.1,0c0.5-0.7,1.2-1.3,2.3-1.8
		C24,12.3,25.1,12.1,26.2,12.1L26.2,12.1z M16.5,13c-0.7-0.7-1.3-1.6-1.7-2.7c0.9,0.3,1.8,0.7,2.6,1.2C17,12,16.7,12.4,16.5,13
		L16.5,13z M4.4,6.8c1.2-0.4,3-0.4,4.3,0.3l0,0c0.7,0.4,1,0.4,1.3,0.2c0.2-0.1,0.4-0.3,0.4-0.7c0-0.5-0.4-0.8-0.8-0.8
		C9.3,5.8,9.1,5.9,9,6.1C8.4,5.8,7.9,5.7,7.3,5.6C7.6,5.2,8,4.9,8.5,4.8c0.9-0.3,2-0.1,3,0.5c1,0.7,1.4,1.9,1.8,3.4
		c0.1,0.5,0.3,1.1,0.5,1.6c1.1,3.4,3.6,5.2,7.1,5.2c0.1,0,0.1,0,0.2,0c2.7,0,5.1-1.3,6.4-3.3c0.8,0.1,1.7,0.2,2.4,0.4
		c-1,3.4-4.5,5.7-8.7,5.9c-5.8,0.2-9.9-2.8-11-8c0-0.1-0.1-0.3-0.2-0.3c-0.1-0.1-0.3-0.1-0.4,0c-1.5,0.5-2.3,1.4-2.8,2.1
		c0.1-1,0.3-1.8,0.6-2.5c0.2-0.6,0.3-1,0.3-1.4C7.4,7.4,6.3,6.7,4.4,6.8L4.4,6.8z M7.5,15.7c-0.4-0.8-0.4-1.9-0.1-2.7
		c0.3-0.8,1-1.4,1.9-1.8c0.9,3.4,2.9,5.8,5.8,7.1c-0.2,0.9-0.3,1.7-0.4,2.4c-0.8-0.1-1.6-0.4-2.2-0.6C10.2,19.2,8.4,17.6,7.5,15.7
		L7.5,15.7z M16.1,23.1c-0.3,0.3-0.7,0.5-1.1,0.7c0.3-0.7,0.5-1.6,0.6-2.6c0.1-0.7,0.2-1.6,0.4-2.5c0.7,0.2,1.4,0.4,2.1,0.5
		C17.6,20.9,16.9,22.2,16.1,23.1L16.1,23.1z M21.8,20.3c-0.1-0.1-0.3-0.1-0.4,0c-1,0.4-2,0.6-2.9,0.7c0.2-0.5,0.4-1,0.5-1.6
		c0.5,0.1,1,0.1,1.6,0.1c0.2,0,0.3,0,0.5,0c1.7-0.1,3.2-0.4,4.6-1.1c1.7,1.4,3.2,2.2,4.6,2.4C28.2,21.8,24.7,21.9,21.8,20.3
		L21.8,20.3z"/>
	<path d="M66.2,19.9c-0.1-0.2-0.3-0.3-0.5-0.3c-1.6,0.3-3.2-0.3-5.2-1.9c2.1-1.3,3.6-3.2,4.2-5.5c0.1-0.2-0.1-0.5-0.3-0.6
		c-0.7-0.2-1.6-0.4-2.6-0.5c0.4-0.7,0.6-1.6,0.7-2.4c0-0.2-0.1-0.5-0.4-0.5c-2.9-0.8-7.5-0.1-10.3,2.5c-1.1-0.8-2.3-1.3-3.6-1.6
		C48.1,8.8,48,8.6,48,8.3c-0.4-1.6-0.8-3.1-2.2-4c-1.2-0.8-2.6-1-3.9-0.6c-0.9,0.3-1.6,0.9-2,1.7c-1.3,0-2.4,0.5-3.2,1.1
		c-0.2,0.1-0.2,0.4-0.1,0.6c0.1,0.2,0.3,0.3,0.5,0.3c2-0.1,3.2,0.3,3.2,0.8c0,0.2-0.1,0.6-0.2,1c-0.4,1.1-0.9,2.7-0.4,4.9
		c0.2,0.7,0.4,1.3,0.7,2l0,0l0,0c1.1,2.1,3,3.9,5.5,4.8c0.6,0.2,1.6,0.5,2.4,0.6c-0.3,1.8-0.5,2.4-1.6,2.5c-0.5,0-1.1,0-1.5-0.2
		c-0.2-0.1-0.5,0-0.7,0.2c-0.1,0.2,0,0.5,0.2,0.7c0.4,0.2,0.8,0.3,1.3,0.3h0.1c0.5,0,1.2,0,1.3,0l0.6-0.1c1.3-0.1,2.9-0.2,3.9,0.3
		c0.1,0,0.1,0,0.2,0c0.2,0,0.4-0.1,0.4-0.3c0.1-0.2,0-0.5-0.2-0.7c-0.6-0.3-1.3-0.4-2-0.4c0.1-0.1,0.1-0.1,0.2-0.2
		c0.5-0.5,1-1.1,1.4-1.9c1.2,0,2.6-0.4,3.4-0.7c1.6,0.9,3.4,1.3,5,1.3c2.4,0,4.5-0.8,5.8-2C66.3,20.3,66.3,20.1,66.2,19.9L66.2,19.9
		z M61.4,9.1c-0.1,0.8-0.4,1.4-0.7,2c-1.4-0.1-2.9,0.1-4.1,0.7c-1.1,0.5-2.3,1.2-3.1,2.6c-0.9-0.1-1.8-0.4-2.5-0.8
		C52.6,9.8,58,8.4,61.4,9.1L61.4,9.1z M59.9,12.1c-1.3,1.5-3.3,2.3-5.2,2.4c0,0,0,0-0.1,0c0.5-0.7,1.2-1.3,2.3-1.8
		C57.8,12.3,58.8,12.1,59.9,12.1L59.9,12.1z M50.2,13c-0.7-0.7-1.3-1.6-1.7-2.7c0.9,0.3,1.8,0.7,2.6,1.2C50.8,12,50.5,12.4,50.2,13
		L50.2,13z M38.2,6.8c1.2-0.4,3-0.4,4.3,0.3l0,0c0.7,0.4,1,0.4,1.3,0.2C44,7.2,44.2,7,44.2,6.6c0-0.5-0.4-0.8-0.8-0.8
		c-0.3,0-0.5,0.1-0.6,0.3c-0.6-0.3-1.1-0.4-1.7-0.5c0.3-0.4,0.7-0.7,1.2-0.8c0.9-0.3,2-0.1,3,0.5c1,0.7,1.4,1.9,1.8,3.4
		c0.1,0.5,0.3,1.1,0.5,1.6c1.1,3.4,3.6,5.2,7.1,5.2c0.1,0,0.1,0,0.2,0c2.7,0,5.1-1.3,6.4-3.3c0.8,0.1,1.7,0.2,2.4,0.4
		c-1,3.4-4.5,5.7-8.7,5.9c-5.8,0.2-9.9-2.8-11-8c0-0.1-0.1-0.3-0.2-0.3c-0.1-0.1-0.3-0.1-0.4,0c-1.5,0.5-2.3,1.4-2.8,2.1
		c0.1-1,0.3-1.8,0.6-2.5c0.2-0.6,0.3-1,0.3-1.4C41.2,7.4,40,6.7,38.2,6.8L38.2,6.8z M41.2,15.7c-0.4-0.8-0.5-1.9-0.1-2.7
		c0.3-0.8,1-1.4,1.9-1.8c0.9,3.4,2.9,5.8,5.8,7.1c-0.2,0.9-0.3,1.7-0.4,2.4c-0.8-0.1-1.6-0.4-2.2-0.6C43.9,19.2,42.2,17.6,41.2,15.7
		L41.2,15.7z M49.8,23.1c-0.3,0.3-0.7,0.5-1.1,0.7c0.3-0.7,0.5-1.6,0.6-2.6c0.1-0.7,0.2-1.6,0.4-2.5c0.7,0.2,1.4,0.4,2.1,0.5
		C51.4,20.9,50.7,22.2,49.8,23.1L49.8,23.1z M55.6,20.3c-0.1-0.1-0.3-0.1-0.4,0c-1,0.4-2,0.6-2.9,0.7c0.2-0.5,0.4-1,0.5-1.6
		c0.5,0.1,1,0.1,1.6,0.1c0.2,0,0.3,0,0.5,0c1.7-0.1,3.2-0.4,4.6-1.1c1.7,1.4,3.2,2.2,4.6,2.4C61.9,21.8,58.4,21.9,55.6,20.3
		L55.6,20.3z"/>
	<path d="M0,0.2v34.4C0,54.6,12.5,73,34.3,85l0.3,0.2l0.3-0.2c21.8-12,34.3-30.4,34.3-50.4V0.2H0L0,0.2z M2.7,46.3L34.6,23
		l31.9,23.3c-1.3,5-3.4,9.8-6.3,14.3L34.6,41.9L9,60.6C6.1,56.1,4,51.3,2.7,46.3L2.7,46.3z M34.6,83.8c-10.8-6-19.3-13.6-25-22.1
		l25-18.2l25,18.2C53.9,70.2,45.4,77.8,34.6,83.8L34.6,83.8z M68,34.6c0,3.6-0.4,7.1-1.2,10.5L34.6,21.6L2.4,45.1
		c-0.8-3.4-1.2-6.9-1.2-10.5V1.4h66.9v33.2H68z"/>
	<path d="M48.5,64.2c-0.1-0.2-0.2-0.3-0.4-0.3l0,0c-0.2,0-0.4,0.1-0.5,0.3c-0.9,2.2-2.7,3.3-6.8,5.8c-1.1,0.6-2.1,1.3-3,2.1
		c-0.8,0.7-1.4,1.3-1.9,2.1c-0.1-0.6-0.2-3.8-0.4-5.6c0.3,0.3,0.8,0.5,1.2,0.5c0.1,0,0.2,0,0.2,0c0.8-0.2,1.2-1.3,1.2-1.8
		c0-0.3,0-0.6-0.1-1.1c0.3,0.3,0.6,0.6,0.8,0.7c0.3,0.2,0.8,0.3,1.2,0.3c0.4,0,0.7-0.1,1-0.3c0.6-0.5,0.5-1.7,0.3-2.1
		c-0.1-0.3-0.3-0.5-0.6-0.9c0.4,0.2,0.8,0.3,1.1,0.3c0.4,0,1.6-0.3,1.9-1c0.3-0.8-0.4-1.7-0.7-2c-0.2-0.2-0.5-0.3-1-0.5
		c0.5-0.1,0.8-0.1,1.1-0.3c0.4-0.2,1.3-1,1.2-1.8c-0.1-0.8-1.2-1.3-1.6-1.4c-0.3-0.1-0.6-0.1-1.1,0c0.4-0.3,0.7-0.5,0.8-0.7
		c0.2-0.3,0.7-1.5,0.2-2.1c-0.4-0.7-1.3-0.8-1.6-0.8c-0.2,0-0.4,0-0.5,0.1c-0.3,0.1-0.6,0.2-1,0.5c0.2-0.4,0.3-0.7,0.4-1
		c0.1-0.4-0.1-1.6-0.8-2c-0.6-0.3-1.7,0.2-2.1,0.5c-0.2,0.2-0.4,0.5-0.6,0.9c0-0.4,0-0.8-0.1-1.1c-0.1-0.4-0.8-1.4-1.6-1.4
		s-1.5,0.9-1.6,1.4C33,51.8,33,52.1,33,52.6c-0.2-0.4-0.4-0.7-0.6-0.9c-0.4-0.3-1.5-0.8-2.1-0.5c-0.7,0.4-0.9,1.6-0.8,2
		c0,0.3,0.2,0.6,0.4,1c-0.4-0.3-0.7-0.4-1-0.5c-0.1,0-0.3-0.1-0.5-0.1c-0.3,0-1.2,0-1.5,0.6c-0.5,0.7,0,1.8,0.2,2.1
		c0.2,0.2,0.4,0.5,0.8,0.7c-0.5-0.1-0.8-0.1-1.1,0c-0.4,0.1-1.5,0.7-1.6,1.4c-0.1,0.8,0.8,1.6,1.2,1.8c0.3,0.1,0.6,0.2,1.1,0.3
		c-0.4,0.2-0.7,0.3-1,0.5c-0.3,0.3-1,1.3-0.7,2s1.3,1,1.9,1l0,0c0.3,0,0.6-0.1,1.1-0.3c-0.3,0.3-0.5,0.6-0.6,0.9
		c-0.2,0.4-0.3,1.6,0.3,2.1c0.2,0.2,0.5,0.3,0.9,0.3c0.5,0,1-0.1,1.2-0.3c0.2-0.1,0.5-0.4,0.8-0.7c-0.1,0.5-0.2,0.8-0.1,1.1
		c0,0.4,0.5,1.6,1.2,1.8c0.4,0.1,1-0.1,1.4-0.5c-0.1,1.9-0.3,5-0.4,5.6c-0.5-0.9-1.1-1.4-1.9-2.1c-0.9-0.8-1.9-1.4-3-2.1
		c-4.1-2.5-5.9-3.6-6.8-5.8c-0.1-0.2-0.2-0.3-0.5-0.3l0,0c-0.2,0-0.4,0.1-0.4,0.3c-1.2,3.9,0.7,7.2,5.7,10c0.3,0.2,0.7,0.4,1.1,0.6
		l0.2,0.1c1.3,0.7,2.7,1.5,3.7,2.3c1.2,0.9,2.3,2.5,2.8,4.1c0.1,0.2,0.2,0.3,0.4,0.3l0,0l0,0l0,0l0,0c0.2,0,0.3-0.1,0.4-0.3
		c0.5-1.6,1.6-3.1,2.8-4.1c1.1-0.8,2.4-1.6,3.7-2.3l0.2-0.1c0.4-0.2,0.7-0.4,1.1-0.6C47.8,71.4,49.7,68.1,48.5,64.2L48.5,64.2z
		 M36.7,68.1L36.7,68.1L36.7,68.1c-0.2,0-0.7-0.3-0.9-0.6c-0.3-0.5-0.5-2.1-0.8-4l-0.1-0.8c0.3,0,0.5-0.1,0.8-0.2v0.1
		c0.8,2,1.5,3.8,1.4,4.6C37.2,67.5,36.9,68,36.7,68.1L36.7,68.1z M40.4,66.2L40.4,66.2c-0.1,0.1-0.2,0.1-0.3,0.1
		c-0.2,0-0.6-0.1-0.7-0.1c-0.5-0.3-1.5-1.6-2.5-3.2l-0.6-0.8c0.2-0.1,0.4-0.3,0.6-0.5l0,0c1.7,1.5,3.2,2.8,3.4,3.4
		C40.5,65.4,40.5,66,40.4,66.2L40.4,66.2z M42.3,61.8c0.2,0.2,0.5,0.7,0.5,0.9l0,0c-0.1,0.2-0.7,0.4-0.9,0.4l0,0l0,0
		c-0.6,0-2-0.8-3.7-1.6l-0.9-0.4c0.1-0.2,0.2-0.5,0.3-0.7h0.1C39.8,60.9,41.7,61.4,42.3,61.8L42.3,61.8z M42.4,58
		c0.2,0,0.8,0.4,0.8,0.6l0,0c0,0.2-0.4,0.7-0.7,0.8c-0.6,0.3-2.2,0.3-4.1,0.3h-0.8l0,0c0-0.3,0-0.5-0.1-0.8h0.1
		C39.9,58.4,41.7,57.9,42.4,58L42.4,58z M40.7,54.6c0.1,0,0.2,0,0.3,0c0.2,0,0.6,0.1,0.7,0.2l0,0c0.1,0.2-0.1,0.8-0.2,1
		c-0.4,0.5-1.8,1.3-3.5,2.1l-0.7,0.4c-0.1-0.2-0.3-0.5-0.5-0.7l0.1-0.1C38.6,56.1,40,54.8,40.7,54.6L40.7,54.6z M35.7,56.7
		c0.8-2,1.4-3.8,1.9-4.3c0.2-0.2,0.7-0.4,0.9-0.4h0.1l0,0c0.2,0.1,0.3,0.7,0.3,1c-0.1,0.6-1,1.9-2.1,3.5l-0.5,0.7
		C36.1,57,35.8,56.9,35.7,56.7L35.7,56.7L35.7,56.7z M33.9,51.8c0.1-0.2,0.5-0.7,0.7-0.7l0,0l0,0c0.2,0,0.6,0.5,0.7,0.7
		c0.2,0.6,0,2.2-0.2,4.1l0,0L35,56.7c-0.1,0-0.3,0-0.4,0c-0.1,0-0.3,0-0.4,0v-0.1C33.9,54.4,33.7,52.5,33.9,51.8L33.9,51.8z
		 M34.6,57.6c1.2,0,2.1,0.9,2.1,2.1s-0.9,2.1-2.1,2.1c-1.2,0-2.1-0.9-2.1-2.1S33.4,57.6,34.6,57.6L34.6,57.6z M30.5,52L30.5,52
		c0.3,0,0.8,0.2,1,0.3c0.5,0.4,1,2,1.7,3.7l0.3,0.7c-0.3,0.1-0.5,0.2-0.7,0.4V57c-1.3-1.8-2.4-3.4-2.5-4.1
		C30.2,52.8,30.4,52.2,30.5,52L30.5,52z M27.7,55.8c-0.2-0.2-0.3-0.8-0.2-1l0,0c0.1-0.1,0.5-0.2,0.8-0.2c0.1,0,0.2,0,0.3,0
		c0.6,0.2,1.8,1.3,3.3,2.5l0.6,0.5c-0.2,0.2-0.3,0.4-0.5,0.7h-0.1C29.8,57.2,28.1,56.4,27.7,55.8L27.7,55.8z M26.6,59.4
		c-0.2-0.1-0.7-0.6-0.7-0.8l0,0c0.1-0.2,0.6-0.6,0.8-0.6c0.1,0,0.2,0,0.3,0c0.8,0,2.2,0.4,3.7,0.7l0.8,0.2c-0.1,0.2-0.1,0.5-0.1,0.8
		l0,0h-0.1c-0.4,0-0.7,0-1.1,0C28.4,59.7,27.1,59.7,26.6,59.4L26.6,59.4z M27.4,63.2L27.4,63.2c-0.3,0-0.8-0.2-0.9-0.4l0,0
		c0-0.2,0.3-0.8,0.5-0.9c0.5-0.4,2.1-0.8,3.9-1.2l0.8-0.2c0.1,0.3,0.2,0.5,0.3,0.7l-0.2,0.1C29.8,62.2,28.1,63.1,27.4,63.2
		L27.4,63.2z M29.9,66.1c-0.2,0.1-0.5,0.2-0.7,0.2c-0.1,0-0.2,0-0.3,0l0,0c-0.1-0.2-0.1-0.8,0-1c0.2-0.6,1.4-1.6,2.8-2.9l0.7-0.6
		c0.2,0.2,0.4,0.4,0.6,0.5l-0.1,0.1C31.5,64.2,30.5,65.7,29.9,66.1L29.9,66.1z M32.5,68.1L32.5,68.1C32.3,68,32,67.5,32,67.2
		c0-0.6,0.5-2.2,1.2-3.9l0.3-0.8c0.2,0.1,0.5,0.2,0.8,0.2v0.1c-0.3,2.2-0.5,4.1-0.9,4.7C33.2,67.7,32.7,68.1,32.5,68.1L32.5,68.1z
		 M42.3,73.4c-0.4,0.2-0.8,0.5-1.3,0.7c-1.4,0.7-2.8,1.5-3.9,2.4s-2,2-2.6,3.4c-0.6-1.4-1.5-2.5-2.6-3.4s-2.5-1.6-3.9-2.4
		c-0.4-0.2-0.9-0.5-1.3-0.7c-4-2.3-5.8-4.8-5.5-7.6c1.2,1.9,3.3,3.1,6.5,5c1.4,0.8,2.5,1.5,3.4,2.4c0.8,0.8,1.6,1.7,2,2.8
		c0.1,0.4,0.3,0.5,0.5,0.5S34,76.4,34,76c0.1-1.1,0.4-5.9,0.5-7.4c0.1,1.5,0.4,6.3,0.5,7.4c0.1,0.4,0.2,0.5,0.4,0.5s0.3-0.1,0.5-0.5
		c0.4-1.1,1.2-2,2-2.8c0.9-0.9,2-1.6,3.4-2.4c3.2-1.9,5.3-3.2,6.5-5C48.1,68.6,46.3,71.1,42.3,73.4L42.3,73.4z"/>
</g>
</svg>
