<?xml version="1.0" encoding="utf-8"?>
<!-- Generator: Adobe Illustrator 22.1.0, SVG Export Plug-In . SVG Version: 6.00 Build 0)  -->
<svg version="1.1" id="Layer_1" xmlns="http://www.w3.org/2000/svg" xmlns:xlink="http://www.w3.org/1999/xlink" x="0px" y="0px"
	 viewBox="0 0 185.2 85.2" style="enable-background:new 0 0 185.2 85.2;" xml:space="preserve">
<style type="text/css">
	.st0{fill:#ABABAB;}
	.st1{fill:#00AEEF;}
</style>
<g>
	<path class="st0" d="M89.3,17.7c-5.3,0-9.1-3.7-9.1-8.8c0-5.1,3.9-8.9,9.1-8.9c2.3,0,4.3,0.8,5.7,1.6l-0.8,1.6
		c-1.5-0.8-3.4-1.5-5.1-1.5c-4.3,0-6.9,3.1-6.9,7.1c0,4,2.7,7.1,7.1,7.1c1.6,0,3.6-0.6,5.1-1.5l0.6,1.6
		C93.6,16.9,91.6,17.7,89.3,17.7z"/>
	<path class="st0" d="M97.6,17.4V0.3h1.9v15.5h8.2v1.7H97.6z"/>
	<path class="st0" d="M117.2,17.7c-5.3,0-9.1-3.7-9.1-8.8c0-5.1,3.9-8.9,9.1-8.9c2.3,0,4.3,0.8,5.7,1.6l-0.8,1.6
		c-1.4-0.8-3.4-1.5-5.1-1.5c-4.3,0-6.9,3.1-6.9,7.1c0,4,2.7,7.1,7.1,7.1c1.6,0,3.6-0.6,5.1-1.5l0.6,1.6
		C121.5,16.9,119.5,17.7,117.2,17.7z"/>
</g>
<g>
	<path class="st1" d="M91.9,39.9v-7.9h-9.2v7.9h-1.9V22.8h1.9v7.6h9.2v-7.6h1.9v17.1H91.9z"/>
	<path class="st1" d="M97.2,39.9V22.8h10v1.7h-8.2v5.9h7.3v1.7h-7.3v6.2h8.2v1.7H97.2z"/>
	<path class="st1" d="M122.4,39.9l-2-4.7h-7.7l-2,4.7h-1.9l7.7-17.5h0.3l7.7,17.5H122.4z M116.5,26.2l-3.2,7.4h6.3L116.5,26.2z"/>
	<path class="st1" d="M126.1,39.9V22.8h1.9v15.5h8.2v1.7H126.1z"/>
	<path class="st1" d="M142,24.5v15.5h-1.9V24.5h-5.7v-1.7h13.3v1.7H142z"/>
	<path class="st1" d="M160.9,39.9v-7.9h-9.2v7.9h-1.9V22.8h1.9v7.6h9.2v-7.6h1.9v17.1H160.9z"/>
</g>
<g>
	<path class="st1" d="M95.2,54.8c-1,1.3-1.8,2.6-3,3.8c1,0.9,1.9,1.8,2.9,2.6l-1.2,1.3c-1-0.8-2-1.6-3.1-2.6
		c-1.6,1.5-3.3,2.4-5.3,2.4c-3,0-5.2-1.7-5.2-4.6c0-2.3,1.4-3.7,4-4.8c-0.8-1.2-1.2-2.3-1.2-3.5c0-2.5,2.2-4.5,4.3-4.5
		c2.5,0,4,2,4,3.7c0,2-1.3,3.7-4.4,4.9c1,1.3,2.3,2.4,4,4c1.2-1.2,2.1-2.5,3-3.7L95.2,54.8z M85.1,54.1c-0.1,0-0.2,0.1-0.3,0.1
		c-1.6,0.9-2.7,1.8-2.6,3.5c0.1,1.9,1.4,2.8,3.4,2.9c1.5,0,2.7-0.6,4-1.8C87.8,57,86.2,55.6,85.1,54.1z M87.3,46.5
		c-1.3,0.1-2.4,1.1-2.4,2.8c0,1,0.5,1.9,1.2,3c2.8-1.1,3.3-2.1,3.4-3.5C89.7,47.6,88.6,46.4,87.3,46.5z"/>
	<path class="st1" d="M104.6,46.6v6.2h7.3v1.7h-7.3v7.5h-1.9V44.9h10v1.7H104.6z"/>
	<path class="st1" d="M115.2,62.1V44.9h1.9v17.1H115.2z"/>
	<path class="st1" d="M127,46.6v15.5h-1.9V46.6h-5.7v-1.7h13.3v1.7H127z"/>
	<path class="st1" d="M147.9,62.4L136.8,49v13h-1.9V44.7l0.4-0.1l11,13.1V44.9h1.9v17.4L147.9,62.4z"/>
	<path class="st1" d="M151.6,62.1V44.9h10v1.7h-8.2v5.9h7.3v1.7h-7.3v6.2h8.2v1.7H151.6z"/>
	<path class="st1" d="M168.5,62.3c-1.9,0-3.5-0.6-5-1.6l0.9-1.6c1.3,0.9,2.8,1.5,4.1,1.5c2.2,0,3.2-1.5,3.2-3c0-1.5-0.6-2.4-3.4-3.6
		c-3-1.3-4.1-2.6-4.1-4.7c0-2.5,2.1-4.7,5.2-4.7c1.4,0,2.8,0.5,3.8,1.2l-0.8,1.6c-0.8-0.6-2-1.1-3.1-1.1c-2.2,0-3.3,1.3-3.3,2.9
		c0,1.2,0.8,2.2,2.9,3.1c3.6,1.6,4.6,2.8,4.6,5.1C173.7,60.2,171.5,62.3,168.5,62.3z"/>
	<path class="st1" d="M180,62.3c-1.9,0-3.5-0.6-5-1.6l0.9-1.6c1.3,0.9,2.8,1.5,4.1,1.5c2.2,0,3.2-1.5,3.2-3c0-1.5-0.6-2.4-3.4-3.6
		c-3-1.3-4.1-2.6-4.1-4.7c0-2.5,2.1-4.7,5.2-4.7c1.5,0,2.8,0.5,3.8,1.2l-0.8,1.6c-0.8-0.6-2-1.1-3.1-1.1c-2.2,0-3.3,1.3-3.3,2.9
		c0,1.2,0.8,2.2,2.9,3.1c3.6,1.6,4.6,2.8,4.6,5.1C185.2,60.2,183,62.3,180,62.3z"/>
</g>
<g>
	<path class="st1" d="M89.3,84.7c-5.3,0-9.1-3.7-9.1-8.8c0-5.1,3.9-8.9,9.1-8.9c2.3,0,4.3,0.8,5.7,1.6l-0.8,1.6
		c-1.5-0.8-3.4-1.5-5.1-1.5c-4.3,0-6.9,3.1-6.9,7.1c0,4,2.7,7.1,7.1,7.1c1.6,0,3.6-0.6,5.1-1.5l0.6,1.6
		C93.6,83.9,91.6,84.7,89.3,84.7z"/>
	<path class="st1" d="M97.3,84.5V67.3h10V69h-8.2v5.9h7.3v1.7h-7.3v6.2h8.2v1.7H97.3z"/>
	<path class="st1" d="M123.5,84.8l-11.1-13.3v13h-1.9V67.1l0.4-0.1l11,13.1V67.3h1.9v17.4L123.5,84.8z"/>
	<path class="st1" d="M133.5,69v15.5h-1.9V69h-5.7v-1.7h13.3V69H133.5z"/>
	<path class="st1" d="M151,84.5l-4.6-6.8c-0.4,0-0.7,0-1.1,0c-0.6,0-1.4,0-1.9,0v6.8h-1.9v-17c1.3-0.2,2.5-0.3,4-0.3
		c4.4,0,6.6,2.2,6.6,5.1c0,2.4-1.3,4.2-3.7,5l5,7.2H151z M145.7,68.9c-0.8,0-1.8,0-2.4,0.2v7c0.6,0.1,1.4,0.1,2.1,0.1
		c3.2,0,4.6-1.5,4.6-3.7C150,70.4,148.5,68.9,145.7,68.9z"/>
	<path class="st1" d="M155.1,84.5V67.3h10V69H157v5.9h7.3v1.7H157v6.2h8.2v1.7H155.1z"/>
</g>
<g>
	<path class="st0" d="M41,31.5c-0.1-0.2-0.3-0.3-0.5-0.3h-4.3L35,27.1c-0.1-0.2-0.3-0.3-0.5-0.3c-0.2,0-0.4,0.1-0.5,0.3l-1.3,4.1
		h-4.3c-0.2,0-0.4,0.1-0.5,0.3c-0.1,0.2,0,0.4,0.2,0.5l3.4,2.5l-1.3,4.1c-0.1,0.2,0,0.4,0.2,0.5c0.1,0.1,0.2,0.1,0.3,0.1
		c0.1,0,0.2,0,0.3-0.1l3.5-2.5l3.4,2.5c0.2,0.1,0.4,0.1,0.6,0c0.2-0.1,0.2-0.3,0.2-0.5l-1.3-4.1l3.4-2.5C41,31.9,41.1,31.7,41,31.5
		L41,31.5z M34.8,35.6c-0.2-0.1-0.4-0.1-0.6,0l-2.5,1.8l1-3c0.1-0.2,0-0.4-0.2-0.5L30,32.1h3.1c0.2,0,0.4-0.1,0.5-0.3l1-3l1,3
		c0.1,0.2,0.3,0.3,0.5,0.3h3.1l-2.5,1.8c-0.2,0.1-0.2,0.3-0.2,0.5l1,3L34.8,35.6L34.8,35.6z"/>
	<path class="st0" d="M23.6,43.2c-0.1-0.2-0.3-0.3-0.5-0.3h-4.3l-1.3-4.1c-0.1-0.2-0.3-0.3-0.5-0.3c-0.2,0-0.4,0.1-0.5,0.3l-1.3,4.1
		H11c-0.2,0-0.4,0.1-0.5,0.3c-0.1,0.2,0,0.4,0.2,0.5l3.4,2.5l-1.3,4.1c-0.1,0.2,0,0.4,0.2,0.5c0.1,0.1,0.2,0.1,0.3,0.1
		c0.1,0,0.2,0,0.3-0.1l3.5-2.5l3.4,2.5c0.2,0.1,0.4,0.1,0.6,0c0.2-0.1,0.2-0.3,0.2-0.5l-1.3-4.1l3.4-2.5
		C23.5,43.6,23.6,43.4,23.6,43.2L23.6,43.2z M17.3,47.3c-0.2-0.1-0.4-0.1-0.6,0l-2.5,1.8l1-3c0.1-0.2,0-0.4-0.2-0.5l-2.5-1.8h3.1
		c0.2,0,0.4-0.1,0.5-0.3l1-3l1,3c0.1,0.2,0.3,0.3,0.5,0.3h3.1l-2.5,1.8c-0.2,0.1-0.2,0.3-0.2,0.5l1,3L17.3,47.3L17.3,47.3z"/>
	<path class="st0" d="M45.8,43.7l3.4,2.5l-1.3,4.1c-0.1,0.2,0,0.4,0.2,0.5c0.2,0.1,0.4,0.1,0.6,0l3.4-2.5l3.5,2.5
		c0.1,0.1,0.2,0.1,0.3,0.1c0.1,0,0.2,0,0.3-0.1c0.2-0.1,0.2-0.3,0.2-0.5L55,46.2l3.4-2.5c0.2-0.1,0.2-0.3,0.2-0.5
		c-0.1-0.2-0.3-0.3-0.5-0.3h-4.3l-1.3-4.1c-0.1-0.2-0.3-0.3-0.5-0.3c-0.2,0-0.4,0.1-0.5,0.3l-1.3,4.1h-4.3c-0.2,0-0.4,0.1-0.5,0.3
		C45.5,43.4,45.6,43.6,45.8,43.7L45.8,43.7z M49.3,49.1l1-3c0.1-0.2,0-0.4-0.2-0.5l-2.5-1.8h3.1c0.2,0,0.4-0.1,0.5-0.3l1-3l1,3
		c0.1,0.2,0.3,0.3,0.5,0.3h3.1l-2.5,1.8C54,45.7,53.9,46,54,46.2l1,3l-2.5-1.8c-0.2-0.1-0.4-0.1-0.6,0L49.3,49.1L49.3,49.1z"/>
	<path class="st0" d="M32.5,20c-0.1-0.2-0.3-0.3-0.5-0.3c-1.6,0.3-3.2-0.3-5.2-1.9c2.1-1.3,3.6-3.2,4.2-5.5c0.1-0.2-0.1-0.5-0.3-0.6
		c-0.7-0.2-1.6-0.4-2.6-0.5c0.4-0.7,0.6-1.6,0.7-2.4c0-0.2-0.1-0.5-0.4-0.5c-2.9-0.8-7.5-0.1-10.3,2.5c-1.1-0.8-2.3-1.3-3.6-1.6
		c-0.1-0.3-0.2-0.5-0.2-0.8c-0.4-1.6-0.8-3.1-2.2-4c-1.2-0.8-2.6-1-3.9-0.6c-0.9,0.3-1.6,0.9-2,1.7C4.9,5.6,3.8,6.1,3,6.7
		C2.8,6.8,2.8,7.1,2.9,7.3C3,7.5,3.1,7.6,3.4,7.6c2-0.1,3.2,0.3,3.2,0.8c0,0.2-0.1,0.6-0.2,1c-0.4,1.1-0.9,2.7-0.4,4.9
		c0.2,0.7,0.4,1.3,0.7,2c0,0,0,0,0,0l0,0c1.1,2.1,3,3.9,5.5,4.8c0.6,0.2,1.6,0.5,2.4,0.6c-0.3,1.8-0.5,2.4-1.6,2.5
		c-0.5,0-1.1,0-1.5-0.2c-0.2-0.1-0.5,0-0.7,0.2c-0.1,0.2,0,0.5,0.2,0.7c0.4,0.2,0.8,0.3,1.3,0.3c0,0,0.1,0,0.1,0c0.5,0,1.2,0,1.3,0
		l0.6-0.1c1.3-0.1,2.9-0.2,3.9,0.3c0.1,0,0.1,0,0.2,0c0.2,0,0.4-0.1,0.4-0.3c0.1-0.2,0-0.5-0.2-0.7c-0.6-0.3-1.3-0.4-2-0.4
		c0.1-0.1,0.1-0.1,0.2-0.2c0.5-0.5,1-1.1,1.4-1.9c1.2,0,2.6-0.4,3.4-0.7c1.6,0.9,3.4,1.3,5,1.3c2.4,0,4.5-0.8,5.8-2
		C32.6,20.4,32.6,20.2,32.5,20L32.5,20z M27.7,9.1c-0.1,0.8-0.4,1.4-0.7,2c-1.4-0.1-2.9,0.1-4.1,0.7c-1.1,0.5-2.3,1.2-3,2.6
		c-0.9-0.1-1.8-0.4-2.5-0.8C18.8,9.9,24.3,8.4,27.7,9.1L27.7,9.1z M26.2,12.2c-1.3,1.5-3.3,2.3-5.2,2.4c0,0,0,0-0.1,0
		c0.5-0.7,1.2-1.3,2.3-1.8C24.1,12.3,25.1,12.2,26.2,12.2L26.2,12.2z M16.5,13c-0.7-0.7-1.3-1.6-1.7-2.7c0.9,0.3,1.8,0.7,2.6,1.2
		C17,12,16.7,12.5,16.5,13L16.5,13z M4.4,6.8c1.2-0.4,3-0.4,4.3,0.3c0,0,0,0,0,0c0.7,0.4,1,0.4,1.3,0.2c0.2-0.1,0.4-0.3,0.4-0.7
		c0-0.5-0.4-0.8-0.8-0.8C9.3,5.9,9.1,6,9,6.2C8.4,5.9,7.8,5.7,7.3,5.6C7.5,5.3,8,5,8.5,4.8c0.9-0.3,2-0.1,3,0.5
		c1,0.7,1.4,1.9,1.8,3.4c0.1,0.5,0.3,1.1,0.5,1.6c1.1,3.4,3.6,5.2,7.1,5.2c0.1,0,0.1,0,0.2,0c2.7,0,5.1-1.3,6.4-3.3
		c0.8,0.1,1.7,0.2,2.4,0.4c-1,3.4-4.5,5.7-8.7,5.9c-5.8,0.2-9.9-2.8-11-8c0-0.1-0.1-0.3-0.2-0.3C9.8,10,9.6,10,9.5,10
		c-1.5,0.5-2.3,1.4-2.8,2.1c0.1-1,0.3-1.8,0.6-2.5c0.2-0.6,0.3-1,0.3-1.4C7.5,7.4,6.3,6.7,4.4,6.8L4.4,6.8z M7.5,15.7
		C7.1,14.9,7,13.8,7.4,13c0.3-0.8,1-1.4,1.9-1.8c0.9,3.4,2.9,5.8,5.8,7.1c-0.2,0.9-0.3,1.7-0.4,2.4c-0.8-0.1-1.6-0.4-2.2-0.6
		C10.2,19.2,8.5,17.6,7.5,15.7L7.5,15.7z M16.1,23.1c-0.3,0.3-0.7,0.5-1.1,0.7c0.3-0.7,0.5-1.6,0.6-2.6c0.1-0.7,0.2-1.6,0.4-2.5
		c0.7,0.2,1.4,0.4,2.1,0.5C17.6,21,17,22.3,16.1,23.1L16.1,23.1z M21.9,20.3c-0.1-0.1-0.3-0.1-0.4,0c-1,0.4-2,0.6-2.9,0.7
		c0.2-0.5,0.4-1,0.5-1.6c0.5,0.1,1,0.1,1.6,0.1c0.2,0,0.3,0,0.5,0c1.7-0.1,3.2-0.4,4.6-1.1c1.7,1.4,3.2,2.2,4.6,2.4
		C28.2,21.9,24.7,22,21.9,20.3L21.9,20.3z"/>
	<path class="st0" d="M66.2,20c-0.1-0.2-0.3-0.3-0.5-0.3c-1.6,0.3-3.2-0.3-5.2-1.9c2.1-1.3,3.6-3.2,4.2-5.5c0.1-0.2-0.1-0.5-0.3-0.6
		c-0.7-0.2-1.6-0.4-2.6-0.5c0.4-0.7,0.6-1.6,0.7-2.4c0-0.2-0.1-0.5-0.4-0.5c-2.9-0.8-7.5-0.1-10.3,2.5c-1.1-0.8-2.3-1.3-3.6-1.6
		C48.1,9,48,8.7,48,8.5c-0.4-1.6-0.8-3.1-2.2-4c-1.2-0.8-2.6-1-3.9-0.6c-0.9,0.3-1.6,0.9-2,1.7c-1.3,0-2.4,0.5-3.2,1.1
		c-0.2,0.1-0.2,0.4-0.1,0.6c0.1,0.2,0.3,0.3,0.5,0.3c2-0.1,3.2,0.3,3.2,0.8c0,0.2-0.1,0.6-0.2,1c-0.4,1.1-0.9,2.7-0.4,4.9
		c0.2,0.7,0.4,1.3,0.7,2c0,0,0,0,0,0c0,0,0,0,0,0c1.1,2.1,3,3.9,5.5,4.8c0.6,0.2,1.6,0.5,2.4,0.6c-0.3,1.8-0.5,2.4-1.6,2.5
		c-0.5,0-1.1,0-1.5-0.2c-0.2-0.1-0.5,0-0.7,0.2c-0.1,0.2,0,0.5,0.2,0.7c0.4,0.2,0.8,0.3,1.3,0.3c0,0,0.1,0,0.1,0c0.5,0,1.2,0,1.3,0
		l0.6-0.1c1.3-0.1,2.9-0.2,3.9,0.3c0.1,0,0.1,0,0.2,0c0.2,0,0.4-0.1,0.4-0.3c0.1-0.2,0-0.5-0.2-0.7c-0.6-0.3-1.3-0.4-2-0.4
		c0.1-0.1,0.1-0.1,0.2-0.2c0.5-0.5,1-1.1,1.4-1.9c1.2,0,2.6-0.4,3.4-0.7c1.6,0.9,3.4,1.3,5,1.3c2.4,0,4.5-0.8,5.8-2
		C66.3,20.4,66.3,20.2,66.2,20L66.2,20z M61.4,9.1c-0.1,0.8-0.4,1.4-0.7,2c-1.4-0.1-2.9,0.1-4.1,0.7c-1.1,0.5-2.3,1.2-3.1,2.6
		c-0.9-0.1-1.8-0.4-2.5-0.8C52.6,9.9,58.1,8.4,61.4,9.1L61.4,9.1z M60,12.2c-1.3,1.5-3.3,2.3-5.2,2.4c0,0,0,0-0.1,0
		c0.5-0.7,1.2-1.3,2.3-1.8C57.8,12.3,58.9,12.2,60,12.2L60,12.2z M50.2,13c-0.7-0.7-1.3-1.6-1.7-2.7c0.9,0.3,1.8,0.7,2.6,1.2
		C50.8,12,50.5,12.5,50.2,13L50.2,13z M38.2,6.8c1.2-0.4,3-0.4,4.3,0.3c0,0,0,0,0,0c0.7,0.4,1,0.4,1.3,0.2C44,7.2,44.2,7,44.2,6.7
		c0-0.5-0.4-0.8-0.8-0.8c-0.3,0-0.5,0.1-0.6,0.3c-0.6-0.3-1.1-0.4-1.7-0.5c0.3-0.4,0.7-0.7,1.2-0.8c0.9-0.3,2-0.1,3,0.5
		c1,0.7,1.4,1.9,1.8,3.4c0.1,0.5,0.3,1.1,0.5,1.6c1.1,3.4,3.6,5.2,7.1,5.2c0.1,0,0.1,0,0.2,0c2.7,0,5.1-1.3,6.4-3.3
		c0.8,0.1,1.7,0.2,2.4,0.4c-1,3.4-4.5,5.7-8.7,5.9c-5.8,0.2-9.9-2.8-11-8c0-0.1-0.1-0.3-0.2-0.3c-0.1-0.1-0.3-0.1-0.4,0
		c-1.5,0.5-2.3,1.4-2.8,2.1c0.1-1,0.3-1.8,0.6-2.5c0.2-0.6,0.3-1,0.3-1.4C41.2,7.4,40.1,6.7,38.2,6.8L38.2,6.8z M41.3,15.7
		c-0.4-0.8-0.5-1.9-0.1-2.7c0.3-0.8,1-1.4,1.9-1.8c0.9,3.4,2.9,5.8,5.8,7.1c-0.2,0.9-0.3,1.7-0.4,2.4c-0.8-0.1-1.6-0.4-2.2-0.6
		C44,19.2,42.2,17.6,41.3,15.7L41.3,15.7z M49.9,23.1c-0.3,0.3-0.7,0.5-1.1,0.7c0.3-0.7,0.5-1.6,0.6-2.6c0.1-0.7,0.2-1.6,0.4-2.5
		c0.7,0.2,1.4,0.4,2.1,0.5C51.4,21,50.7,22.3,49.9,23.1L49.9,23.1z M55.6,20.3c-0.1-0.1-0.3-0.1-0.4,0c-1,0.4-2,0.6-2.9,0.7
		c0.2-0.5,0.4-1,0.5-1.6c0.5,0.1,1,0.1,1.6,0.1c0.2,0,0.3,0,0.5,0c1.7-0.1,3.2-0.4,4.6-1.1c1.7,1.4,3.2,2.2,4.6,2.4
		C62,21.9,58.5,22,55.6,20.3L55.6,20.3z"/>
	<path class="st0" d="M0,0.2v34.4C0,54.7,12.5,73,34.3,85l0.3,0.2l0.3-0.2c21.8-12,34.3-30.3,34.3-50.4V0.2H0L0,0.2z M2.7,46.4
		l31.9-23.3l31.9,23.3c-1.3,5-3.4,9.8-6.3,14.3L34.6,42L9,60.7C6.1,56.1,4,51.3,2.7,46.4L2.7,46.4z M34.6,83.8
		c-10.8-6-19.3-13.6-25-22.1l25-18.2l25,18.2C53.9,70.2,45.4,77.8,34.6,83.8L34.6,83.8z M68,34.6c0,3.6-0.4,7.1-1.2,10.5L34.6,21.6
		L2.4,45.1c-0.8-3.4-1.2-6.9-1.2-10.5V1.4H68V34.6L68,34.6z"/>
	<path class="st0" d="M48.6,64.3c-0.1-0.2-0.2-0.3-0.4-0.3c0,0,0,0,0,0c-0.2,0-0.4,0.1-0.5,0.3c-0.9,2.2-2.7,3.3-6.8,5.8
		c-1.1,0.6-2.1,1.3-3,2.1c-0.8,0.7-1.4,1.3-1.9,2.1c-0.1-0.6-0.2-3.8-0.4-5.6c0.3,0.3,0.8,0.5,1.2,0.5c0.1,0,0.2,0,0.2,0
		c0.8-0.2,1.2-1.3,1.2-1.8c0-0.3,0-0.6-0.1-1.1c0.3,0.3,0.6,0.6,0.8,0.7c0.3,0.2,0.8,0.3,1.2,0.3c0.4,0,0.7-0.1,1-0.3
		c0.6-0.5,0.5-1.7,0.3-2.1c-0.1-0.3-0.3-0.5-0.6-0.9c0.4,0.2,0.8,0.3,1.1,0.3c0.4,0,1.6-0.3,1.9-1c0.3-0.8-0.4-1.7-0.7-2
		c-0.2-0.2-0.5-0.3-1-0.5c0.5-0.1,0.8-0.1,1.1-0.3c0.4-0.2,1.3-1,1.2-1.8c-0.1-0.8-1.2-1.3-1.6-1.4c-0.3-0.1-0.6-0.1-1.1,0
		c0.4-0.3,0.7-0.5,0.8-0.7c0.2-0.3,0.7-1.5,0.2-2.1c-0.4-0.6-1.3-0.6-1.5-0.6c-0.2,0-0.4,0-0.5,0.1c-0.3,0.1-0.6,0.2-1,0.5
		c0.2-0.4,0.3-0.7,0.4-1c0.1-0.4-0.1-1.6-0.8-2c-0.6-0.3-1.7,0.2-2.1,0.5c-0.2,0.2-0.4,0.5-0.6,0.9c0-0.4,0-0.8-0.1-1.1
		c-0.1-0.4-0.8-1.4-1.6-1.4c-0.8,0-1.5,0.9-1.6,1.4c-0.1,0.3-0.1,0.6-0.1,1.1c-0.2-0.4-0.4-0.7-0.6-0.9c-0.4-0.3-1.5-0.8-2.1-0.5
		c-0.7,0.4-0.9,1.6-0.8,2c0,0.3,0.2,0.6,0.4,1c-0.4-0.3-0.7-0.4-1-0.5c-0.1,0-0.3-0.1-0.5-0.1c-0.3,0-1.2,0-1.5,0.6
		c-0.5,0.7,0,1.8,0.2,2.1c0.2,0.2,0.4,0.5,0.8,0.7c-0.5-0.1-0.8-0.1-1.1,0c-0.4,0.1-1.5,0.7-1.6,1.4c-0.1,0.8,0.8,1.6,1.2,1.8
		c0.3,0.1,0.6,0.2,1.1,0.3c-0.4,0.2-0.7,0.3-1,0.5c-0.3,0.3-1,1.3-0.7,2c0.3,0.7,1.3,1,1.9,1c0,0,0,0,0,0c0.3,0,0.6-0.1,1.1-0.3
		c-0.3,0.3-0.5,0.6-0.6,0.9c-0.2,0.4-0.3,1.6,0.3,2.1c0.2,0.2,0.5,0.3,0.9,0.3c0.5,0,1-0.1,1.2-0.3c0.2-0.1,0.5-0.4,0.8-0.7
		c-0.1,0.5-0.2,0.8-0.1,1.1c0,0.4,0.5,1.6,1.2,1.8c0.4,0.1,1-0.1,1.4-0.5c-0.1,1.9-0.3,5-0.4,5.6c-0.5-0.9-1.1-1.4-1.9-2.1
		c-0.9-0.8-1.9-1.4-3-2.1c-4.1-2.5-5.9-3.6-6.8-5.8c-0.1-0.2-0.2-0.3-0.5-0.3c0,0,0,0,0,0c-0.2,0-0.4,0.1-0.4,0.3
		c-1.2,3.9,0.7,7.2,5.7,10c0.3,0.2,0.7,0.4,1.1,0.6l0.2,0.1c1.3,0.7,2.7,1.5,3.7,2.3c1.2,0.9,2.3,2.5,2.8,4.1
		c0.1,0.2,0.2,0.3,0.4,0.3v0c0,0,0,0,0,0c0,0,0,0,0,0v0c0.2,0,0.3-0.1,0.4-0.3c0.5-1.6,1.6-3.1,2.8-4.1c1.1-0.8,2.4-1.6,3.7-2.3
		l0.2-0.1c0.4-0.2,0.7-0.4,1.1-0.6C47.9,71.4,49.7,68.1,48.6,64.3L48.6,64.3z M36.7,68.1L36.7,68.1L36.7,68.1
		c-0.2,0-0.7-0.3-0.9-0.6c-0.3-0.5-0.5-2.1-0.8-4L35,62.8c0.3,0,0.5-0.1,0.8-0.2l0,0.1c0.8,2,1.5,3.8,1.4,4.6
		C37.2,67.5,36.9,68.1,36.7,68.1L36.7,68.1z M40.4,66.2L40.4,66.2c-0.1,0.1-0.2,0.1-0.3,0.1c-0.2,0-0.6-0.1-0.7-0.1
		c-0.5-0.3-1.5-1.6-2.5-3.2l-0.5-0.7c0.2-0.1,0.4-0.3,0.6-0.5l0,0c1.7,1.5,3.2,2.8,3.4,3.4C40.5,65.4,40.5,66.1,40.4,66.2L40.4,66.2
		z M42.3,61.9c0.2,0.2,0.5,0.7,0.5,0.9l0,0c-0.1,0.2-0.7,0.4-0.9,0.4h0h0c-0.6,0-2-0.8-3.7-1.6l-0.8-0.4c0.1-0.2,0.2-0.5,0.3-0.7
		l0.1,0C39.8,61,41.7,61.4,42.3,61.9L42.3,61.9z M42.4,58.1c0.2,0,0.8,0.4,0.8,0.6l0,0c0,0.2-0.4,0.7-0.7,0.8
		c-0.6,0.3-2.2,0.3-4.1,0.3l-0.8,0c0,0,0,0,0,0c0-0.3,0-0.5-0.1-0.8l0.1,0C39.9,58.4,41.7,57.9,42.4,58.1L42.4,58.1z M40.8,54.7
		c0.1,0,0.2,0,0.3,0c0.2,0,0.6,0.1,0.7,0.2l0,0c0.1,0.2-0.1,0.8-0.2,1c-0.4,0.5-1.8,1.3-3.5,2.1l-0.7,0.4c-0.1-0.2-0.3-0.5-0.5-0.7
		l0.1-0.1C38.6,56.1,40.1,54.9,40.8,54.7L40.8,54.7z M35.8,56.7c0.8-2,1.4-3.8,1.9-4.3c0.2-0.2,0.7-0.4,0.9-0.4c0,0,0.1,0,0.1,0l0,0
		c0.2,0.1,0.3,0.7,0.3,1c-0.1,0.6-1,1.9-2.1,3.5l-0.5,0.7c-0.2-0.2-0.5-0.3-0.7-0.4L35.8,56.7L35.8,56.7z M33.9,51.8
		c0.1-0.2,0.5-0.7,0.7-0.7l0,0l0,0c0.2,0,0.6,0.5,0.7,0.7c0.2,0.6,0,2.2-0.2,4.1l0,0L35,56.7c-0.1,0-0.3,0-0.4,0c-0.1,0-0.3,0-0.4,0
		l0-0.1C33.9,54.4,33.7,52.5,33.9,51.8L33.9,51.8z M34.6,57.6c1.2,0,2.1,0.9,2.1,2.1c0,1.2-0.9,2.1-2.1,2.1c-1.2,0-2.1-0.9-2.1-2.1
		C32.5,58.6,33.5,57.6,34.6,57.6L34.6,57.6z M30.6,52.1c0,0,0.1,0,0.1,0c0.2,0,0.7,0.2,0.9,0.3c0.5,0.4,1,2,1.7,3.7l0.3,0.7
		c-0.3,0.1-0.5,0.2-0.7,0.4l0-0.1c-1.3-1.8-2.4-3.4-2.5-4.1C30.3,52.8,30.4,52.2,30.6,52.1L30.6,52.1z M27.7,55.8
		c-0.2-0.2-0.3-0.8-0.2-1l0,0c0.1-0.1,0.5-0.2,0.8-0.2c0.1,0,0.2,0,0.3,0c0.6,0.2,1.8,1.3,3.3,2.5l0.6,0.5c-0.2,0.2-0.3,0.4-0.5,0.7
		l-0.1,0C29.8,57.3,28.1,56.4,27.7,55.8L27.7,55.8z M26.7,59.5c-0.2-0.1-0.7-0.6-0.7-0.8l0,0c0.1-0.2,0.6-0.6,0.8-0.6
		c0.1,0,0.2,0,0.3,0c0.8,0,2.2,0.4,3.7,0.7l0.8,0.2c-0.1,0.2-0.1,0.5-0.1,0.8c0,0,0,0,0,0h-0.2c-0.4,0-0.7,0-1.1,0
		C28.4,59.8,27.2,59.7,26.7,59.5L26.7,59.5z M27.5,63.2L27.5,63.2c-0.3,0-0.8-0.2-0.9-0.4l0,0c0-0.2,0.3-0.8,0.5-0.9
		c0.5-0.4,2.1-0.8,3.9-1.2l0.8-0.2c0.1,0.3,0.2,0.5,0.3,0.7l-0.2,0.1C29.8,62.3,28.2,63.2,27.5,63.2L27.5,63.2z M29.9,66.1
		c-0.2,0.1-0.5,0.2-0.7,0.2c-0.1,0-0.2,0-0.3,0l0,0c-0.1-0.2-0.1-0.8,0-1c0.2-0.6,1.4-1.6,2.8-2.9l0.7-0.6c0.2,0.2,0.4,0.4,0.6,0.5
		l-0.1,0.1C31.6,64.2,30.5,65.8,29.9,66.1L29.9,66.1z M32.6,68.1L32.6,68.1c-0.2-0.1-0.5-0.6-0.5-0.9c0-0.6,0.5-2.2,1.2-3.9l0.3-0.8
		c0.2,0.1,0.5,0.2,0.8,0.2l0,0.1c-0.3,2.2-0.5,4.1-0.9,4.7C33.3,67.8,32.7,68.1,32.6,68.1L32.6,68.1z M42.4,73.4
		c-0.4,0.2-0.8,0.5-1.3,0.7c-1.4,0.7-2.8,1.5-3.9,2.4c-1.1,0.9-2,2-2.6,3.4c-0.6-1.4-1.5-2.5-2.6-3.4c-1.1-0.9-2.5-1.6-3.9-2.4
		c-0.4-0.2-0.9-0.5-1.3-0.7c-4-2.3-5.8-4.8-5.5-7.6c1.2,1.9,3.3,3.1,6.5,5c1.4,0.8,2.5,1.5,3.4,2.4c0.8,0.8,1.6,1.7,2,2.8
		c0.1,0.4,0.3,0.5,0.5,0.5c0.2,0,0.4-0.1,0.4-0.5c0.1-1.1,0.4-5.9,0.5-7.4c0.1,1.5,0.4,6.3,0.5,7.4c0.1,0.4,0.2,0.5,0.4,0.5
		c0.2,0,0.3-0.1,0.5-0.5c0.4-1.1,1.2-2,2-2.8c0.9-0.9,2-1.6,3.4-2.4c3.2-1.9,5.3-3.2,6.5-5C48.2,68.7,46.4,71.2,42.4,73.4L42.4,73.4
		z"/>
</g>
</svg>
