<?xml version="1.0" encoding="UTF-8"?><svg id="Layer_1" xmlns="http://www.w3.org/2000/svg" viewBox="0 0 103.95 289.14"><path d="m89.48,54.71c-5.04,1.06-10.73,3.81-15.17,7.6,2.08-5.29,4.27-10.53,6.56-15.73.55-.25,1.1-.5,1.65-.76.42.14.98.08,1.58-.32,9.38-6.27,17.13-16.17,19.27-27.42,1.17-6.17.92-20.15-8.88-17.82-8.44,2.01-14.3,11.76-17.34,19.16-3.39,8.26-5.06,18.72.33,26.48-.14.28-.19.58-.11.88.05.17.13.29.23.39-2.73,6.25-5.33,12.54-7.76,18.9-1.59-6.88-5.88-13.87-9.68-19.19-4.03-5.64-10.99-13.55-18.46-8.68-7.57,4.93-4.21,16.25-.82,22.71,4.98,9.48,15.99,14.01,26.26,12.41-4.42,12.21-8.28,24.62-11.45,37.24-4.09-8.38-9.81-16.63-17.23-22.3-5.92-4.53-15.88-7.6-21.72-1.05-5.28,5.92-.25,15.13,4.04,20.04,7.36,8.43,19.26,13.47,30.35,10.81.65-.16,1.18-.69,1.45-1.26.58-.2,1.17-.39,1.74-.6-.32,1.35-.64,2.7-.94,4.05-2.7,12.14-4.62,24.31-5.93,36.5-7.47-13.02-25.25-29.43-39.76-19.68-3.48,2.34-6.7,6.06-6.48,10.49.27,5.43,5.36,9.55,9.66,12.11,9.83,5.87,22.13,7.15,33.06,4,.9.37,1.83.67,2.77.91-.96,11.25-1.42,22.52-1.46,33.85-9.31-12.04-29.6-23.08-41.27-10.93-12.55,13.08,7.7,21.83,18.47,23.56,7.35,1.18,16.52,1.56,22.85-3.05.1,6.46.32,12.94.65,19.43.38,7.53.86,15.08,1.59,22.6-1.92-2.83-4.16-5.33-7.25-7.29-3.59-2.27-7.64-3.96-11.66-5.28-7.37-2.42-17.96-4.36-23.43,2.81-5.57,7.3,2.32,15.5,8.41,19.27,10.06,6.22,23,4.08,33.88,1.61.51-.12.94-.46,1.23-.88,1.27,9.5,3.07,18.91,5.76,28.13.5,1.73,3.67,0,3.22-1.53-2.31-7.95-3.97-16.04-5.2-24.21,12.11-1.91,25.51-5.26,34.8-13.48,7.33-6.48,10.78-19.77-.27-24.56-9.97-4.33-22.49,3.43-29.02,10.63-2.17,2.39-5.29,6.41-7.47,10.72-.41-4.55-.73-9.11-1-13.66-.47-7.93-.85-15.87-1.08-23.82,7.25,2.8,17.6-1.7,23.83-4.51,8.96-4.05,20.78-12,19.2-23.4-.7-5.06-4.02-10-9.31-10.85-4.71-.76-9.59,1.36-13.58,3.65-9.71,5.57-15.88,13.8-20.34,23.54-.02-5.76.07-11.52.34-17.27.22-4.86.56-9.71.99-14.55,5.45.64,11.3-.42,16.33-1.84,7.42-2.09,15.88-5.81,20.22-12.54,3.84-5.95,2.27-14.65-4.17-18.26-6.49-3.64-14.21,1.46-19.03,5.64-4.27,3.71-8.72,8.5-11.91,13.76,1.5-11.78,3.61-23.48,6.27-35.05.09.03.19.05.31.06,10.75,1.08,22.04-.84,29.84-8.97,4.27-4.45,8.71-15.52-.31-17.71-6.44-1.57-13.94,3.68-18.72,7.32-2.62,2-5.54,4.36-8.07,7.03,2.43-9.11,5.2-18.14,8.3-27.05.57-1.63,1.16-3.25,1.75-4.88.04-.01.08-.02.12-.03.19-.06.37-.15.53-.26,5.56,1.56,12.44.87,17.74.12,4.88-.7,13.73-2.29,14.98-8.24,1.64-7.81-8.65-10.69-14.29-9.49Zm1.21-49.86c10.79-7.6,10.55,10.42,8.83,16.41-2.33,8.09-7.57,15.14-14.18,20.29-.02.01-.05.02-.08.03-.47.27-.94.52-1.42.77l-.05.05c-1.15,1.15-2.93,1.07-4.11.04-.01.02-.02.05-.03.07-.04-.08-.08-.16-.12-.24-.38-.4-.62-.91-.7-1.45-5.02-11.65,2.22-29.2,11.87-35.99Zm-46.28,55.04c-2.46-4.21-8.32-19.98,1.01-20.35,6.16-.24,11.63,8.95,14.33,13.36,3.08,5.05,6.81,11.5,7.36,17.64-8.8,1.12-18.11-2.79-22.7-10.65Zm4.69,55.52c-.15.07-.31.18-.47.3-9.13,1.01-18.55-3.57-24.63-10.28-3.89-4.29-10.74-15.69-2.01-18.63,7.44-2.5,15.17,4.37,19.68,9.39,4.73,5.25,8.65,11.33,11.65,17.73-1.41.49-2.88.84-4.21,1.49Zm-34.01,42.65c-3.97-2.06-8.83-5.26-10.25-9.77-1.78-5.65,4.09-10.27,9.15-10.98,12.79-1.79,26.09,12.44,31.43,23.19-9.79,3.37-21.16,2.31-30.32-2.44Zm29.56,47.56c-.26.06-.53.18-.82.38-6.02,4.38-15.9,3.11-22.66,1.61-5.91-1.31-15.42-4.09-17.62-10.64-1.23-3.66,1.23-7.33,4.09-9.45,4.29-3.18,10.02-2.52,14.8-.95,8.89,2.93,18.08,9.77,22.59,18.18-.23.27-.37.57-.38.86Zm14.85,31.78c5.56-6.64,17.28-14.26,26.07-9.69,10.65,5.53,3.5,17.81-3.74,22.47-8.73,5.62-19.42,8.22-29.61,9.77.61-.54.95-1.29.48-1.87-.54-.66-.91-1.4-1.13-2.2-.09-.75-.18-1.5-.27-2.25.12-5.65,5.33-12.81,8.2-16.24Zm-10.36-35.29c3.76-9.82,8.63-18.48,17.48-24.56,7.35-5.06,18.62-8.49,21.4,3.29,2.39,10.15-8.53,17.11-16.36,20.65-5.78,2.61-17.28,7.83-23.23,3.13.16-.36.21-.75.03-1.11-.04-.09-.09-.17-.14-.26,0-.07,0-.15,0-.22.38-.24.69-.56.83-.92Zm-.71,56.1s0,.07.01.1c-.2-.03-.44-.03-.74.04-9.39,2.13-20.46,4.15-29.54-.22-5.38-2.59-16.9-12.19-9.08-18.14,5.95-4.54,16.77-.36,22.78,2.27,7.69,3.38,12.07,8.22,16.08,15.54.12.22.29.34.5.41Zm36.09-116.66c2.94,8.88-6.93,14.69-13.82,17.39-5.99,2.35-14.01,4.42-20.83,3.15.04-.39.07-.78.11-1.17.18-.19.31-.41.38-.65,2.71-10.1,27.17-39.83,34.16-18.72Zm-18.15-39.16c4.23-3.78,9.44-7.8,15.06-9.13,2.11-.5,4.4-.62,6.09.98,3.64,3.45.83,8.91-1.86,11.87-6.67,7.33-16.87,8.86-26.25,7.92-.53-.05-1.14.26-1.63.69.04-.19.08-.37.13-.56.32-.41.4-.84.29-1.2.14-.58.29-1.15.43-1.73,1.82-3.43,4.98-6.37,7.74-8.84Zm33.46-36.44c-2.86,3.56-10.86,3.82-14.93,4.06-4.05.24-9.21.59-13.21-.9,3.35-5.84,11.38-10.36,17.55-11.6,3.68-.73,7.08-.17,9.56,2.82,1.37,1.65,2.55,3.72,1.03,5.62Z"/></svg>