<?xml version="1.0" encoding="utf-8"?>
<!-- Generator: Adobe Illustrator 21.0.0, SVG Export Plug-In . SVG Version: 6.00 Build 0)  -->
<svg version="1.1" id="Layer_1" xmlns="http://www.w3.org/2000/svg" xmlns:xlink="http://www.w3.org/1999/xlink" x="0px" y="0px"
	 viewBox="0 0 234.3 85.2" style="enable-background:new 0 0 234.3 85.2;" xml:space="preserve">
<style type="text/css">
	.st0{display:none;}
	.st1{display:inline;}
	.st2{fill:#FFFFFF;}
	.st3{fill:#019CDB;}
	.st4{fill:#FD4F57;}
</style>
<g id="Layer_2" class="st0">
	<g class="st1">
		<path class="st2" d="M40.9,31.2c-0.1-0.2-0.3-0.3-0.5-0.3h-4.3l-1.3-4.1c-0.1-0.2-0.3-0.3-0.5-0.3s-0.4,0.1-0.5,0.3l-1.3,4.1h-4.3
			c-0.2,0-0.4,0.1-0.5,0.3c-0.1,0.2,0,0.4,0.2,0.5l3.4,2.5L30,38.3c-0.1,0.2,0,0.4,0.2,0.5c0.1,0.1,0.2,0.1,0.3,0.1
			c0.1,0,0.2,0,0.3-0.1l3.5-2.5l3.4,2.5c0.2,0.1,0.4,0.1,0.6,0c0.2-0.1,0.2-0.3,0.2-0.5l-1.3-4.1l3.4-2.5
			C40.9,31.7,41,31.4,40.9,31.2L40.9,31.2z M34.7,35.4c-0.2-0.1-0.4-0.1-0.6,0l-2.5,1.8l1-3c0.1-0.2,0-0.4-0.2-0.5l-2.5-1.8H33
			c0.2,0,0.4-0.1,0.5-0.3l1-3l1,3c0.1,0.2,0.3,0.3,0.5,0.3h3.1l-2.5,1.8c-0.2,0.1-0.2,0.3-0.2,0.5l1,3L34.7,35.4L34.7,35.4z"/>
		<path class="st2" d="M23.4,42.9c-0.1-0.2-0.3-0.3-0.5-0.3h-4.3l-1.3-4.1c-0.1-0.2-0.3-0.3-0.5-0.3s-0.4,0.1-0.5,0.3L15,42.6h-4.3
			c-0.2,0-0.4,0.1-0.5,0.3s0,0.4,0.2,0.5L14,46l-1.3,4c-0.1,0.2,0,0.4,0.2,0.5c0.1,0.1,0.2,0.1,0.3,0.1s0.2,0,0.3-0.1L17,48l3.4,2.5
			c0.2,0.1,0.4,0.1,0.6,0s0.2-0.3,0.2-0.5l-1.4-4l3.4-2.5C23.4,43.4,23.5,43.1,23.4,42.9L23.4,42.9z M17.2,47.1
			c-0.2-0.1-0.4-0.1-0.6,0l-2.5,1.8l1-3c0.1-0.2,0-0.4-0.2-0.5l-2.5-1.8h3.1c0.2,0,0.4-0.1,0.5-0.3l1-3l1,3c0.1,0.2,0.3,0.3,0.5,0.3
			h3.1l-2.5,1.8c-0.2,0.1-0.2,0.3-0.2,0.5l1,3L17.2,47.1L17.2,47.1z"/>
		<path class="st2" d="M45.7,43.5l3.4,2.5l-1.3,4c-0.1,0.2,0,0.4,0.2,0.5s0.4,0.1,0.6,0L52,48l3.5,2.5c0.1,0.1,0.2,0.1,0.3,0.1
			s0.2,0,0.3-0.1c0.2-0.1,0.2-0.3,0.2-0.5l-1.4-4l3.4-2.5c0.2-0.1,0.2-0.3,0.2-0.5c-0.1-0.2-0.3-0.3-0.5-0.3h-4.3l-1.3-4.1
			c-0.1-0.2-0.3-0.3-0.5-0.3s-0.4,0.1-0.5,0.3l-1.3,4.1h-4.3c-0.2,0-0.4,0.1-0.5,0.3C45.4,43.1,45.5,43.4,45.7,43.5L45.7,43.5z
			 M49.2,48.9l1-3c0.1-0.2,0-0.4-0.2-0.5l-2.5-1.8h3.1c0.2,0,0.4-0.1,0.5-0.3l1-3l1,3c0.1,0.2,0.3,0.3,0.5,0.3h3.1L54,45.4
			c-0.2,0.1-0.2,0.3-0.2,0.5l1,3l-2.5-1.8c-0.2-0.1-0.4-0.1-0.6,0L49.2,48.9L49.2,48.9z"/>
		<path class="st2" d="M32.3,19.8c-0.1-0.2-0.3-0.3-0.5-0.3c-1.6,0.3-3.2-0.3-5.2-1.9c2.1-1.3,3.6-3.2,4.2-5.5
			c0.1-0.2-0.1-0.5-0.3-0.6c-0.7-0.2-1.6-0.4-2.6-0.5c0.4-0.7,0.6-1.6,0.7-2.4c0-0.2-0.1-0.5-0.4-0.5c-2.9-0.8-7.5-0.1-10.3,2.5
			c-1.1-0.8-2.3-1.3-3.6-1.6c-0.1-0.3-0.2-0.5-0.2-0.8c-0.4-1.6-0.8-3.1-2.2-4c-1.2-0.8-2.6-1-3.9-0.6c-0.9,0.3-1.6,1-2,1.8
			c-1.3,0-2.4,0.5-3.2,1.1C2.7,6.6,2.6,6.9,2.7,7.1C2.8,7.2,3,7.4,3.2,7.4c2-0.1,3.2,0.3,3.2,0.8c0,0.2-0.1,0.6-0.2,1
			c-0.4,1.1-0.9,2.7-0.4,4.9c0.2,0.7,0.4,1.3,0.7,2l0,0l0,0c1.1,2.1,3,3.9,5.5,4.8c0.6,0.2,1.6,0.5,2.4,0.6
			c-0.3,1.8-0.5,2.4-1.6,2.5c-0.5,0-1.1,0-1.5-0.2c-0.2-0.1-0.5,0-0.7,0.2c-0.1,0.2,0,0.5,0.2,0.7c0.4,0.2,0.8,0.3,1.3,0.3h0.1
			c0.5,0,1.2,0,1.3,0l0.6-0.1c1.3-0.1,2.9-0.2,3.9,0.3c0.1,0,0.1,0,0.2,0c0.2,0,0.4-0.1,0.4-0.3c0.1-0.2,0-0.5-0.2-0.7
			c-0.6-0.3-1.3-0.4-2-0.4c0.1-0.1,0.1-0.1,0.2-0.2c0.5-0.5,1-1.1,1.4-1.9c1.2,0,2.6-0.4,3.4-0.7c1.6,0.9,3.4,1.3,5,1.3
			c2.4,0,4.5-0.8,5.8-2C32.4,20.2,32.4,20,32.3,19.8L32.3,19.8z M27.5,8.9c-0.1,0.8-0.4,1.4-0.7,2c-1.4-0.1-2.9,0.1-4.1,0.7
			c-1.1,0.5-2.3,1.2-3,2.6c-0.9-0.1-1.8-0.4-2.5-0.8C18.7,9.7,24.2,8.2,27.5,8.9L27.5,8.9z M26.1,11.9c-1.3,1.5-3.3,2.3-5.2,2.4
			c0,0,0,0-0.1,0c0.5-0.7,1.2-1.3,2.3-1.8C23.9,12.1,25,12,26.1,11.9L26.1,11.9z M16.3,12.8c-0.7-0.7-1.3-1.6-1.7-2.7
			c0.9,0.3,1.8,0.7,2.6,1.2C16.9,11.8,16.6,12.3,16.3,12.8L16.3,12.8z M4.3,6.6c1.2-0.4,3-0.4,4.3,0.3l0,0c0.7,0.4,1,0.4,1.3,0.2
			c0.2-0.1,0.4-0.3,0.4-0.7c0-0.5-0.4-0.8-0.8-0.8C9.2,5.7,8.9,5.8,8.8,6C8.3,5.7,7.7,5.5,7.1,5.4C7.4,5,7.8,4.7,8.3,4.6
			c0.9-0.3,2-0.1,3,0.5c1,0.7,1.4,1.9,1.8,3.4c0.1,0.5,0.3,1.1,0.5,1.6c1.1,3.4,3.6,5.2,7.1,5.2c0.1,0,0.1,0,0.2,0
			c2.7,0,5.1-1.3,6.4-3.3c0.8,0.1,1.7,0.2,2.4,0.4c-1,3.4-4.5,5.7-8.7,5.9c-5.8,0.2-9.9-2.8-11-8c0-0.1-0.1-0.3-0.2-0.3
			c-0.1-0.1-0.3-0.1-0.4,0c-1.6,0.3-2.4,1.2-2.8,2c0.1-1,0.3-1.8,0.6-2.5c0.2-0.6,0.3-1,0.3-1.4C7.3,7.2,6.2,6.5,4.3,6.6L4.3,6.6z
			 M7.4,15.5C7,14.7,7,13.6,7.3,12.8s1-1.4,1.9-1.8c0.9,3.4,2.9,5.8,5.8,7.1c-0.2,0.9-0.3,1.7-0.4,2.4c-0.8-0.1-1.6-0.4-2.2-0.6
			C10.1,19,8.3,17.4,7.4,15.5L7.4,15.5z M16,22.9c-0.3,0.3-0.7,0.5-1.1,0.7c0.3-0.7,0.5-1.6,0.6-2.6c0.1-0.7,0.2-1.6,0.4-2.5
			c0.7,0.2,1.4,0.4,2.1,0.5C17.5,20.8,16.8,22.1,16,22.9L16,22.9z M21.7,20.1c-0.1-0.1-0.3-0.1-0.4,0c-1,0.4-2,0.6-2.9,0.7
			c0.2-0.5,0.4-1,0.5-1.6c0.5,0.1,1,0.1,1.6,0.1c0.2,0,0.3,0,0.5,0c1.7-0.1,3.2-0.4,4.6-1.1c1.7,1.4,3.2,2.2,4.6,2.4
			C28.1,21.7,24.6,21.8,21.7,20.1L21.7,20.1z"/>
		<path class="st2" d="M66.1,19.8c-0.1-0.2-0.3-0.3-0.5-0.3c-1.6,0.3-3.2-0.3-5.2-1.9c2.1-1.3,3.6-3.2,4.2-5.5
			c0.1-0.2-0.1-0.5-0.3-0.6c-0.7-0.2-1.6-0.4-2.6-0.5c0.4-0.7,0.6-1.6,0.7-2.4c0-0.2-0.1-0.5-0.4-0.5c-2.9-0.8-7.5-0.1-10.3,2.5
			C50.6,9.9,49.3,9.3,48,9c-0.1-0.3-0.2-0.5-0.2-0.8c-0.4-1.6-0.8-3.1-2.2-4c-1.2-0.8-2.6-1-3.9-0.6c-0.9,0.3-1.6,0.9-2,1.7
			c-1.3,0-2.4,0.5-3.2,1.1c-0.2,0.1-0.2,0.4-0.1,0.6c0.1,0.2,0.3,0.3,0.5,0.3c2-0.1,3.2,0.3,3.2,0.8c0,0.2-0.1,0.6-0.2,1
			c-0.4,1.1-0.9,2.7-0.4,4.9c0.2,0.7,0.4,1.3,0.7,2l0,0l0,0c1.1,2.1,3,3.9,5.5,4.8c0.6,0.2,1.6,0.5,2.4,0.6
			c-0.3,1.8-0.5,2.4-1.6,2.5c-0.5,0-1.1,0-1.5-0.2c-0.2-0.1-0.5,0-0.7,0.2c-0.1,0.2,0,0.5,0.2,0.7c0.4,0.2,0.8,0.3,1.3,0.3h0.1
			c0.5,0,1.2,0,1.3,0l0.6-0.1c1.3-0.1,2.9-0.2,3.9,0.3c0.1,0,0.1,0,0.2,0c0.2,0,0.4-0.1,0.4-0.3c0.1-0.2,0-0.5-0.2-0.7
			c-0.6-0.3-1.3-0.4-2-0.4c0.1-0.1,0.1-0.1,0.2-0.2c0.5-0.5,1-1.1,1.4-1.9c1.2,0,2.6-0.4,3.4-0.7c1.6,0.9,3.4,1.3,5,1.3
			c2.4,0,4.5-0.8,5.8-2C66.2,20.2,66.2,20,66.1,19.8L66.1,19.8z M61.3,8.9c-0.1,0.8-0.4,1.4-0.7,2c-1.4-0.1-2.9,0.1-4.1,0.7
			c-1.1,0.5-2.3,1.2-3.1,2.6c-0.9-0.1-1.8-0.4-2.5-0.8C52.5,9.7,57.9,8.2,61.3,8.9L61.3,8.9z M59.8,11.9c-1.3,1.5-3.3,2.3-5.2,2.4
			c0,0,0,0-0.1,0c0.5-0.7,1.2-1.3,2.3-1.8C57.7,12.1,58.7,12,59.8,11.9L59.8,11.9z M50.1,12.8c-0.7-0.7-1.3-1.6-1.7-2.7
			c0.9,0.3,1.8,0.7,2.6,1.2C50.6,11.8,50.3,12.3,50.1,12.8L50.1,12.8z M38.1,6.6c1.2-0.4,3-0.4,4.3,0.3l0,0c0.7,0.4,1,0.4,1.3,0.2
			C43.8,7,44,6.8,44,6.5c0-0.5-0.4-0.8-0.8-0.8c-0.3,0-0.5,0.1-0.6,0.3c-0.6-0.3-1.1-0.4-1.7-0.5c0.3-0.4,0.7-0.7,1.2-0.8
			c0.9-0.3,2-0.1,3,0.5c1,0.7,1.4,1.9,1.8,3.4c0.1,0.5,0.3,1.1,0.5,1.6c1.1,3.4,3.6,5.2,7.1,5.2c0.1,0,0.1,0,0.2,0
			c2.7,0,5.1-1.3,6.4-3.3c0.8,0.1,1.7,0.2,2.4,0.4c-1,3.4-4.5,5.7-8.7,5.9c-5.8,0.2-9.9-2.8-11-8c0-0.1-0.1-0.3-0.2-0.3
			c-0.1-0.1-0.3-0.1-0.4,0c-1.5,0.5-2.3,1.4-2.8,2.1c0.1-1,0.3-1.8,0.6-2.5c0.2-0.6,0.3-1,0.3-1.4C41.1,7.2,39.9,6.5,38.1,6.6
			L38.1,6.6z M41.1,15.5c-0.4-0.8-0.5-1.9-0.1-2.7c0.3-0.8,1-1.4,1.9-1.8c0.9,3.4,2.9,5.8,5.8,7.1c-0.2,0.9-0.3,1.7-0.4,2.4
			c-0.8-0.1-1.6-0.4-2.2-0.6C43.8,19,42.1,17.4,41.1,15.5L41.1,15.5z M49.7,22.9c-0.3,0.3-0.7,0.5-1.1,0.7c0.3-0.7,0.5-1.6,0.6-2.6
			c0.1-0.7,0.2-1.6,0.4-2.5c0.7,0.2,1.4,0.4,2.1,0.5C51.3,20.8,50.6,22.1,49.7,22.9L49.7,22.9z M55.5,20.1c-0.1-0.1-0.3-0.1-0.4,0
			c-1,0.4-2,0.6-2.9,0.7c0.2-0.5,0.4-1,0.5-1.6c0.5,0.1,1,0.1,1.6,0.1c0.2,0,0.3,0,0.5,0c1.7-0.1,3.2-0.4,4.6-1.1
			c1.7,1.4,3.2,2.2,4.6,2.4C61.8,21.7,58.3,21.8,55.5,20.1L55.5,20.1z"/>
		<path class="st2" d="M-0.1,0v34.4c0,20,12.5,38.4,34.3,50.4l0.3,0.2l0.3-0.2c21.8-12,34.3-30.3,34.3-50.4V0H-0.1L-0.1,0z
			 M2.6,46.1l31.9-23.3l31.9,23.3c-1.3,5-3.4,9.8-6.3,14.3L34.5,41.8L8.8,60.5C6,55.9,3.9,51.1,2.6,46.1L2.6,46.1z M34.5,83.6
			c-10.8-6-19.3-13.6-25-22.1l25-18.2l25,18.2C53.7,70,45.3,77.6,34.5,83.6L34.5,83.6z M67.9,34.4c0,3.6-0.4,7.1-1.2,10.5L34.5,21.4
			L2.3,44.9C1.5,41.5,1.1,38,1.1,34.4V1.2H68L67.9,34.4L67.9,34.4z"/>
		<path class="st2" d="M48.4,64.1c-0.1-0.2-0.2-0.3-0.4-0.3l0,0c-0.2,0-0.4,0.1-0.5,0.3c-0.9,2.2-2.7,3.3-6.8,5.8
			c-1.1,0.6-2.1,1.3-3,2.1c-0.8,0.7-1.4,1.3-1.9,2.1c-0.1-0.6-0.2-3.8-0.4-5.6c0.3,0.3,0.8,0.5,1.2,0.5c0.1,0,0.2,0,0.2,0
			c0.8-0.2,1.2-1.3,1.2-1.8c0-0.3,0-0.6-0.1-1.1c0.3,0.3,0.6,0.6,0.8,0.7c0.3,0.2,0.8,0.3,1.2,0.3s0.7-0.1,1-0.3
			c0.6-0.5,0.5-1.7,0.3-2.1c-0.1-0.3-0.3-0.5-0.6-0.9c0.4,0.2,0.8,0.3,1.1,0.3c0.4,0,1.6-0.3,1.9-1c0.3-0.8-0.4-1.7-0.7-2
			c-0.2-0.2-0.5-0.3-1-0.5c0.5-0.1,0.8-0.1,1.1-0.3c0.4-0.2,1.3-1,1.2-1.8s-1.2-1.3-1.6-1.4c-0.3-0.1-0.6-0.1-1.1,0
			c0.4-0.3,0.7-0.5,0.8-0.7c0.2-0.3,0.7-1.5,0.2-2.1c-0.4-0.6-1.3-0.6-1.5-0.6s-0.4,0-0.5,0.1c-0.3,0.1-0.6,0.2-1,0.5
			c0.2-0.4,0.3-0.7,0.4-1c0.1-0.4-0.1-1.6-0.8-2c-0.6-0.3-1.7,0.2-2.1,0.5c-0.2,0.2-0.4,0.5-0.6,0.9c0-0.4,0-0.8-0.1-1.1
			c-0.1-0.4-0.8-1.4-1.6-1.4s-1.5,0.9-1.6,1.4C33,51.9,33,52.2,33,52.7c-0.2-0.4-0.4-0.7-0.6-0.9c-0.4-0.3-1.5-0.8-2.1-0.5
			c-0.7,0.4-0.9,1.6-0.8,2c0,0.3,0.2,0.6,0.4,1c-0.4-0.3-0.7-0.4-1-0.5c-0.1,0-0.3-0.1-0.5-0.1c-0.3,0-1.2,0-1.5,0.6
			c-0.5,0.7,0,1.8,0.2,2.1c0.2,0.2,0.4,0.5,0.8,0.7c-0.5-0.1-0.8-0.1-1.1,0c-0.4,0.1-1.5,0.7-1.6,1.4c-0.1,0.8,0.8,1.6,1.2,1.8
			c0.3,0.1,0.6,0.2,1.1,0.3c-0.4,0.2-0.7,0.3-1,0.5c-0.3,0.3-1,1.3-0.7,2s1.3,1,1.9,1l0,0c0.3,0,0.6-0.1,1.1-0.3
			c-0.3,0.3-0.5,0.6-0.6,0.9c-0.2,0.4-0.3,1.6,0.3,2.1c0.2,0.2,0.5,0.3,0.9,0.3c0.5,0,1-0.1,1.2-0.3c0.2-0.1,0.5-0.4,0.8-0.7
			c-0.1,0.5-0.2,0.8-0.1,1.1c0,0.4,0.5,1.6,1.2,1.8c0.4,0.1,1-0.1,1.4-0.5c-0.1,1.9-0.3,5-0.4,5.6c-0.5-0.9-1.1-1.4-1.9-2.1
			c-0.9-0.8-1.9-1.4-3-2.1c-4.1-2.5-5.9-3.6-6.8-5.8c-0.1-0.2-0.2-0.3-0.5-0.3l0,0c-0.2,0-0.4,0.1-0.4,0.3c-1.2,3.9,0.7,7.2,5.7,10
			c0.3,0.2,0.7,0.4,1.1,0.6l0.2,0.1c1.3,0.7,2.7,1.5,3.7,2.3c1.2,0.9,2.3,2.5,2.8,4.1c0.1,0.2,0.2,0.3,0.4,0.3l0,0l0,0l0,0l0,0
			c0.2,0,0.3-0.1,0.4-0.3c0.5-1.6,1.6-3.1,2.8-4.1c1.1-0.8,2.4-1.6,3.7-2.3l0.2-0.1c0.4-0.2,0.7-0.4,1.1-0.6
			C47.7,71.2,49.6,67.9,48.4,64.1L48.4,64.1z M36.6,67.9L36.6,67.9L36.6,67.9c-0.2,0-0.7-0.3-0.9-0.6c-0.3-0.5-0.5-2.1-0.8-4
			l-0.1-0.8c0.3,0,0.5-0.1,0.8-0.2v0.1c0.8,2,1.5,3.8,1.4,4.6C37,67.3,36.8,67.9,36.6,67.9L36.6,67.9z M40.3,66L40.3,66
			c-0.1,0.1-0.2,0.1-0.3,0.1c-0.2,0-0.6-0.1-0.7-0.1c-0.5-0.3-1.5-1.6-2.5-3.2l-0.5-0.7c0.2-0.1,0.4-0.3,0.6-0.5l0,0
			c1.7,1.5,3.2,2.8,3.4,3.4C40.4,65.2,40.4,65.8,40.3,66L40.3,66z M42.2,61.7c0.2,0.2,0.5,0.7,0.5,0.9l0,0C42.6,62.8,42,63,41.8,63
			l0,0l0,0c-0.6,0-2-0.8-3.7-1.6L37.2,61c0.1-0.2,0.2-0.5,0.3-0.7h0.1C39.7,60.8,41.6,61.2,42.2,61.7L42.2,61.7z M42.3,57.9
			c0.2,0,0.8,0.4,0.8,0.6l0,0c0,0.2-0.4,0.7-0.7,0.8c-0.6,0.3-2.2,0.3-4.1,0.3h-0.8l0,0c0-0.3,0-0.5-0.1-0.8h0.1
			C39.8,58.2,41.6,57.7,42.3,57.9L42.3,57.9z M40.6,54.5c0.1,0,0.2,0,0.3,0c0.2,0,0.6,0.1,0.7,0.2l0,0c0.1,0.2-0.1,0.8-0.2,1
			c-0.4,0.5-1.8,1.3-3.5,2.1l-0.7,0.4c-0.1-0.2-0.3-0.5-0.5-0.7l0.1-0.1C38.5,55.9,39.9,54.7,40.6,54.5L40.6,54.5z M35.6,56.5
			c0.8-2,1.4-3.8,1.9-4.3c0.2-0.2,0.7-0.4,0.9-0.4h0.1l0,0c0.2,0.1,0.3,0.7,0.3,1c-0.1,0.6-1,1.9-2.1,3.5L36.2,57
			C36,56.8,35.7,56.7,35.6,56.5L35.6,56.5L35.6,56.5z M33.8,51.6c0.1-0.2,0.5-0.7,0.7-0.7l0,0l0,0c0.2,0,0.6,0.5,0.7,0.7
			c0.2,0.6,0,2.2-0.2,4.1l0,0l-0.1,0.8c-0.1,0-0.3,0-0.4,0c-0.1,0-0.3,0-0.4,0v-0.1C33.8,54.2,33.5,52.3,33.8,51.6L33.8,51.6z
			 M34.5,57.4c1.2,0,2.1,0.9,2.1,2.1c0,1.2-0.9,2.1-2.1,2.1c-1.2,0-2.1-0.9-2.1-2.1C32.4,58.4,33.3,57.4,34.5,57.4L34.5,57.4z
			 M30.4,51.9h0.1c0.2,0,0.7,0.2,0.9,0.3c0.5,0.4,1,2,1.7,3.7l0.3,0.7c-0.3,0.1-0.5,0.2-0.7,0.4v-0.1c-1.3-1.8-2.4-3.4-2.5-4.1
			C30.1,52.6,30.3,52,30.4,51.9L30.4,51.9z M27.6,55.6c-0.2-0.2-0.3-0.8-0.2-1l0,0c0.1-0.1,0.5-0.2,0.8-0.2c0.1,0,0.2,0,0.3,0
			c0.6,0.2,1.8,1.3,3.3,2.5l0.6,0.5c-0.2,0.2-0.3,0.4-0.5,0.7h-0.1C29.7,57.1,28,56.2,27.6,55.6L27.6,55.6z M26.5,59.3
			c-0.2-0.1-0.7-0.6-0.7-0.8l0,0c0.1-0.2,0.6-0.6,0.8-0.6c0.1,0,0.2,0,0.3,0c0.8,0,2.2,0.4,3.7,0.7l0.8,0.2
			c-0.1,0.2-0.1,0.5-0.1,0.8l0,0h-0.2c-0.4,0-0.7,0-1.1,0C28.3,59.6,27,59.5,26.5,59.3L26.5,59.3z M27.3,63L27.3,63
			c-0.3,0-0.8-0.2-0.9-0.4l0,0c0-0.2,0.3-0.8,0.5-0.9c0.5-0.4,2.1-0.8,3.9-1.2l0.8-0.2c0.1,0.3,0.2,0.5,0.3,0.7l-0.2,0.1
			C29.7,62.1,28,63,27.3,63L27.3,63z M29.8,65.9c-0.2,0.1-0.5,0.2-0.7,0.2c-0.1,0-0.2,0-0.3,0l0,0c-0.1-0.2-0.1-0.8,0-1
			c0.2-0.6,1.4-1.6,2.8-2.9l0.7-0.6c0.2,0.2,0.4,0.4,0.6,0.5l-0.1,0.1C31.4,64,30.4,65.6,29.8,65.9L29.8,65.9z M32.4,67.9L32.4,67.9
			c-0.2-0.1-0.5-0.6-0.5-0.9c0-0.6,0.5-2.2,1.2-3.9l0.3-0.8c0.2,0.1,0.5,0.2,0.8,0.2v0.1c-0.3,2.2-0.5,4.1-0.9,4.7
			C33.1,67.6,32.6,67.9,32.4,67.9L32.4,67.9z M42.2,73.2c-0.4,0.2-0.8,0.5-1.3,0.7c-1.4,0.7-2.8,1.5-3.9,2.4c-1.1,0.9-2,2-2.6,3.4
			c-0.6-1.4-1.5-2.5-2.6-3.4s-2.5-1.6-3.9-2.4c-0.4-0.2-0.9-0.5-1.3-0.7c-4-2.3-5.8-4.8-5.5-7.6c1.2,1.9,3.3,3.1,6.5,5
			c1.4,0.8,2.5,1.5,3.4,2.4c0.8,0.8,1.6,1.7,2,2.8c0.1,0.4,0.3,0.5,0.5,0.5s0.4-0.1,0.4-0.5c0.1-1.1,0.4-5.9,0.5-7.4
			c0.1,1.5,0.4,6.3,0.5,7.4c0.1,0.4,0.2,0.5,0.4,0.5s0.3-0.1,0.5-0.5c0.4-1.1,1.2-2,2-2.8c0.9-0.9,2-1.6,3.4-2.4
			c3.2-1.9,5.3-3.2,6.5-5C48,68.5,46.2,70.9,42.2,73.2L42.2,73.2z"/>
	</g>
	<g class="st1">
		<path class="st2" d="M94.9,16.1c-0.7,0.4-1.5,0.8-2.4,1.1c-1,0.3-2,0.5-3.1,0.5c-1.3,0-2.5-0.2-3.6-0.6s-2-1-2.8-1.8
			s-1.4-1.7-1.9-2.8c-0.4-1.1-0.7-2.2-0.7-3.5c0-1.2,0.2-2.4,0.7-3.5s1.1-2,1.9-2.8s1.7-1.4,2.8-1.8c1.1-0.4,2.3-0.7,3.5-0.7
			c1.1,0,2.2,0.2,3.1,0.5c1,0.3,1.8,0.7,2.4,1.1L94,3.4c-0.7-0.4-1.5-0.8-2.4-1C90.8,2.1,90,2,89.2,2c-1.1,0-2,0.2-2.8,0.5
			c-0.8,0.4-1.6,0.8-2.1,1.5c-0.6,0.6-1,1.4-1.3,2.2C82.6,7.1,82.4,8,82.4,9s0.2,1.9,0.5,2.8c0.3,0.8,0.8,1.6,1.4,2.2
			c0.6,0.6,1.3,1.1,2.2,1.5c0.9,0.4,1.8,0.5,2.9,0.5c0.8,0,1.7-0.1,2.5-0.4c0.9-0.3,1.7-0.6,2.4-1L94.9,16.1z"/>
		<path class="st2" d="M98,17.4V0.6h1.8v15.2h8v1.7H98V17.4z"/>
		<path class="st2" d="M124,16.1c-0.7,0.4-1.5,0.8-2.4,1.1c-1,0.3-2,0.5-3.1,0.5c-1.3,0-2.5-0.2-3.6-0.6s-2-1-2.8-1.8
			s-1.4-1.7-1.9-2.8c-0.4-1.1-0.7-2.2-0.7-3.5c0-1.2,0.2-2.4,0.7-3.5s1.1-2,1.9-2.8s1.7-1.4,2.8-1.8c1.1-0.4,2.3-0.7,3.5-0.7
			c1.1,0,2.2,0.2,3.1,0.5c1,0.3,1.8,0.7,2.4,1.1l-0.8,1.6c-0.7-0.4-1.5-0.8-2.4-1C119.8,2.1,119,2,118.2,2c-1.1,0-2,0.2-2.8,0.5
			c-0.8,0.4-1.6,0.8-2.1,1.5c-0.6,0.6-1,1.4-1.3,2.2S111.5,8,111.5,9s0.2,1.9,0.5,2.8c0.3,0.8,0.8,1.6,1.4,2.2
			c0.6,0.6,1.3,1.1,2.2,1.5c0.9,0.4,1.8,0.5,2.9,0.5c0.8,0,1.7-0.1,2.5-0.4c0.9-0.3,1.7-0.6,2.4-1L124,16.1z"/>
		<path class="st3" d="M89.7,35.8c0,0.7-0.1,1.3-0.4,1.9c-0.3,0.6-0.6,1.1-1.1,1.5s-1,0.8-1.6,1s-1.3,0.4-2,0.4
			c-1,0-1.8-0.1-2.6-0.4c-0.8-0.3-1.5-0.7-2.3-1.1l0.9-1.6c0.6,0.5,1.3,0.8,2,1.1s1.4,0.4,2,0.4c0.5,0,1-0.1,1.4-0.2
			c0.4-0.2,0.7-0.4,1-0.7s0.5-0.6,0.6-0.9c0.1-0.4,0.2-0.7,0.2-1.1c0-0.4,0-0.7-0.1-1s-0.3-0.6-0.5-0.9c-0.2-0.3-0.6-0.5-1-0.8
			s-1-0.6-1.7-0.9c-0.7-0.3-1.4-0.6-1.9-1c-0.5-0.3-0.9-0.7-1.2-1.1c-0.3-0.4-0.5-0.8-0.7-1.2c-0.1-0.4-0.2-0.9-0.2-1.4
			c0-0.6,0.1-1.2,0.4-1.7c0.2-0.6,0.6-1,1-1.5c0.5-0.4,1-0.8,1.6-1c0.6-0.3,1.3-0.4,2.1-0.4c0.7,0,1.4,0.1,2,0.3
			c0.6,0.2,1.2,0.5,1.7,0.8L88.6,26c-0.4-0.3-0.9-0.6-1.4-0.7C86.6,25,86.1,25,85.6,25s-1,0.1-1.4,0.2c-0.4,0.2-0.7,0.4-1,0.6
			c-0.3,0.3-0.5,0.6-0.6,0.9s-0.2,0.7-0.2,1.1c0,0.6,0.2,1.1,0.7,1.6c0.4,0.5,1.2,1,2.2,1.4c0.9,0.4,1.6,0.8,2.2,1.1
			c0.6,0.4,1,0.7,1.4,1.1c0.3,0.4,0.6,0.8,0.7,1.2C89.7,34.8,89.7,35.3,89.7,35.8z"/>
		<path class="st3" d="M103.1,28.8c0,0.8-0.1,1.6-0.4,2.3c-0.3,0.7-0.7,1.3-1.3,1.8c-0.6,0.5-1.3,0.9-2.1,1.2
			c-0.8,0.3-1.7,0.4-2.8,0.4c-0.3,0-0.6,0-1,0c-0.3,0-0.7,0-1-0.1v5.9h-1.8V23.7c0.6-0.1,1.3-0.1,1.9-0.2s1.3-0.1,2-0.1
			c1.1,0,2,0.1,2.8,0.4s1.5,0.7,2,1.2s0.9,1.1,1.2,1.7C102.9,27.4,103.1,28.1,103.1,28.8z M101.1,28.9c0-0.5-0.1-1-0.3-1.4
			c-0.2-0.5-0.4-0.9-0.8-1.2c-0.4-0.4-0.8-0.6-1.3-0.8c-0.5-0.2-1.1-0.3-1.8-0.3c-0.4,0-0.8,0-1.2,0c-0.4,0-0.8,0.1-1.1,0.1v7.5
			c0.3,0,0.6,0.1,1,0.1s0.7,0,1,0c0.8,0,1.5-0.1,2-0.3c0.6-0.2,1-0.5,1.4-0.9s0.6-0.8,0.8-1.3C101,30,101.1,29.5,101.1,28.9z"/>
		<path class="st3" d="M121.8,32c0,1.3-0.2,2.4-0.7,3.5s-1.1,2-1.8,2.8c-0.8,0.8-1.7,1.4-2.7,1.8c-1,0.4-2.1,0.6-3.2,0.6
			s-2.2-0.2-3.2-0.6c-1-0.4-1.9-1-2.7-1.8c-0.8-0.8-1.4-1.7-1.8-2.8S105,33.3,105,32s0.2-2.4,0.7-3.5s1.1-2,1.8-2.7
			c0.8-0.8,1.7-1.4,2.7-1.8s2.1-0.7,3.2-0.7s2.2,0.2,3.2,0.7c1,0.4,1.9,1,2.7,1.8c0.8,0.8,1.4,1.7,1.8,2.7
			C121.6,29.5,121.8,30.7,121.8,32z M119.8,32c0-1-0.2-1.9-0.5-2.8s-0.8-1.6-1.3-2.2c-0.6-0.6-1.2-1.1-2-1.5s-1.6-0.5-2.6-0.5
			c-0.9,0-1.8,0.2-2.6,0.5c-0.8,0.4-1.5,0.9-2,1.5c-0.6,0.6-1,1.4-1.3,2.2c-0.3,0.9-0.5,1.8-0.5,2.8s0.2,1.9,0.5,2.8
			c0.3,0.9,0.8,1.6,1.3,2.2c0.6,0.6,1.2,1.1,2,1.5s1.6,0.5,2.6,0.5c0.9,0,1.8-0.2,2.6-0.5c0.8-0.4,1.5-0.9,2-1.5
			c0.6-0.6,1-1.4,1.3-2.2C119.7,33.9,119.8,33,119.8,32z"/>
		<path class="st3" d="M134.1,40.4l-4.5-6.6c-0.2,0-0.4,0-0.6,0c-0.2,0-0.4,0-0.6,0c-0.3,0-0.6,0-1,0s-0.7,0-1,0v6.6h-1.8V23.7
			c0.6-0.1,1.3-0.1,1.9-0.2s1.3-0.1,2-0.1c1.1,0,2,0.1,2.8,0.4s1.5,0.6,2,1.1s0.9,1,1.2,1.6s0.4,1.3,0.4,2c0,1.2-0.3,2.2-0.9,3
			c-0.6,0.8-1.5,1.5-2.7,1.8l4.9,7h-2.1L134.1,40.4L134.1,40.4z M133.1,28.6c0-0.5-0.1-0.9-0.3-1.4c-0.2-0.4-0.5-0.8-0.8-1.1
			c-0.4-0.3-0.8-0.6-1.3-0.7c-0.5-0.2-1.1-0.3-1.8-0.3c-0.4,0-0.8,0-1.2,0c-0.4,0-0.8,0.1-1.1,0.1V32c0.3,0,0.6,0.1,1,0.1
			s0.7,0,1.1,0c1.6,0,2.7-0.3,3.4-1C132.7,30.6,133.1,29.7,133.1,28.6z"/>
		<path class="st3" d="M143.8,25.2v15.2H142V25.2h-5.6v-1.7h13.1v1.7H143.8z"/>
		<path class="st3" d="M160.7,35.8c0,0.7-0.1,1.3-0.4,1.9c-0.3,0.6-0.6,1.1-1.1,1.5s-1,0.8-1.6,1s-1.3,0.4-2,0.4
			c-1,0-1.8-0.1-2.6-0.4c-0.8-0.3-1.5-0.7-2.3-1.1l0.9-1.6c0.6,0.5,1.3,0.8,2,1.1s1.4,0.4,2,0.4c0.5,0,1-0.1,1.4-0.2
			c0.4-0.2,0.7-0.4,1-0.7s0.5-0.6,0.6-0.9c0.1-0.4,0.2-0.7,0.2-1.1c0-0.4,0-0.7-0.1-1s-0.3-0.6-0.5-0.9c-0.2-0.3-0.6-0.5-1-0.8
			s-1-0.6-1.7-0.9c-0.7-0.3-1.4-0.6-1.9-1c-0.5-0.3-0.9-0.7-1.2-1.1s-0.5-0.8-0.7-1.2c-0.1-0.4-0.2-0.9-0.2-1.4
			c0-0.6,0.1-1.2,0.4-1.7c0.2-0.6,0.6-1,1-1.5c0.5-0.4,1-0.8,1.6-1c0.6-0.3,1.3-0.4,2.1-0.4c0.7,0,1.4,0.1,2,0.3
			c0.6,0.2,1.2,0.5,1.7,0.8l-0.8,1.6c-0.4-0.3-0.9-0.6-1.4-0.7c-0.5-0.2-1.1-0.3-1.6-0.3s-1,0.1-1.4,0.2c-0.4,0.2-0.7,0.4-1,0.6
			c-0.3,0.3-0.5,0.6-0.6,0.9s-0.2,0.7-0.2,1.1c0,0.6,0.2,1.1,0.7,1.6c0.4,0.5,1.2,1,2.2,1.4c0.9,0.4,1.6,0.8,2.2,1.1
			c0.6,0.4,1,0.7,1.4,1.1c0.3,0.4,0.6,0.8,0.7,1.2C160.6,34.8,160.7,35.3,160.7,35.8z"/>
		<path class="st3" d="M94.9,62.1c-0.7,0.4-1.5,0.8-2.4,1.1c-1,0.3-2,0.5-3.1,0.5c-1.3,0-2.5-0.2-3.6-0.6c-1.1-0.4-2-1-2.8-1.8
			s-1.4-1.7-1.9-2.8c-0.4-1.1-0.7-2.2-0.7-3.5c0-1.2,0.2-2.4,0.7-3.5s1.1-2,1.9-2.8s1.7-1.4,2.8-1.8c1.1-0.4,2.3-0.7,3.5-0.7
			c1.1,0,2.2,0.2,3.1,0.5c1,0.3,1.8,0.7,2.4,1.1L94,49.4c-0.7-0.4-1.5-0.8-2.4-1C90.8,48.1,90,48,89.2,48c-1.1,0-2,0.2-2.8,0.5
			c-0.8,0.4-1.6,0.8-2.1,1.5c-0.6,0.6-1,1.4-1.3,2.2S82.5,54,82.5,55s0.2,1.9,0.5,2.8c0.3,0.8,0.8,1.6,1.4,2.2
			c0.6,0.6,1.3,1.1,2.2,1.5c0.9,0.4,1.8,0.5,2.9,0.5c0.8,0,1.7-0.1,2.5-0.4c0.9-0.3,1.7-0.6,2.4-1L94.9,62.1z"/>
		<path class="st3" d="M97.8,63.4V46.6h9.9v1.7h-8V54h7.2v1.7h-7.2v6.1h8v1.7L97.8,63.4L97.8,63.4z"/>
		<path class="st3" d="M124,63.7l-10.9-13.1v12.8h-1.8V46.3l0.4-0.1l10.8,12.9V46.6h1.8v17.1L124,63.7z"/>
		<path class="st3" d="M134.1,48.2v15.2h-1.8V48.2h-5.6v-1.7h13.1v1.7H134.1z"/>
		<path class="st3" d="M151.5,63.4l-4.5-6.6c-0.2,0-0.4,0-0.6,0s-0.4,0-0.6,0c-0.3,0-0.6,0-1,0s-0.7,0-1,0v6.6H142V46.7
			c0.6-0.1,1.3-0.1,1.9-0.2c0.6-0.1,1.3-0.1,2-0.1c1.1,0,2,0.1,2.8,0.4c0.8,0.3,1.5,0.6,2,1.1s0.9,1,1.2,1.6s0.4,1.3,0.4,2
			c0,1.2-0.3,2.2-0.9,3c-0.6,0.8-1.5,1.5-2.7,1.8l4.9,7h-2.1L151.5,63.4L151.5,63.4z M150.5,51.6c0-0.5-0.1-0.9-0.3-1.4
			c-0.2-0.4-0.5-0.8-0.8-1.1c-0.4-0.3-0.8-0.6-1.3-0.7s-1.1-0.3-1.8-0.3c-0.4,0-0.8,0-1.2,0s-0.8,0.1-1.1,0.1V55
			c0.3,0,0.6,0.1,1,0.1s0.7,0,1.1,0c1.6,0,2.7-0.3,3.4-1C150.2,53.6,150.5,52.7,150.5,51.6z"/>
		<path class="st3" d="M156.2,63.4V46.6h9.9v1.7h-8V54h7.2v1.7h-7.2v6.1h8v1.7L156.2,63.4L156.2,63.4z"/>
	</g>
</g>
<g id="Layer_3">
	<g>
		<path d="M41.3,31.2c-0.1-0.2-0.3-0.3-0.5-0.3h-4.3l-1.3-4.1c-0.1-0.2-0.3-0.3-0.5-0.3s-0.4,0.1-0.5,0.3L33,30.9h-4.3
			c-0.2,0-0.4,0.1-0.5,0.3c-0.1,0.2,0,0.4,0.2,0.5l3.4,2.5l-1.3,4.1c-0.1,0.2,0,0.4,0.2,0.5c0.1,0.1,0.2,0.1,0.3,0.1
			c0.1,0,0.2,0,0.3-0.1l3.5-2.5l3.4,2.5c0.2,0.1,0.4,0.1,0.6,0c0.2-0.1,0.2-0.3,0.2-0.5l-1.3-4.1l3.4-2.5
			C41.3,31.6,41.3,31.4,41.3,31.2L41.3,31.2z M35,35.3c-0.2-0.1-0.4-0.1-0.6,0l-2.5,1.8l1-3c0.1-0.2,0-0.4-0.2-0.5l-2.5-1.8h3.1
			c0.2,0,0.4-0.1,0.5-0.3l1-3l1,3c0.1,0.2,0.3,0.3,0.5,0.3h3.1l-2.5,1.8c-0.2,0.1-0.2,0.3-0.2,0.5l1,3L35,35.3L35,35.3z"/>
		<path d="M23.8,42.9c-0.1-0.2-0.3-0.3-0.5-0.3H19l-1.3-4.1c-0.1-0.2-0.3-0.3-0.5-0.3s-0.4,0.1-0.5,0.3l-1.3,4.1h-4.3
			c-0.2,0-0.4,0.1-0.5,0.3s0,0.4,0.2,0.5l3.4,2.5L13.1,50c-0.1,0.2,0,0.4,0.2,0.5c0.1,0.1,0.2,0.1,0.3,0.1s0.2,0,0.3-0.1l3.5-2.5
			l3.4,2.5c0.2,0.1,0.4,0.1,0.6,0s0.2-0.3,0.2-0.5l-1.3-4.1l3.4-2.5C23.8,43.3,23.9,43.1,23.8,42.9L23.8,42.9z M17.6,47
			c-0.2-0.1-0.4-0.1-0.6,0l-2.5,1.8l1-3c0.1-0.2,0-0.4-0.2-0.5l-2.5-1.8h3.1c0.2,0,0.4-0.1,0.5-0.3l1-3l1,3c0.1,0.2,0.3,0.3,0.5,0.3
			H22l-2.5,1.8c-0.2,0.1-0.2,0.3-0.2,0.5l1,3L17.6,47L17.6,47z"/>
		<path d="M46,43.4l3.4,2.5L48.2,50c-0.1,0.2,0,0.4,0.2,0.5s0.4,0.1,0.6,0l3.4-2.5l3.5,2.5c0.1,0.1,0.2,0.1,0.3,0.1s0.2,0,0.3-0.1
			c0.2-0.1,0.2-0.3,0.2-0.5l-1.3-4.1l3.4-2.5c0.2-0.1,0.2-0.3,0.2-0.5c-0.1-0.2-0.3-0.3-0.5-0.3h-4.3l-1.3-4.1
			c-0.1-0.2-0.3-0.3-0.5-0.3s-0.4,0.1-0.5,0.3l-1.3,4.1h-4.3c-0.2,0-0.4,0.1-0.5,0.3C45.8,43.1,45.9,43.3,46,43.4L46,43.4z
			 M49.5,48.9l1-3c0.1-0.2,0-0.4-0.2-0.5l-2.5-1.8h3.1c0.2,0,0.4-0.1,0.5-0.3l1-3l1,3c0.1,0.2,0.3,0.3,0.5,0.3H57l-2.5,1.8
			c-0.2,0.1-0.2,0.3-0.2,0.5l1,3L52.6,47c-0.2-0.1-0.4-0.1-0.6,0L49.5,48.9L49.5,48.9z"/>
		<path d="M32.7,19.7c-0.1-0.2-0.3-0.3-0.5-0.3c-1.6,0.3-3.2-0.3-5.2-1.9c2.1-1.3,3.6-3.2,4.2-5.5c0.1-0.2-0.1-0.5-0.3-0.6
			c-0.7-0.2-1.6-0.4-2.6-0.5c0.4-0.7,0.6-1.6,0.7-2.4C29,8.3,28.9,8,28.6,8c-2.9-0.8-7.6,0-10.3,2.6C17.2,9.8,16,9.3,14.7,9
			c-0.1-0.3-0.2-0.5-0.2-0.8c-0.4-1.6-0.8-3.1-2.2-4c-1.2-0.8-2.6-1-3.9-0.6c-0.9,0.3-1.6,0.9-2,1.7C5.1,5.4,4,5.8,3.2,6.4
			C3.1,6.6,3,6.8,3.1,7s0.3,0.3,0.5,0.3c2-0.1,3.2,0.3,3.2,0.8c0,0.2-0.1,0.6-0.2,1c-0.4,1.1-0.9,2.7-0.4,4.9c0.2,0.7,0.4,1.3,0.7,2
			l0,0l0,0c1.1,2.1,3,3.9,5.5,4.8c0.6,0.2,1.6,0.5,2.4,0.6c-0.3,1.8-0.5,2.4-1.6,2.5c-0.5,0-1.1,0-1.5-0.2c-0.2-0.1-0.5,0-0.7,0.2
			c-0.1,0.2,0,0.5,0.2,0.7c0.4,0.2,0.8,0.3,1.3,0.3h0.1c0.5,0,1.2,0,1.3,0l0.6-0.1c1.3-0.1,2.9-0.2,3.9,0.3c0.1,0,0.1,0,0.2,0
			c0.2,0,0.4-0.1,0.4-0.3c0.1-0.2,0-0.5-0.2-0.7c-0.6-0.3-1.3-0.4-2-0.4c0.1-0.1,0.1-0.1,0.2-0.2c0.5-0.5,1-1.1,1.4-1.9
			c1.2,0,2.6-0.4,3.4-0.7c1.6,0.9,3.4,1.3,5,1.3c2.4,0,4.5-0.8,5.8-2C32.8,20.1,32.8,19.9,32.7,19.7L32.7,19.7z M27.9,8.9
			c-0.1,0.8-0.4,1.4-0.7,2c-1.4-0.1-2.9,0.1-4.1,0.7c-1.1,0.5-2.3,1.2-3,2.6c-0.9-0.1-1.8-0.4-2.5-0.8C19.1,9.6,24.5,8.1,27.9,8.9
			L27.9,8.9z M26.4,11.9c-1.3,1.5-3.3,2.3-5.2,2.4c0,0,0,0-0.1,0c0.5-0.7,1.2-1.3,2.3-1.8C24.3,12.1,25.3,11.9,26.4,11.9L26.4,11.9z
			 M16.7,12.8c-0.7-0.7-1.3-1.6-1.7-2.7c0.9,0.3,1.8,0.7,2.6,1.2C17.3,11.7,17,12.2,16.7,12.8L16.7,12.8z M4.7,6.6
			c1.2-0.4,3-0.4,4.3,0.3l0,0c0.7,0.4,1,0.4,1.3,0.2c0.2-0.1,0.4-0.3,0.4-0.7c0-0.5-0.4-0.8-0.8-0.8c-0.3,0-0.5,0.1-0.6,0.3
			C8.6,5.6,8.1,5.5,7.5,5.4C7.8,5,8.2,4.7,8.7,4.5c0.9-0.3,2-0.1,3,0.5c1,0.7,1.4,1.9,1.8,3.4c0.1,0.5,0.3,1.1,0.5,1.6
			c1.1,3.4,3.6,5.2,7.1,5.2c0.1,0,0.1,0,0.2,0c2.7,0,5.1-1.3,6.4-3.3c0.8,0.1,1.7,0.2,2.4,0.4c-1,3.4-4.5,5.7-8.7,5.9
			c-5.8,0.2-9.9-2.8-11-8c0-0.1-0.1-0.3-0.2-0.3c-0.1-0.1-0.3-0.1-0.4,0C8.3,10.4,7.5,11.3,7,12c0.1-1,0.3-1.8,0.6-2.5
			c0.2-0.6,0.3-1,0.3-1.4C7.7,7.2,6.5,6.5,4.7,6.6L4.7,6.6z M7.7,15.4c-0.4-0.8-0.4-1.9-0.1-2.7s1-1.4,1.9-1.8
			c0.9,3.4,2.9,5.8,5.8,7.1c-0.2,0.9-0.3,1.7-0.4,2.4c-0.8-0.1-1.6-0.4-2.2-0.6C10.4,18.9,8.7,17.4,7.7,15.4L7.7,15.4z M16.3,22.9
			c-0.3,0.3-0.7,0.5-1.1,0.7c0.3-0.7,0.5-1.6,0.6-2.6c0.1-0.7,0.2-1.6,0.4-2.5c0.7,0.2,1.4,0.4,2.1,0.5C17.9,20.7,17.2,22,16.3,22.9
			L16.3,22.9z M22.1,20.1C22,20,21.8,20,21.7,20c-1,0.4-2,0.6-2.9,0.7c0.2-0.5,0.4-1,0.5-1.6c0.5,0.1,1,0.1,1.6,0.1
			c0.2,0,0.3,0,0.5,0c1.7-0.1,3.2-0.4,4.6-1.1c1.7,1.4,3.2,2.2,4.6,2.4C28.4,21.6,25,21.7,22.1,20.1L22.1,20.1z"/>
		<path d="M66.5,19.7c-0.1-0.2-0.3-0.3-0.5-0.3c-1.6,0.3-3.2-0.3-5.2-1.9c2.1-1.3,3.6-3.2,4.2-5.5c0.1-0.2-0.1-0.5-0.3-0.6
			C63.9,11.3,63,11.1,62,11c0.4-0.7,0.6-1.6,0.7-2.4c0-0.2-0.1-0.5-0.4-0.5C59.5,7.2,54.8,8,52,10.6c-1-0.8-2.3-1.3-3.6-1.6
			c-0.1-0.3-0.2-0.5-0.2-0.8c-0.4-1.6-0.8-3.1-2.2-4c-1.2-0.8-2.6-1-3.9-0.6c-0.9,0.3-1.6,0.9-2,1.7c-1.3,0-2.4,0.5-3.2,1.1
			c-0.2,0.1-0.2,0.4-0.1,0.6c0.1,0.2,0.3,0.3,0.5,0.3c2-0.1,3.2,0.3,3.2,0.8c0,0.2-0.1,0.6-0.2,1c-0.4,1.1-0.9,2.7-0.4,4.9
			c0.2,0.7,0.4,1.3,0.7,2l0,0l0,0c1.1,2.1,3,3.9,5.5,4.8c0.6,0.2,1.6,0.5,2.4,0.6c-0.3,1.8-0.5,2.4-1.6,2.5c-0.5,0-1.1,0-1.5-0.2
			c-0.2-0.1-0.5,0-0.7,0.2c-0.1,0.2,0,0.5,0.2,0.7c0.4,0.2,0.8,0.3,1.3,0.3h0.1c0.5,0,1.2,0,1.3,0l0.6-0.1c1.3-0.1,2.9-0.2,3.9,0.3
			c0.1,0,0.1,0,0.2,0c0.2,0,0.4-0.1,0.4-0.3c0.1-0.2,0-0.5-0.2-0.7c-0.6-0.3-1.3-0.4-2-0.4c0.1-0.1,0.1-0.1,0.2-0.2
			c0.5-0.5,1-1.1,1.4-1.9c1.2,0,2.6-0.4,3.4-0.7c1.6,0.9,3.4,1.3,5,1.3c2.4,0,4.5-0.8,5.8-2C66.5,20.1,66.6,19.9,66.5,19.7
			L66.5,19.7z M61.6,8.9c-0.1,0.8-0.4,1.4-0.7,2c-1.4-0.1-2.9,0.1-4.1,0.7c-1.1,0.5-2.3,1.2-3.1,2.6c-0.9-0.1-1.8-0.4-2.5-0.8
			C52.8,9.6,58.3,8.1,61.6,8.9L61.6,8.9z M60.2,11.9c-1.3,1.5-3.3,2.3-5.2,2.4c0,0,0,0-0.1,0c0.5-0.7,1.2-1.3,2.3-1.8
			C58,12.1,59.1,11.9,60.2,11.9L60.2,11.9z M50.5,12.8c-0.7-0.7-1.3-1.6-1.7-2.7c0.9,0.3,1.8,0.7,2.6,1.2
			C51,11.7,50.7,12.2,50.5,12.8L50.5,12.8z M38.4,6.6c1.2-0.4,3-0.4,4.3,0.3l0,0c0.7,0.4,1,0.4,1.3,0.2c0.2-0.1,0.4-0.3,0.4-0.7
			c0-0.5-0.4-0.8-0.8-0.8c-0.3,0-0.5,0.1-0.6,0.3c-0.6-0.3-1.1-0.4-1.7-0.5C41.5,5,42,4.7,42.5,4.5c0.9-0.3,2-0.1,3,0.5
			c1,0.7,1.4,1.9,1.8,3.4c0.1,0.5,0.3,1.1,0.5,1.6c1.1,3.4,3.6,5.2,7.1,5.2c0.1,0,0.1,0,0.2,0c2.7,0,5.1-1.3,6.4-3.3
			c0.8,0.1,1.7,0.2,2.4,0.4c-1,3.4-4.5,5.7-8.7,5.9c-5.8,0.2-9.9-2.8-11-8c0-0.1-0.1-0.3-0.2-0.3c-0.1-0.1-0.3-0.1-0.4,0
			c-1.5,0.5-2.3,1.4-2.8,2.1c0.1-1,0.3-1.8,0.6-2.5c0.2-0.6,0.3-1,0.3-1.4C41.5,7.2,40.3,6.5,38.4,6.6L38.4,6.6z M41.5,15.4
			c-0.4-0.8-0.5-1.9-0.1-2.7c0.3-0.8,1-1.4,1.9-1.8c0.9,3.4,2.9,5.8,5.8,7.1c-0.2,0.9-0.3,1.7-0.4,2.4c-0.8-0.1-1.6-0.4-2.2-0.6
			C44.2,18.9,42.4,17.4,41.5,15.4L41.5,15.4z M50.1,22.9c-0.3,0.3-0.7,0.5-1.1,0.7c0.3-0.7,0.5-1.6,0.6-2.6c0.1-0.7,0.2-1.6,0.4-2.5
			c0.7,0.2,1.4,0.4,2.1,0.5C51.6,20.7,51,22,50.1,22.9L50.1,22.9z M55.9,20.1c-0.1-0.1-0.3-0.1-0.4,0c-1,0.4-2,0.6-2.9,0.7
			c0.2-0.5,0.4-1,0.5-1.6c0.5,0.1,1,0.1,1.6,0.1c0.2,0,0.3,0,0.5,0c1.7-0.1,3.2-0.4,4.6-1.1c1.7,1.4,3.2,2.2,4.6,2.4
			C62.2,21.6,58.7,21.7,55.9,20.1L55.9,20.1z"/>
		<path d="M0.2,0v34.4c0,20,12.5,38.4,34.3,50.4l0.3,0.2l0.3-0.2c21.8-12,34.3-30.3,34.3-50.4V0H0.2L0.2,0z M2.9,46.1l31.9-23.3
			l31.9,23.3c-1.3,5-3.4,9.8-6.3,14.3L34.9,41.7L9.2,60.4C6.3,55.9,4.2,51.1,2.9,46.1L2.9,46.1z M34.9,83.6
			C24,77.6,15.6,70,9.9,61.4l25-18.2l25,18.2C54.1,70,45.7,77.6,34.9,83.6L34.9,83.6z M68.3,34.4c0,3.6-0.4,7.1-1.2,10.5L34.9,21.4
			L2.6,44.8c-0.8-3.4-1.2-6.9-1.2-10.5V1.2h66.9V34.4L68.3,34.4z"/>
		<path d="M48.8,64c-0.1-0.2-0.2-0.3-0.4-0.3l0,0c-0.2,0-0.4,0.1-0.5,0.3c-0.9,2.2-2.7,3.3-6.8,5.8c-1.1,0.6-2.1,1.3-3,2.1
			c-0.8,0.7-1.4,1.3-1.9,2.1c-0.1-0.6-0.2-3.8-0.4-5.6c0.3,0.3,0.8,0.5,1.2,0.5c0.1,0,0.2,0,0.2,0c0.8-0.2,1.2-1.3,1.2-1.8
			c0-0.3,0-0.6-0.1-1.1c0.3,0.3,0.6,0.6,0.8,0.7c0.3,0.2,0.8,0.3,1.2,0.3s0.7-0.1,1-0.3c0.6-0.5,0.5-1.7,0.3-2.1
			c-0.1-0.3-0.3-0.5-0.6-0.9c0.4,0.2,0.8,0.3,1.1,0.3c0.4,0,1.6-0.3,1.9-1c0.3-0.8-0.4-1.7-0.7-2c-0.2-0.2-0.5-0.3-1-0.5
			c0.5-0.1,0.8-0.1,1.1-0.3c0.4-0.2,1.3-1,1.2-1.8S43.4,57.1,43,57c-0.3-0.1-0.6-0.1-1.1,0c0.4-0.3,0.7-0.5,0.8-0.7
			c0.2-0.3,0.7-1.5,0.2-2.1c-0.4-0.6-1.3-0.6-1.5-0.6s-0.4,0-0.5,0.1c-0.3,0.1-0.6,0.2-1,0.5c0.2-0.4,0.3-0.7,0.4-1
			c0.1-0.4-0.1-1.6-0.8-2c-0.6-0.3-1.7,0.2-2.1,0.5c-0.2,0.2-0.4,0.5-0.6,0.9c0-0.4,0-0.8-0.1-1.1c-0.1-0.4-0.8-1.4-1.6-1.4
			s-1.5,0.9-1.6,1.4c-0.1,0.3-0.1,0.6-0.1,1.1c-0.2-0.4-0.4-0.7-0.6-0.9c-0.4-0.3-1.5-0.8-2.1-0.5c-0.7,0.4-0.9,1.6-0.8,2
			c0,0.3,0.2,0.6,0.4,1c-0.4-0.3-0.7-0.4-1-0.5c-0.1,0-0.3-0.1-0.5-0.1c-0.3,0-1.2,0-1.5,0.6c-0.5,0.7,0,1.8,0.2,2.1
			c0.2,0.2,0.4,0.5,0.8,0.7c-0.5-0.1-0.8-0.1-1.1,0c-0.4,0.1-1.5,0.7-1.6,1.4c-0.1,0.8,0.8,1.6,1.2,1.8c0.3,0.1,0.6,0.2,1.1,0.3
			c-0.4,0.2-0.7,0.3-1,0.5c-0.3,0.3-1,1.3-0.7,2s1.3,1,1.9,1l0,0c0.3,0,0.6-0.1,1.1-0.3c-0.3,0.3-0.5,0.6-0.6,0.9
			c-0.2,0.4-0.3,1.6,0.3,2.1c0.2,0.2,0.5,0.3,0.9,0.3c0.5,0,1-0.1,1.2-0.3c0.2-0.1,0.5-0.4,0.8-0.7c-0.1,0.5-0.2,0.8-0.1,1.1
			c0,0.4,0.5,1.6,1.2,1.8c0.4,0.1,1-0.1,1.4-0.5c-0.1,1.9-0.3,5-0.4,5.6c-0.5-0.9-1.1-1.4-1.9-2.1c-0.9-0.8-1.9-1.4-3-2.1
			c-4.1-2.5-5.9-3.6-6.8-5.8c-0.1-0.2-0.2-0.3-0.5-0.3l0,0c-0.2,0-0.4,0.1-0.4,0.3c-1.2,3.9,0.7,7.2,5.7,10c0.3,0.2,0.7,0.4,1.1,0.6
			l0.2,0.1c1.3,0.7,2.7,1.5,3.7,2.3c1.2,0.9,2.3,2.5,2.8,4.1c0.1,0.2,0.2,0.3,0.4,0.3l0,0l0,0l0,0l0,0c0.2,0,0.3-0.1,0.4-0.3
			c0.5-1.6,1.6-3.1,2.8-4.1c1.1-0.8,2.4-1.6,3.7-2.3l0.2-0.1c0.4-0.2,0.7-0.4,1.1-0.6C48.1,71.2,50,67.9,48.8,64L48.8,64z
			 M36.9,67.9L36.9,67.9L36.9,67.9c-0.2,0-0.7-0.3-0.9-0.6c-0.3-0.5-0.5-2.1-0.8-4l-0.1-0.8c0.3,0,0.5-0.1,0.8-0.2v0.1
			c0.8,2,1.5,3.8,1.4,4.6C37.4,67.2,37.1,67.8,36.9,67.9L36.9,67.9z M40.6,65.9L40.6,65.9c0,0.1-0.1,0.1-0.3,0.1s-0.6-0.1-0.7-0.1
			c-0.5-0.3-1.5-1.6-2.5-3.2L36.6,62c0.2-0.1,0.4-0.3,0.6-0.5l0,0c1.7,1.5,3.2,2.8,3.4,3.4C40.7,65.2,40.8,65.8,40.6,65.9L40.6,65.9
			z M42.5,61.6c0.2,0.2,0.5,0.7,0.5,0.9l0,0c-0.1,0.2-0.7,0.4-0.9,0.4l0,0l0,0c-0.6,0-2-0.8-3.7-1.6l-0.8-0.4
			c0.1-0.2,0.2-0.5,0.3-0.7H38C40.1,60.7,42,61.2,42.5,61.6L42.5,61.6z M42.6,57.8c0.2,0,0.8,0.4,0.8,0.6l0,0c0,0.2-0.4,0.7-0.7,0.8
			c-0.6,0.3-2.2,0.3-4.1,0.3h-0.8l0,0c0-0.3,0-0.5-0.1-0.8h0.1C40.1,58.1,42,57.7,42.6,57.8L42.6,57.8z M41,54.4c0.1,0,0.2,0,0.3,0
			c0.2,0,0.6,0.1,0.7,0.2l0,0c0.1,0.2-0.1,0.8-0.2,1c-0.4,0.5-1.8,1.3-3.5,2.1l-0.7,0.4c-0.1-0.2-0.3-0.5-0.5-0.7l0.1-0.1
			C38.9,55.9,40.3,54.6,41,54.4L41,54.4z M36,56.4c0.8-2,1.4-3.8,1.9-4.3c0.2-0.2,0.7-0.4,0.9-0.4h0.1l0,0c0.2,0.1,0.3,0.7,0.3,1
			c-0.1,0.6-1,1.9-2.1,3.5L36.6,57c-0.2-0.2-0.5-0.3-0.7-0.4L36,56.4L36,56.4z M34.2,51.6c0.1-0.2,0.5-0.7,0.7-0.7l0,0l0,0
			c0.2,0,0.6,0.5,0.7,0.7c0.2,0.6,0,2.2-0.2,4.1l0,0l-0.1,0.8c-0.1,0-0.3,0-0.4,0c-0.1,0-0.3,0-0.4,0v-0.1
			C34.2,54.2,33.9,52.2,34.2,51.6L34.2,51.6z M34.9,57.4c1.2,0,2.1,0.9,2.1,2.1c0,1.2-0.9,2.1-2.1,2.1c-1.2,0-2.1-0.9-2.1-2.1
			C32.7,58.3,33.7,57.4,34.9,57.4L34.9,57.4z M30.8,51.8h0.1c0.2,0,0.7,0.2,0.9,0.3c0.5,0.4,1,2,1.7,3.7l0.3,0.7
			c-0.3,0.1-0.5,0.2-0.7,0.4v-0.1c-1.3-1.8-2.4-3.4-2.5-4.1C30.5,52.6,30.7,51.9,30.8,51.8L30.8,51.8z M27.9,55.6
			c-0.2-0.2-0.3-0.8-0.2-1l0,0c0.1-0.1,0.5-0.2,0.8-0.2c0.1,0,0.2,0,0.3,0c0.6,0.2,1.8,1.3,3.3,2.5l0.6,0.5
			c-0.2,0.2-0.3,0.4-0.5,0.7h-0.1C30.1,57,28.4,56.1,27.9,55.6L27.9,55.6z M26.9,59.2c-0.2-0.1-0.7-0.6-0.7-0.8l0,0
			c0.1-0.2,0.6-0.6,0.8-0.6c0.1,0,0.2,0,0.3,0c0.8,0,2.2,0.4,3.7,0.7l0.8,0.2c-0.1,0.2-0.1,0.5-0.1,0.8l0,0h-0.2c-0.4,0-0.7,0-1.1,0
			C28.7,59.5,27.4,59.5,26.9,59.2L26.9,59.2z M27.7,62.9L27.7,62.9c-0.3,0-0.8-0.2-0.9-0.4l0,0c0-0.2,0.3-0.8,0.5-0.9
			c0.5-0.4,2.1-0.8,3.9-1.2l0.8-0.2c0.1,0.3,0.2,0.5,0.3,0.7L32,61C30.1,62,28.4,62.9,27.7,62.9L27.7,62.9z M30.1,65.9
			C30,66,29.6,66,29.4,66c-0.1,0-0.2,0-0.3,0l0,0c-0.1-0.2-0.1-0.8,0-1c0.2-0.6,1.4-1.6,2.8-2.9l0.7-0.6c0.2,0.2,0.4,0.4,0.6,0.5
			l-0.1,0.1C31.8,63.9,30.7,65.5,30.1,65.9L30.1,65.9z M32.8,67.9L32.8,67.9c-0.2-0.1-0.5-0.6-0.5-0.9c0-0.6,0.5-2.2,1.2-3.9
			l0.3-0.8c0.2,0.1,0.5,0.2,0.8,0.2v0.1c-0.3,2.2-0.5,4.1-0.9,4.7C33.5,67.5,33,67.9,32.8,67.9L32.8,67.9z M42.6,73.2
			c-0.4,0.2-0.8,0.5-1.3,0.7c-1.4,0.7-2.8,1.5-3.9,2.4c-1.1,0.9-2,2-2.6,3.4c-0.6-1.4-1.5-2.5-2.6-3.4c-1.1-0.9-2.5-1.6-3.9-2.4
			c-0.4-0.2-0.9-0.5-1.3-0.7c-4-2.3-5.8-4.8-5.5-7.6c1.2,1.9,3.3,3.1,6.5,5c1.4,0.8,2.5,1.5,3.4,2.4c0.8,0.8,1.6,1.7,2,2.8
			c0.1,0.4,0.3,0.5,0.5,0.5s0.4-0.1,0.4-0.5c0.1-1.1,0.4-5.9,0.5-7.4c0.1,1.5,0.4,6.3,0.5,7.4c0.1,0.4,0.2,0.5,0.4,0.5
			s0.3-0.1,0.5-0.5c0.4-1.1,1.2-2,2-2.8c0.9-0.9,2-1.6,3.4-2.4c3.2-1.9,5.3-3.2,6.5-5C48.4,68.4,46.6,70.9,42.6,73.2L42.6,73.2z"/>
	</g>
	<g>
		<path d="M94.4,15.5c-0.7,0.4-1.5,0.8-2.4,1.1c-0.9,0.3-2,0.5-3.1,0.5c-1.3,0-2.5-0.2-3.5-0.6c-1.1-0.4-2-1-2.8-1.8
			S81.2,13,80.8,12c-0.4-1.1-0.7-2.2-0.7-3.4s0.2-2.4,0.7-3.4c0.4-1.1,1.1-2,1.8-2.7c0.8-0.8,1.7-1.4,2.8-1.8
			C86.5,0.3,87.6,0,88.9,0C90-0.1,91,0.1,92,0.4c0.9,0.3,1.7,0.7,2.4,1.1L93.7,3c-0.7-0.4-1.5-0.7-2.4-1s-1.7-0.4-2.5-0.4
			c-1,0-2,0.2-2.8,0.5s-1.5,0.8-2.1,1.5c-0.6,0.6-1,1.3-1.3,2.2c-0.3,0.8-0.5,1.8-0.5,2.7s0.2,1.9,0.5,2.7s0.8,1.6,1.4,2.2
			c0.6,0.6,1.3,1.1,2.2,1.4c0.8,0.3,1.8,0.5,2.8,0.5c0.8,0,1.6-0.1,2.5-0.4c0.9-0.3,1.7-0.6,2.4-1L94.4,15.5z"/>
		<path d="M97.4,16.8V0.2h1.8v15h7.9v1.6H97.4z"/>
		<path d="M123.1,15.5c-0.7,0.4-1.5,0.8-2.4,1.1c-0.9,0.3-2,0.5-3.1,0.5c-1.3,0-2.5-0.2-3.5-0.6c-1.1-0.4-2-1-2.8-1.8
			s-1.4-1.7-1.8-2.7c-0.4-1.1-0.7-2.2-0.7-3.4s0.2-2.4,0.7-3.4c0.4-1.1,1.1-2,1.8-2.7c0.8-0.8,1.7-1.4,2.8-1.8
			c1.1-0.4,2.2-0.7,3.5-0.7c1.1,0,2.1,0.2,3.1,0.5c0.9,0.3,1.7,0.7,2.4,1.1l-0.7,1.5c-0.7-0.4-1.5-0.7-2.4-1s-1.7-0.4-2.5-0.4
			c-1,0-2,0.2-2.8,0.5s-1.5,0.8-2.1,1.5c-0.6,0.6-1,1.3-1.3,2.2c-0.3,0.8-0.5,1.8-0.5,2.7s0.2,1.9,0.5,2.7s0.8,1.6,1.4,2.2
			c0.6,0.6,1.3,1.1,2.2,1.4c0.8,0.3,1.8,0.5,2.8,0.5c0.8,0,1.6-0.1,2.5-0.4c0.9-0.3,1.7-0.6,2.4-1L123.1,15.5z"/>
		<path class="st4" d="M90.9,28.1c0,0.8-0.1,1.6-0.4,2.3c-0.3,0.7-0.7,1.3-1.3,1.8c-0.6,0.5-1.2,0.9-2,1.2s-1.7,0.4-2.7,0.4
			c-0.3,0-0.6,0-0.9,0s-0.7,0-0.9-0.1v5.9h-1.8V23.1c0.6-0.1,1.2-0.1,1.9-0.2c0.6-0.1,1.3-0.1,1.9-0.1c1.1,0,2,0.1,2.8,0.4
			s1.5,0.7,2,1.2s0.9,1,1.2,1.7C90.7,26.7,90.9,27.4,90.9,28.1z M88.9,28.2c0-0.5-0.1-1-0.3-1.4c-0.2-0.5-0.4-0.9-0.8-1.2
			c-0.4-0.3-0.8-0.6-1.3-0.8c-0.5-0.2-1.1-0.3-1.8-0.3c-0.4,0-0.8,0-1.2,0c-0.4,0-0.8,0.1-1.1,0.1V32c0.3,0,0.6,0.1,1,0.1s0.7,0,1,0
			c0.8,0,1.4-0.1,2-0.3c0.6-0.2,1-0.5,1.4-0.9s0.6-0.8,0.8-1.2C88.8,29.3,88.9,28.8,88.9,28.2z"/>
		<path class="st4" d="M103.8,39.5l-2-4.6h-7.4l-2,4.6h-1.9L98,22.6h0.3l7.5,16.9H103.8z M98.1,26.3L95,33.4h6.1L98.1,26.3z"/>
		<path class="st4" d="M117.4,39.5L113,33c-0.2,0-0.4,0-0.5,0c-0.2,0-0.4,0-0.6,0c-0.3,0-0.6,0-0.9,0c-0.4,0-0.7,0-0.9,0v6.6h-1.8
			V23.1c0.6-0.1,1.2-0.1,1.9-0.2c0.6-0.1,1.3-0.1,2-0.1c1.1,0,2,0.1,2.8,0.4c0.8,0.2,1.5,0.6,2,1s0.9,1,1.2,1.6
			c0.3,0.6,0.4,1.3,0.4,2c0,1.2-0.3,2.2-0.9,3s-1.5,1.4-2.7,1.8l4.8,6.9H117.4z M116.4,27.9c0-0.5-0.1-0.9-0.3-1.4
			c-0.2-0.4-0.4-0.8-0.8-1.1c-0.3-0.3-0.8-0.6-1.3-0.7c-0.5-0.2-1.1-0.3-1.8-0.3c-0.4,0-0.8,0-1.2,0c-0.4,0-0.8,0.1-1.1,0.1v6.8
			c0.3,0,0.6,0.1,1,0.1s0.7,0,1,0c1.6,0,2.7-0.3,3.4-1C116.1,29.9,116.4,29,116.4,27.9z"/>
		<path class="st4" d="M134.1,39.5l-2-4.6h-7.4l-2,4.6h-1.9l7.5-16.9h0.3l7.5,16.9H134.1z M128.4,26.3l-3.1,7.1h6.1L128.4,26.3z"/>
		<path class="st4" d="M148.2,35c0,0.6-0.1,1.2-0.4,1.7c-0.3,0.6-0.7,1.1-1.2,1.5s-1.1,0.8-1.9,1c-0.8,0.3-1.6,0.4-2.6,0.4
			c-0.7,0-1.4,0-2.1-0.1c-0.7-0.1-1.3-0.1-2-0.2V23.1c0.6-0.1,1.2-0.1,1.9-0.2c0.6-0.1,1.3-0.1,2-0.1c1,0,1.8,0.1,2.6,0.4
			c0.7,0.2,1.3,0.6,1.8,1s0.8,0.9,1.1,1.4c0.2,0.5,0.4,1,0.4,1.6c0,0.9-0.2,1.6-0.6,2.3c-0.4,0.7-1.2,1.2-2.3,1.6
			c0.6,0.2,1.2,0.4,1.6,0.7c0.4,0.3,0.8,0.6,1,1c0.3,0.4,0.4,0.7,0.6,1.2C148.2,34.2,148.2,34.6,148.2,35z M145.9,27.3
			c0-0.9-0.3-1.6-0.9-2.2c-0.6-0.5-1.5-0.8-2.8-0.8c-0.3,0-0.7,0-1.1,0c-0.4,0-0.8,0.1-1.1,0.1v5.7c0.2,0,0.5,0,0.9,0.1
			c0.4,0,0.7,0,1.1,0c0.7,0,1.3-0.1,1.8-0.2c0.5-0.2,0.9-0.4,1.2-0.7c0.3-0.3,0.5-0.6,0.7-1C145.9,28.1,145.9,27.7,145.9,27.3z
			 M146.3,34.9c0-0.4-0.1-0.8-0.3-1.2s-0.5-0.7-0.8-1c-0.4-0.3-0.8-0.5-1.4-0.7c-0.5-0.2-1.2-0.3-1.9-0.3c-0.2,0-0.3,0-0.5,0
			s-0.4,0-0.6,0c-0.2,0-0.4,0-0.5,0c-0.2,0-0.3,0-0.4,0v6.1c0.3,0.1,0.7,0.1,1.2,0.1s0.9,0,1.3,0c0.6,0,1.2-0.1,1.7-0.2
			c0.5-0.2,0.9-0.4,1.2-0.7s0.6-0.6,0.7-1C146.3,35.8,146.3,35.3,146.3,34.9z"/>
		<path class="st4" d="M167.3,31.2c0,1.2-0.2,2.4-0.7,3.4c-0.5,1.1-1.1,2-1.8,2.7c-0.8,0.8-1.7,1.4-2.7,1.8c-1,0.4-2.1,0.6-3.2,0.6
			c-1.1,0-2.2-0.2-3.2-0.6c-1-0.4-1.9-1-2.6-1.8c-0.7-0.8-1.3-1.7-1.8-2.7c-0.4-1.1-0.6-2.2-0.6-3.4c0-1.3,0.2-2.4,0.7-3.5
			s1.1-2,1.8-2.7c0.8-0.8,1.7-1.3,2.7-1.8c1-0.4,2.1-0.6,3.2-0.6c1.1,0,2.2,0.2,3.2,0.6s1.9,1,2.6,1.8c0.7,0.8,1.3,1.7,1.8,2.7
			C167,28.8,167.3,30,167.3,31.2z M165.3,31.2c0-1-0.2-1.9-0.5-2.7c-0.3-0.8-0.7-1.6-1.3-2.2s-1.2-1.1-2-1.5s-1.6-0.5-2.5-0.5
			s-1.8,0.2-2.6,0.5c-0.8,0.4-1.4,0.8-2,1.5c-0.6,0.6-1,1.4-1.3,2.2c-0.3,0.8-0.5,1.8-0.5,2.7c0,1,0.2,1.9,0.5,2.7s0.7,1.6,1.3,2.2
			c0.6,0.6,1.2,1.1,2,1.5s1.6,0.5,2.6,0.5c0.9,0,1.8-0.2,2.5-0.5c0.8-0.4,1.4-0.8,2-1.5c0.6-0.6,1-1.4,1.3-2.2
			C165.1,33.1,165.3,32.2,165.3,31.2z"/>
		<path class="st4" d="M170.3,39.5V22.9h1.8v15h7.9v1.6H170.3z"/>
		<path class="st4" d="M194.7,39.5l-2-4.6h-7.4l-2,4.6h-1.9l7.5-16.9h0.3l7.5,16.9H194.7z M189,26.3l-3.1,7.1h6.1L189,26.3z"/>
		<path class="st4" d="M92.2,62.3l-2-4.6h-7.4l-2,4.6H79l7.5-16.9h0.3l7.5,16.9C94.3,62.3,92.2,62.3,92.2,62.3z M86.5,49l-3.1,7.1
			h6.1L86.5,49z"/>
		<path class="st4" d="M105.8,62.3l-4.4-6.6c-0.2,0-0.4,0-0.5,0c-0.2,0-0.4,0-0.6,0c-0.3,0-0.6,0-0.9,0c-0.4,0-0.7,0-0.9,0v6.6h-1.8
			V45.8c0.6-0.1,1.2-0.1,1.9-0.2c0.6-0.1,1.3-0.1,2-0.1c1.1,0,2,0.1,2.8,0.4c0.8,0.2,1.5,0.6,2,1s0.9,1,1.2,1.6
			c0.3,0.6,0.4,1.3,0.4,2c0,1.2-0.3,2.2-0.9,3s-1.5,1.4-2.7,1.8l4.8,6.9L105.8,62.3L105.8,62.3z M104.8,50.6c0-0.5-0.1-0.9-0.3-1.4
			c-0.2-0.4-0.4-0.8-0.8-1.1c-0.3-0.3-0.8-0.6-1.3-0.7c-0.5-0.2-1.1-0.3-1.8-0.3c-0.4,0-0.8,0-1.2,0c-0.4,0-0.8,0.1-1.1,0.1V54
			c0.3,0,0.6,0.1,1,0.1s0.7,0,1,0c1.6,0,2.7-0.3,3.4-1C104.5,52.6,104.8,51.7,104.8,50.6z"/>
		<path class="st4" d="M115.2,47.3v15h-1.8v-15h-5.6v-1.6h12.9v1.6H115.2z"/>
		<path class="st4" d="M131.3,57.8c0,0.7-0.1,1.3-0.4,1.9c-0.3,0.6-0.6,1.1-1.1,1.5s-1,0.8-1.6,1c-0.6,0.2-1.3,0.4-2,0.4
			c-1,0-1.8-0.1-2.6-0.4c-0.8-0.3-1.5-0.7-2.2-1.1l0.9-1.6c0.6,0.5,1.3,0.8,2,1.1s1.4,0.4,2,0.4c0.5,0,1-0.1,1.4-0.2
			c0.4-0.2,0.7-0.4,1-0.6c0.3-0.3,0.4-0.6,0.6-0.9c0.1-0.3,0.2-0.7,0.2-1.1c0-0.4,0-0.7-0.1-1s-0.3-0.6-0.5-0.9
			c-0.2-0.3-0.6-0.5-1-0.8c-0.4-0.3-1-0.5-1.7-0.8s-1.3-0.6-1.8-1c-0.5-0.3-0.9-0.7-1.2-1c-0.3-0.4-0.5-0.8-0.7-1.2
			c-0.1-0.4-0.2-0.9-0.2-1.4c0-0.6,0.1-1.2,0.4-1.7c0.2-0.5,0.6-1,1-1.4s1-0.7,1.6-1c0.6-0.2,1.3-0.4,2.1-0.4c0.7,0,1.4,0.1,2,0.3
			s1.2,0.5,1.7,0.8l-0.8,1.5c-0.4-0.3-0.9-0.5-1.4-0.7s-1.1-0.3-1.6-0.3s-1,0.1-1.4,0.2c-0.4,0.2-0.7,0.4-1,0.6
			c-0.3,0.2-0.5,0.5-0.6,0.9c-0.1,0.3-0.2,0.7-0.2,1.1c0,0.6,0.2,1.1,0.6,1.6s1.2,1,2.2,1.4c0.9,0.4,1.6,0.8,2.2,1.1
			c0.6,0.4,1,0.7,1.4,1.1c0.3,0.4,0.6,0.8,0.7,1.2C131.3,56.7,131.3,57.2,131.3,57.8z"/>
		<path class="st4" d="M94.4,83.7c-0.7,0.4-1.5,0.8-2.4,1.1c-0.9,0.3-2,0.5-3.1,0.5c-1.3,0-2.5-0.2-3.5-0.6c-1.1-0.4-2-1-2.8-1.8
			s-1.4-1.7-1.8-2.7s-0.7-2.2-0.7-3.4c0-1.2,0.2-2.4,0.7-3.4c0.4-1.1,1.1-2,1.8-2.7c0.8-0.8,1.7-1.4,2.8-1.8
			c1.1-0.4,2.2-0.7,3.5-0.7c1.1,0,2.1,0.2,3.1,0.5c0.9,0.3,1.7,0.7,2.4,1.1l-0.7,1.5c-0.7-0.4-1.5-0.7-2.4-1s-1.7-0.4-2.5-0.4
			c-1,0-2,0.2-2.8,0.5s-1.5,0.8-2.1,1.5c-0.6,0.6-1,1.3-1.3,2.2c-0.3,0.8-0.5,1.8-0.5,2.7c0,1,0.2,1.9,0.5,2.7
			c0.3,0.8,0.8,1.6,1.4,2.2s1.3,1.1,2.2,1.4c0.8,0.3,1.8,0.5,2.8,0.5c0.8,0,1.6-0.1,2.5-0.4s1.7-0.6,2.4-1L94.4,83.7z"/>
		<path class="st4" d="M97.3,85V68.4h9.7V70h-7.9v5.7h7.1v1.6h-7.1v6h7.9V85H97.3z"/>
		<path class="st4" d="M122.9,85.3l-10.8-12.9V85h-1.8V68.1l0.4-0.1l10.7,12.7V68.4h1.8v16.9H122.9z"/>
		<path class="st4" d="M132.9,70v15h-1.8V70h-5.6v-1.6h12.9V70H132.9z"/>
		<path class="st4" d="M150.1,85l-4.4-6.6c-0.2,0-0.4,0-0.5,0c-0.2,0-0.4,0-0.6,0c-0.3,0-0.6,0-0.9,0c-0.4,0-0.7,0-0.9,0V85H141
			V68.5c0.6-0.1,1.2-0.1,1.9-0.2c0.6-0.1,1.3-0.1,2-0.1c1.1,0,2,0.1,2.8,0.4c0.8,0.2,1.5,0.6,2,1s0.9,1,1.2,1.6s0.4,1.3,0.4,2
			c0,1.2-0.3,2.2-0.9,3c-0.6,0.8-1.5,1.4-2.7,1.8l4.8,6.9L150.1,85L150.1,85z M149.1,73.3c0-0.5-0.1-0.9-0.3-1.4
			c-0.2-0.4-0.4-0.8-0.8-1.1c-0.3-0.3-0.8-0.6-1.3-0.7c-0.5-0.2-1.1-0.3-1.8-0.3c-0.4,0-0.8,0-1.2,0s-0.8,0.1-1.1,0.1v6.8
			c0.3,0,0.6,0.1,1,0.1s0.7,0,1,0c1.6,0,2.7-0.3,3.4-1C148.7,75.3,149.1,74.4,149.1,73.3z"/>
		<path class="st4" d="M154.3,85V68.4h9.7V70h-7.9v5.7h7.1v1.6h-7.1v6h7.9V85H154.3z"/>
	</g>
</g>
</svg>
