<?xml version="1.0" encoding="utf-8"?>
<!-- Generator: Adobe Illustrator 20.1.0, SVG Export Plug-In . SVG Version: 6.00 Build 0)  -->
<svg version="1.1" id="Layer_2" xmlns="http://www.w3.org/2000/svg" xmlns:xlink="http://www.w3.org/1999/xlink" x="0px" y="0px"
	 viewBox="0 0 234.3 85.2" style="enable-background:new 0 0 234.3 85.2;" xml:space="preserve">
<style type="text/css">
	.st0{fill:#FFFFFF;}
	.st1{fill:#019CDB;}
</style>
<g>
	<path class="st0" d="M40.9,31.2c-0.1-0.2-0.3-0.3-0.5-0.3h-4.3l-1.3-4.1c-0.1-0.2-0.3-0.3-0.5-0.3c-0.2,0-0.4,0.1-0.5,0.3l-1.3,4.1
		h-4.3c-0.2,0-0.4,0.1-0.5,0.3c-0.1,0.2,0,0.4,0.2,0.5l3.4,2.5l-1.3,4.1c-0.1,0.2,0,0.4,0.2,0.5c0.1,0.1,0.2,0.1,0.3,0.1
		c0.1,0,0.2,0,0.3-0.1l3.5-2.5l3.4,2.5c0.2,0.1,0.4,0.1,0.6,0c0.2-0.1,0.2-0.3,0.2-0.5l-1.3-4.1l3.4-2.5
		C40.9,31.7,41,31.4,40.9,31.2L40.9,31.2z M34.7,35.4c-0.2-0.1-0.4-0.1-0.6,0l-2.5,1.8l1-3c0.1-0.2,0-0.4-0.2-0.5l-2.5-1.8H33
		c0.2,0,0.4-0.1,0.5-0.3l1-3l1,3c0.1,0.2,0.3,0.3,0.5,0.3h3.1l-2.5,1.8c-0.2,0.1-0.2,0.3-0.2,0.5l1,3L34.7,35.4L34.7,35.4z"/>
	<path class="st0" d="M23.4,42.9c-0.1-0.2-0.3-0.3-0.5-0.3h-4.3l-1.3-4.1c-0.1-0.2-0.3-0.3-0.5-0.3c-0.2,0-0.4,0.1-0.5,0.3l-1.3,4.1
		h-4.3c-0.2,0-0.4,0.1-0.5,0.3c-0.1,0.2,0,0.4,0.2,0.5L14,46L12.7,50c-0.1,0.2,0,0.4,0.2,0.5c0.1,0.1,0.2,0.1,0.3,0.1
		c0.1,0,0.2,0,0.3-0.1l3.5-2.5l3.4,2.5c0.2,0.1,0.4,0.1,0.6,0c0.2-0.1,0.2-0.3,0.2-0.5L19.8,46l3.4-2.5
		C23.4,43.4,23.5,43.1,23.4,42.9L23.4,42.9z M17.2,47.1c-0.2-0.1-0.4-0.1-0.6,0l-2.5,1.8l1-3c0.1-0.2,0-0.4-0.2-0.5l-2.5-1.8h3.1
		c0.2,0,0.4-0.1,0.5-0.3l1-3l1,3c0.1,0.2,0.3,0.3,0.5,0.3h3.1l-2.5,1.8c-0.2,0.1-0.2,0.3-0.2,0.5l1,3L17.2,47.1L17.2,47.1z"/>
	<path class="st0" d="M45.7,43.5l3.4,2.5L47.8,50c-0.1,0.2,0,0.4,0.2,0.5c0.2,0.1,0.4,0.1,0.6,0l3.4-2.5l3.5,2.5
		c0.1,0.1,0.2,0.1,0.3,0.1c0.1,0,0.2,0,0.3-0.1c0.2-0.1,0.2-0.3,0.2-0.5L54.9,46l3.4-2.5c0.2-0.1,0.2-0.3,0.2-0.5
		c-0.1-0.2-0.3-0.3-0.5-0.3h-4.3l-1.3-4.1c-0.1-0.2-0.3-0.3-0.5-0.3c-0.2,0-0.4,0.1-0.5,0.3l-1.3,4.1h-4.3c-0.2,0-0.4,0.1-0.5,0.3
		C45.4,43.1,45.5,43.4,45.7,43.5L45.7,43.5z M49.2,48.9l1-3c0.1-0.2,0-0.4-0.2-0.5l-2.5-1.8h3.1c0.2,0,0.4-0.1,0.5-0.3l1-3l1,3
		c0.1,0.2,0.3,0.3,0.5,0.3h3.1L54,45.4c-0.2,0.1-0.2,0.3-0.2,0.5l1,3l-2.5-1.8c-0.2-0.1-0.4-0.1-0.6,0L49.2,48.9L49.2,48.9z"/>
	<path class="st0" d="M32.3,19.8c-0.1-0.2-0.3-0.3-0.5-0.3c-1.6,0.3-3.2-0.3-5.2-1.9c2.1-1.3,3.6-3.2,4.2-5.5
		c0.1-0.2-0.1-0.5-0.3-0.6c-0.7-0.2-1.6-0.4-2.6-0.5c0.4-0.7,0.6-1.6,0.7-2.4c0-0.2-0.1-0.5-0.4-0.5c-2.9-0.8-7.5-0.1-10.3,2.5
		c-1.1-0.8-2.3-1.3-3.6-1.6c-0.1-0.3-0.2-0.5-0.2-0.8c-0.4-1.6-0.8-3.1-2.2-4c-1.2-0.8-2.6-1-3.9-0.6C7.1,3.9,6.4,4.6,6,5.4
		c-1.3,0-2.4,0.5-3.2,1.1C2.7,6.6,2.6,6.9,2.7,7.1C2.8,7.2,3,7.4,3.2,7.4c2-0.1,3.2,0.3,3.2,0.8c0,0.2-0.1,0.6-0.2,1
		c-0.4,1.1-0.9,2.7-0.4,4.9c0.2,0.7,0.4,1.3,0.7,2c0,0,0,0,0,0l0,0c1.1,2.1,3,3.9,5.5,4.8c0.6,0.2,1.6,0.5,2.4,0.6
		c-0.3,1.8-0.5,2.4-1.6,2.5c-0.5,0-1.1,0-1.5-0.2c-0.2-0.1-0.5,0-0.7,0.2c-0.1,0.2,0,0.5,0.2,0.7c0.4,0.2,0.8,0.3,1.3,0.3
		c0,0,0.1,0,0.1,0c0.5,0,1.2,0,1.3,0l0.6-0.1c1.3-0.1,2.9-0.2,3.9,0.3c0.1,0,0.1,0,0.2,0c0.2,0,0.4-0.1,0.4-0.3
		c0.1-0.2,0-0.5-0.2-0.7c-0.6-0.3-1.3-0.4-2-0.4c0.1-0.1,0.1-0.1,0.2-0.2c0.5-0.5,1-1.1,1.4-1.9c1.2,0,2.6-0.4,3.4-0.7
		c1.6,0.9,3.4,1.3,5,1.3c2.4,0,4.5-0.8,5.8-2C32.4,20.2,32.4,20,32.3,19.8L32.3,19.8z M27.5,8.9c-0.1,0.8-0.4,1.4-0.7,2
		c-1.4-0.1-2.9,0.1-4.1,0.7c-1.1,0.5-2.3,1.2-3,2.6c-0.9-0.1-1.8-0.4-2.5-0.8C18.7,9.7,24.2,8.2,27.5,8.9L27.5,8.9z M26.1,11.9
		c-1.3,1.5-3.3,2.3-5.2,2.4c0,0,0,0-0.1,0c0.5-0.7,1.2-1.3,2.3-1.8C23.9,12.1,25,12,26.1,11.9L26.1,11.9z M16.3,12.8
		c-0.7-0.7-1.3-1.6-1.7-2.7c0.9,0.3,1.8,0.7,2.6,1.2C16.9,11.8,16.6,12.3,16.3,12.8L16.3,12.8z M4.3,6.6c1.2-0.4,3-0.4,4.3,0.3
		c0,0,0,0,0,0c0.7,0.4,1,0.4,1.3,0.2c0.2-0.1,0.4-0.3,0.4-0.7c0-0.5-0.4-0.8-0.8-0.8C9.2,5.7,8.9,5.8,8.8,6C8.3,5.7,7.7,5.5,7.1,5.4
		C7.4,5,7.8,4.7,8.3,4.6c0.9-0.3,2-0.1,3,0.5c1,0.7,1.4,1.9,1.8,3.4c0.1,0.5,0.3,1.1,0.5,1.6c1.1,3.4,3.6,5.2,7.1,5.2
		c0.1,0,0.1,0,0.2,0c2.7,0,5.1-1.3,6.4-3.3c0.8,0.1,1.7,0.2,2.4,0.4c-1,3.4-4.5,5.7-8.7,5.9c-5.8,0.2-9.9-2.8-11-8
		c0-0.1-0.1-0.3-0.2-0.3c-0.1-0.1-0.3-0.1-0.4,0C7.8,10.3,7,11.2,6.6,12c0.1-1,0.3-1.8,0.6-2.5c0.2-0.6,0.3-1,0.3-1.4
		C7.3,7.2,6.2,6.5,4.3,6.6L4.3,6.6z M7.4,15.5c-0.4-0.8-0.4-1.9-0.1-2.7c0.3-0.8,1-1.4,1.9-1.8c0.9,3.4,2.9,5.8,5.8,7.1
		c-0.2,0.9-0.3,1.7-0.4,2.4c-0.8-0.1-1.6-0.4-2.2-0.6C10.1,19,8.3,17.4,7.4,15.5L7.4,15.5z M16,22.9c-0.3,0.3-0.7,0.5-1.1,0.7
		c0.3-0.7,0.5-1.6,0.6-2.6c0.1-0.7,0.2-1.6,0.4-2.5c0.7,0.2,1.4,0.4,2.1,0.5C17.5,20.8,16.8,22.1,16,22.9L16,22.9z M21.7,20.1
		c-0.1-0.1-0.3-0.1-0.4,0c-1,0.4-2,0.6-2.9,0.7c0.2-0.5,0.4-1,0.5-1.6c0.5,0.1,1,0.1,1.6,0.1c0.2,0,0.3,0,0.5,0
		c1.7-0.1,3.2-0.4,4.6-1.1c1.7,1.4,3.2,2.2,4.6,2.4C28.1,21.7,24.6,21.8,21.7,20.1L21.7,20.1z"/>
	<path class="st0" d="M66.1,19.8c-0.1-0.2-0.3-0.3-0.5-0.3c-1.6,0.3-3.2-0.3-5.2-1.9c2.1-1.3,3.6-3.2,4.2-5.5
		c0.1-0.2-0.1-0.5-0.3-0.6c-0.7-0.2-1.6-0.4-2.6-0.5c0.4-0.7,0.6-1.6,0.7-2.4c0-0.2-0.1-0.5-0.4-0.5c-2.9-0.8-7.5-0.1-10.3,2.5
		C50.6,9.9,49.3,9.3,48,9c-0.1-0.3-0.2-0.5-0.2-0.8c-0.4-1.6-0.8-3.1-2.2-4c-1.2-0.8-2.6-1-3.9-0.6c-0.9,0.3-1.6,0.9-2,1.7
		c-1.3,0-2.4,0.5-3.2,1.1c-0.2,0.1-0.2,0.4-0.1,0.6c0.1,0.2,0.3,0.3,0.5,0.3c2-0.1,3.2,0.3,3.2,0.8c0,0.2-0.1,0.6-0.2,1
		c-0.4,1.1-0.9,2.7-0.4,4.9c0.2,0.7,0.4,1.3,0.7,2c0,0,0,0,0,0c0,0,0,0,0,0c1.1,2.1,3,3.9,5.5,4.8c0.6,0.2,1.6,0.5,2.4,0.6
		c-0.3,1.8-0.5,2.4-1.6,2.5c-0.5,0-1.1,0-1.5-0.2c-0.2-0.1-0.5,0-0.7,0.2c-0.1,0.2,0,0.5,0.2,0.7c0.4,0.2,0.8,0.3,1.3,0.3
		c0,0,0.1,0,0.1,0c0.5,0,1.2,0,1.3,0l0.6-0.1c1.3-0.1,2.9-0.2,3.9,0.3c0.1,0,0.1,0,0.2,0c0.2,0,0.4-0.1,0.4-0.3
		c0.1-0.2,0-0.5-0.2-0.7c-0.6-0.3-1.3-0.4-2-0.4c0.1-0.1,0.1-0.1,0.2-0.2c0.5-0.5,1-1.1,1.4-1.9c1.2,0,2.6-0.4,3.4-0.7
		c1.6,0.9,3.4,1.3,5,1.3c2.4,0,4.5-0.8,5.8-2C66.2,20.2,66.2,20,66.1,19.8L66.1,19.8z M61.3,8.9c-0.1,0.8-0.4,1.4-0.7,2
		c-1.4-0.1-2.9,0.1-4.1,0.7c-1.1,0.5-2.3,1.2-3.1,2.6c-0.9-0.1-1.8-0.4-2.5-0.8C52.5,9.7,57.9,8.2,61.3,8.9L61.3,8.9z M59.8,11.9
		c-1.3,1.5-3.3,2.3-5.2,2.4c0,0,0,0-0.1,0c0.5-0.7,1.2-1.3,2.3-1.8C57.7,12.1,58.7,12,59.8,11.9L59.8,11.9z M50.1,12.8
		c-0.7-0.7-1.3-1.6-1.7-2.7c0.9,0.3,1.8,0.7,2.6,1.2C50.6,11.8,50.3,12.3,50.1,12.8L50.1,12.8z M38.1,6.6c1.2-0.4,3-0.4,4.3,0.3
		c0,0,0,0,0,0c0.7,0.4,1,0.4,1.3,0.2C43.8,7,44,6.8,44,6.5c0-0.5-0.4-0.8-0.8-0.8c-0.3,0-0.5,0.1-0.6,0.3c-0.6-0.3-1.1-0.4-1.7-0.5
		c0.3-0.4,0.7-0.7,1.2-0.8c0.9-0.3,2-0.1,3,0.5c1,0.7,1.4,1.9,1.8,3.4c0.1,0.5,0.3,1.1,0.5,1.6c1.1,3.4,3.6,5.2,7.1,5.2
		c0.1,0,0.1,0,0.2,0c2.7,0,5.1-1.3,6.4-3.3c0.8,0.1,1.7,0.2,2.4,0.4c-1,3.4-4.5,5.7-8.7,5.9c-5.8,0.2-9.9-2.8-11-8
		c0-0.1-0.1-0.3-0.2-0.3c-0.1-0.1-0.3-0.1-0.4,0c-1.5,0.5-2.3,1.4-2.8,2.1c0.1-1,0.3-1.8,0.6-2.5c0.2-0.6,0.3-1,0.3-1.4
		C41.1,7.2,39.9,6.5,38.1,6.6L38.1,6.6z M41.1,15.5c-0.4-0.8-0.5-1.9-0.1-2.7c0.3-0.8,1-1.4,1.9-1.8c0.9,3.4,2.9,5.8,5.8,7.1
		c-0.2,0.9-0.3,1.7-0.4,2.4c-0.8-0.1-1.6-0.4-2.2-0.6C43.8,19,42.1,17.4,41.1,15.5L41.1,15.5z M49.7,22.9c-0.3,0.3-0.7,0.5-1.1,0.7
		c0.3-0.7,0.5-1.6,0.6-2.6c0.1-0.7,0.2-1.6,0.4-2.5c0.7,0.2,1.4,0.4,2.1,0.5C51.3,20.8,50.6,22.1,49.7,22.9L49.7,22.9z M55.5,20.1
		c-0.1-0.1-0.3-0.1-0.4,0c-1,0.4-2,0.6-2.9,0.7c0.2-0.5,0.4-1,0.5-1.6c0.5,0.1,1,0.1,1.6,0.1c0.2,0,0.3,0,0.5,0
		c1.7-0.1,3.2-0.4,4.6-1.1c1.7,1.4,3.2,2.2,4.6,2.4C61.8,21.7,58.3,21.8,55.5,20.1L55.5,20.1z"/>
	<path class="st0" d="M-0.1,0v34.4c0,20,12.5,38.4,34.3,50.4l0.3,0.2l0.3-0.2c21.8-12,34.3-30.3,34.3-50.4V0H-0.1L-0.1,0z M2.6,46.1
		l31.9-23.3l31.9,23.3c-1.3,5-3.4,9.8-6.3,14.3L34.5,41.8L8.8,60.5C6,55.9,3.9,51.1,2.6,46.1L2.6,46.1z M34.5,83.6
		c-10.8-6-19.3-13.6-25-22.1l25-18.2l25,18.2C53.7,70,45.3,77.6,34.5,83.6L34.5,83.6z M67.9,34.4c0,3.6-0.4,7.1-1.2,10.5L34.5,21.4
		L2.3,44.9C1.5,41.5,1.1,38,1.1,34.4V1.2h66.9V34.4L67.9,34.4z"/>
	<path class="st0" d="M48.4,64.1c-0.1-0.2-0.2-0.3-0.4-0.3c0,0,0,0,0,0c-0.2,0-0.4,0.1-0.5,0.3c-0.9,2.2-2.7,3.3-6.8,5.8
		c-1.1,0.6-2.1,1.3-3,2.1c-0.8,0.7-1.4,1.3-1.9,2.1c-0.1-0.6-0.2-3.8-0.4-5.6c0.3,0.3,0.8,0.5,1.2,0.5c0.1,0,0.2,0,0.2,0
		c0.8-0.2,1.2-1.3,1.2-1.8c0-0.3,0-0.6-0.1-1.1c0.3,0.3,0.6,0.6,0.8,0.7c0.3,0.2,0.8,0.3,1.2,0.3c0.4,0,0.7-0.1,1-0.3
		c0.6-0.5,0.5-1.7,0.3-2.1c-0.1-0.3-0.3-0.5-0.6-0.9c0.4,0.2,0.8,0.3,1.1,0.3c0.4,0,1.6-0.3,1.9-1c0.3-0.8-0.4-1.7-0.7-2
		c-0.2-0.2-0.5-0.3-1-0.5c0.5-0.1,0.8-0.1,1.1-0.3c0.4-0.2,1.3-1,1.2-1.8c-0.1-0.8-1.2-1.3-1.6-1.4c-0.3-0.1-0.6-0.1-1.1,0
		c0.4-0.3,0.7-0.5,0.8-0.7c0.2-0.3,0.7-1.5,0.2-2.1c-0.4-0.6-1.3-0.6-1.5-0.6c-0.2,0-0.4,0-0.5,0.1c-0.3,0.1-0.6,0.2-1,0.5
		c0.2-0.4,0.3-0.7,0.4-1c0.1-0.4-0.1-1.6-0.8-2c-0.6-0.3-1.7,0.2-2.1,0.5c-0.2,0.2-0.4,0.5-0.6,0.9c0-0.4,0-0.8-0.1-1.1
		c-0.1-0.4-0.8-1.4-1.6-1.4c-0.8,0-1.5,0.9-1.6,1.4c-0.1,0.3-0.1,0.6-0.1,1.1c-0.2-0.4-0.4-0.7-0.6-0.9c-0.4-0.3-1.5-0.8-2.1-0.5
		c-0.7,0.4-0.9,1.6-0.8,2c0,0.3,0.2,0.6,0.4,1c-0.4-0.3-0.7-0.4-1-0.5c-0.1,0-0.3-0.1-0.5-0.1c-0.3,0-1.2,0-1.5,0.6
		c-0.5,0.7,0,1.8,0.2,2.1c0.2,0.2,0.4,0.5,0.8,0.7c-0.5-0.1-0.8-0.1-1.1,0c-0.4,0.1-1.5,0.7-1.6,1.4c-0.1,0.8,0.8,1.6,1.2,1.8
		c0.3,0.1,0.6,0.2,1.1,0.3c-0.4,0.2-0.7,0.3-1,0.5c-0.3,0.3-1,1.3-0.7,2c0.3,0.7,1.3,1,1.9,1c0,0,0,0,0,0c0.3,0,0.6-0.1,1.1-0.3
		c-0.3,0.3-0.5,0.6-0.6,0.9c-0.2,0.4-0.3,1.6,0.3,2.1c0.2,0.2,0.5,0.3,0.9,0.3c0.5,0,1-0.1,1.2-0.3c0.2-0.1,0.5-0.4,0.8-0.7
		c-0.1,0.5-0.2,0.8-0.1,1.1c0,0.4,0.5,1.6,1.2,1.8c0.4,0.1,1-0.1,1.4-0.5c-0.1,1.9-0.3,5-0.4,5.6c-0.5-0.9-1.1-1.4-1.9-2.1
		c-0.9-0.8-1.9-1.4-3-2.1c-4.1-2.5-5.9-3.6-6.8-5.8c-0.1-0.2-0.2-0.3-0.5-0.3c0,0,0,0,0,0c-0.2,0-0.4,0.1-0.4,0.3
		c-1.2,3.9,0.7,7.2,5.7,10c0.3,0.2,0.7,0.4,1.1,0.6l0.2,0.1c1.3,0.7,2.7,1.5,3.7,2.3c1.2,0.9,2.3,2.5,2.8,4.1
		c0.1,0.2,0.2,0.3,0.4,0.3v0c0,0,0,0,0,0c0,0,0,0,0,0v0c0.2,0,0.3-0.1,0.4-0.3c0.5-1.6,1.6-3.1,2.8-4.1c1.1-0.8,2.4-1.6,3.7-2.3
		l0.2-0.1c0.4-0.2,0.7-0.4,1.1-0.6C47.7,71.2,49.6,67.9,48.4,64.1L48.4,64.1z M36.6,67.9L36.6,67.9L36.6,67.9
		c-0.2,0-0.7-0.3-0.9-0.6c-0.3-0.5-0.5-2.1-0.8-4l-0.1-0.8c0.3,0,0.5-0.1,0.8-0.2l0,0.1c0.8,2,1.5,3.8,1.4,4.6
		C37,67.3,36.8,67.9,36.6,67.9L36.6,67.9z M40.3,66L40.3,66c-0.1,0.1-0.2,0.1-0.3,0.1c-0.2,0-0.6-0.1-0.7-0.1
		c-0.5-0.3-1.5-1.6-2.5-3.2l-0.5-0.7c0.2-0.1,0.4-0.3,0.6-0.5l0,0c1.7,1.5,3.2,2.8,3.4,3.4C40.4,65.2,40.4,65.8,40.3,66L40.3,66z
		 M42.2,61.7c0.2,0.2,0.5,0.7,0.5,0.9l0,0c-0.1,0.2-0.7,0.4-0.9,0.4h0h0c-0.6,0-2-0.8-3.7-1.6L37.2,61c0.1-0.2,0.2-0.5,0.3-0.7
		l0.1,0C39.7,60.8,41.6,61.2,42.2,61.7L42.2,61.7z M42.3,57.9c0.2,0,0.8,0.4,0.8,0.6l0,0c0,0.2-0.4,0.7-0.7,0.8
		c-0.6,0.3-2.2,0.3-4.1,0.3l-0.8,0c0,0,0,0,0,0c0-0.3,0-0.5-0.1-0.8l0.1,0C39.8,58.2,41.6,57.7,42.3,57.9L42.3,57.9z M40.6,54.5
		c0.1,0,0.2,0,0.3,0c0.2,0,0.6,0.1,0.7,0.2l0,0c0.1,0.2-0.1,0.8-0.2,1c-0.4,0.5-1.8,1.3-3.5,2.1l-0.7,0.4c-0.1-0.2-0.3-0.5-0.5-0.7
		l0.1-0.1C38.5,55.9,39.9,54.7,40.6,54.5L40.6,54.5z M35.6,56.5c0.8-2,1.4-3.8,1.9-4.3c0.2-0.2,0.7-0.4,0.9-0.4c0,0,0.1,0,0.1,0l0,0
		c0.2,0.1,0.3,0.7,0.3,1c-0.1,0.6-1,1.9-2.1,3.5L36.2,57c-0.2-0.2-0.5-0.3-0.7-0.4L35.6,56.5L35.6,56.5z M33.8,51.6
		c0.1-0.2,0.5-0.7,0.7-0.7l0,0l0,0c0.2,0,0.6,0.5,0.7,0.7c0.2,0.6,0,2.2-0.2,4.1l0,0l-0.1,0.8c-0.1,0-0.3,0-0.4,0
		c-0.1,0-0.3,0-0.4,0l0-0.1C33.8,54.2,33.5,52.3,33.8,51.6L33.8,51.6z M34.5,57.4c1.2,0,2.1,0.9,2.1,2.1c0,1.2-0.9,2.1-2.1,2.1
		c-1.2,0-2.1-0.9-2.1-2.1C32.4,58.4,33.3,57.4,34.5,57.4L34.5,57.4z M30.4,51.9c0,0,0.1,0,0.1,0c0.2,0,0.7,0.2,0.9,0.3
		c0.5,0.4,1,2,1.7,3.7l0.3,0.7c-0.3,0.1-0.5,0.2-0.7,0.4l0-0.1c-1.3-1.8-2.4-3.4-2.5-4.1C30.1,52.6,30.3,52,30.4,51.9L30.4,51.9z
		 M27.6,55.6c-0.2-0.2-0.3-0.8-0.2-1l0,0c0.1-0.1,0.5-0.2,0.8-0.2c0.1,0,0.2,0,0.3,0c0.6,0.2,1.8,1.3,3.3,2.5l0.6,0.5
		c-0.2,0.2-0.3,0.4-0.5,0.7l-0.1,0C29.7,57.1,28,56.2,27.6,55.6L27.6,55.6z M26.5,59.3c-0.2-0.1-0.7-0.6-0.7-0.8l0,0
		c0.1-0.2,0.6-0.6,0.8-0.6c0.1,0,0.2,0,0.3,0c0.8,0,2.2,0.4,3.7,0.7l0.8,0.2c-0.1,0.2-0.1,0.5-0.1,0.8c0,0,0,0,0,0h-0.2
		c-0.4,0-0.7,0-1.1,0C28.3,59.6,27,59.5,26.5,59.3L26.5,59.3z M27.3,63L27.3,63c-0.3,0-0.8-0.2-0.9-0.4l0,0c0-0.2,0.3-0.8,0.5-0.9
		c0.5-0.4,2.1-0.8,3.9-1.2l0.8-0.2c0.1,0.3,0.2,0.5,0.3,0.7l-0.2,0.1C29.7,62.1,28,63,27.3,63L27.3,63z M29.8,65.9
		c-0.2,0.1-0.5,0.2-0.7,0.2c-0.1,0-0.2,0-0.3,0l0,0c-0.1-0.2-0.1-0.8,0-1c0.2-0.6,1.4-1.6,2.8-2.9l0.7-0.6c0.2,0.2,0.4,0.4,0.6,0.5
		l-0.1,0.1C31.4,64,30.4,65.6,29.8,65.9L29.8,65.9z M32.4,67.9L32.4,67.9c-0.2-0.1-0.5-0.6-0.5-0.9c0-0.6,0.5-2.2,1.2-3.9l0.3-0.8
		c0.2,0.1,0.5,0.2,0.8,0.2l0,0.1c-0.3,2.2-0.5,4.1-0.9,4.7C33.1,67.6,32.6,67.9,32.4,67.9L32.4,67.9z M42.2,73.2
		c-0.4,0.2-0.8,0.5-1.3,0.7c-1.4,0.7-2.8,1.5-3.9,2.4c-1.1,0.9-2,2-2.6,3.4c-0.6-1.4-1.5-2.5-2.6-3.4c-1.1-0.9-2.5-1.6-3.9-2.4
		c-0.4-0.2-0.9-0.5-1.3-0.7c-4-2.3-5.8-4.8-5.5-7.6c1.2,1.9,3.3,3.1,6.5,5c1.4,0.8,2.5,1.5,3.4,2.4c0.8,0.8,1.6,1.7,2,2.8
		c0.1,0.4,0.3,0.5,0.5,0.5c0.2,0,0.4-0.1,0.4-0.5c0.1-1.1,0.4-5.9,0.5-7.4c0.1,1.5,0.4,6.3,0.5,7.4c0.1,0.4,0.2,0.5,0.4,0.5
		c0.2,0,0.3-0.1,0.5-0.5c0.4-1.1,1.2-2,2-2.8c0.9-0.9,2-1.6,3.4-2.4c3.2-1.9,5.3-3.2,6.5-5C48,68.5,46.2,70.9,42.2,73.2L42.2,73.2z"
		/>
</g>
<g>
	<path class="st0" d="M94.9,16.1c-0.7,0.4-1.5,0.8-2.4,1.1c-1,0.3-2,0.5-3.1,0.5c-1.3,0-2.5-0.2-3.6-0.6c-1.1-0.4-2-1-2.8-1.8
		c-0.8-0.8-1.4-1.7-1.9-2.8c-0.4-1.1-0.7-2.2-0.7-3.5c0-1.2,0.2-2.4,0.7-3.5c0.5-1.1,1.1-2,1.9-2.8c0.8-0.8,1.7-1.4,2.8-1.8
		c1.1-0.4,2.3-0.7,3.5-0.7c1.1,0,2.2,0.2,3.1,0.5c1,0.3,1.8,0.7,2.4,1.1l-0.8,1.6c-0.7-0.4-1.5-0.8-2.4-1C90.8,2.1,90,2,89.2,2
		c-1.1,0-2,0.2-2.8,0.5c-0.8,0.4-1.6,0.8-2.1,1.5c-0.6,0.6-1,1.4-1.3,2.2C82.6,7.1,82.4,8,82.4,9c0,1,0.2,1.9,0.5,2.8
		c0.3,0.8,0.8,1.6,1.4,2.2c0.6,0.6,1.3,1.1,2.2,1.5c0.9,0.4,1.8,0.5,2.9,0.5c0.8,0,1.7-0.1,2.5-0.4c0.9-0.3,1.7-0.6,2.4-1L94.9,16.1
		z"/>
	<path class="st0" d="M98,17.4V0.6h1.8v15.2h8v1.7H98z"/>
	<path class="st0" d="M124,16.1c-0.7,0.4-1.5,0.8-2.4,1.1c-1,0.3-2,0.5-3.1,0.5c-1.3,0-2.5-0.2-3.6-0.6c-1.1-0.4-2-1-2.8-1.8
		c-0.8-0.8-1.4-1.7-1.9-2.8c-0.4-1.1-0.7-2.2-0.7-3.5c0-1.2,0.2-2.4,0.7-3.5c0.5-1.1,1.1-2,1.9-2.8c0.8-0.8,1.7-1.4,2.8-1.8
		c1.1-0.4,2.3-0.7,3.5-0.7c1.1,0,2.2,0.2,3.1,0.5c1,0.3,1.8,0.7,2.4,1.1l-0.8,1.6c-0.7-0.4-1.5-0.8-2.4-1c-0.9-0.3-1.7-0.4-2.5-0.4
		c-1.1,0-2,0.2-2.8,0.5c-0.8,0.4-1.6,0.8-2.1,1.5c-0.6,0.6-1,1.4-1.3,2.2c-0.3,0.8-0.5,1.8-0.5,2.8c0,1,0.2,1.9,0.5,2.8
		c0.3,0.8,0.8,1.6,1.4,2.2c0.6,0.6,1.3,1.1,2.2,1.5c0.9,0.4,1.8,0.5,2.9,0.5c0.8,0,1.7-0.1,2.5-0.4c0.9-0.3,1.7-0.6,2.4-1L124,16.1z
		"/>
	<path class="st1" d="M89.7,35.8c0,0.7-0.1,1.3-0.4,1.9c-0.3,0.6-0.6,1.1-1.1,1.5c-0.5,0.4-1,0.8-1.6,1c-0.6,0.2-1.3,0.4-2,0.4
		c-1,0-1.8-0.1-2.6-0.4c-0.8-0.3-1.5-0.7-2.3-1.1l0.9-1.6c0.6,0.5,1.3,0.8,2,1.1c0.7,0.3,1.4,0.4,2,0.4c0.5,0,1-0.1,1.4-0.2
		c0.4-0.2,0.7-0.4,1-0.7c0.3-0.3,0.5-0.6,0.6-0.9c0.1-0.4,0.2-0.7,0.2-1.1c0-0.4,0-0.7-0.1-1c-0.1-0.3-0.3-0.6-0.5-0.9
		c-0.2-0.3-0.6-0.5-1-0.8c-0.4-0.3-1-0.6-1.7-0.9c-0.7-0.3-1.4-0.6-1.9-1c-0.5-0.3-0.9-0.7-1.2-1.1c-0.3-0.4-0.5-0.8-0.7-1.2
		c-0.1-0.4-0.2-0.9-0.2-1.4c0-0.6,0.1-1.2,0.4-1.7c0.2-0.6,0.6-1,1-1.5c0.5-0.4,1-0.8,1.6-1c0.6-0.3,1.3-0.4,2.1-0.4
		c0.7,0,1.4,0.1,2,0.3c0.6,0.2,1.2,0.5,1.7,0.8L88.6,26c-0.4-0.3-0.9-0.6-1.4-0.7C86.6,25,86.1,25,85.6,25c-0.5,0-1,0.1-1.4,0.2
		c-0.4,0.2-0.7,0.4-1,0.6c-0.3,0.3-0.5,0.6-0.6,0.9c-0.1,0.3-0.2,0.7-0.2,1.1c0,0.6,0.2,1.1,0.7,1.6c0.4,0.5,1.2,1,2.2,1.4
		c0.9,0.4,1.6,0.8,2.2,1.1c0.6,0.4,1,0.7,1.4,1.1c0.3,0.4,0.6,0.8,0.7,1.2C89.7,34.8,89.7,35.3,89.7,35.8z"/>
	<path class="st1" d="M103.1,28.8c0,0.8-0.1,1.6-0.4,2.3c-0.3,0.7-0.7,1.3-1.3,1.8c-0.6,0.5-1.3,0.9-2.1,1.2
		c-0.8,0.3-1.7,0.4-2.8,0.4c-0.3,0-0.6,0-1,0c-0.3,0-0.7,0-1-0.1v5.9h-1.8V23.7c0.6-0.1,1.3-0.1,1.9-0.2c0.6-0.1,1.3-0.1,2-0.1
		c1.1,0,2,0.1,2.8,0.4c0.8,0.3,1.5,0.7,2,1.2c0.5,0.5,0.9,1.1,1.2,1.7C102.9,27.4,103.1,28.1,103.1,28.8z M101.1,28.9
		c0-0.5-0.1-1-0.3-1.4c-0.2-0.5-0.4-0.9-0.8-1.2c-0.4-0.4-0.8-0.6-1.3-0.8c-0.5-0.2-1.1-0.3-1.8-0.3c-0.4,0-0.8,0-1.2,0
		c-0.4,0-0.8,0.1-1.1,0.1v7.5c0.3,0,0.6,0.1,1,0.1c0.4,0,0.7,0,1,0c0.8,0,1.5-0.1,2-0.3c0.6-0.2,1-0.5,1.4-0.9
		c0.4-0.4,0.6-0.8,0.8-1.3C101,30,101.1,29.5,101.1,28.9z"/>
	<path class="st1" d="M121.8,32c0,1.3-0.2,2.4-0.7,3.5c-0.5,1.1-1.1,2-1.8,2.8c-0.8,0.8-1.7,1.4-2.7,1.8c-1,0.4-2.1,0.6-3.2,0.6
		s-2.2-0.2-3.2-0.6c-1-0.4-1.9-1-2.7-1.8c-0.8-0.8-1.4-1.7-1.8-2.8c-0.4-1.1-0.7-2.2-0.7-3.5c0-1.3,0.2-2.4,0.7-3.5
		c0.5-1.1,1.1-2,1.8-2.7c0.8-0.8,1.7-1.4,2.7-1.8c1-0.4,2.1-0.7,3.2-0.7c1.1,0,2.2,0.2,3.2,0.7c1,0.4,1.9,1,2.7,1.8
		c0.8,0.8,1.4,1.7,1.8,2.7C121.6,29.5,121.8,30.7,121.8,32z M119.8,32c0-1-0.2-1.9-0.5-2.8c-0.3-0.9-0.8-1.6-1.3-2.2
		c-0.6-0.6-1.2-1.1-2-1.5c-0.8-0.4-1.6-0.5-2.6-0.5c-0.9,0-1.8,0.2-2.6,0.5c-0.8,0.4-1.5,0.9-2,1.5c-0.6,0.6-1,1.4-1.3,2.2
		c-0.3,0.9-0.5,1.8-0.5,2.8c0,1,0.2,1.9,0.5,2.8c0.3,0.9,0.8,1.6,1.3,2.2c0.6,0.6,1.2,1.1,2,1.5c0.8,0.4,1.6,0.5,2.6,0.5
		c0.9,0,1.8-0.2,2.6-0.5c0.8-0.4,1.5-0.9,2-1.5c0.6-0.6,1-1.4,1.3-2.2C119.7,33.9,119.8,33,119.8,32z"/>
	<path class="st1" d="M134.1,40.4l-4.5-6.6c-0.2,0-0.4,0-0.6,0c-0.2,0-0.4,0-0.6,0c-0.3,0-0.6,0-1,0c-0.4,0-0.7,0-1,0v6.6h-1.8V23.7
		c0.6-0.1,1.3-0.1,1.9-0.2c0.6-0.1,1.3-0.1,2-0.1c1.1,0,2,0.1,2.8,0.4c0.8,0.3,1.5,0.6,2,1.1c0.5,0.5,0.9,1,1.2,1.6
		c0.3,0.6,0.4,1.3,0.4,2c0,1.2-0.3,2.2-0.9,3c-0.6,0.8-1.5,1.5-2.7,1.8l4.9,7H134.1z M133.1,28.6c0-0.5-0.1-0.9-0.3-1.4
		c-0.2-0.4-0.5-0.8-0.8-1.1c-0.4-0.3-0.8-0.6-1.3-0.7c-0.5-0.2-1.1-0.3-1.8-0.3c-0.4,0-0.8,0-1.2,0c-0.4,0-0.8,0.1-1.1,0.1v6.8
		c0.3,0,0.6,0.1,1,0.1c0.4,0,0.7,0,1.1,0c1.6,0,2.7-0.3,3.4-1C132.7,30.6,133.1,29.7,133.1,28.6z"/>
	<path class="st1" d="M143.8,25.2v15.2H142V25.2h-5.6v-1.7h13.1v1.7H143.8z"/>
	<path class="st1" d="M160.7,35.8c0,0.7-0.1,1.3-0.4,1.9c-0.3,0.6-0.6,1.1-1.1,1.5c-0.5,0.4-1,0.8-1.6,1c-0.6,0.2-1.3,0.4-2,0.4
		c-1,0-1.8-0.1-2.6-0.4c-0.8-0.3-1.5-0.7-2.3-1.1l0.9-1.6c0.6,0.5,1.3,0.8,2,1.1c0.7,0.3,1.4,0.4,2,0.4c0.5,0,1-0.1,1.4-0.2
		c0.4-0.2,0.7-0.4,1-0.7c0.3-0.3,0.5-0.6,0.6-0.9c0.1-0.4,0.2-0.7,0.2-1.1c0-0.4,0-0.7-0.1-1c-0.1-0.3-0.3-0.6-0.5-0.9
		c-0.2-0.3-0.6-0.5-1-0.8c-0.4-0.3-1-0.6-1.7-0.9c-0.7-0.3-1.4-0.6-1.9-1c-0.5-0.3-0.9-0.7-1.2-1.1c-0.3-0.4-0.5-0.8-0.7-1.2
		c-0.1-0.4-0.2-0.9-0.2-1.4c0-0.6,0.1-1.2,0.4-1.7c0.2-0.6,0.6-1,1-1.5c0.5-0.4,1-0.8,1.6-1c0.6-0.3,1.3-0.4,2.1-0.4
		c0.7,0,1.4,0.1,2,0.3c0.6,0.2,1.2,0.5,1.7,0.8l-0.8,1.6c-0.4-0.3-0.9-0.6-1.4-0.7c-0.5-0.2-1.1-0.3-1.6-0.3c-0.5,0-1,0.1-1.4,0.2
		c-0.4,0.2-0.7,0.4-1,0.6c-0.3,0.3-0.5,0.6-0.6,0.9c-0.1,0.3-0.2,0.7-0.2,1.1c0,0.6,0.2,1.1,0.7,1.6c0.4,0.5,1.2,1,2.2,1.4
		c0.9,0.4,1.6,0.8,2.2,1.1c0.6,0.4,1,0.7,1.4,1.1c0.3,0.4,0.6,0.8,0.7,1.2C160.6,34.8,160.7,35.3,160.7,35.8z"/>
	<path class="st1" d="M94.9,62.1c-0.7,0.4-1.5,0.8-2.4,1.1c-1,0.3-2,0.5-3.1,0.5c-1.3,0-2.5-0.2-3.6-0.6c-1.1-0.4-2-1-2.8-1.8
		c-0.8-0.8-1.4-1.7-1.9-2.8c-0.4-1.1-0.7-2.2-0.7-3.5c0-1.2,0.2-2.4,0.7-3.5c0.5-1.1,1.1-2,1.9-2.8c0.8-0.8,1.7-1.4,2.8-1.8
		c1.1-0.4,2.3-0.7,3.5-0.7c1.1,0,2.2,0.2,3.1,0.5c1,0.3,1.8,0.7,2.4,1.1l-0.8,1.6c-0.7-0.4-1.5-0.8-2.4-1C90.8,48.1,90,48,89.2,48
		c-1.1,0-2,0.2-2.8,0.5c-0.8,0.4-1.6,0.8-2.1,1.5c-0.6,0.6-1,1.4-1.3,2.2c-0.3,0.8-0.5,1.8-0.5,2.8c0,1,0.2,1.9,0.5,2.8
		c0.3,0.8,0.8,1.6,1.4,2.2c0.6,0.6,1.3,1.1,2.2,1.5c0.9,0.4,1.8,0.5,2.9,0.5c0.8,0,1.7-0.1,2.5-0.4c0.9-0.3,1.7-0.6,2.4-1L94.9,62.1
		z"/>
	<path class="st1" d="M97.8,63.4V46.6h9.9v1.7h-8V54h7.2v1.7h-7.2v6.1h8v1.7H97.8z"/>
	<path class="st1" d="M124,63.7l-10.9-13.1v12.8h-1.8V46.3l0.4-0.1l10.8,12.9V46.6h1.8v17.1L124,63.7z"/>
	<path class="st1" d="M134.1,48.2v15.2h-1.8V48.2h-5.6v-1.7h13.1v1.7H134.1z"/>
	<path class="st1" d="M151.5,63.4l-4.5-6.6c-0.2,0-0.4,0-0.6,0s-0.4,0-0.6,0c-0.3,0-0.6,0-1,0c-0.4,0-0.7,0-1,0v6.6h-1.8V46.7
		c0.6-0.1,1.3-0.1,1.9-0.2c0.6-0.1,1.3-0.1,2-0.1c1.1,0,2,0.1,2.8,0.4c0.8,0.3,1.5,0.6,2,1.1c0.5,0.5,0.9,1,1.2,1.6
		c0.3,0.6,0.4,1.3,0.4,2c0,1.2-0.3,2.2-0.9,3c-0.6,0.8-1.5,1.5-2.7,1.8l4.9,7H151.5z M150.5,51.6c0-0.5-0.1-0.9-0.3-1.4
		c-0.2-0.4-0.5-0.8-0.8-1.1c-0.4-0.3-0.8-0.6-1.3-0.7s-1.1-0.3-1.8-0.3c-0.4,0-0.8,0-1.2,0c-0.4,0-0.8,0.1-1.1,0.1v6.8
		c0.3,0,0.6,0.1,1,0.1c0.4,0,0.7,0,1.1,0c1.6,0,2.7-0.3,3.4-1C150.2,53.6,150.5,52.7,150.5,51.6z"/>
	<path class="st1" d="M156.2,63.4V46.6h9.9v1.7h-8V54h7.2v1.7h-7.2v6.1h8v1.7H156.2z"/>
</g>
</svg>
