<?xml version="1.0" encoding="utf-8"?>
<!-- Generator: Adobe Illustrator 22.0.1, SVG Export Plug-In . SVG Version: 6.00 Build 0)  -->
<svg version="1.1" id="Layer_1" xmlns="http://www.w3.org/2000/svg" xmlns:xlink="http://www.w3.org/1999/xlink" x="0px" y="0px"
	 viewBox="0 0 234.3 85.2" style="enable-background:new 0 0 234.3 85.2;" xml:space="preserve">
<style type="text/css">
	.st0{display:none;}
	.st1{display:inline;fill:#FFFFFF;}
	.st2{display:inline;fill:#FFFFFF;stroke:#FFFFFF;stroke-width:0.75;stroke-miterlimit:10;}
	.st3{fill:#FFFFFF;stroke:#FFFFFF;stroke-width:0.75;stroke-miterlimit:10;}
	.st4{enable-background:new    ;}
	.st5{fill:#FFFFFF;}
	.st6{fill:none;stroke:#FFFFFF;stroke-miterlimit:10;}
	.st7{fill:none;stroke:#FFFFFF;stroke-linecap:round;stroke-miterlimit:10;}
	.st8{fill:#FFFFFF;stroke:#FFFFFF;stroke-linecap:round;stroke-miterlimit:10;}
</style>
<g id="Layer_1_1_" class="st0">
	<title>Artboard 1</title>
	<path class="st1" d="M41,31.5c-0.1-0.2-0.3-0.3-0.5-0.3h-4.2l-1.3-4c-0.1-0.3-0.3-0.4-0.6-0.3c-0.2,0-0.3,0.2-0.3,0.3l-1.3,4h-4.3
		c-0.3,0-0.5,0.2-0.5,0.5c0,0.2,0.1,0.3,0.2,0.4l3.5,2.5l-1.3,4.1c-0.1,0.2,0,0.5,0.3,0.6c0.2,0.1,0.3,0,0.5-0.1l3.4-2.5l3.5,2.5
		c0.2,0.1,0.4,0.1,0.6,0c0.2-0.1,0.2-0.3,0.2-0.5l-1.3-4.1l3.4-2.5C41,31.9,41.1,31.7,41,31.5L41,31.5z M34.8,35.7
		c-0.2-0.1-0.4-0.1-0.6,0l-2.5,1.8l1-3c0.1-0.2,0-0.4-0.2-0.5L30,32.1h3.1c0.2,0,0.4-0.1,0.5-0.3l1-3l1,3c0.1,0.2,0.3,0.3,0.5,0.3
		h3.1L36.6,34c-0.2,0.1-0.2,0.3-0.2,0.5l1,3L34.8,35.7z"/>
	<path class="st1" d="M23.6,43.2c-0.1-0.2-0.3-0.3-0.5-0.3h-4.3l-1.3-4c-0.1-0.3-0.3-0.4-0.6-0.3c-0.2,0-0.3,0.2-0.3,0.3l-1.3,4H11
		c-0.3,0-0.5,0.2-0.5,0.5c0,0.1,0.1,0.3,0.2,0.4l3.5,2.5l-1.3,4.1c-0.1,0.2,0,0.5,0.3,0.6c0.2,0.1,0.3,0,0.5-0.1l3.5-2.5l3.5,2.5
		c0.2,0.1,0.4,0.1,0.6,0s0.2-0.3,0.2-0.5l-1.3-4l3.4-2.6C23.5,43.5,23.6,43.3,23.6,43.2L23.6,43.2z M17.3,47.3
		c-0.2-0.1-0.4-0.1-0.6,0l-2.5,1.8l1-3c0-0.2,0-0.4-0.2-0.5l-2.5-1.8h3.1c0.2,0,0.4-0.1,0.5-0.3l1-3l1,3c0.1,0.2,0.3,0.3,0.5,0.3
		h3.1l-2.6,1.8c-0.2,0.1-0.2,0.3-0.2,0.5l1,3L17.3,47.3z"/>
	<path class="st1" d="M45.8,43.7l3.4,2.5l-1.3,4.1c-0.1,0.2,0,0.4,0.2,0.5s0.4,0.1,0.6,0l3.4-2.5l3.4,2.5c0.2,0.2,0.5,0.2,0.7,0
		c0.1-0.1,0.1-0.3,0.1-0.5L55,46.2l3.4-2.5c0.2-0.2,0.3-0.5,0.1-0.7c-0.1-0.1-0.2-0.2-0.4-0.2h-4.3l-1.3-4c-0.1-0.3-0.3-0.4-0.6-0.3
		c-0.2,0-0.3,0.2-0.3,0.3l-1.3,4.1H46c-0.3,0-0.5,0.2-0.5,0.5C45.6,43.5,45.6,43.6,45.8,43.7L45.8,43.7z M49.3,49.2l1-3
		c0.1-0.2,0-0.4-0.2-0.5l-2.5-1.8h3.1c0.2,0,0.4-0.1,0.5-0.3l1-3l1,3c0.1,0.2,0.3,0.3,0.5,0.3h3.1l-2.6,1.9c-0.2,0-0.3,0.2-0.2,0.4
		l1,3l-2.5-1.8c-0.2-0.1-0.4-0.1-0.6,0L49.3,49.2z"/>
	<path class="st1" d="M94.1,60.1c-0.8,0.4-1.6,0.8-2.4,1c-0.8,0.3-1.7,0.4-2.6,0.4c-1,0-2-0.2-2.9-0.5c-0.8-0.3-1.6-0.8-2.2-1.4
		c-0.6-0.6-1.1-1.4-1.4-2.2c-0.3-0.9-0.5-1.8-0.5-2.8c0-0.9,0.1-1.9,0.5-2.8c0.3-0.8,0.7-1.5,1.3-2.2c0.6-0.6,1.3-1.1,2.1-1.5
		c0.9-0.4,1.9-0.5,2.9-0.5c0.9,0,1.7,0.2,2.6,0.4c0.8,0.2,1.7,0.6,2.4,1l0.8-1.6c-0.8-0.5-1.6-0.8-2.4-1.1c-2.2-0.7-4.5-0.6-6.7,0.2
		c-1.1,0.4-2,1-2.8,1.8s-1.4,1.7-1.9,2.8s-0.7,2.3-0.7,3.4c0,1.2,0.2,2.4,0.7,3.5c0.4,1,1.1,2,1.9,2.8s1.8,1.4,2.8,1.8
		c1.1,0.4,2.4,0.7,3.6,0.6c1.1,0,2.1-0.2,3.1-0.5c0.8-0.3,1.6-0.7,2.4-1.1L94.1,60.1L94.1,60.1z M110.7,57.4
		c-0.3,0.8-0.7,1.6-1.3,2.3c-1.2,1.3-2.9,2-4.6,2c-0.9,0-1.8-0.2-2.6-0.5c-0.8-0.4-1.4-0.9-2-1.5c-0.6-0.7-1-1.4-1.3-2.2
		c-0.6-1.8-0.6-3.8,0-5.6c0.3-0.8,0.7-1.6,1.3-2.2c0.6-0.6,1.2-1.1,2-1.5s1.7-0.6,2.6-0.5c1.8,0,3.4,0.7,4.6,2
		c0.6,0.7,1,1.4,1.3,2.2C111.4,53.6,111.4,55.6,110.7,57.4 M112.6,51.1c-0.4-1-1-2-1.8-2.7c-0.8-0.8-1.7-1.4-2.7-1.8
		c-1-0.4-2.1-0.7-3.2-0.7s-2.2,0.2-3.2,0.7c-1,0.4-1.9,1-2.7,1.8c-1.7,1.6-2.6,3.9-2.6,6.3c0,1.2,0.2,2.4,0.7,3.5c0.4,1,1,2,1.8,2.8
		s1.7,1.4,2.7,1.8c1,0.4,2.1,0.6,3.2,0.6c2.2,0,4.4-0.9,6-2.4c0.8-0.8,1.4-1.7,1.9-2.8s0.7-2.3,0.7-3.5
		C113.2,53.4,113,52.2,112.6,51.1 M126.8,63v-1.6h-8V46.2H117V63H126.8z M139.5,63v-1.6h-8V46.2h-1.8V63H139.5z M152.2,63v-1.6h-8
		v-6.1h7.2v-1.6h-7.2v-5.8h8v-1.7h-9.9V63H152.2z M163.8,54.7v1.7h4.5v4.1c-0.6,0.4-1.3,0.7-2,0.9s-1.5,0.3-2.3,0.3
		c-0.9,0-1.9-0.2-2.8-0.5c-0.9-0.3-1.6-0.8-2.3-1.4c-0.6-0.6-1.1-1.4-1.5-2.2c-0.4-0.9-0.6-1.8-0.6-2.8c0-0.9,0.2-1.8,0.5-2.7
		s0.7-1.6,1.3-2.3s1.3-1.2,2.1-1.6c0.9-0.4,1.9-0.6,2.9-0.6c0.9,0,1.9,0.2,2.8,0.5c0.9,0.3,1.8,0.8,2.6,1.3l1-1.4
		c-0.4-0.3-0.9-0.6-1.4-0.8c-0.5-0.3-0.9-0.5-1.4-0.6c-0.5-0.2-1.1-0.3-1.6-0.4c-0.6-0.1-1.3-0.1-1.9-0.1c-1.1,0-2.2,0.2-3.2,0.6
		c-1,0.4-2,1-2.8,1.8s-1.5,1.7-2,2.7c-0.5,1.1-0.8,2.3-0.8,3.6c0,1.2,0.2,2.5,0.8,3.6c0.5,1,1.2,2,2,2.7c0.8,0.8,1.8,1.4,2.9,1.8
		c1.1,0.4,2.2,0.6,3.4,0.6c1.1,0,2.3-0.2,3.4-0.5c1-0.3,1.9-0.8,2.8-1.5v-6.7L163.8,54.7L163.8,54.7z M184.1,63v-1.6h-8v-6.1h7.2
		v-1.6h-7.2v-5.8h8v-1.7h-9.9V63H184.1z"/>
	<path class="st1" d="M92.5,40.1v-1.7h-8V23.3h-1.9v16.8H92.5z M105.3,33.9h-6.2l3.1-7.2L105.3,33.9z M110,40.1L102.3,23H102
		l-7.6,17.1h1.9l2-4.7h7.5l2,4.7H110z M124.3,34.3c-0.3,0.8-0.7,1.6-1.3,2.3c-0.6,0.7-1.4,1.2-2.3,1.5c-1,0.4-2.1,0.6-3.2,0.6
		c-0.7,0-1.2,0-1.7,0c-0.4,0-0.8-0.1-1.2-0.2V24.9c0.4-0.1,0.8-0.1,1.2-0.1c0.5,0,1,0,1.5,0c1.1,0,2.2,0.2,3.2,0.5
		c0.9,0.3,1.6,0.8,2.3,1.4c0.6,0.6,1.1,1.3,1.4,2.2c0.3,0.9,0.5,1.8,0.5,2.7C124.7,32.5,124.5,33.4,124.3,34.3 M126.1,28.4
		c-0.4-1-1-2-1.8-2.8c-0.9-0.8-1.9-1.5-3-1.9c-1.3-0.5-2.8-0.7-4.2-0.7c-0.9,0-1.6,0-2.4,0.1s-1.4,0.1-2,0.2v16.6
		c0.7,0.1,1.4,0.1,2.1,0.2c0.8,0.1,1.6,0.1,2.4,0.1c1.4,0,2.8-0.2,4.2-0.7c1.1-0.4,2.1-1.1,3-1.9c0.8-0.8,1.4-1.7,1.8-2.8
		c0.4-1,0.6-2.2,0.6-3.3C126.8,30.4,126.6,29.4,126.1,28.4 M132.3,23.3h-1.8v16.8h1.8V23.3L132.3,23.3z M146.6,40.1v-1.7h-8v-6.1
		h7.2v-1.7h-7.2v-5.8h8v-1.6h-9.9V40L146.6,40.1L146.6,40.1z M159.2,34c-0.2-0.5-0.4-0.9-0.7-1.2c-0.4-0.4-0.9-0.8-1.4-1.1
		c-0.7-0.4-1.4-0.8-2.2-1.1c-0.8-0.3-1.6-0.8-2.2-1.4c-0.4-0.4-0.7-1-0.7-1.6c0-0.4,0.1-0.7,0.2-1.1c0.1-0.3,0.3-0.6,0.6-0.9
		s0.6-0.5,1-0.6c0.4-0.2,0.9-0.2,1.4-0.2c0.6,0,1.1,0.1,1.6,0.3c0.5,0.2,1,0.4,1.4,0.8l0.8-1.6c-0.5-0.4-1.1-0.6-1.7-0.8
		c-0.6-0.2-1.3-0.3-2-0.3s-1.4,0.1-2.1,0.4c-0.6,0.2-1.2,0.6-1.6,1c-0.4,0.4-0.8,0.9-1,1.5s-0.4,1.1-0.4,1.8c0,0.5,0.1,0.9,0.2,1.4
		c0.2,0.4,0.4,0.8,0.7,1.2c0.3,0.4,0.7,0.8,1.1,1.1c0.6,0.4,1.2,0.7,1.9,1c0.6,0.3,1.1,0.5,1.7,0.9c0.4,0.2,0.7,0.5,1,0.8
		c0.2,0.3,0.4,0.5,0.5,0.9c0.1,0.3,0.1,0.7,0.1,1c0,0.4-0.1,0.7-0.2,1.1c-0.1,0.4-0.3,0.7-0.6,0.9c-0.3,0.3-0.6,0.5-1,0.7
		c-0.5,0.2-0.9,0.2-1.4,0.2c-0.7,0-1.4-0.1-2-0.4c-0.7-0.3-1.4-0.6-2-1.1l-0.9,1.6c0.7,0.5,1.5,0.9,2.3,1.2s1.7,0.4,2.6,0.4
		c0.7,0,1.4-0.1,2-0.4c0.6-0.2,1.2-0.6,1.6-1c0.5-0.4,0.8-1,1.1-1.5c0.3-0.6,0.4-1.3,0.4-1.9C159.4,35,159.4,34.5,159.2,34
		 M164,23.4c-0.2-0.3-0.6-0.4-0.9-0.4c-0.6,0-1.1,0.5-1.1,1.1c0,0.3,0.1,0.6,0.3,0.8c0.2,0.2,0.5,0.4,0.9,0.4
		c-0.1,0.4-0.3,0.8-0.5,1.1c-0.3,0.4-0.6,0.8-1,1.2l0.2,0.4c0.4-0.2,0.8-0.5,1.1-0.8s0.5-0.6,0.7-0.9s0.3-0.6,0.4-0.9
		c0.1-0.3,0.1-0.6,0.1-0.9C164.3,24,164.2,23.7,164,23.4"/>
	<path class="st1" d="M94.1,14.3c-0.8,0.4-1.6,0.8-2.4,1c-0.8,0.3-1.7,0.4-2.6,0.4c-1,0-1.9-0.1-2.8-0.5c-1.7-0.7-3-2-3.6-3.7
		c-0.3-0.9-0.5-1.8-0.5-2.8c0-0.9,0.1-1.9,0.5-2.8C83,5.1,83.4,4.3,84,3.7s1.3-1.1,2.1-1.5C87,1.8,88,1.7,89,1.7
		c0.9,0,1.7,0.1,2.6,0.4c0.8,0.2,1.7,0.6,2.4,1l0.8-1.6C94,1,93.2,0.7,92.3,0.4c-2.2-0.7-4.5-0.7-6.7,0.2c-1.1,0.4-2,1-2.8,1.8
		s-1.4,1.7-1.9,2.8s-0.7,2.3-0.7,3.4c0,1.2,0.2,2.4,0.7,3.5c0.4,1,1.1,2,1.9,2.8s1.8,1.4,2.8,1.8c1.1,0.4,2.4,0.7,3.6,0.6
		c1.1,0,2.1-0.2,3.1-0.5c0.9-0.3,1.7-0.7,2.4-1.1L94.1,14.3L94.1,14.3z M110.4,17.1V0.3h-1.8v7.5h-9V0.3h-1.8v16.8h1.8V9.4h9v7.7
		L110.4,17.1z M124.8,17.1v-1.7h-8v-6h7.2V7.8h-7.2V2h8V0.3h-9.9v16.8C114.9,17.1,124.8,17.1,124.8,17.1z M138.1,17.1v-1.7h-8V0.3
		h-1.9v16.8C128.2,17.1,138.1,17.1,138.1,17.1z M150.6,2V0.3h-13.1V2h5.6v15.2h1.8V2H150.6z M163.4,17.1v-1.7h-8v-6h7.2V7.8h-7.2V2
		h8V0.3h-9.9v16.8C153.5,17.1,163.4,17.1,163.4,17.1z M180,17.4V0.3h-1.9v12.5L167.3,0L167,0.1v17h1.8V4.4l11,13.1L180,17.4
		L180,17.4z M197.1,17.1V0.3h-1.8v7.5h-9V0.3h-1.8v16.8h1.8V9.4h9v7.7L197.1,17.1z M210.6,10.9h-6.2l3.1-7.2L210.6,10.9z
		 M215.3,17.1L207.7,0h-0.3l-7.6,17.1h1.9l2-4.7h7.6l2,4.7H215.3z M234.3,17.1L233.7,0h-0.4l-7.1,12.6L218.8,0h-0.3l-0.6,17.1h1.9
		L220,5.2l6,10.2h0.2l6-10.2l0.2,11.9C232.4,17.1,234.3,17.1,234.3,17.1z"/>
	<path class="st1" d="M32.5,20c-0.1-0.2-0.3-0.3-0.5-0.2c-1.6,0.3-3.2-0.3-5.2-1.9c2.1-1.2,3.6-3.2,4.2-5.5c0.1-0.2-0.1-0.5-0.3-0.6
		c-0.8-0.3-1.7-0.4-2.6-0.5c0.4-0.8,0.6-1.6,0.7-2.4c0-0.2-0.1-0.5-0.3-0.5c-3.6-0.9-7.5,0.1-10.3,2.5c-1.1-0.8-2.3-1.3-3.6-1.6
		c-0.1-0.3-0.2-0.5-0.2-0.8c-0.4-1.6-0.8-3.1-2.2-4c-1.1-0.8-2.5-1-3.9-0.6c-0.9,0.3-1.6,0.9-2,1.7C5,5.6,3.9,6,3,6.7
		C2.8,6.8,2.8,7.1,2.9,7.3C3,7.5,3.2,7.6,3.4,7.6c2-0.1,3.2,0.3,3.2,0.8c0,0.3-0.1,0.7-0.2,1c-0.9,2.2-0.8,4.7,0.3,6.8l0,0l0,0
		c1.2,2.2,3.1,3.9,5.5,4.8c0.8,0.3,1.6,0.5,2.4,0.7c-0.2,1.8-0.5,2.4-1.6,2.5c-0.5,0.1-1.1,0-1.5-0.2c-0.2-0.1-0.5,0-0.6,0.2
		s0,0.5,0.2,0.6c0.4,0.2,0.9,0.3,1.3,0.3h0.1c0.4,0,0.8,0,1.3,0h0.6c1.3-0.2,2.6-0.1,3.9,0.3c0.2,0.1,0.5,0,0.7-0.2
		c0.1-0.2,0-0.5-0.2-0.7l0,0c-0.6-0.3-1.3-0.4-2-0.5c0.1-0.1,0.1-0.1,0.2-0.2c0.6-0.6,1-1.2,1.4-1.9c1.2-0.1,2.3-0.3,3.4-0.7
		c1.5,0.8,3.3,1.3,5,1.3c2.1,0.1,4.2-0.6,5.8-2c0.2-0.2,0.2-0.4,0.1-0.6L32.5,20z M27.6,9.2c-0.1,0.7-0.4,1.4-0.8,2
		c-1.4-0.1-2.8,0.1-4.1,0.7c-1.3,0.5-2.3,1.4-3,2.6c-0.9-0.1-1.7-0.3-2.5-0.8C18.9,9.9,24.3,8.4,27.6,9.2L27.6,9.2z M26.2,12.2
		c-1.3,1.5-3.2,2.3-5.2,2.4h-0.1c0.6-0.8,1.4-1.4,2.3-1.8C24.2,12.3,25.2,12.2,26.2,12.2L26.2,12.2z M16.5,13
		c-0.8-0.7-1.4-1.7-1.7-2.7c0.9,0.3,1.8,0.7,2.6,1.2C17,12,16.7,12.5,16.5,13L16.5,13z M4.5,6.8c1.4-0.4,3-0.3,4.3,0.3l0,0
		c0.7,0.4,1,0.4,1.3,0.2c0.2-0.1,0.4-0.4,0.4-0.7c0-0.5-0.4-0.8-0.8-0.8C9.4,5.9,9.1,6,9,6.2C8.5,5.9,7.9,5.7,7.3,5.7
		C7.6,5.2,8,5,8.5,4.8c1-0.3,2.1-0.1,3,0.5c1,0.7,1.4,1.9,1.8,3.4c0.1,0.5,0.3,1,0.5,1.6c0.8,3.2,3.8,5.4,7.1,5.2H21
		c2.6,0,4.9-1.2,6.4-3.3c0.8,0.1,1.6,0.2,2.4,0.4c-1,3.4-4.5,5.8-8.7,5.9c-5.8,0.2-9.9-2.8-11-8c0-0.1-0.1-0.3-0.2-0.3
		c-0.1-0.1-0.3-0.1-0.4,0c-1.2,0.3-2.2,1.1-2.8,2.1c0-0.9,0.2-1.8,0.5-2.6c0.2-0.4,0.3-0.9,0.3-1.4C7.5,7.5,6.3,6.8,4.5,6.8L4.5,6.8
		z M7.5,15.7c-0.4-0.9-0.4-1.9-0.1-2.8c0.4-0.8,1-1.4,1.9-1.8c0.7,3.2,2.9,5.8,5.8,7.1c-0.2,0.9-0.3,1.7-0.4,2.4
		c-0.7-0.1-1.5-0.3-2.2-0.6C10.4,19.3,8.6,17.8,7.5,15.7L7.5,15.7z M16.2,23.1c-0.3,0.3-0.7,0.5-1.1,0.7c0.3-0.8,0.5-1.7,0.6-2.6
		c0.1-0.7,0.2-1.6,0.4-2.5c0.7,0.2,1.4,0.4,2.1,0.5C17.8,20.7,17.2,22,16.2,23.1L16.2,23.1z M21.9,20.3c-0.1-0.1-0.3-0.1-0.4,0
		c-0.9,0.3-1.9,0.6-2.9,0.7c0.2-0.5,0.4-1,0.5-1.6c0.5,0.1,1,0.1,1.6,0.1h0.5c1.6,0,3.2-0.4,4.6-1.1c1.3,1.2,2.9,2.1,4.6,2.4
		C27.7,22,24.5,21.9,21.9,20.3L21.9,20.3z"/>
	<path class="st1" d="M66.2,20c-0.1-0.2-0.3-0.3-0.5-0.2c-1.6,0.3-3.2-0.3-5.2-1.9c2.1-1.2,3.6-3.2,4.2-5.5c0.1-0.2-0.1-0.5-0.3-0.6
		c-0.8-0.3-1.7-0.4-2.6-0.5c0.4-0.8,0.6-1.6,0.7-2.4c0-0.2-0.1-0.5-0.3-0.5c-3.6-0.9-7.5,0.1-10.3,2.5c-1.1-0.8-2.3-1.3-3.6-1.6
		C48.1,9,48,8.8,48,8.5c-0.4-1.6-0.8-3.1-2.2-4c-1.1-0.8-2.5-1-3.8-0.6c-0.9,0.3-1.6,0.9-2,1.7c-1.1,0-2.3,0.4-3.2,1.1
		c-0.2,0.1-0.2,0.4-0.1,0.6c0.1,0.2,0.3,0.3,0.5,0.3c2-0.1,3.2,0.3,3.2,0.8c0,0.3-0.1,0.7-0.2,1c-0.6,1.5-0.8,3.2-0.4,4.9
		c0.2,0.7,0.4,1.4,0.7,2l0,0l0,0c1.2,2.2,3.1,3.9,5.5,4.8c0.8,0.3,1.6,0.5,2.5,0.6c-0.3,1.8-0.5,2.4-1.6,2.5c-0.5,0-1,0-1.5-0.2
		c-0.2-0.1-0.5,0-0.7,0.2c-0.1,0.2,0,0.5,0.2,0.7l0,0c0.4,0.2,0.8,0.3,1.3,0.3h0.1c0.4,0,0.8,0,1.2,0h0.6c1.3-0.2,2.6-0.1,3.9,0.3
		c0.2,0.1,0.5,0,0.7-0.2c0.1-0.2,0-0.5-0.2-0.7l0,0c-0.6-0.3-1.3-0.4-2-0.5c0.1-0.1,0.1-0.1,0.2-0.2c0.6-0.6,1-1.2,1.4-1.9
		c1.2,0,2.3-0.2,3.4-0.6c1.5,0.8,3.3,1.3,5,1.3c2.1,0.1,4.2-0.6,5.8-2C66.3,20.4,66.3,20.2,66.2,20L66.2,20z M61.4,9.2
		c-0.1,0.7-0.4,1.4-0.8,2c-1.4-0.1-2.8,0.1-4.1,0.7c-1.3,0.5-2.4,1.4-3.1,2.6c-0.9-0.1-1.7-0.3-2.5-0.8C52.6,9.9,58.1,8.4,61.4,9.2
		L61.4,9.2z M60,12.2c-1.3,1.5-3.2,2.3-5.2,2.4h-0.1c0.6-0.8,1.4-1.4,2.3-1.8C58,12.3,59,12.2,60,12.2L60,12.2z M50.2,13
		c-0.8-0.7-1.4-1.7-1.7-2.7c0.9,0.3,1.8,0.7,2.6,1.2C50.8,12,50.5,12.5,50.2,13z M38.2,6.8c1.4-0.4,3-0.3,4.3,0.3l0,0
		c0.7,0.4,1,0.4,1.3,0.2c0.2,0,0.4-0.3,0.4-0.6c0-0.5-0.4-0.8-0.8-0.8c-0.2,0-0.5,0.1-0.6,0.3c-0.5-0.3-1.1-0.4-1.7-0.5
		c0.3-0.4,0.7-0.7,1.2-0.8c1-0.3,2.1-0.1,3,0.5c1,0.7,1.4,1.9,1.8,3.4c0.1,0.5,0.3,1,0.5,1.6c0.8,3.2,3.8,5.4,7.1,5.2h0.2
		c2.6,0,4.9-1.2,6.4-3.3c0.8,0.1,1.6,0.2,2.4,0.4c-1,3.4-4.5,5.8-8.7,5.9c-5.8,0.2-9.9-2.8-11-8c0-0.1-0.1-0.3-0.2-0.3
		c-0.1-0.1-0.3-0.1-0.4,0c-1.2,0.3-2.2,1.1-2.8,2.1c0-0.9,0.2-1.8,0.5-2.6c0.2-0.4,0.3-0.9,0.3-1.4C41.2,7.4,40.1,6.8,38.2,6.8
		L38.2,6.8z M41.3,15.7c-0.4-0.9-0.5-1.9-0.1-2.8c0.4-0.8,1-1.5,1.9-1.8c0.7,3.2,2.9,5.8,5.8,7.1c-0.2,0.9-0.3,1.7-0.4,2.4
		c-0.7-0.1-1.5-0.3-2.2-0.6C44.1,19.3,42.3,17.7,41.3,15.7L41.3,15.7z M49.9,23.1c-0.3,0.3-0.7,0.5-1.1,0.7c0.3-0.8,0.5-1.7,0.6-2.6
		c0.1-0.7,0.2-1.6,0.4-2.5c0.7,0.2,1.4,0.4,2.1,0.5C51.6,20.7,50.9,22,49.9,23.1L49.9,23.1z M55.7,20.3c-0.1-0.1-0.3-0.1-0.4,0
		c-0.9,0.3-1.9,0.6-2.9,0.7c0.2-0.5,0.4-1,0.5-1.6c0.5,0.1,1,0.1,1.6,0.1H55c1.6,0,3.2-0.4,4.6-1.1c1.3,1.2,2.9,2.1,4.6,2.4
		C61.5,22,58.3,21.9,55.7,20.3L55.7,20.3z"/>
	<path class="st1" d="M0,0.2v34.4C0,54.6,12.5,73,34.3,85l0.3,0.2l0.3-0.2c21.8-12,34.3-30.4,34.3-50.4V0.2H0z M2.7,46.4l31.9-23.2
		l31.9,23.3c-1.3,5.1-3.5,9.9-6.3,14.3L34.6,42L9,60.7C6.2,56.3,4,51.4,2.7,46.4z M34.6,83.8c-10.8-6-19.3-13.6-25-22.2l25-18.2
		l25,18.2C53.9,70.2,45.4,77.8,34.6,83.8L34.6,83.8z M68,34.7c0,3.5-0.4,7-1.2,10.5L34.6,21.7L2.4,45.1c-0.8-3.4-1.2-6.9-1.2-10.4
		V1.4H68V34.7z"/>
	<path class="st1" d="M48.6,64.3c-0.1-0.2-0.2-0.3-0.4-0.3l0,0c-0.2,0-0.4,0.1-0.5,0.3c-0.9,2.2-2.7,3.3-6.8,5.8
		c-1.1,0.6-2.1,1.3-3,2.1c-0.8,0.6-1.4,1.3-2,2.1c-0.1-0.7-0.2-3.8-0.4-5.6c0.3,0.3,0.7,0.5,1.2,0.5c0.1,0,0.2,0,0.2,0
		c0.8-0.2,1.2-1.3,1.2-1.8c0-0.4,0-0.7-0.1-1.1c0.2,0.3,0.5,0.5,0.8,0.7c0.4,0.2,0.8,0.3,1.2,0.3s0.7-0.1,1-0.3
		c0.5-0.6,0.6-1.4,0.3-2.2c-0.2-0.3-0.4-0.6-0.6-0.9c0.4,0.1,0.7,0.2,1.1,0.3c0.4,0,1.6-0.3,1.9-1s-0.4-1.8-0.7-2s-0.6-0.4-1-0.5
		c0.4,0,0.7-0.1,1.1-0.3c0.4-0.2,1.3-1,1.2-1.8s-1.2-1.3-1.6-1.4c-0.4-0.1-0.7-0.1-1.1,0c0.3-0.2,0.6-0.4,0.8-0.7
		c0.4-0.6,0.5-1.4,0.2-2.1c-0.4-0.4-1-0.7-1.6-0.7c-0.2,0-0.4,0-0.5,0.1c-0.4,0.1-0.7,0.3-1,0.5c0.2-0.3,0.3-0.6,0.4-1
		c0.1-0.8-0.2-1.5-0.8-2c-0.7-0.2-1.5,0-2.1,0.5c-0.3,0.3-0.5,0.6-0.6,0.9c0-0.4,0-0.7-0.1-1.1c-0.1-0.4-0.8-1.4-1.6-1.4
		s-1.5,0.9-1.6,1.4C33,52,33,52.3,33,52.7c-0.2-0.3-0.4-0.6-0.6-0.9c-0.6-0.5-1.4-0.7-2.1-0.5c-0.6,0.5-0.9,1.2-0.8,2
		c0.1,0.4,0.2,0.7,0.4,1c-0.3-0.2-0.6-0.4-1-0.5c-0.2,0-0.4-0.1-0.5-0.1c-0.6,0-1.1,0.2-1.5,0.6c-0.3,0.7-0.2,1.5,0.2,2.1
		c0.2,0.3,0.5,0.5,0.8,0.7c-0.4-0.1-0.7-0.1-1.1,0s-1.5,0.7-1.6,1.4s0.8,1.6,1.2,1.8c0.4,0.2,0.7,0.3,1.1,0.3
		c-0.4,0.1-0.7,0.3-1,0.5c-0.6,0.5-0.9,1.3-0.7,2c0.3,0.7,1.3,1,1.9,1l0,0c0.4,0,0.7-0.1,1.1-0.3c-0.3,0.3-0.5,0.6-0.6,0.9
		c-0.3,0.7-0.2,1.5,0.3,2.1c0.3,0.2,0.6,0.3,1,0.3s0.8-0.1,1.2-0.3c0.3-0.2,0.6-0.4,0.8-0.7c-0.1,0.4-0.1,0.7-0.1,1.1
		s0.5,1.6,1.2,1.8c0.5,0.1,1-0.1,1.4-0.4c-0.2,1.9-0.3,5-0.4,5.6c-0.5-0.8-1.2-1.5-2-2.1c-0.9-0.8-1.9-1.5-3-2.1
		c-4.1-2.5-5.8-3.6-6.8-5.8c-0.1-0.2-0.3-0.3-0.5-0.3l0,0c-0.2,0-0.4,0.2-0.4,0.3c-1.2,3.9,0.7,7.2,5.7,10l1.1,0.6l0.2,0.1
		c1.3,0.7,2.6,1.4,3.8,2.3c1.3,1.1,2.2,2.5,2.8,4.1c0.1,0.2,0.2,0.3,0.4,0.3l0,0c0.2,0,0.3-0.1,0.4-0.3c0.5-1.6,1.5-3,2.8-4.1
		c1.2-0.9,2.4-1.6,3.8-2.3l0.2-0.1l1.1-0.6C47.8,71.4,49.7,68.2,48.6,64.3L48.6,64.3z M36.7,68.2L36.7,68.2
		c-0.3-0.1-0.6-0.3-0.8-0.6c-0.4-1.3-0.7-2.6-0.8-4L35,62.8c0.3,0,0.5-0.1,0.8-0.2v0.1c0.8,2,1.5,3.8,1.4,4.6
		C37.1,67.6,37,67.9,36.7,68.2L36.7,68.2z M40.4,66.2L40.4,66.2c-0.1,0-0.2,0.1-0.3,0.1c-0.3,0-0.5,0-0.7-0.2c-1-0.9-1.8-2-2.5-3.2
		l-0.5-0.7c0.2-0.2,0.4-0.3,0.6-0.5l0,0c1.7,1.5,3.2,2.8,3.4,3.4C40.5,65.5,40.5,65.8,40.4,66.2L40.4,66.2z M42.3,61.9
		c0.2,0.2,0.4,0.6,0.5,0.9l0,0c-0.3,0.2-0.6,0.4-0.9,0.4l0,0c-1.3-0.4-2.5-0.9-3.7-1.6l-0.8-0.4c0.1-0.2,0.2-0.5,0.3-0.7h0.1
		C39.9,60.9,41.8,61.4,42.3,61.9L42.3,61.9z M42.5,58.1c0.3,0.1,0.6,0.3,0.8,0.6l0,0c-0.1,0.3-0.4,0.6-0.7,0.8
		c-1.3,0.3-2.7,0.4-4.1,0.3h-0.8l0,0c0-0.3,0-0.5-0.1-0.8h0.1C39.9,58.5,41.7,58,42.5,58.1L42.5,58.1z M40.8,54.7c0.1,0,0.2,0,0.3,0
		c0.3,0,0.5,0,0.8,0.2l0,0c0,0.3,0,0.7-0.2,1c-1.1,0.9-2.2,1.6-3.5,2.1l-0.7,0.4c-0.1-0.2-0.3-0.5-0.5-0.7l0.1-0.1
		C38.1,56.5,39.4,55.5,40.8,54.7z M35.8,56.7c0.8-2,1.4-3.8,1.9-4.3c0.3-0.2,0.6-0.3,0.9-0.4h0.1c0.2,0.3,0.3,0.6,0.3,1
		c-0.5,1.2-1.2,2.4-2.1,3.5l-0.5,0.7C36.2,57.1,35.9,56.9,35.8,56.7L35.8,56.7L35.8,56.7z M33.9,51.8c0.1-0.2,0.5-0.7,0.7-0.7l0,0
		c0.2,0,0.6,0.5,0.7,0.8c0.1,1.4,0,2.7-0.2,4.1l0,0L35,56.7c-0.1,0-0.3,0-0.4,0c-0.1,0-0.3,0-0.4,0l0,0
		C33.9,54.5,33.7,52.5,33.9,51.8L33.9,51.8z M34.6,57.7c1.2,0,2.1,1,2.1,2.1c0,1.2-1,2.1-2.1,2.1c-1.2,0-2.1-0.9-2.1-2.1
		C32.5,58.6,33.5,57.7,34.6,57.7z M30.6,52.1h0.1c0.3,0,0.6,0.2,0.9,0.3c0.7,1.2,1.3,2.4,1.7,3.7l0.3,0.8c-0.2,0.1-0.5,0.2-0.7,0.4
		v-0.1c-1.3-1.8-2.4-3.4-2.5-4.1C30.3,52.8,30.4,52.4,30.6,52.1L30.6,52.1z M27.7,55.9c-0.2-0.3-0.3-0.7-0.2-1l0,0
		c0.2-0.1,0.5-0.2,0.8-0.2c0.1,0,0.2,0,0.3,0c1.2,0.7,2.3,1.5,3.2,2.5l0.6,0.5c-0.2,0.2-0.3,0.4-0.4,0.7h-0.1
		C29.8,57.4,28.1,56.5,27.7,55.9L27.7,55.9z M26.7,59.5c-0.3-0.2-0.5-0.4-0.7-0.8l0,0c0.2-0.3,0.5-0.5,0.8-0.6c0.1,0,0.2,0,0.3,0
		c1.3,0.1,2.5,0.4,3.8,0.7l0.8,0.2c-0.1,0.2-0.1,0.5-0.1,0.8l0,0h-1.3C29.1,59.9,27.9,59.8,26.7,59.5L26.7,59.5z M27.5,63.2
		L27.5,63.2c-0.3,0-0.7-0.2-0.9-0.4l0,0c0-0.3,0.2-0.7,0.5-0.9c1.2-0.6,2.5-1,3.8-1.3l0.8-0.2c0.1,0.3,0.2,0.5,0.3,0.7l-0.2,0.1
		C30.4,62.1,29,62.8,27.5,63.2L27.5,63.2z M29.9,66.2c-0.2,0.1-0.5,0.2-0.7,0.2c-0.1,0-0.2,0-0.3,0l0,0c-0.1-0.3-0.1-0.7,0-1
		c0.8-1.1,1.8-2,2.8-2.8l0.7-0.6c0.2,0.2,0.4,0.4,0.6,0.5l-0.1,0.1C31.7,64.3,30.6,65.9,29.9,66.2L29.9,66.2z M32.6,68.2L32.6,68.2
		c-0.3-0.2-0.4-0.5-0.5-0.9c0.2-1.3,0.6-2.6,1.2-3.9l0.3-0.8c0.2,0.1,0.5,0.2,0.8,0.2v0.1c-0.3,2.2-0.5,4.1-0.9,4.7
		C33.3,67.9,33,68.1,32.6,68.2L32.6,68.2z M42.3,73.4L41,74.1c-1.4,0.7-2.7,1.5-3.9,2.4c-1.1,0.9-2,2.1-2.6,3.4
		c-0.6-1.3-1.5-2.5-2.6-3.4c-1.2-0.9-2.5-1.7-3.9-2.4l-1.3-0.7c-4-2.3-5.8-4.8-5.5-7.6c1.2,1.9,3.3,3.1,6.5,5
		c1.2,0.7,2.3,1.5,3.4,2.4c0.9,0.8,1.5,1.8,2,2.8c0.1,0.4,0.3,0.5,0.5,0.5S34,76.4,34,76c0.1-1.1,0.4-5.9,0.5-7.4
		c0.1,1.5,0.4,6.3,0.5,7.4c0,0.4,0.2,0.5,0.4,0.5s0.3-0.1,0.5-0.5c0.5-1.1,1.1-2,2-2.8c1-0.9,2.1-1.7,3.4-2.4c3.2-1.9,5.3-3.2,6.5-5
		C48.2,68.7,46.3,71.2,42.3,73.4z"/>
</g>
<g id="Layer_2_1_">
	<g>
		<g class="st0">
			<path class="st2" d="M3,7.7c2-0.1,3.4,0.1,3.5,0.8c0,0.3-0.1,0.6-0.2,1.1C6.1,10,6,10.5,5.8,11.1c-0.2,1-0.3,2.1,0,3.6
				c0.1,0.5,0.3,1.1,0.5,1.6c0,0,0,0.1,0.1,0.1l0,0c0.4,0.9,1,1.6,1.6,2.3c0.1,0.1,0.1,0.1,0.2,0.2l0,0c1,1,2.2,1.8,3.6,2.4
				c0.7,0.3,1.8,0.6,2.8,0.7c-0.4,1.8-0.8,2.6-2.1,2.7c-0.2,0-0.3,0-0.5,0l0,0c-0.4,0-0.8-0.1-1.1-0.3c-0.4-0.2-0.7,0.3-0.3,0.5
				s0.9,0.3,1.4,0.4c0.4,0,0.9,0,1.2,0h0.6c1.3-0.1,3-0.2,3.9,0.3c0.3,0.2,0.6-0.2,0.3-0.5c-0.6-0.4-1.7-0.5-2.6-0.5
				c0.2-0.2,0.4-0.3,0.7-0.5c0.5-0.5,0.9-1.1,1.3-1.9c1.3,0,2.6-0.3,3.7-0.7c0.6,0.4,1.2,0.6,1.9,0.8c1.9,0.6,4.2,0.4,5.5-0.3l0,0
				c1.4,0,2.8-0.4,3.5-1.1c0.2-0.2,0.2-0.5-0.2-0.4C30,20.9,28,20,25.6,17.9c2.2-1.2,3.8-3.1,4.2-5.4c-0.6-0.3-1.7-0.5-2.6-0.5
				c0.3-0.7,0.6-1.7,0.7-2.5c-3.4-0.7-7.2,0.4-9.4,2.7c-1.6-1.3-3.1-2-4.7-2.3c-0.1-0.2-0.1-0.4-0.2-0.7c-0.4-1.5-0.8-3-2.1-3.8
				c-1.1-0.8-2.5-1-3.6-0.6C7.1,5,6.4,5.5,6,6.3c-1.2,0-2.4,0.5-3.2,1C2.6,7.5,2.7,7.7,3,7.7z M7.7,15.2c-0.3,0.6-0.4,1.4-0.2,2.1
				c-1-1.3-1.1-2.9-0.5-4.1c0.5-1.2,1.6-2.1,3-2.6c0.2,0.8,0.4,1.5,0.6,2.1c-0.2,0-0.4,0.1-0.7,0.2C8.8,13.4,8.1,14.2,7.7,15.2z
				 M8.1,16.2c0.1-0.7,0.5-2,2.1-2.7c0.2-0.1,0.5-0.2,0.7-0.2c0.3,0.6,0.8,1.5,1.2,2.1c-0.5,0-1,0.2-1.4,0.4
				c-1.4,0.6-1.9,2.1-1.3,3.4C8.3,18.5,7.9,17.4,8.1,16.2z M12.1,20.7c-0.4-0.2-0.8-0.3-1.2-0.5l0,0c-0.8-0.4-1.2-1.1-1.2-1.9
				s0.5-1.5,1.2-1.9c0.5-0.2,1.2-0.3,1.6-0.3c0.8,0.9,1.8,1.6,2.9,2.1c-0.2,0.9-0.4,1.7-0.5,2.4c-0.1,0.3-0.1,0.5-0.2,0.8
				C13.8,21.3,12.7,21,12.1,20.7z M13.9,24.7c0.8-0.7,1.1-1.7,1.6-4c0.1-0.7,0.3-1.5,0.5-2.3c0.7,0.3,1.4,0.5,2.2,0.6
				C17.4,21.2,16.2,24.1,13.9,24.7z M17.8,21.6c0.3-0.6,0.6-1.4,0.8-2.2c0.6,0.7,1.3,1.3,1.9,1.7C19.7,21.4,18.8,21.5,17.8,21.6z
				 M23.2,21.7c-1.4-0.4-2.6-1.2-4-2.5c0.4,0,0.8,0,1.3,0s1-0.1,1.4-0.1c1.8,1.6,3.7,2.4,5.4,2.7C26.1,22.1,24.6,22.1,23.2,21.7z
				 M30.6,21c-2,0.7-4.9,0.3-7.9-2.1c0.8-0.2,1.6-0.4,2.3-0.8C27.1,20,28.9,20.9,30.6,21z M19.9,11.7c2.2-1.7,5.4-2.2,7.4-1.8
				c-0.1,0.7-0.4,1.4-0.7,2c-1.3,0-2.5,0.4-3.8,0.9c-1.4,0.6-2.3,1.4-3,2.5c-0.9-0.1-1.7-0.3-2.4-0.6C18,13.4,18.7,12.5,19.9,11.7z
				 M26.1,12.5c-1.2,1.7-3.2,2.8-5.6,2.8c0,0,0,0-0.1,0c0.6-0.8,1.4-1.5,2.5-2C24,12.9,25.1,12.6,26.1,12.5z M18.1,12.5
				c-0.5,0.5-0.9,1.2-1.3,1.9c-1.2-0.8-2.1-2-2.7-3.7c0-0.1-0.1-0.2-0.1-0.2C15.4,10.7,16.6,11.4,18.1,12.5z M7.9,7.2
				c0.5,0.2,1-0.3,0.7-0.8c0.3,0,0.6,0.2,0.6,0.6c0,0.2-0.1,0.4-0.3,0.5C8.6,7.7,8.9,8,9.3,7.8c0.3-0.2,0.5-0.5,0.5-0.9
				c0-0.7-0.6-1.1-1.2-1.1C8.3,5.8,8,5.9,7.8,6.1C7.7,6.2,7.7,6.3,7.6,6.5C7.3,6.4,7,6.3,6.7,6.3C7,5.8,7.5,5.4,8.1,5.2
				c1-0.3,2.1-0.1,3.1,0.5c1.1,0.7,1.4,2,1.8,3.5c0.1,0.5,0.3,1,0.4,1.6c1.1,3.4,3.6,5.1,7,5.1c2.8,0,5.1-1.3,6.3-3.4
				c0.8,0,1.5,0.1,2.2,0.3c-0.8,3.3-4.3,5.7-8.6,5.8c-3.3,0.1-6.3-1.2-8-3.6c-1.2-1.7-1.6-3.1-2-5.2c-1.9,0.5-3.8,1.7-4.3,4.1
				c-0.1-1,0-2,0.2-2.8c0.1-0.6,0.3-1,0.4-1.4C7,9.2,7.2,8.8,7.1,8.4C7,7.6,6.1,7.2,4.3,7.2C5.5,6.8,6.9,6.8,7.9,7.2z"/>
			<path class="st2" d="M36.9,7.7c2-0.1,3.4,0.1,3.5,0.8c0,0.3-0.1,0.6-0.2,1.1c-0.1,0.4-0.3,0.9-0.4,1.5c-0.2,1-0.3,2.1,0,3.6
				c0.1,0.5,0.3,1.1,0.5,1.6c0,0,0,0.1,0.1,0.1l0,0c0.4,0.8,0.9,1.6,1.6,2.3c0.1,0.1,0.1,0.1,0.2,0.2l0,0c1,1,2.2,1.8,3.6,2.4
				c0.7,0.3,1.8,0.6,2.8,0.7c-0.4,1.8-0.8,2.6-2.1,2.7c-0.2,0-0.3,0-0.5,0l0,0c-0.4,0-0.8-0.1-1.1-0.3c-0.4-0.2-0.7,0.3-0.3,0.5
				s0.9,0.3,1.4,0.4c0.4,0,0.9,0,1.2,0h0.6c1.3-0.1,3-0.2,3.9,0.3c0.3,0.2,0.6-0.2,0.3-0.5c-0.6-0.4-1.7-0.5-2.6-0.5
				c0.2-0.2,0.4-0.3,0.7-0.5c0.5-0.5,0.9-1.1,1.3-1.9c1.3,0,2.6-0.3,3.7-0.7c0.6,0.4,1.2,0.6,1.9,0.8c1.9,0.6,4.2,0.4,5.5-0.3l0,0
				c1.4,0,2.8-0.4,3.5-1.1c0.2-0.2,0.2-0.5-0.2-0.4C64,20.9,62,20,59.6,17.9c2.2-1.2,3.8-3.1,4.2-5.4c-0.6-0.3-1.7-0.5-2.6-0.5
				c0.3-0.7,0.6-1.7,0.7-2.5c-3.4-0.7-7.2,0.4-9.4,2.7c-1.6-1.3-3.1-2-4.7-2.3c-0.1-0.2-0.1-0.4-0.2-0.7c-0.4-1.5-0.8-3-2.1-3.8
				c-1.1-0.8-2.5-1-3.6-0.6C41,5.1,40.4,5.6,40,6.4c-1.2,0-2.4,0.5-3.2,1C36.4,7.5,36.5,7.7,36.9,7.7z M41.6,15.2
				c-0.3,0.6-0.4,1.4-0.2,2.1c-1-1.3-1.1-2.9-0.5-4.1c0.5-1.2,1.6-2.1,3-2.6c0.2,0.8,0.4,1.5,0.6,2.1c-0.2,0-0.4,0.1-0.7,0.2
				C42.6,13.4,41.9,14.2,41.6,15.2z M41.9,16.2c0.1-0.7,0.5-2,2.1-2.7c0.2-0.1,0.5-0.2,0.7-0.2c0.3,0.6,0.8,1.5,1.2,2.1
				c-0.5,0-1,0.2-1.4,0.4c-1.4,0.6-1.9,2.1-1.3,3.4C42.1,18.5,41.7,17.4,41.9,16.2z M45.9,20.7c-0.4-0.2-0.8-0.3-1.2-0.5l0,0
				c-0.8-0.4-1.2-1.1-1.2-1.9s0.5-1.5,1.2-1.9c0.5-0.2,1.2-0.3,1.6-0.3c0.8,0.9,1.8,1.6,2.9,2.1c-0.2,0.9-0.4,1.7-0.5,2.4
				c-0.1,0.3-0.1,0.5-0.2,0.8C47.6,21.3,46.5,21,45.9,20.7z M47.7,24.7c0.8-0.7,1.1-1.7,1.6-4c0.1-0.7,0.3-1.5,0.5-2.3
				c0.7,0.3,1.4,0.5,2.2,0.6C51.3,21.2,50,24.1,47.7,24.7z M51.6,21.6c0.3-0.6,0.6-1.4,0.8-2.2c0.6,0.7,1.3,1.3,1.9,1.7
				C53.5,21.4,52.6,21.5,51.6,21.6z M57,21.7c-1.4-0.4-2.6-1.2-4-2.5c0.4,0,0.8,0,1.3,0s1-0.1,1.4-0.1c1.8,1.6,3.7,2.4,5.4,2.7
				C59.9,22.1,58.4,22.1,57,21.7z M64.4,21c-2,0.7-4.9,0.3-7.9-2.1c0.8-0.2,1.6-0.4,2.3-0.8C60.9,20,62.7,20.9,64.4,21z M53.7,11.7
				C55.9,10,59,9.5,61,9.9c-0.1,0.7-0.4,1.4-0.7,2c-1.3,0-2.5,0.4-3.8,0.9c-1.4,0.6-2.3,1.4-3,2.5c-0.9-0.1-1.7-0.3-2.4-0.6
				C51.8,13.4,52.5,12.5,53.7,11.7z M59.9,12.5c-1.2,1.7-3.2,2.8-5.6,2.8c0,0,0,0-0.1,0c0.6-0.8,1.4-1.5,2.5-2
				C57.8,12.9,58.9,12.6,59.9,12.5z M51.9,12.5c-0.5,0.5-0.9,1.2-1.3,1.9c-1.2-0.8-2.1-2-2.7-3.7c0-0.1-0.1-0.2-0.1-0.2
				C49.2,10.7,50.4,11.4,51.9,12.5z M41.7,7.2c0.5,0.2,1-0.3,0.7-0.8C42.7,6.4,43,6.6,43,7c0,0.2-0.1,0.4-0.3,0.5
				c-0.3,0.2,0,0.6,0.4,0.4c0.3-0.2,0.5-0.5,0.5-0.9c0-0.7-0.6-1.1-1.2-1.1c-0.3,0-0.6,0.1-0.8,0.3c-0.1,0.1-0.2,0.3-0.2,0.4
				c-0.3-0.1-0.6-0.1-0.9-0.2c0.3-0.5,0.8-0.9,1.4-1.1C42.9,5,44,5.2,45,5.8c1.1,0.7,1.4,2,1.8,3.5c0.1,0.5,0.3,1,0.4,1.6
				c1.1,3.4,3.6,5.1,7,5.1c2.8,0,5.1-1.3,6.3-3.4c0.8,0,1.5,0.1,2.2,0.3c-0.8,3.3-4.3,5.7-8.6,5.8c-3.3,0.1-6.3-1.2-8-3.6
				c-1.2-1.7-1.6-3.1-2-5.2c-1.9,0.5-3.8,1.7-4.3,4.1c-0.1-1,0-2,0.2-2.8c0.1-0.6,0.3-1,0.4-1.4c0.2-0.5,0.3-0.9,0.3-1.4
				c-0.1-0.8-1-1.2-2.8-1.2C39.3,6.8,40.7,6.8,41.7,7.2z"/>
		</g>
		<path class="st3" d="M0.2,0.3v34.2c0,20,12.4,38.3,34.1,50.3l0.2,0.1l0.2-0.1c21.7-11.9,34.1-30.3,34.1-50.3V0.3H0.2z M60.1,60.9
			L34.7,42.3c-0.1-0.1-0.3-0.1-0.4,0L8.8,60.9c-2.9-4.6-5.1-9.5-6.4-14.6l32.1-23.4l32.1,23.3C65.2,51.3,63.1,56.2,60.1,60.9z
			 M34.5,84.1C23.5,78,14.9,70.2,9.2,61.5l25.3-18.4l25.3,18.4C54,70.2,45.4,78,34.5,84.1z M68,34.5c0,3.7-0.4,7.4-1.3,10.9
			l-32-23.3c-0.1-0.1-0.3-0.1-0.4,0L2.2,45.5c-0.9-3.6-1.3-7.3-1.3-11V1H68V34.5z"/>
		<g class="st0">
			<path class="st2" d="M30.1,40c-0.1,0-0.1,0-0.2-0.1s-0.1-0.2-0.1-0.3l1.3-4.1l-3.5-2.6c-0.1-0.1-0.1-0.2-0.1-0.3s0.2-0.2,0.3-0.2
				h4.4l1.4-4.1c0-0.1,0.2-0.2,0.3-0.2l0,0c0.1,0,0.2,0.1,0.3,0.2l1.3,4.1h4.4c0.1,0,0.2,0.1,0.3,0.2c0,0.1,0,0.3-0.1,0.3l-3.5,2.6
				l1.3,4.1c0,0.1,0,0.3-0.1,0.3c-0.1,0.1-0.2,0.1-0.4,0l-3.5-2.6l-3.5,2.6C30.2,40,30.1,40,30.1,40z M28.7,32.9l3,2.2
				c0.1,0.1,0.1,0.2,0.1,0.3l-1.1,3.5l3-2.2c0.1-0.1,0.2-0.1,0.4,0l3,2.2L36,35.4c0-0.1,0-0.3,0.1-0.3l3-2.2h-3.7
				c-0.1,0-0.2-0.1-0.3-0.2L34,29.2l-1.1,3.5c0,0.1-0.2,0.2-0.3,0.2H28.7z"/>
			<path class="st2" d="M20.1,50.9c-0.1,0-0.1,0-0.2-0.1l-3.5-2.6l-3.5,2.6c-0.1,0.1-0.2,0.1-0.4,0c-0.1-0.1-0.1-0.2-0.1-0.3
				l1.3-4.2l-3.5-2.6c-0.1-0.1-0.1-0.2-0.1-0.3s0.2-0.2,0.3-0.2h4.4l1.3-4.2c0.1-0.2,0.5-0.2,0.6,0l1.3,4.2h4.4
				c0.1,0,0.2,0.1,0.3,0.2c0,0.1,0,0.3-0.1,0.3l-3.5,2.6l1.3,4.2c0,0.1,0,0.3-0.1,0.3C20.3,50.9,20.2,50.9,20.1,50.9z M11.4,43.8
				l3,2.1c0.1,0.1,0.1,0.2,0.1,0.3l-1.1,3.5l3-2.2c0.1-0.1,0.2-0.1,0.4,0l3,2.2l-1.1-3.5c0-0.1,0-0.3,0.1-0.3l3-2.1h-3.7
				c-0.1,0-0.2-0.1-0.3-0.2l-1.1-3.5l-1.1,3.5c0,0.1-0.2,0.2-0.3,0.2H11.4z"/>
			<path class="st2" d="M47.4,50.9c-0.1,0-0.1,0-0.2-0.1c-0.1-0.1-0.1-0.2-0.1-0.3l1.3-4.2l-3.5-2.6c-0.1-0.1-0.1-0.2-0.1-0.3
				s0.2-0.2,0.3-0.2h4.4l1.3-4.2c0-0.1,0.2-0.2,0.3-0.2l0,0c0.1,0,0.2,0.1,0.3,0.2l1.3,4.2h4.4c0.1,0,0.2,0.1,0.3,0.2
				c0,0.1,0,0.3-0.1,0.3l-3.5,2.6l1.3,4.2c0,0.1,0,0.3-0.1,0.3c-0.1,0.1-0.2,0.1-0.4,0l-3.5-2.6l-3.5,2.6
				C47.5,50.9,47.5,50.9,47.4,50.9z M51.1,47.6c0.1,0,0.1,0,0.2,0.1l3,2.2l-1.1-3.5c0-0.1,0-0.3,0.1-0.3l3-2.1h-3.7
				c-0.1,0-0.2-0.1-0.3-0.2l-1.1-3.5L50,43.6c0,0.1-0.2,0.2-0.3,0.2H46l3,2.1c0.1,0.1,0.1,0.2,0.1,0.3L48,49.8L51.1,47.6
				C51,47.6,51,47.6,51.1,47.6z"/>
		</g>
	</g>
	<g class="st4">
		<path class="st5" d="M80.6,17.3l0.9-1.7c1.5,1,2.9,1.6,4.3,1.6c1.1,0,1.9-0.3,2.5-0.9s0.8-1.3,0.8-2.2c0-0.5-0.1-1-0.3-1.4
			s-0.5-0.8-1-1.1s-1.2-0.8-2.2-1.2c-1.5-0.7-2.6-1.4-3.2-2.1c-0.6-0.7-0.9-1.6-0.9-2.7c0-1.3,0.5-2.4,1.5-3.4s2.3-1.4,3.9-1.4
			c1.4,0,2.7,0.4,3.9,1.2l-0.9,1.6c-1-0.7-2.1-1.1-3.2-1.1c-1.1,0-1.9,0.3-2.5,0.8c-0.6,0.6-0.9,1.3-0.9,2.1c0,0.6,0.2,1.2,0.7,1.7
			c0.5,0.5,1.2,1,2.3,1.5c1.8,0.8,3.1,1.6,3.7,2.3c0.7,0.7,1,1.7,1,2.9c0,1.4-0.5,2.6-1.5,3.6s-2.3,1.4-3.8,1.4
			C84,18.9,82.3,18.4,80.6,17.3z"/>
		<path class="st5" d="M94,18.6V1h10.3v1.7h-8.4v6.1h7.5v1.7h-7.5v6.3h8.4v1.7H94z"/>
		<path class="st5" d="M106,18.6l7.9-17.9h0.3l7.9,17.9H120l-2.1-4.9h-7.9l-2.1,4.9H106z M110.8,12.1h6.5L114,4.6L110.8,12.1z"/>
		<path class="st5" d="M122.8,17.3l0.9-1.7c1.5,1,2.9,1.6,4.3,1.6c1.1,0,1.9-0.3,2.5-0.9s0.8-1.3,0.8-2.2c0-0.5-0.1-1-0.3-1.4
			s-0.5-0.8-1-1.1s-1.2-0.8-2.2-1.2c-1.5-0.7-2.6-1.4-3.2-2.1c-0.6-0.7-0.9-1.6-0.9-2.7c0-1.3,0.5-2.4,1.5-3.4s2.3-1.4,3.9-1.4
			c1.4,0,2.7,0.4,3.9,1.2l-0.9,1.6c-1-0.7-2.1-1.1-3.2-1.1c-1.1,0-1.9,0.3-2.5,0.8c-0.6,0.6-0.9,1.3-0.9,2.1c0,0.6,0.2,1.2,0.7,1.7
			c0.5,0.5,1.2,1,2.3,1.5c1.8,0.8,3.1,1.6,3.7,2.3c0.7,0.7,1,1.7,1,2.9c0,1.4-0.5,2.6-1.5,3.6s-2.3,1.4-3.8,1.4
			C126.2,18.9,124.5,18.4,122.8,17.3z"/>
		<path class="st5" d="M135.3,9.8c0-1.3,0.2-2.5,0.7-3.6s1.1-2.1,1.9-2.9s1.7-1.4,2.8-1.9s2.2-0.7,3.4-0.7s2.3,0.2,3.4,0.7
			s2,1.1,2.8,1.9s1.4,1.8,1.9,2.9c0.5,1.1,0.7,2.3,0.7,3.6c0,1.3-0.2,2.5-0.7,3.6c-0.5,1.1-1.1,2.1-1.9,2.9s-1.7,1.4-2.8,1.9
			s-2.2,0.7-3.4,0.7s-2.3-0.2-3.4-0.7s-2-1.1-2.8-1.9s-1.4-1.8-1.9-2.9S135.3,11.1,135.3,9.8z M138.3,6.1c-0.6,1.1-0.8,2.4-0.8,3.7
			s0.3,2.6,0.8,3.7s1.4,2,2.4,2.7s2.2,1,3.5,1c1.3,0,2.4-0.3,3.4-1s1.8-1.5,2.4-2.7s0.8-2.4,0.8-3.7s-0.3-2.6-0.8-3.7
			s-1.4-2-2.4-2.7s-2.2-1-3.4-1c-1.3,0-2.4,0.3-3.5,1S138.8,5,138.3,6.1z"/>
		<path class="st5" d="M156.1,18.6V0.8l0.4-0.1l11.3,13.5V1h1.9v17.9l-0.2,0.1L158,5.3v13.3H156.1z"/>
		<path class="st5" d="M172.2,5.5c0.8-0.7,1.3-1.5,1.5-2.4c-0.4,0-0.7-0.2-0.9-0.4c-0.2-0.2-0.3-0.5-0.3-0.8c0-0.3,0.1-0.6,0.3-0.8
			c0.2-0.2,0.5-0.4,0.8-0.4c0.4,0,0.7,0.1,0.9,0.4s0.3,0.6,0.3,1.1c0,0.6-0.2,1.3-0.6,1.9s-1,1.3-1.8,1.7L172.2,5.5z"/>
		<path class="st5" d="M176.3,17.3l0.9-1.7c1.5,1,2.9,1.6,4.3,1.6c1.1,0,1.9-0.3,2.5-0.9s0.8-1.3,0.8-2.2c0-0.5-0.1-1-0.3-1.4
			s-0.5-0.8-1-1.1s-1.2-0.8-2.2-1.2c-1.5-0.7-2.6-1.4-3.2-2.1c-0.6-0.7-0.9-1.6-0.9-2.7c0-1.3,0.5-2.4,1.5-3.4s2.3-1.4,3.9-1.4
			c1.4,0,2.7,0.4,3.9,1.2l-0.9,1.6c-1-0.7-2.1-1.1-3.2-1.1c-1.1,0-1.9,0.3-2.5,0.8c-0.6,0.6-0.9,1.3-0.9,2.1c0,0.6,0.2,1.2,0.7,1.7
			c0.5,0.5,1.2,1,2.3,1.5c1.8,0.8,3.1,1.6,3.7,2.3c0.7,0.7,1,1.7,1,2.9c0,1.4-0.5,2.6-1.5,3.6s-2.3,1.4-3.8,1.4
			C179.7,18.9,178,18.4,176.3,17.3z"/>
	</g>
	<g class="st4">
		<path class="st5" d="M82.2,36.6c-0.5-1.1-0.8-2.4-0.8-3.7s0.3-2.6,0.8-3.7c0.5-1.2,1.2-2.1,2.1-2.9s1.8-1.4,2.9-1.8
			s2.2-0.7,3.4-0.7c1.4,0,2.5,0.2,3.5,0.5s2,0.9,3,1.6l-1,1.5c-0.8-0.6-1.7-1.1-2.7-1.4s-1.9-0.5-2.9-0.5c-1.1,0-2.1,0.2-3,0.6
			s-1.7,0.9-2.3,1.6c-0.6,0.7-1.1,1.5-1.4,2.3c-0.3,0.9-0.5,1.8-0.5,2.8c0,1.4,0.3,2.6,1,3.7s1.5,2,2.7,2.7s2.4,1,3.7,1
			c1.7,0,3.2-0.4,4.5-1.2v-4.3h-4.7v-1.8h6.6v6.9c-1.9,1.4-4,2.1-6.4,2.1c-1.2,0-2.4-0.2-3.5-0.7s-2.1-1-3-1.8S82.7,37.7,82.2,36.6z
			"/>
		<path class="st5" d="M100.6,41.6V24.2c1.5-0.2,2.8-0.3,4.1-0.3c1.1,0,2.1,0.1,3,0.4c0.9,0.3,1.6,0.6,2.1,1.1s1,1,1.3,1.7
			c0.3,0.6,0.4,1.3,0.4,2.1c0,1.2-0.3,2.3-1,3.2c-0.7,0.9-1.6,1.5-2.9,1.9l5.1,7.3h-2.3l-4.7-6.9c-0.5,0-0.9,0-1.2,0
			c-0.6,0-1.2,0-2,0v6.9H100.6z M102.5,33c0.6,0.1,1.4,0.1,2.1,0.1c1.6,0,2.8-0.3,3.5-1s1.2-1.6,1.2-2.8c0-1.1-0.4-1.9-1.2-2.6
			s-1.9-1-3.2-1c-1.1,0-1.9,0.1-2.4,0.2V33z"/>
		<path class="st5" d="M114.8,41.6V24h10.3v1.7h-8.4v6.1h7.5v1.7h-7.5v6.3h8.4v1.7H114.8z"/>
		<path class="st5" d="M128.6,41.6V24h10.3v1.7h-8.4v6.1h7.5v1.7h-7.5v6.3h8.4v1.7H128.6z"/>
		<path class="st5" d="M141,25.7V24h13.7v1.7h-5.9v15.9h-1.9V25.7H141z"/>
		<path class="st5" d="M157.3,41.6V24h1.9v17.6H157.3z"/>
		<path class="st5" d="M163.2,41.6V23.8l0.4-0.1l11.3,13.5V24h1.9v17.9l-0.2,0.1l-11.4-13.7v13.3H163.2z"/>
		<path class="st5" d="M180.8,36.6c-0.5-1.1-0.8-2.4-0.8-3.7s0.3-2.6,0.8-3.7c0.5-1.2,1.2-2.1,2.1-2.9s1.8-1.4,2.9-1.8
			s2.2-0.7,3.4-0.7c1.4,0,2.5,0.2,3.5,0.5s2,0.9,3,1.6l-1,1.5c-0.8-0.6-1.7-1.1-2.7-1.4s-1.9-0.5-2.9-0.5c-1.1,0-2.1,0.2-3,0.6
			s-1.7,0.9-2.3,1.6c-0.6,0.7-1.1,1.5-1.4,2.3c-0.3,0.9-0.5,1.8-0.5,2.8c0,1.4,0.3,2.6,1,3.7s1.5,2,2.7,2.7s2.4,1,3.7,1
			c1.7,0,3.2-0.4,4.5-1.2v-4.3h-4.7v-1.8h6.6v6.9c-1.9,1.4-4,2.1-6.4,2.1c-1.2,0-2.4-0.2-3.5-0.7s-2.1-1-3-1.8
			S181.3,37.7,180.8,36.6z"/>
		<path class="st5" d="M197.9,40.3l0.9-1.7c1.5,1,2.9,1.6,4.3,1.6c1.1,0,1.9-0.3,2.5-0.9s0.8-1.3,0.8-2.2c0-0.5-0.1-1-0.3-1.4
			s-0.5-0.8-1-1.1s-1.2-0.8-2.2-1.2c-1.5-0.7-2.6-1.4-3.2-2.1c-0.6-0.7-0.9-1.6-0.9-2.7c0-1.3,0.5-2.4,1.5-3.4s2.3-1.4,3.9-1.4
			c1.4,0,2.7,0.4,3.9,1.2l-0.9,1.6c-1-0.7-2.1-1.1-3.2-1.1c-1.1,0-1.9,0.3-2.5,0.8c-0.6,0.6-0.9,1.3-0.9,2.1c0,0.6,0.2,1.2,0.7,1.7
			c0.5,0.5,1.2,1,2.3,1.5c1.8,0.8,3.1,1.6,3.7,2.3c0.7,0.7,1,1.7,1,2.9c0,1.4-0.5,2.6-1.5,3.6s-2.3,1.4-3.8,1.4
			C201.3,41.9,199.6,41.4,197.9,40.3z"/>
	</g>
	<g>
		<polygon class="st6" points="36.1,79.6 33.2,79.6 32.3,75.3 37,75.3 		"/>
		<line class="st7" x1="24" y1="73.8" x2="45.3" y2="73.7"/>
		<line class="st7" x1="30.6" y1="65.8" x2="24" y2="73.8"/>
		<line class="st7" x1="39.2" y1="65.8" x2="45.3" y2="73.7"/>
		<line class="st7" x1="39.2" y1="65.8" x2="43.1" y2="66.1"/>
		<line class="st7" x1="43.1" y1="66.1" x2="37.9" y2="60"/>
		<line class="st7" x1="37.9" y1="60" x2="41" y2="60.2"/>
		<line class="st7" x1="41" y1="60.2" x2="34.7" y2="52.3"/>
		<line class="st7" x1="34.7" y1="52.3" x2="28.4" y2="60.2"/>
		<line class="st7" x1="28.4" y1="60.2" x2="31.4" y2="59.9"/>
		<line class="st7" x1="31.6" y1="59.9" x2="26.3" y2="65.8"/>
		<line class="st7" x1="26.3" y1="66.1" x2="30.6" y2="65.8"/>
		<circle class="st7" cx="33.1" cy="61.6" r="0.7"/>
		<circle class="st7" cx="36" cy="58.2" r="0.7"/>
		<path class="st7" d="M35.3,66.1c0,0.4-0.3,0.7-0.7,0.7s-0.7-0.3-0.7-0.7c0-0.4,0.3-0.7,0.7-0.7S35.3,65.7,35.3,66.1z"/>
		<circle class="st7" cx="29.7" cy="70.8" r="0.7"/>
		<path class="st7" d="M39.2,69.3c0,0.4-0.3,0.7-0.7,0.7s-0.7-0.3-0.7-0.7c0-0.4,0.3-0.7,0.7-0.7C38.9,68.6,39.2,68.9,39.2,69.3z"/>
		<polygon class="st8" points="36.1,52 34.7,51.3 33.3,52.1 33.5,50.5 32.3,49.4 33.9,49.2 34.6,47.7 35.3,49.1 36.9,49.3 
			35.8,50.4 		"/>
	</g>
	<g>
		<path class="st7" d="M22.1,45.7c0,2.6-2.1,4.7-4.7,4.7s-4.7-2.1-4.7-4.7c0-2.6,2.1-4.7,4.7-4.7S22.1,43.1,22.1,45.7z"/>
		<line class="st7" x1="12.9" y1="44.2" x2="21.8" y2="44.2"/>
		<line class="st7" x1="12.9" y1="47.2" x2="21.8" y2="47.2"/>
		<rect x="16.7" y="39.4" class="st7" width="1.4" height="1.6"/>
		<line class="st7" x1="17.4" y1="39.2" x2="17.4" y2="38"/>
	</g>
	<g>
		<path class="st7" d="M39.4,34.8c0,2.6-2.1,4.7-4.7,4.7c-2.6,0-4.7-2.1-4.7-4.7c0-2.6,2.1-4.7,4.7-4.7
			C37.3,30.1,39.4,32.2,39.4,34.8z"/>
		<rect x="34" y="28.5" class="st7" width="1.4" height="1.6"/>
		<line class="st7" x1="34.7" y1="28.3" x2="34.7" y2="27.1"/>
		<polygon class="st7" points="34.7,32.5 35.4,33.9 36.9,34.1 35.8,35.2 36.1,36.8 34.7,36 33.3,36.8 33.5,35.2 32.4,34.1 34,33.9 
					"/>
	</g>
	<g>
		<g>
			<path class="st7" d="M56.7,45.7c0,2.6-2.1,4.7-4.7,4.7c-2.6,0-4.7-2.1-4.7-4.7c0-2.6,2.1-4.7,4.7-4.7
				C54.6,41,56.7,43.1,56.7,45.7z"/>
			<path class="st7" d="M56,43.2"/>
			<line class="st6" x1="47.4" y1="46.4" x2="49.4" y2="45"/>
			<rect x="51.4" y="39.4" class="st7" width="1.4" height="1.6"/>
			<line class="st7" x1="52" y1="39.2" x2="52" y2="37.9"/>
		</g>
		<line class="st6" x1="49.4" y1="45" x2="51.8" y2="46.4"/>
		<line class="st6" x1="51.8" y1="46.4" x2="54" y2="44.9"/>
		<line class="st6" x1="54" y1="44.9" x2="56.6" y2="46.1"/>
		<line class="st6" x1="47.4" y1="47.6" x2="49.4" y2="46.1"/>
		<line class="st6" x1="49.4" y1="46.1" x2="51.8" y2="47.6"/>
		<line class="st6" x1="51.8" y1="47.6" x2="54.1" y2="46.1"/>
		<line class="st6" x1="54.1" y1="46.1" x2="56.6" y2="47.2"/>
	</g>
	<g>
		<g>
			<path class="st7" d="M13.2,8.4C17,5.6,22.3,6.2,25,9.9"/>
			<path class="st7" d="M23,21.6c3.8-2.8,4.7-8.1,2-11.7"/>
			<path class="st7" d="M15.7,11.7c1.9-1.4,4.5-1.1,5.9,0.7"/>
			<path class="st7" d="M20.7,18.4c1.9-1.4,2.3-4.1,0.9-6"/>
			<line class="st7" x1="20.7" y1="18.4" x2="8.3" y2="27.5"/>
			<line class="st7" x1="23" y1="21.6" x2="10.7" y2="30.8"/>
			<path class="st7" d="M13.2,8.4c-1.4,1,1,4.4,2.5,3.3"/>
			<path class="st7" d="M8.3,27.5c-1.4,1,1,4.4,2.5,3.3"/>
		</g>
		<line class="st7" x1="10.3" y1="26" x2="14.2" y2="28"/>
		<line class="st7" x1="14.1" y1="23.2" x2="18" y2="25"/>
		<line class="st7" x1="18" y1="20.3" x2="22.1" y2="22.1"/>
		<line class="st7" x1="21.5" y1="17.6" x2="25.6" y2="18.7"/>
		<line class="st7" x1="22.4" y1="14.3" x2="26.6" y2="13.9"/>
		<line class="st6" x1="21.3" y1="12" x2="24.8" y2="9.4"/>
		<line class="st7" x1="19.1" y1="10.5" x2="20.2" y2="6.8"/>
		<line class="st7" x1="16.5" y1="11.2" x2="15.3" y2="7.3"/>
	</g>
	<g>
		<path class="st7" d="M50.5,21.7c-0.6,0.7-1.6,0.7-2.3,0.2c-0.7-0.6-0.7-1.6-0.2-2.3c0.6-0.7,1.6-0.7,2.3-0.2
			C51,20,51.1,21,50.5,21.7z"/>
		<path class="st7" d="M50.3,25.1c-0.6,0.7-1.6,0.7-2.3,0.2c-0.7-0.6-0.7-1.6-0.2-2.3c0.6-0.7,1.6-0.7,2.3-0.2
			C50.8,23.4,50.9,24.4,50.3,25.1z"/>
		<path class="st7" d="M47.4,23.3c-0.6,0.7-1.6,0.7-2.3,0.2c-0.7-0.6-0.7-1.6-0.2-2.3c0.6-0.7,1.6-0.7,2.3-0.2
			C48,21.6,48,22.7,47.4,23.3z"/>
		<path class="st7" d="M54.6,26.9c0.1-2.2,1.4-3.2,3.1-3.2"/>
		<path class="st7" d="M60.6,26.6c0.1-1.7-1.1-2.8-2.9-2.9"/>
		<path class="st7" d="M60.6,26.6c0.1-2.5,1.9-4.3,4.2-4.2"/>
		<path class="st7" d="M60.6,18.5c-0.1,2,1.9,3.8,4.2,3.8"/>
		<path class="st7" d="M60.6,18.5c-0.1,1.8-1.6,3.1-3.3,3"/>
		<path class="st7" d="M54.4,18.2c-0.1,1.5,0.2,3.2,2.9,3.3"/>
		<path class="st7" d="M54.4,18.2c-0.1,2-2.6,4.2-4.3,4.2"/>
		<path class="st7" d="M54.6,26.9c0.1-1.8-1-4-4.6-4.2"/>
		<path class="st7" d="M50.5,15.5c-2,0.3-3.2-0.6-3.5-2.3"/>
		<path class="st7" d="M49.1,10.1c-1.5,0.2-2.3,1.6-2.1,3.2"/>
		<path class="st7" d="M49.1,10.1c-2.4,0.4-4.3-0.9-4.6-3.1"/>
		<path class="st7" d="M41.7,11.6c1.9-0.3,3.1-2.4,2.7-4.6"/>
		<path class="st7" d="M41.7,11.6c1.7-0.3,3.1,0.9,3.4,2.5"/>
		<path class="st7" d="M42.6,17.4c1.4-0.2,2.9-0.8,2.5-3.3"/>
		<path class="st7" d="M42.6,17.4c1.9-0.3,4.4,1.6,4.6,3.2"/>
		<path class="st7" d="M50.5,15.5c-1.7,0.2-3.5,1.6-3,5"/>
	</g>
</g>
</svg>
